<?xml version="1.0" encoding="utf-8"?>
<!-- Generator: Adobe Illustrator 15.0.0, SVG Export Plug-In . SVG Version: 6.00 Build 0)  -->
<!DOCTYPE svg PUBLIC "-//W3C//DTD SVG 1.1//EN" "http://www.w3.org/Graphics/SVG/1.1/DTD/svg11.dtd">
<svg version="1.1" xmlns="http://www.w3.org/2000/svg" xmlns:xlink="http://www.w3.org/1999/xlink" x="0px" y="0px"
	 width="841.89px" height="595.28px" viewBox="0 0 841.89 595.28" enable-background="new 0 0 841.89 595.28" xml:space="preserve">
<g id="Layer_1" display="none">
	
		<rect x="883.5" y="51.522" display="inline" stroke="#000000" stroke-width="6.4113" stroke-linecap="square" stroke-linejoin="round" stroke-miterlimit="10" width="440.242" height="543.891"/>
	
		<rect x="-11.813" y="20" display="inline" stroke="#000000" stroke-width="6.5945" stroke-linecap="square" stroke-linejoin="round" stroke-miterlimit="10" width="440.242" height="575.413"/>
	<path stroke="#000000" stroke-width="4" stroke-linecap="square" stroke-linejoin="round" stroke-miterlimit="10" d="
		M466.784,139.534v-0.504h2.88v3.384h-14.833v-2.88H466.784z M458.647,136.149h-2.88V92.01h2.88V136.149z M485.432,128.949
		c-2.016,0-4.393-0.072-5.832-0.072l-2.088,13.537h-3.816l0.432-2.88h0.504l2.088-13.465H485L485.432,128.949z M482.408,108.859
		l-1.945,13.753h-3.313l1.873-12.241l1.8-14.905L482.408,108.859z M483.416,92.01h2.447l7.85,50.404h-3.744l-0.433-2.88h1.296
		L483.416,92.01z M512.863,139.534v-0.648h2.881v3.528h-18.865v-2.88H512.863z M515.528,94.746l-14.042,41.26h-3.455l14.904-43.996
		h2.593V94.746z M508.184,95.394h-9.648v-2.88h10.656L508.184,95.394z M520.494,91.938h2.16l4.752,18.506l1.152,5.472l-1.152,5.329
		l-2.88-13.681L520.494,91.938z M529.279,126.933l8.928-34.995h3.673l-9.721,37.875v12.601h-3.744v-2.88h0.864V126.933z
		 M432.945,190.565c0,5.616-3.889,7.849-7.488,7.849h-11.521v-2.88h8.641c0.936,0,1.944-0.144,2.881-0.504
		c2.376,0,3.24-1.584,3.6-3.024c0.432-0.576,1.008-2.52,1.008-4.32v-3.528c0-1.152-0.144-2.304-0.647-3.384
		c2.521,1.368,3.528,3.888,3.528,6.265V190.565z M417.752,151.466v25.058h-2.88v-27.938h5.185c3.241,0.072,4.968,1.368,5.76,3.384
		c-0.792-0.36-1.8-0.504-2.88-0.504H417.752z M426.177,183.004c-0.576-0.144-1.152-0.288-1.728-0.288h-6.697v9.433h-2.88v-12.313
		h6.697C423.873,179.908,425.673,180.917,426.177,183.004z M428.553,149.45c2.809,1.656,4.32,4.752,4.32,8.641l-0.072,14.401
		c0,2.736-1.296,5.617-3.744,7.561c-0.504-0.792-1.296-1.584-2.304-2.088c1.08-0.936,1.944-2.376,2.304-4.104
		c0.576-1.296,0.864-2.736,0.864-4.249l0.072-14.401C429.993,152.978,429.488,151.034,428.553,149.45z M450.08,184.949
		c-2.017,0-4.393-0.072-5.833-0.072l-2.088,13.537h-3.816l0.433-2.88h0.504l2.088-13.465h8.281L450.08,184.949z M447.056,164.859
		l-1.944,13.753h-3.313l1.873-12.241l1.799-14.905L447.056,164.859z M448.063,148.01h2.448l7.849,50.404h-3.744l-0.433-2.88h1.297
		L448.063,148.01z M464.406,185.453v-2.016h2.881v4.896c-0.072,1.368,0.145,2.736,0.648,3.888
		C465.486,191.069,464.263,188.333,464.406,185.453z M474.703,151.394c-0.576-0.144-1.151-0.288-1.8-0.288
		c-3.24,0-5.4,2.232-5.4,6.913v9.937c0.072,0.937,0.216,1.729,0.647,2.448c-1.871-1.368-3.384-2.952-3.527-5.328v-9.937
		c0-1.224,0.144-2.304,0.432-3.168c0.864-1.656,2.305-2.952,4.033-3.672c0.359-0.072,0.575-0.072,0.936-0.072
		C472.399,148.226,473.983,149.45,474.703,151.394z M465.199,194.669c1.584,0.936,3.456,1.44,5.473,1.44
		c1.367,0,2.52-0.216,3.6-0.576c2.664-0.216,4.32-2.016,4.896-4.608c0.792-1.584,1.152-3.384,1.152-5.329v-3.672
		c0-1.368-0.36-2.592-0.936-3.6c2.231,1.728,3.815,3.744,3.815,6.48v3.672c0,5.617-3.097,10.513-9.648,10.513
		C469.879,198.99,466.927,197.334,465.199,194.669z M476.216,180.269l-2.16-1.224l-0.937-0.504l-0.72-0.432
		c-2.593-1.44-5.4-3.024-7.128-5.473c1.512,1.152,3.312,2.088,4.968,3.024C472.832,177.172,475.207,178.252,476.216,180.269z
		 M477.367,148.874c2.881,1.656,4.465,5.041,4.465,9.001v6.553h-3.672v-2.88h0.792v-6.553
		C478.952,152.69,478.376,150.53,477.367,148.874z M491.55,151.322h-4.177v-2.88h4.177V151.322z M505.087,151.322h-6.984v47.092
		h-3.673v-2.88h0.793v-47.092h6.984v-0.432h2.88V151.322z M520.35,184.949c-2.016,0-4.392-0.072-5.832-0.072l-2.088,13.537h-3.816
		l0.432-2.88h0.504l2.089-13.465h8.28L520.35,184.949z M517.326,164.859l-1.944,13.753h-3.313l1.872-12.241l1.801-14.905
		L517.326,164.859z M518.334,148.01h2.448l7.849,50.404h-3.744l-0.432-2.88h1.296L518.334,148.01z M546.918,185.453
		c-0.432-0.144-0.936-0.216-1.439-0.216h-7.129v13.177h-3.816v-2.88h0.936v-13.177h7.129
		C544.902,182.356,546.486,183.581,546.918,185.453z M535.469,148.514h5.329c2.808,0,4.896,1.656,5.4,3.312
		c-0.72-0.288-1.584-0.432-2.521-0.432h-5.328v27.578h-2.881V148.514z M549.223,149.378c2.592,1.512,4.248,4.32,4.176,8.856v16.777
		c0,2.665-1.367,5.833-3.744,7.633c-0.576-0.792-1.367-1.584-2.376-2.16c1.152-1.008,2.089-2.448,2.376-4.393
		c0.576-1.296,0.864-2.664,0.864-3.96v-16.778C550.519,152.906,550.086,150.89,549.223,149.378z M553.688,198.414h-3.745v-2.88
		h0.864v-8.857c0-1.152-0.288-2.304-0.792-3.312c2.448,1.296,3.673,3.672,3.673,6.192V198.414z M580.399,188.477
		c0,10.081-7.85,9.937-10.153,9.937h-9.361v-2.88h6.481c1.08,0,3.384,0,5.112-0.792c1.728-0.36,3.384-1.224,3.96-3.672
		c0.648-1.368,1.08-3.096,1.08-5.473v-30.314c0-2.736-0.432-4.752-1.225-6.192c2.449,1.224,4.105,3.744,4.105,9.073V188.477z
		 M573.415,151.754c-0.937-0.288-2.017-0.36-3.169-0.36h-5.544v40.611h-2.881v-43.492h5.545
		C570.103,148.514,572.479,148.802,573.415,151.754z"/>
</g>
<g id="Layer_2">
</g>
<g id="someone_has_to_mute" display="none">
	<g id="stripes_1_" display="inline">
		<path fill="#158035" d="M-109.795,425.442l-315.028-181.346l4.797-8.335l315.029,181.347L-109.795,425.442z M-104.996,446.458
			l-315.029-181.346l-4.797,8.334l315.028,181.346L-104.996,446.458z M-104.996,475.808l-315.029-181.346l-4.797,8.335
			l315.028,181.345L-104.996,475.808z M-104.996,505.157l-315.029-181.346l-4.797,8.335l315.028,181.347L-104.996,505.157z
			 M-104.996,534.507l-315.029-181.346l-4.797,8.334l315.028,181.346L-104.996,534.507z M-104.996,563.857l-315.029-181.347
			l-4.797,8.336l315.028,181.344L-104.996,563.857z M-104.996,241.009L-420.025,59.664l-4.797,8.335l315.028,181.346
			L-104.996,241.009z M-104.996,212.516L-420.025,31.17l-4.797,8.335l315.028,181.346L-104.996,212.516z M-104.996,270.359
			L-420.025,89.013l-4.797,8.335l315.028,181.346L-104.996,270.359z M-104.996,299.709l-315.029-181.346l-4.797,8.335
			l315.028,181.346L-104.996,299.709z M-104.996,329.059l-315.029-181.345l-4.797,8.334l315.028,181.346L-104.996,329.059z
			 M-104.996,358.408l-315.029-181.346l-4.797,8.335l315.028,181.346L-104.996,358.408z M-104.996,387.758l-315.029-181.345
			l-4.797,8.335l315.028,181.346L-104.996,387.758z"/>
	</g>
	<g display="inline">
		<path fill="#FFFFFF" d="M-364.7,257.061l5.424,2.885l1.385-1.501l-5.194-2.654C-363.546,256.252-364.124,256.714-364.7,257.061z"
			/>
		<polygon fill="#FFFFFF" points="-362.854,218.627 -360.2,220.012 -357.083,220.012 -357.083,219.436 -362.854,216.435 		"/>
		<path fill="#FFFFFF" d="M-367.586,238.017l1.5,0.809c-0.922-2.078-2.884-3.462-5.77-5.31l-7.271-3.924
			c2.308,2.886,6.232,5.194,10.618,7.733L-367.586,238.017z"/>
		<path fill="#FFFFFF" d="M-359.847,239.93v-0.1c0.015-0.785-0.072-1.521-0.241-2.217l3.004,1.558
			c-0.992-1.322-2.306-2.537-3.829-3.648c-1.926-3.519-6.174-5.898-10.245-8.272c-1.399-0.84-2.642-1.611-3.724-2.357
			c-0.209-0.55-0.322-1.104-0.322-1.764v-0.231l-3.768-1.937c-0.419-0.737-0.667-1.514-0.726-2.366v-0.246l4.494,2.472v-2.193
			l-4.494-2.472v-2.193l4.494,2.473v-2.193l-4.494-2.471v-2.193l4.494,2.472v-0.693v-1.5l-4.494-2.471v-0.563
			c0-0.563,0.034-1.086,0.087-1.588l4.868,2.545c0.116-0.578,0.462-1.155,0.693-1.731l-5.18-2.816
			c0.773-2.59,2.448-4.009,4.575-4.383l-0.318,0.159l6.925,3.693c-0.493-1.478-1.377-2.649-2.642-3.343
			c2.358,1.204,3.341,4.046,3.341,7.349v8.771h5.771v-0.593l4.494,2.473v-2.193l-4.494-2.472V210.5l4.494,2.472v-1.847v-0.346
			l-4.494-2.472v-1.716c0-0.165-0.013-0.323-0.017-0.485l4.281,2.365c-0.115-0.923-0.346-1.731-0.577-2.539l-3.882-2.107
			c-0.129-0.888-0.323-1.737-0.578-2.541l3.075,1.647c-0.985-1.532-2.292-2.742-3.9-3.652c-1.884-3.727-5.39-6.075-10.29-6.075
			c-8.425,0-12.465,5.886-12.465,13.618v12.003c0.116,6.348,5.655,9.695,12.927,13.965c4.27,2.539,7.271,4.27,7.271,7.386v4.848
			c0,4.732-2.308,8.425-7.04,8.425c-3.093,0-5.194-1.648-6.254-4.007l3.708,1.963c-0.115-0.578-0.115-1.27,0-1.962v-0.231
			l-4.412-2.315c-0.085-0.645-0.118-1.31-0.083-1.988v-0.249l4.495,2.36v-2.193l-3.809-2.077h-0.686v-4.535h-6.117v6.693
			c-0.103,7.506,4.38,12.71,10.744,13.759c-1.71-0.214-3.332-0.671-4.518-1.492c0.116,0.347,0.347,0.693,0.577,0.924l9.81,5.309
			h1.04c0.923,0,1.846-0.116,2.654-0.231l-8.125-4.348c0.323,0.021,0.645,0.044,0.976,0.044c0.987,0,1.907-0.091,2.778-0.245
			l7.141,3.74c0.692-0.231,1.384-0.692,2.077-1.039l-6.348-3.346h-0.516c2.778-1.05,4.8-2.969,6.082-5.417
			c-0.125,0.534-0.298,1.021-0.487,1.493l5.079,2.77c0.346-0.578,0.461-1.154,0.692-1.847l-5.13-2.736
			c0.285-0.582,0.539-1.185,0.745-1.817l4.963,2.707c0.115-0.692,0.231-1.385,0.231-2.078l-4.726-2.476
			c0.131-0.668,0.231-1.351,0.285-2.051l4.556,2.333v-2.077l-4.495-2.472v-2.192l4.495,2.471v-0.23c0-0.693-0.115-1.5-0.346-2.193
			L-359.847,239.93z"/>
		<path fill="#FFFFFF" d="M-378.319,201.546l5.539,3c0.692-0.46,1.385-0.922,2.193-1.038l-6.232-3.347
			C-377.396,200.507-377.857,201.084-378.319,201.546z"/>
		<path fill="#FFFFFF" d="M-335.967,203.508l-5.886-3.116c-0.461,0.346-0.923,0.923-1.384,1.384l5.309,2.886
			C-337.352,204.201-336.775,203.739-335.967,203.508z"/>
		<path fill="#FFFFFF" d="M-330.312,256.944l5.655,3.001c0.462-0.461,0.924-0.924,1.27-1.501l-5.194-2.77
			C-329.042,256.252-329.619,256.599-330.312,256.944z"/>
		<polygon fill="#FFFFFF" points="-279.995,262.715 -281.957,261.677 -281.842,262.715 		"/>
		<polygon fill="#FFFFFF" points="-305.732,262.138 -311.272,259.138 -311.388,261.215 -308.618,262.715 -305.732,262.715 		"/>
		<polygon fill="#FFFFFF" points="-290.96,261.215 -297.077,257.984 -296.73,260.292 -295.115,261.215 		"/>
		<polygon fill="#FFFFFF" points="-282.073,259.369 -275.956,262.6 -276.071,260.407 -280.455,258.047 -280.537,255.869 
			-276.187,258.099 -276.302,255.906 -280.623,253.58 -280.705,251.402 -276.302,253.713 -276.417,251.52 -280.788,249.167 
			-280.874,246.875 -276.533,249.212 -276.649,247.02 -280.956,244.7 -281.038,242.521 -276.649,244.826 -276.764,242.519 
			-281.126,240.169 -281.208,237.995 -276.88,240.325 -276.88,238.017 -281.293,235.7 -281.377,233.465 -276.995,235.825 
			-277.11,233.516 -281.463,231.171 -281.545,228.997 -277.226,231.323 -277.226,229.13 -281.626,226.819 -281.712,224.527 
			-277.341,226.822 -277.456,224.629 -281.794,222.352 -281.878,220.117 -277.572,222.436 -277.572,220.128 -281.964,217.822 
			-282.048,215.587 -277.687,217.935 -277.802,215.627 -282.134,213.295 -282.215,211.12 -277.918,213.435 -278.033,211.241 
			-282.301,208.833 -282.383,206.649 -278.033,208.933 -278.149,206.74 -282.467,204.416 -282.553,202.122 -278.264,204.432 
			-278.264,202.239 -282.635,199.944 -282.875,193.55 -289.914,193.55 -296.493,234.291 -297.993,247.678 -298.126,246.379 
			-298,246.442 -297.77,244.48 -298.355,244.146 -298.593,241.827 -297.539,242.402 -297.308,240.325 -298.831,239.513 
			-299.068,237.2 -297.077,238.248 -296.846,236.17 -299.305,234.887 -299.378,234.175 -299.688,232.446 -296.615,234.093 
			-296.269,232.131 -300.118,230.042 -300.561,227.566 -296.5,229.822 -296.961,227.399 -300.992,225.16 -301.423,222.75 
			-297.308,224.975 -297.77,222.552 -301.854,220.344 -302.286,217.93 -298.23,220.012 -298.692,217.705 -302.715,215.53 
			-303.158,213.054 -299.039,215.28 -299.5,212.856 -303.589,210.647 -304.021,208.233 -299.961,210.318 -300.423,208.01 
			-304.451,205.833 -304.894,203.356 -300.77,205.586 -301.232,203.162 -305.325,200.95 -305.756,198.537 -301.693,200.623 
			-302.155,198.2 -302.385,198.084 -305.837,198.084 -306.649,193.55 -313.458,193.55 -315.883,258.181 -310.228,258.181 
			-310.2,257.486 -305.617,259.946 -305.617,257.868 -310.117,255.394 -310.032,253.245 -305.501,255.675 -305.386,253.598 
			-309.948,251.15 -309.861,248.941 -305.271,251.405 -305.271,249.212 -309.773,246.736 -309.692,244.7 -305.156,247.134 
			-305.04,244.942 -309.604,242.492 -309.521,240.398 -304.925,242.864 -304.925,240.671 -309.434,238.191 -309.349,236.043 
			-304.809,238.479 -304.694,236.516 -304.809,236.285 -309.265,233.946 -309.178,231.743 -305.156,233.978 -305.617,231.439 
			-309.094,229.644 -309.073,229.097 -309.055,227.472 -306.079,229.015 -306.079,228.784 -306.425,226.706 -309.031,225.295 
			-309.006,223.113 -306.771,224.283 -307.002,221.975 -308.982,220.933 -308.958,218.701 -307.348,219.667 -307.579,217.242 
			-308.933,216.514 -308.909,214.327 -307.926,214.819 -308.271,212.626 -308.886,212.274 -308.861,210.023 -308.502,210.202 
			-308.724,208.323 -308.611,208.323 -305.957,228.866 -300.994,256.681 -295.306,256.681 -290.267,259.369 -289.921,257.406 
			-294.777,254.809 -294.432,252.846 -289.575,255.444 -289.229,253.367 -294.067,250.779 -293.722,248.816 -288.882,251.405 
			-288.536,249.327 -293.357,246.749 -293.011,244.786 -288.19,247.365 -287.844,245.403 -292.666,242.825 -292.302,240.76 
			-287.497,243.441 -287.151,241.826 -287.151,241.364 -291.956,238.794 -291.61,236.832 -287.267,239.171 -287.381,236.863 
			-291.246,234.766 -290.899,232.799 -287.497,234.554 -287.612,232.361 -290.553,230.837 -290.19,228.777 -287.729,230.169 
			-287.729,228.899 -287.729,227.86 -289.892,226.778 -289.588,224.686 -287.612,225.783 -287.612,223.59 -289.291,222.646 
			-289,220.646 -287.497,221.397 -287.497,219.32 -288.705,218.615 -288.4,216.517 -287.381,217.127 -287.381,214.935 
			-288.117,214.567 -287.812,212.469 -287.267,212.742 -287.267,210.664 -287.53,210.532 -287.259,208.669 -287.028,208.669 
			-287.606,228.981 -286.337,258.181 -282.073,258.181 		"/>
		<polygon fill="#FFFFFF" points="-278.38,198.084 -281.957,198.084 -278.38,200.046 		"/>
		<polygon fill="#FFFFFF" points="-266.381,259.599 -266.381,261.792 -264.765,262.715 -260.61,262.715 		"/>
		<polygon fill="#FFFFFF" points="-246.53,241.71 -246.53,240.44 -248.954,240.44 		"/>
		<polygon fill="#FFFFFF" points="-243.068,198.2 -245.954,198.2 -243.068,199.7 		"/>
		<path fill="#FFFFFF" d="M-224.722,203.508l-5.886-3.116c-0.462,0.346-0.923,0.923-1.385,1.384l5.309,2.886
			C-226.106,204.201-225.529,203.739-224.722,203.508z"/>
		<path fill="#FFFFFF" d="M-219.066,256.944l5.655,3.001c0.462-0.461,0.924-0.924,1.27-1.501l-5.193-2.77
			C-217.797,256.252-218.374,256.599-219.066,256.944z"/>
		<polygon fill="#FFFFFF" points="-193.333,198.2 -195.064,198.2 -192.986,199.354 		"/>
		<polygon fill="#FFFFFF" points="-193.333,262.715 -198.988,259.599 -198.988,261.907 -197.487,262.715 		"/>
		<polygon fill="#FFFFFF" points="-176.36,198.2 -176.36,193.665 -182.478,193.665 -182.478,227.597 -181.207,245.139 
			-181.379,244.554 -181.56,242.75 -181.986,242.493 -182.763,239.857 -181.791,240.44 -181.907,238.132 -183.507,237.333 
			-184.302,234.634 -182.138,235.825 -182.253,233.516 -185.042,232.122 -185.836,229.423 -182.484,231.323 -182.484,230.63 
			-183.176,228.668 -186.667,226.813 -187.579,224.106 -184.1,226.015 -185.023,223.36 -188.466,221.471 -189.355,218.831 
			-185.946,220.59 -186.754,218.05 -190.241,216.197 -191.152,213.491 -187.677,215.396 -188.601,212.626 -192.087,210.714 
			-192.975,208.078 -189.409,209.972 -190.332,207.317 -193.862,205.442 -194.75,202.807 -191.255,204.663 -192.178,202.008 
			-195.682,200.038 -197.827,193.665 -203.482,193.665 -203.482,258.181 -197.68,258.181 -192.871,260.754 -192.871,258.561 
			-197.365,256.201 -197.365,254.008 -192.871,256.368 -192.871,254.175 -197.365,251.815 -197.365,249.622 -192.871,251.981 
			-192.871,249.789 -197.365,247.429 -197.365,245.237 -192.871,247.596 -192.871,245.403 -197.365,243.044 -197.365,240.851 
			-192.871,243.211 -192.871,241.018 -197.365,238.658 -197.365,236.465 -192.871,238.825 -192.871,236.632 -197.365,234.272 
			-197.365,232.08 -192.871,234.439 -192.871,232.246 -197.365,229.886 -197.365,227.694 -192.871,230.054 -192.871,228.899 
			-192.986,227.86 -197.365,225.502 -197.365,224.365 -197.429,223.336 -193.448,225.437 -194.256,222.783 -197.573,221.013 
			-197.717,218.692 -194.949,220.243 -195.641,217.705 -197.851,216.547 -197.995,214.225 -196.449,215.05 -197.142,212.511 
			-198.138,211.913 -198.276,209.693 -197.949,209.856 -198.37,208.171 -198.404,207.63 -193.788,224.019 -182.016,258.181 
			-179.112,258.181 -178.675,259.599 -172.79,262.715 -171.866,262.715 -171.866,260.984 -177.248,258.181 -176.36,258.181 
			-176.36,256.432 -171.866,258.792 -171.866,256.714 -176.36,254.242 -176.36,252.049 -171.866,254.521 -171.866,252.329 
			-176.36,249.856 -176.36,247.663 -171.866,250.136 -171.866,247.942 -176.36,245.471 -176.36,243.278 -171.866,245.75 
			-171.866,243.557 -176.36,241.085 -176.36,238.893 -171.866,241.364 -171.866,239.171 -176.36,236.699 -176.36,234.507 
			-171.866,236.979 -171.866,234.785 -176.36,232.313 -176.36,230.121 -171.866,232.592 -171.866,230.4 -176.36,227.928 
			-176.36,225.735 -171.866,228.207 -171.866,226.015 -176.36,223.542 -176.36,221.349 -171.866,223.821 -171.866,221.628 
			-176.36,219.157 -176.36,216.964 -171.866,219.436 -171.866,217.242 -176.36,214.771 -176.36,212.578 -171.866,215.05 
			-171.866,212.856 -176.36,210.385 -176.36,208.192 -171.866,210.664 -171.866,208.471 -176.36,205.999 -176.36,203.807 
			-171.866,206.278 -171.866,204.086 -176.36,201.613 -176.36,199.421 -171.866,201.893 -171.866,199.7 -174.521,198.2 		"/>
		<polygon fill="#FFFFFF" points="-177.636,262.254 -177.521,262.715 -176.944,262.715 		"/>
		<polygon fill="#FFFFFF" points="-141.054,241.71 -141.054,240.44 -143.479,240.44 		"/>
		<polygon fill="#FFFFFF" points="-140.478,198.2 -137.592,199.7 -137.592,198.2 		"/>
		<polygon fill="#FFFFFF" points="-160.906,261.792 -159.29,262.715 -155.135,262.715 -160.906,259.599 		"/>
		<polygon fill="#FFFFFF" points="-347.451,351.665 -345.951,352.474 -341.795,352.474 -347.451,349.357 		"/>
		<polygon fill="#FFFFFF" points="-341.333,287.958 -343.527,287.958 -341.333,289.111 		"/>
		<polygon fill="#FFFFFF" points="-327.484,352.474 -325.407,352.474 -327.484,351.318 		"/>
		<polygon fill="#FFFFFF" points="-296.326,288.996 -296.441,287.958 -298.289,287.958 		"/>
		<polygon fill="#FFFFFF" points="-306.944,352.474 -306.829,351.318 -312.369,348.318 -312.715,350.396 -308.906,352.474 		"/>
		<polygon fill="#FFFFFF" points="-292.402,352.474 -288.363,352.474 -292.748,350.05 		"/>
		<path fill="#FFFFFF" d="M-291.093,346.666l-0.379-2.436l4.148,2.241l-0.461-2.423l-4.067-2.26l-0.37-2.375l4.09,2.211
			l-0.347-2.309l-4.104-2.219l-0.38-2.442l4.138,2.237l-0.346-2.424l-4.162-2.189l-0.361-2.32l4.061,2.087l-0.346-2.425
			l-4.095-2.101l-0.379-2.437l4.012,2.229l-0.346-2.423l-4.036-2.184l-0.36-2.314l4.049,2.188l-0.346-2.422l-4.083-2.207
			l-0.38-2.442l4.117,2.226l-0.462-2.424l-4.025-2.176l-0.361-2.322l4.04,2.074l-0.346-2.309l-4.074-2.202l-0.379-2.439l3.992,2.219
			l-0.347-2.425l-4.006-2.113l-0.371-2.379l4.03,2.068l-0.346-2.307l-4.063-2.197l-0.38-2.442l4.097,2.215l-0.346-2.309
			l-4.111-2.222l-0.37-2.378l4.134,2.177l-0.346-2.423l-4.168-2.195l-0.903-5.802h-6.579l-9.925,64.516h6.001l0.179-1.137
			l4.777,2.555l0.346-2.078l-4.811-2.46l0.328-2.083l4.713,2.581l0.347-2.077l-4.748-2.486l0.32-2.029l4.773,2.553l0.346-2.076
			l-4.807-2.46l0.329-2.084l4.825,2.581l0.231-1.615h0.808l-5.552-2.946l0.25-1.587h0.957l8.5,4.533h0.461l-0.347-2.077
			l-4.577-2.456h4.354v-0.116l2.539,16.966h4.187l6.078,3.265l-0.346-2.424L-291.093,346.666z M-308.322,326.011l0.013-0.083h3.096
			l-2.855-1.537l0.311-1.983l4.738,2.483l0.231-1.963l-4.651-2.547l0.311-1.986l4.687,2.455l0.347-1.961l-4.71-2.579l0.263-2.061
			l4.678,2.562c0-0.115,0.115-0.347,0.115-0.461l-0.231-1.848l-4.292-2.37l0.25-1.953l3.696,2.016l-0.231-2.425l-3.201-1.655
			l0.263-2.055l2.591,1.403l-0.23-2.424l-2.09-1.1l0.249-1.948l1.496,0.854l-0.231-2.424l-1-0.499l0.261-2.044l0.393,0.236
			l-0.181-1.896l0.072-0.561l2.539,20.774l1.385,9.579H-308.322z"/>
		<path fill="#FFFFFF" d="M-265.284,327.774l1.5,0.809c-0.923-2.078-2.885-3.462-5.771-5.31l-7.271-3.924
			c2.308,2.886,6.232,5.193,10.618,7.732L-265.284,327.774z"/>
		<path fill="#FFFFFF" d="M-276.017,291.304l5.54,3c0.692-0.461,1.385-0.923,2.193-1.039l-6.232-3.346
			C-275.093,290.266-275.556,290.842-276.017,291.304z"/>
		<path fill="#FFFFFF" d="M-260.782,345.549c-0.462,0.461-1.04,0.923-1.616,1.27l5.424,2.886l1.385-1.501L-260.782,345.549z"/>
		<polygon fill="#FFFFFF" points="-260.552,308.386 -257.898,309.77 -254.781,309.77 -254.781,309.193 -260.552,306.193 		"/>
		<path fill="#FFFFFF" d="M-257.545,329.688v-0.1c0.015-0.785-0.072-1.521-0.241-2.217l3.005,1.559
			c-0.992-1.322-2.306-2.537-3.829-3.648c-1.926-3.519-6.174-5.898-10.246-8.273c-1.399-0.839-2.642-1.61-3.724-2.356
			c-0.21-0.551-0.323-1.104-0.323-1.765v-0.23l-3.768-1.938c-0.419-0.736-0.667-1.514-0.726-2.365v-0.246l4.493,2.472v-2.192
			l-4.493-2.473v-2.192l4.493,2.473V304l-4.493-2.472v-2.193l4.493,2.472v-0.691v-1.501l-4.493-2.472v-0.563
			c0-0.563,0.034-1.087,0.087-1.588l4.868,2.545c0.116-0.578,0.461-1.155,0.692-1.731l-5.18-2.816
			c0.773-2.59,2.447-4.009,4.573-4.383l-0.317,0.159l6.926,3.693c-0.493-1.478-1.376-2.648-2.64-3.342
			c2.357,1.204,3.339,4.046,3.339,7.348v8.771h5.77v-0.593l4.495,2.473v-2.192l-4.495-2.473v-2.192l4.495,2.472v-1.847v-0.347
			l-4.495-2.472v-1.716c0-0.165-0.013-0.322-0.017-0.485l4.281,2.365c-0.115-0.923-0.346-1.731-0.577-2.539l-3.882-2.107
			c-0.129-0.888-0.323-1.737-0.578-2.541l3.075,1.647c-0.985-1.532-2.292-2.743-3.9-3.652c-1.884-3.728-5.39-6.076-10.29-6.076
			c-8.425,0-12.465,5.886-12.465,13.619v12.003c0.116,6.349,5.655,9.696,12.927,13.966c4.27,2.539,7.271,4.27,7.271,7.386v4.848
			c0,4.731-2.308,8.425-7.04,8.425c-3.093,0-5.194-1.647-6.254-4.008l3.708,1.964c-0.115-0.578-0.115-1.27,0-1.962v-0.231
			l-4.412-2.316c-0.085-0.645-0.118-1.31-0.083-1.987v-0.248l4.495,2.359v-2.193l-3.808-2.077h-0.687v-4.534h-6.117v6.693
			c-0.102,7.496,4.368,12.696,10.717,13.756c-1.7-0.215-3.311-0.671-4.491-1.488c0.116,0.346,0.347,0.692,0.578,0.923l9.81,5.31
			h1.039c0.923,0,1.847-0.115,2.654-0.23l-8.122-4.349c0.322,0.021,0.644,0.045,0.974,0.045c0.987,0,1.908-0.091,2.779-0.245
			l7.14,3.74c0.692-0.231,1.385-0.691,2.078-1.039l-6.348-3.346h-0.517c2.778-1.05,4.8-2.969,6.082-5.418
			c-0.125,0.534-0.298,1.021-0.487,1.493l5.078,2.77c0.346-0.577,0.461-1.153,0.692-1.846l-5.13-2.737
			c0.285-0.581,0.539-1.185,0.745-1.816l4.963,2.707c0.115-0.692,0.23-1.386,0.23-2.078l-4.726-2.476
			c0.131-0.668,0.231-1.351,0.285-2.051l4.557,2.334v-2.078l-4.495-2.471v-2.193l4.495,2.472v-0.23c0-0.693-0.116-1.501-0.346-2.193
			L-257.545,329.688z"/>
		<polygon fill="#FFFFFF" points="-219.586,350.05 -215.201,352.474 -213.816,352.474 -213.816,350.974 -219.586,347.973 		"/>
		<polygon fill="#FFFFFF" points="-224.204,293.266 -224.204,292.92 -228.474,290.612 -228.474,292.805 -227.55,293.266 		"/>
		<path fill="#FFFFFF" d="M-181.849,346.703l5.655,3.001c0.462-0.462,0.924-0.924,1.27-1.501l-5.193-2.77
			C-180.58,346.01-181.156,346.356-181.849,346.703z"/>
		<path fill="#FFFFFF" d="M-194.775,291.535l5.309,2.885c0.578-0.461,1.155-0.923,1.962-1.154l-5.886-3.115
			C-193.852,290.497-194.313,291.074-194.775,291.535z"/>
		<polygon fill="#FFFFFF" points="-325.872,440.731 -323.102,442.231 -320.216,442.231 -320.216,441.653 -325.756,438.653 		"/>
		<polygon fill="#FFFFFF" points="-296.441,377.6 -292.863,379.562 -292.863,377.6 		"/>
		<polygon fill="#FFFFFF" points="-294.938,437.563 -295.02,435.386 -290.67,437.614 -290.785,435.422 -295.105,433.096 
			-295.188,430.919 -290.785,433.229 -290.901,431.036 -295.271,428.683 -295.357,426.391 -291.016,428.729 -291.132,426.535 
			-295.438,424.216 -295.521,422.038 -291.132,424.342 -291.247,422.034 -295.608,419.686 -295.69,417.512 -291.363,419.842 
			-291.363,417.532 -295.776,415.216 -295.86,412.98 -291.478,415.341 -291.594,413.031 -295.946,410.688 -296.027,408.513 
			-291.708,410.839 -291.708,408.646 -296.109,406.335 -296.195,404.043 -291.825,406.338 -291.939,404.145 -296.277,401.868 
			-296.36,399.634 -292.055,401.952 -292.055,399.644 -296.447,397.339 -296.53,395.104 -292.17,397.451 -292.286,395.144 
			-296.616,392.812 -296.698,390.638 -292.402,392.95 -292.517,390.758 -296.784,388.35 -296.866,386.165 -292.517,388.449 
			-292.632,386.256 -296.949,383.932 -297.036,381.639 -292.748,383.948 -292.748,381.755 -297.117,379.461 -297.357,373.066 
			-304.397,373.066 -310.976,413.807 -312.476,427.194 -312.609,425.896 -312.483,425.959 -312.253,423.997 -312.838,423.661 
			-313.076,421.344 -312.022,421.919 -311.791,419.842 -313.313,419.029 -313.55,416.717 -311.56,417.764 -311.329,415.687 
			-313.788,414.403 -313.861,413.69 -314.17,411.964 -311.099,413.608 -310.752,411.647 -314.601,409.559 -315.043,407.083 
			-310.982,409.339 -311.444,406.914 -315.474,404.677 -315.905,402.267 -311.791,404.491 -312.253,402.068 -316.336,399.86 
			-316.768,397.447 -312.714,399.528 -313.176,397.221 -317.198,395.047 -317.641,392.571 -313.522,394.797 -313.984,392.373 
			-318.072,390.163 -318.504,387.75 -314.445,389.834 -314.907,387.525 -318.933,385.35 -319.377,382.872 -315.253,385.103 
			-315.715,382.679 -319.808,380.466 -320.239,378.053 -316.176,380.14 -316.638,377.715 -316.869,377.6 -320.32,377.6 
			-321.132,373.066 -327.941,373.066 -330.365,437.697 -324.71,437.697 -324.683,437.003 -320.101,439.462 -320.101,437.384 
			-324.599,434.909 -324.514,432.761 -319.985,435.191 -319.869,433.113 -324.431,430.666 -324.343,428.458 -319.754,430.921 
			-319.754,428.729 -324.255,426.253 -324.175,424.217 -319.639,426.65 -319.523,424.458 -324.087,422.01 -324.004,419.915 
			-319.408,422.38 -319.408,420.188 -323.916,417.708 -323.831,415.559 -319.292,417.994 -319.178,416.032 -319.292,415.802 
			-323.748,413.464 -323.66,411.26 -319.639,413.493 -320.101,410.954 -323.577,409.16 -323.555,408.613 -323.537,406.987 
			-320.562,408.531 -320.562,408.3 -320.909,406.222 -323.513,404.812 -323.489,402.63 -321.254,403.8 -321.485,401.49 
			-323.465,400.449 -323.44,398.217 -321.832,399.183 -322.063,396.759 -323.416,396.03 -323.392,393.844 -322.409,394.334 
			-322.755,392.142 -323.369,391.791 -323.344,389.54 -322.986,389.719 -323.207,387.839 -323.094,387.839 -320.439,408.382 
			-315.477,436.197 -309.788,436.197 -304.75,438.884 -304.404,436.922 -309.26,434.324 -308.915,432.362 -304.058,434.96 
			-303.712,432.883 -308.55,430.295 -308.205,428.333 -303.365,430.921 -303.019,428.843 -307.84,426.266 -307.495,424.304 
			-302.673,426.881 -302.327,424.919 -307.148,422.34 -306.785,420.276 -301.98,422.957 -301.634,421.342 -301.634,420.88 
			-306.438,418.311 -306.093,416.348 -301.75,418.688 -301.865,416.379 -305.729,414.282 -305.382,412.314 -301.98,414.07 
			-302.096,411.878 -305.036,410.354 -304.673,408.293 -302.212,409.685 -302.212,408.415 -302.212,407.377 -304.375,406.294 
			-304.07,404.202 -302.096,405.3 -302.096,403.107 -303.774,402.163 -303.483,400.162 -301.98,400.913 -301.98,398.836 
			-303.188,398.132 -302.883,396.033 -301.865,396.644 -301.865,394.451 -302.6,394.084 -302.294,391.985 -301.75,392.258 
			-301.75,390.18 -302.013,390.049 -301.742,388.186 -301.511,388.186 -302.089,408.497 -300.819,437.697 -296.557,437.697 
			-296.557,438.884 -290.439,442.116 -290.554,439.923 		"/>
		<polygon fill="#FFFFFF" points="-296.325,442.231 -294.479,442.231 -296.441,441.193 		"/>
		<polygon fill="#FFFFFF" points="-311.213,439.809 -309.598,440.731 -305.443,440.731 -311.56,437.5 		"/>
		<path fill="#FFFFFF" d="M-259.621,377.715v-4.534h-6.001v51.244c0,4.731-1.731,8.541-7.041,8.541c-2.787,0-4.616-1.415-5.67-3.427
			l3.47,1.844c-0.116-0.692-0.116-1.5-0.116-2.192l-4.273-2.362c-0.142-0.748-0.211-1.523-0.217-2.301l4.49,2.47v-2.193
			l-4.493-2.472v-2.192l4.493,2.472v-2.192l-4.493-2.472v-2.193l4.493,2.472v-2.193l-4.493-2.472v-2.192l4.493,2.472v-2.192
			l-4.493-2.472v-2.194l4.493,2.473v-2.192l-4.493-2.473v-2.191l4.493,2.471v-2.193l-4.493-2.471v-2.193l4.493,2.472v-2.192
			l-4.493-2.472v-2.192l4.493,2.471v-2.193l-4.493-2.472v-2.192l4.493,2.472v-2.192l-4.493-2.472v-2.193l4.493,2.472v-2.192
			l-4.493-2.473v-2.192l4.493,2.473v-2.193l-4.493-2.472v-5.295h-6.117v51.244c0,6.392,3.396,11.746,9.068,13.416
			c-0.943-0.236-1.821-0.571-2.613-1.033c0.347,0.576,0.692,1.153,1.154,1.614l8.079,4.387c0.577,0.115,1.155,0.115,1.731,0.115
			c0.808,0,1.5-0.115,2.308-0.23l-8.181-4.372c0.45,0.043,0.909,0.068,1.38,0.068c0.844,0,1.633-0.081,2.395-0.201l7.178,3.813
			c0.692-0.231,1.384-0.692,2.077-1.039l-6.579-3.462h-0.063c2.764-1.058,4.812-2.985,6.143-5.383
			c-0.122,0.639-0.326,1.271-0.539,1.805l5.078,2.655c0.347-0.578,0.578-1.155,0.808-1.732l-5.267-2.861
			c0.293-0.543,0.538-1.114,0.759-1.697l5.084,2.712l0.346-2.077l-4.824-2.58c0.151-0.645,0.253-1.307,0.327-1.974l4.613,2.476
			v-2.192l-4.494-2.472v-2.192l4.494,2.472v-2.193l-4.494-2.472V417.6l4.494,2.473v-2.192l-4.494-2.472v-2.192l4.494,2.471v-2.193
			l-4.494-2.472v-2.192l4.494,2.472v-2.192l-4.494-2.472v-2.193l4.494,2.471v-2.192l-4.494-2.472v-2.192l4.494,2.473v-2.193
			l-4.494-2.472v-2.194l4.494,2.473v-2.192l-4.494-2.473v-2.191l4.494,2.472v-2.194l-4.494-2.472V386.9l4.494,2.472v-2.192
			l-4.494-2.472v-2.192l4.494,2.471v-2.193l-4.494-2.472v-2.192l4.494,2.472v-2.192l-1.154-0.693H-259.621z"/>
		<polygon fill="#FFFFFF" points="-274.979,377.715 -276.825,377.715 -274.979,378.754 		"/>
		<path fill="#FFFFFF" d="M-264.822,436.808l5.425,2.884l1.384-1.5l-5.078-2.653C-263.552,435.999-264.129,436.461-264.822,436.808z
			"/>
		<polygon fill="#FFFFFF" points="-238.743,439.809 -234.357,442.231 -232.973,442.231 -232.973,440.731 -238.743,437.729 		"/>
		<polygon fill="#FFFFFF" points="-247.63,382.563 -246.706,383.024 -243.36,383.024 -243.36,382.679 -247.63,380.37 		"/>
		<polygon fill="#FFFFFF" points="-228.695,377.715 -228.695,373.181 -252.123,373.181 -252.123,378.49 -247.018,378.49 
			-243.36,380.485 -243.36,378.49 -243.237,378.49 -243.237,437.697 -237.466,437.697 -237.466,436.179 -232.973,438.539 
			-232.973,436.461 -237.466,433.989 -237.466,431.796 -232.973,434.268 -232.973,432.075 -237.466,429.604 -237.466,427.41 
			-232.973,429.883 -232.973,427.689 -237.466,425.218 -237.466,423.024 -232.973,425.497 -232.973,423.304 -237.466,420.832 
			-237.466,418.64 -232.973,421.111 -232.973,418.918 -237.466,416.446 -237.466,414.254 -232.973,416.725 -232.973,414.532 
			-237.466,412.061 -237.466,409.868 -232.973,412.339 -232.973,410.146 -237.466,407.675 -237.466,405.481 -232.973,407.954 
			-232.973,405.761 -237.466,403.289 -237.466,401.096 -232.973,403.568 -232.973,401.375 -237.466,398.903 -237.466,396.711 
			-232.973,399.183 -232.973,396.989 -237.466,394.519 -237.466,392.325 -232.973,394.797 -232.973,392.604 -237.466,390.132 
			-237.466,387.939 -232.973,390.411 -232.973,388.218 -237.466,385.746 -237.466,383.554 -232.973,386.024 -232.973,383.833 
			-237.466,381.36 -237.466,379.167 -230.318,383.024 -226.163,383.024 -234.665,378.49 -230.624,378.49 -224.201,381.871 
			-224.201,379.678 -227.894,377.715 		"/>
		<polygon fill="#FFFFFF" points="-193.158,379.216 -193.158,377.715 -196.043,377.715 		"/>
		<polygon fill="#FFFFFF" points="-216.472,441.309 -214.855,442.231 -210.701,442.231 -216.472,439.115 		"/>
		<polygon fill="#FFFFFF" points="-196.621,421.227 -196.621,419.957 -199.044,419.957 		"/>
		<path fill="#FFFFFF" d="M-340.863,258.585c-1.411-0.262-2.706-0.741-3.875-1.41c0.23,0.461,0.46,0.809,0.807,1.154l9.233,4.963
			c0.461,0.116,0.809,0.116,1.27,0.116c0.923,0,1.731-0.116,2.539-0.231l-8.267-4.363c0.404,0.032,0.812,0.059,1.233,0.059
			c0.905,0,1.752-0.092,2.561-0.237l7.127,3.733c0.691-0.231,1.384-0.692,1.962-1.039l-6.533-3.438
			c2.464-1.022,4.335-2.782,5.614-4.956l-0.352,1.123l5.195,2.77c0.346-0.578,0.577-1.154,0.807-1.731l-5.284-2.812
			c0.306-0.593,0.568-1.214,0.792-1.853l4.955,2.702c0.23-0.692,0.346-1.27,0.346-1.962l-4.783-2.559
			c0.15-0.684,0.257-1.382,0.322-2.09l4.577,2.455v-2.192l-4.495-2.36v-2.193l4.495,2.36v-2.193l-4.495-2.359v-2.192l4.495,2.359
			v-2.193l-4.495-2.359v-2.193l4.495,2.36v-2.193l-4.495-2.36v-2.192l4.495,2.36v-2.193l-4.495-2.36v-2.193l4.495,2.36v-2.193
			l-4.495-2.36v-2.193l4.495,2.36v-2.193l-4.495-2.36v-2.193l4.495,2.36v-2.193l-4.495-2.359v-2.193l4.495,2.359v-2.192l-4.495-2.36
			v-2.191l4.379,2.358c-0.115-0.924-0.231-1.731-0.462-2.54l-4.051-2.138c-0.104-0.858-0.275-1.693-0.512-2.498l3.293,1.866
			c-0.808-1.615-1.962-3-3.348-4.039l-1.076-0.587c-2.082-3.847-5.907-6.486-11.035-6.486c-8.656,0-13.157,6.578-13.157,13.733
			v38.203C-351.08,251.682-347.288,257.279-340.863,258.585z M-340.834,258.592c0.134,0.027,0.277,0.038,0.414,0.062
			C-340.559,258.632-340.699,258.617-340.834,258.592z M-333.084,200.622l-4.013-2.064
			C-335.354,198.741-334.035,199.51-333.084,200.622z M-338.56,198.544l-1.446,0.578l7.386,3.924c0.231,0,0.577,0.116,0.808,0.116
			c-0.345-0.919-0.691-1.724-1.263-2.529c1.358,1.595,1.962,3.891,1.962,6.189v38.086c0,4.617-2.077,8.31-6.809,8.31
			c-2.882,0-4.86-1.417-5.97-3.514l3.54,1.931c-0.115-0.692-0.115-1.27-0.115-2.078v-0.231l-4.323-2.327
			c-0.11-0.638-0.172-1.299-0.172-1.976v-0.25l4.495,2.359v-2.192l-4.495-2.359v-2.193l4.495,2.36v-2.193l-4.495-2.36v-2.193
			l4.495,2.36v-2.193l-4.495-2.36v-2.193l4.495,2.36v-2.193l-4.495-2.36v-2.193l4.495,2.359v-2.192l-4.495-2.36v-2.192l4.495,2.359
			v-2.192l-4.495-2.36v-2.193l4.495,2.36v-2.193l-4.495-2.359v-2.193l4.495,2.36v-2.193l-4.495-2.359v-2.193l4.495,2.36v-0.693v-1.5
			l-4.495-2.36v-0.674c0-0.504,0.033-0.995,0.088-1.473l4.869,2.545c0.231-0.577,0.461-1.27,0.808-1.731l-5.193-2.77l-0.155,0.258
			C-343.743,200.812-341.759,198.783-338.56,198.544z"/>
		<polygon fill="#FFFFFF" points="-256.764,258.181 -248.261,262.715 -244.222,262.715 -252.724,258.181 -248.568,258.181 
			-243.068,261.1 -243.068,258.906 -246.415,257.175 -247.562,257.175 -247.562,252.642 -264.759,252.642 -264.759,252.56 
			-263.15,252.56 -264.759,251.701 -264.759,249.511 -260.264,251.981 -260.264,249.789 -264.759,247.317 -264.759,245.124 
			-260.264,247.596 -260.264,245.865 -259.341,245.865 -264.759,242.93 -264.759,241.332 -263.687,241.332 -255.186,245.865 
			-251.146,245.865 -259.648,241.332 -255.493,241.332 -246.992,245.865 -246.53,245.865 -246.53,243.903 -251.338,241.332 
			-251.025,241.332 -251.025,235.907 -264.759,235.907 -264.759,235.825 -261.649,235.825 -264.759,234.158 -264.759,231.968 
			-260.264,234.439 -260.264,232.246 -264.759,229.774 -264.759,227.582 -260.264,230.054 -260.264,227.86 -264.759,225.389 
			-264.759,223.196 -260.264,225.668 -260.264,223.475 -264.759,221.003 -264.759,218.811 -260.264,221.282 -260.264,219.09 
			-264.759,216.617 -264.759,214.424 -260.264,216.896 -260.264,214.704 -264.759,212.231 -264.759,210.039 -260.264,212.511 
			-260.264,210.318 -264.759,207.847 -264.759,205.653 -260.264,208.125 -260.264,205.932 -264.759,203.46 -264.759,201.268 
			-260.264,203.739 -260.264,203.508 -256.455,203.508 -264.759,199.072 -264.759,198.975 -260.917,198.975 -252.416,203.508 
			-248.261,203.508 -256.763,198.975 -252.723,198.975 -244.222,203.508 -243.068,203.508 -243.068,201.893 -248.567,198.975 
			-247.562,198.975 -247.562,193.665 -270.875,193.665 -270.875,258.181 -264.958,258.181 -256.455,262.715 -252.416,262.715 
			-260.918,258.181 		"/>
		<path fill="#FFFFFF" d="M-229.615,258.585c-1.412-0.262-2.707-0.741-3.877-1.41c0.231,0.461,0.461,0.809,0.808,1.154l9.232,4.963
			c0.462,0.116,0.809,0.116,1.271,0.116c0.923,0,1.731-0.116,2.539-0.231l-8.267-4.363c0.404,0.032,0.812,0.059,1.233,0.059
			c0.905,0,1.752-0.092,2.562-0.237l7.126,3.733c0.692-0.231,1.385-0.692,1.962-1.039l-6.532-3.438
			c2.464-1.022,4.335-2.781,5.613-4.955l-0.351,1.122l5.194,2.77c0.346-0.578,0.577-1.154,0.808-1.731l-5.285-2.812
			c0.306-0.593,0.568-1.214,0.792-1.853l4.955,2.702c0.231-0.692,0.346-1.27,0.346-1.962l-4.783-2.559
			c0.15-0.684,0.257-1.382,0.322-2.089l4.576,2.455v-2.192l-4.494-2.359v-2.193l4.494,2.359v-2.193l-4.494-2.359v-2.192l4.494,2.358
			v-2.193l-4.494-2.358v-2.193l4.494,2.359v-2.193l-4.494-2.359v-2.192l4.494,2.359v-2.193l-4.494-2.359v-2.193l4.494,2.359v-2.193
			l-4.494-2.359v-2.193l4.494,2.359v-2.193l-4.494-2.359v-2.193l4.494,2.359v-2.193l-4.494-2.358v-2.193l4.494,2.358v-2.192
			l-4.494-2.359v-2.191l4.378,2.358c-0.115-0.924-0.231-1.731-0.461-2.54l-4.051-2.138c-0.104-0.858-0.275-1.693-0.512-2.498
			l3.293,1.866c-0.808-1.615-1.962-3-3.347-4.039l-1.076-0.587c-2.082-3.847-5.907-6.486-11.035-6.486
			c-8.656,0-13.158,6.578-13.158,13.733v38.203C-239.834,251.682-236.042,257.28-229.615,258.585z M-229.589,258.592
			c0.134,0.027,0.278,0.038,0.414,0.062C-229.313,258.632-229.453,258.617-229.589,258.592z M-221.838,200.622l-4.013-2.064
			C-224.108,198.741-222.789,199.51-221.838,200.622z M-227.314,198.544l-1.447,0.578l7.387,3.924c0.231,0,0.577,0.116,0.808,0.116
			c-0.345-0.92-0.69-1.726-1.265-2.531c1.359,1.595,1.964,3.892,1.964,6.191v38.086c0,4.617-2.077,8.31-6.809,8.31
			c-2.882,0-4.861-1.417-5.971-3.514l3.54,1.931c-0.115-0.692-0.115-1.27-0.115-2.078v-0.231l-4.322-2.327
			c-0.11-0.638-0.172-1.298-0.172-1.976v-0.25l4.495,2.359v-2.192l-4.495-2.359v-2.193l4.495,2.36v-2.193l-4.495-2.36v-2.193
			l4.495,2.36v-2.193l-4.495-2.36v-2.193l4.495,2.36v-2.193l-4.495-2.36v-2.193l4.495,2.359v-2.192l-4.495-2.36v-2.192l4.495,2.359
			v-2.192l-4.495-2.36v-2.193l4.495,2.36v-2.193l-4.495-2.359v-2.193l4.495,2.36v-2.193l-4.495-2.359v-2.193l4.495,2.36v-0.693v-1.5
			l-4.495-2.36v-0.674c0-0.504,0.033-0.995,0.088-1.473l4.868,2.545c0.231-0.577,0.462-1.27,0.808-1.731l-5.194-2.77l-0.154,0.257
			C-232.497,200.811-230.513,198.783-227.314,198.544z"/>
		<polygon fill="#FFFFFF" points="-142.087,198.975 -142.087,193.665 -165.4,193.665 -165.4,258.181 -159.482,258.181 
			-150.979,262.715 -146.94,262.715 -155.443,258.181 -151.288,258.181 -142.786,262.715 -138.746,262.715 -147.249,258.181 
			-143.093,258.181 -137.592,261.1 -137.592,258.906 -140.939,257.175 -142.087,257.175 -142.087,252.642 -159.283,252.642 
			-159.283,252.56 -157.673,252.56 -159.283,251.701 -159.283,249.511 -154.789,251.981 -154.789,249.789 -159.283,247.317 
			-159.283,245.124 -154.789,247.596 -154.789,245.865 -153.865,245.865 -159.283,242.93 -159.283,241.332 -158.211,241.332 
			-149.71,245.865 -145.671,245.865 -154.172,241.332 -150.018,241.332 -141.517,245.865 -141.054,245.865 -141.054,243.903 
			-145.863,241.332 -145.549,241.332 -145.549,235.907 -159.283,235.907 -159.283,235.825 -156.173,235.825 -159.283,234.158 
			-159.283,231.968 -154.789,234.439 -154.789,232.246 -159.283,229.774 -159.283,227.582 -154.789,230.054 -154.789,227.86 
			-159.283,225.389 -159.283,223.196 -154.789,225.668 -154.789,223.475 -159.283,221.003 -159.283,218.811 -154.789,221.282 
			-154.789,219.09 -159.283,216.617 -159.283,214.424 -154.789,216.896 -154.789,214.704 -159.283,212.231 -159.283,210.039 
			-154.789,212.511 -154.789,210.318 -159.283,207.847 -159.283,205.653 -154.789,208.125 -154.789,205.932 -159.283,203.46 
			-159.283,201.268 -154.789,203.739 -154.789,203.508 -150.979,203.508 -159.283,199.072 -159.283,198.975 -155.442,198.975 
			-146.94,203.508 -142.786,203.508 -151.287,198.975 -147.248,198.975 -138.746,203.508 -137.592,203.508 -137.592,201.893 
			-143.092,198.975 		"/>
		<polygon fill="#FFFFFF" points="-327.484,347.939 -327.484,349.126 -321.483,352.357 -321.483,350.165 -325.977,347.807 
			-325.977,345.613 -321.483,347.973 -321.483,345.779 -325.977,343.42 -325.977,341.228 -321.483,343.587 -321.483,341.395 
			-325.977,339.034 -325.977,336.842 -321.483,339.201 -321.483,337.008 -325.977,334.648 -325.977,332.456 -321.483,334.815 
			-321.483,332.622 -325.977,330.264 -325.977,328.07 -321.483,330.43 -321.483,328.236 -325.977,325.877 -325.977,323.686 
			-321.483,326.044 -321.483,323.85 -325.977,321.492 -325.977,319.299 -321.483,321.658 -321.483,319.466 -325.977,317.105 
			-325.977,314.914 -321.483,317.271 -321.483,315.08 -325.977,312.721 -325.977,310.527 -321.483,312.887 -321.483,310.694 
			-325.977,308.334 -325.977,306.142 -321.483,308.5 -321.483,306.309 -325.977,303.949 -325.977,301.756 -321.483,304.115 
			-321.483,301.922 -325.977,299.563 -325.977,297.37 -321.483,299.73 -321.483,297.537 -325.977,295.177 -325.977,292.984 
			-321.483,295.344 -321.483,293.151 -325.977,290.791 -325.977,288.599 -321.483,290.958 -321.483,288.766 -322.983,287.958 
			-325.977,287.958 -325.977,283.423 -331.979,283.423 -331.979,326.242 -345.829,326.242 -345.829,326.16 -341.795,326.16 
			-345.829,324.03 -345.829,321.838 -341.333,324.197 -341.333,322.005 -345.829,319.645 -345.829,317.452 -341.333,319.811 
			-341.333,317.619 -345.829,315.259 -345.829,313.066 -341.333,315.426 -341.333,313.232 -345.829,310.875 -345.829,308.681 
			-341.333,311.039 -341.333,308.848 -345.829,306.488 -345.829,304.295 -341.333,306.655 -341.333,304.461 -345.829,302.102 
			-345.829,299.91 -341.333,302.27 -341.333,300.076 -345.829,297.716 -345.829,295.523 -341.333,297.883 -341.333,295.69 
			-345.829,293.33 -345.829,291.138 -341.333,293.497 -341.333,291.304 -345.829,288.944 -345.829,283.423 -351.945,283.423 
			-351.945,347.939 -346.141,347.939 -341.333,350.512 -341.333,348.318 -345.829,345.959 -345.829,343.767 -341.333,346.126 
			-341.333,343.933 -345.829,341.573 -345.829,339.381 -341.333,341.74 -341.333,339.547 -345.829,337.188 -345.829,334.995 
			-341.333,337.354 -341.333,336.315 -339.141,336.315 -345.829,332.803 -345.829,331.781 -343.602,331.781 -335.102,336.315 
			-332.101,336.315 -332.101,335.738 -339.448,331.781 -335.408,331.781 -332.101,333.546 -332.101,331.781 -331.979,331.781 
			-331.979,347.939 		"/>
		<polygon fill="#FFFFFF" points="-218.31,347.939 -218.31,346.421 -213.816,348.78 -213.816,346.703 -218.31,344.231 
			-218.31,342.038 -213.816,344.51 -213.816,342.317 -218.31,339.845 -218.31,337.652 -213.816,340.125 -213.816,337.932 
			-218.31,335.46 -218.31,333.266 -213.816,335.738 -213.816,333.546 -218.31,331.074 -218.31,328.882 -213.816,331.354 
			-213.816,329.16 -218.31,326.688 -218.31,324.495 -213.816,326.967 -213.816,324.774 -218.31,322.303 -218.31,320.11 
			-213.816,322.58 -213.816,320.389 -218.31,317.917 -218.31,315.724 -213.816,318.196 -213.816,316.004 -218.31,313.531 
			-218.31,311.339 -213.816,313.811 -213.816,311.617 -218.31,309.146 -218.31,306.953 -213.816,309.425 -213.816,307.23 
			-218.31,304.76 -218.31,302.567 -213.816,305.039 -213.816,302.846 -218.31,300.374 -218.31,298.182 -213.816,300.652 
			-213.816,298.46 -218.31,295.988 -218.31,293.795 -213.816,296.267 -213.816,294.075 -218.31,291.603 -218.31,289.408 
			-211.162,293.266 -207.006,293.266 -215.507,288.733 -211.467,288.733 -205.044,292.113 -205.044,289.92 -208.738,287.958 
			-209.539,287.958 -209.539,283.423 -232.968,283.423 -232.968,288.733 -227.86,288.733 -224.204,290.727 -224.204,288.733 
			-224.081,288.733 -224.081,347.939 		"/>
		<path fill="#FFFFFF" d="M-176.649,296.91l4.379,2.357c-0.115-0.923-0.231-1.73-0.462-2.539l-4.051-2.139
			c-0.104-0.858-0.275-1.693-0.512-2.498l3.293,1.867c-0.808-1.616-1.962-3.001-3.347-4.039l-1.078-0.588
			c-2.082-3.847-5.907-6.485-11.035-6.485c-8.656,0-13.158,6.578-13.158,13.733v38.202c0,6.646,3.778,12.232,10.181,13.552
			c-1.396-0.263-2.68-0.738-3.838-1.4c0.23,0.462,0.46,0.809,0.807,1.154l9.233,4.963c0.461,0.115,0.809,0.115,1.271,0.115
			c0.922,0,1.731-0.115,2.539-0.23l-8.265-4.362c0.403,0.032,0.81,0.059,1.23,0.059c0.906,0,1.753-0.092,2.563-0.237l7.126,3.732
			c0.691-0.231,1.384-0.691,1.962-1.039l-6.533-3.438c2.465-1.022,4.336-2.782,5.614-4.957l-0.352,1.124l5.195,2.77
			c0.346-0.577,0.576-1.153,0.808-1.73l-5.285-2.812c0.306-0.594,0.568-1.214,0.792-1.853l4.956,2.702
			c0.23-0.692,0.346-1.27,0.346-1.962l-4.784-2.56c0.151-0.684,0.257-1.382,0.322-2.09l4.577,2.456v-2.193l-4.495-2.359v-2.193
			l4.495,2.36v-2.192l-4.495-2.361v-2.191l4.495,2.359v-2.193l-4.495-2.359v-2.193l4.495,2.36v-2.191l-4.495-2.361v-2.192
			l4.495,2.359v-2.192l-4.495-2.36v-2.193l4.495,2.36v-2.193l-4.495-2.359v-2.192l4.495,2.359v-2.192l-4.495-2.36v-2.193l4.495,2.36
			v-2.193l-4.495-2.359v-2.192l4.495,2.359v-2.192l-4.495-2.36V296.91z M-184.622,290.38l-4.014-2.064
			C-186.892,288.499-185.572,289.268-184.622,290.38z M-192.362,348.352c0.123,0.024,0.255,0.035,0.381,0.057
			C-192.108,348.389-192.237,348.374-192.362,348.352z M-182.651,334.666c0,4.617-2.077,8.311-6.809,8.311
			c-2.883,0-4.861-1.418-5.971-3.515l3.541,1.933c-0.115-0.692-0.115-1.27-0.115-2.078v-0.231l-4.323-2.327
			c-0.11-0.638-0.172-1.298-0.172-1.976v-0.25l4.496,2.36V334.7l-4.496-2.36v-2.192l4.496,2.359v-2.192l-4.496-2.36v-2.193
			l4.496,2.36v-2.193l-4.496-2.359v-2.192l4.496,2.359v-2.192l-4.496-2.36v-2.193l4.496,2.36v-2.193l-4.496-2.359v-2.192
			l4.496,2.359v-2.192l-4.496-2.36v-2.192l4.496,2.359v-2.192l-4.496-2.359v-2.193l4.496,2.36V304l-4.496-2.36v-2.193l4.496,2.36
			v-0.691v-1.501l-4.496-2.36v-0.674c0-0.504,0.033-0.995,0.088-1.474l4.869,2.545c0.231-0.577,0.462-1.27,0.808-1.731l-5.193-2.77
			l-0.156,0.26c0.804-2.841,2.788-4.87,5.988-5.109l-1.447,0.578l7.387,3.924c0.231,0,0.577,0.116,0.807,0.116
			c-0.344-0.919-0.69-1.723-1.261-2.527c1.356,1.595,1.96,3.889,1.96,6.187V334.666z"/>
		<polygon fill="#FFFFFF" points="-197.652,378.49 -197.652,373.181 -220.965,373.181 -220.965,437.697 -215.046,437.697 
			-206.546,442.231 -202.506,442.231 -211.006,437.697 -206.852,437.697 -198.352,442.231 -194.313,442.231 -202.813,437.697 
			-198.657,437.697 -193.158,440.616 -193.158,438.422 -196.505,436.691 -197.652,436.691 -197.652,432.158 -214.849,432.158 
			-214.849,432.075 -213.24,432.075 -214.849,431.218 -214.849,429.026 -210.354,431.498 -210.354,429.305 -214.849,426.834 
			-214.849,424.641 -210.354,427.112 -210.354,425.381 -209.431,425.381 -214.849,422.446 -214.849,420.848 -213.776,420.848 
			-205.276,425.381 -201.237,425.381 -209.737,420.848 -205.582,420.848 -197.082,425.381 -196.621,425.381 -196.621,423.419 
			-201.428,420.848 -201.114,420.848 -201.114,415.423 -214.849,415.423 -214.849,415.341 -211.739,415.341 -214.849,413.674 
			-214.849,411.483 -210.354,413.955 -210.354,411.763 -214.849,409.291 -214.849,407.098 -210.354,409.569 -210.354,407.377 
			-214.849,404.905 -214.849,402.712 -210.354,405.184 -210.354,402.99 -214.849,400.52 -214.849,398.326 -210.354,400.798 
			-210.354,398.605 -214.849,396.134 -214.849,393.94 -210.354,396.412 -210.354,394.22 -214.849,391.747 -214.849,389.556 
			-210.354,392.027 -210.354,389.834 -214.849,387.362 -214.849,385.17 -210.354,387.641 -210.354,385.448 -214.849,382.977 
			-214.849,380.784 -210.354,383.255 -210.354,383.024 -206.546,383.024 -214.849,378.589 -214.849,378.49 -211.008,378.49 
			-202.506,383.024 -198.352,383.024 -206.854,378.49 -202.814,378.49 -194.313,383.024 -193.158,383.024 -193.158,381.409 
			-198.658,378.49 		"/>
	</g>
</g>
<g id="lazy_bastard">
	<g id="stripes">
		<path fill="#158035" d="M785.517,425.442L470.489,244.097l4.798-8.335l315.029,181.347L785.517,425.442z M790.316,446.458
			L475.287,265.112l-4.798,8.334l315.027,181.346L790.316,446.458z M790.316,475.808L475.287,294.461l-4.798,8.335l315.027,181.345
			L790.316,475.808z M790.316,505.157L475.287,323.812l-4.798,8.335l315.027,181.347L790.316,505.157z M790.316,534.507
			L475.287,353.161l-4.798,8.334l315.027,181.346L790.316,534.507z M790.316,241.009L475.287,59.664l-4.798,8.335l315.027,181.346
			L790.316,241.009z M790.316,270.359L475.287,89.013l-4.798,8.335l315.027,181.346L790.316,270.359z M790.316,299.709
			L475.287,118.363l-4.798,8.335l315.027,181.346L790.316,299.709z M790.316,329.059L475.287,147.713l-4.798,8.334l315.027,181.346
			L790.316,329.059z M790.316,358.408L475.287,177.063l-4.798,8.335l315.027,181.346L790.316,358.408z M790.316,387.758
			L475.287,206.413l-4.798,8.335l315.027,181.346L790.316,387.758z"/>
	</g>
	<g id="white" display="none">
		<g display="inline">
			<g>
				<path fill="#FFFFFF" d="M567.767,277.244v-2.193l6.811,3.693h-4.156L567.767,277.244z M569.268,197.955h1.848l2.769,1.5v2.193
					l-4.616-2.424V197.955z M569.268,201.417l4.616,2.423v2.192l-4.616-2.423V201.417z M569.268,205.802l4.616,2.424v2.193
					l-4.616-2.424V205.802z M569.268,210.188l4.616,2.424v2.193l-4.616-2.424V210.188z M569.268,214.574l4.616,2.424v2.193
					l-4.616-2.423V214.574z M569.268,218.959l4.616,2.424v2.193l-4.616-2.423V218.959z M569.268,223.345l4.616,2.424v2.192
					l-4.616-2.423V223.345z M569.268,227.731l4.616,2.423v2.193l-4.616-2.424V227.731z M569.268,232.117l4.616,2.423v2.193
					l-4.616-2.424V232.117z M569.268,236.502l4.616,2.424v2.192l-4.616-2.424V236.502z M569.268,240.888l4.616,2.424v2.193
					l-4.616-2.424V240.888z M569.268,245.274l4.616,2.424v2.193l-4.616-2.424V245.274z M569.268,249.66l4.616,2.423v2.193
					l-4.616-2.423V249.66z M569.268,254.045l4.616,2.424v2.193l-4.616-2.424V254.045z M569.268,258.431l4.616,2.424v2.193
					l-4.616-2.424V258.431z M569.268,262.817l4.616,2.423v2.193l-4.616-2.424V262.817z M569.268,267.203l2.885,1.5h-2.885V267.203z
					 M574.115,274.127l8.655,4.617h-4.038l-8.657-4.617H574.115z M582.309,274.127l8.656,4.617h-4.04l-8.656-4.617H582.309z
					 M586.925,273.319h2.079l2.538,1.27v2.193l-5.077-2.655h0.46V273.319z"/>
				<path fill="#FFFFFF" d="M599.618,278.744h-1.617l0.116-0.808L599.618,278.744z M598.693,274.127h0.463l5.193,2.77l-0.231,1.847
					h-0.46l-5.31-2.885L598.693,274.127z M600.08,270.319l4.846,2.654l-0.23,1.962l-4.964-2.654L600.08,270.319z M600.656,266.164
					l4.963,2.654l-0.347,1.962l-4.847-2.539L600.656,266.164z M601.349,262.124l4.849,2.654l-0.232,2.078l-4.962-2.654
					L601.349,262.124z M601.926,258.084l4.963,2.655l-0.347,2.078l-4.963-2.655L601.926,258.084z M607.234,258.777l-4.964-2.655
					l0.348-2.078l5.54,3.001h-0.693L607.234,258.777z M605.849,247.005h-2.307l0.116-1.154L605.849,247.005z M612.543,257.162
					l-8.655-4.617h4.155l8.656,4.617H612.543z M604.233,241.812l4.962,2.654l-0.344,2.077l-4.85-2.655L604.233,241.812z
					 M604.926,237.772l4.849,2.54l-0.347,2.077l-4.847-2.655L604.926,237.772z M605.503,233.732l4.848,2.539l-0.347,2.078
					l-4.847-2.655L605.503,233.732z M606.197,229.693l4.729,2.539l-0.345,1.962l-4.733-2.539L606.197,229.693z M606.542,227.384
					l0.23-1.846l4.733,2.539l-0.348,2.077l-4.731-2.539L606.542,227.384z M611.736,226.115l-4.732-2.539l0.23-2.078l4.615,2.424
					l0.117,1.039L611.736,226.115z M607.696,217.343l3.577,1.847l0.347,2.424l-4.155-2.192L607.696,217.343z M608.158,213.188
					l2.539,1.271l0.345,2.424l-3.114-1.616L608.158,213.188z M608.734,209.034l1.385,0.808l0.348,2.423l-2.079-1.154
					L608.734,209.034z M609.195,204.994l0.348,0.116l0.346,2.424l-0.923-0.462L609.195,204.994z M616.468,254.854l-4.386-2.309h4.04
					L616.468,254.854z M613.697,198.532l4.155,2.308l0.462,2.424l-4.271-2.308L613.697,198.532z M614.391,203.379l4.27,2.308
					l0.347,2.424l-4.27-2.309L614.391,203.379z M615.082,208.111l4.271,2.308l0.345,2.424l-4.27-2.308L615.082,208.111z
					 M615.775,212.843l4.27,2.308l0.347,2.423l-4.155-2.308L615.775,212.843z M616.583,217.69l4.155,2.193l0.461,2.424l-4.27-2.193
					L616.583,217.69z M617.275,222.422l4.271,2.308l0.347,2.309l-4.155-2.193L617.275,222.422z M618.083,227.27l4.154,2.193
					l0.463,2.423l-4.155-2.192L618.083,227.27z M618.891,232.117l4.156,2.192l0.346,2.424l-4.154-2.308L618.891,232.117z
					 M619.584,236.849l4.154,2.193l0.346,2.423l-4.154-2.308L619.584,236.849z M620.392,241.581l4.156,2.193l0.344,2.424
					l-4.153-2.193L620.392,241.581z M621.085,246.428l4.27,2.192l0.345,2.423l-4.27-2.192L621.085,246.428z M621.777,251.16
					l4.386,2.308l0.346,2.424l-4.271-2.308L621.777,251.16z M622.584,256.007l4.271,2.193l0.348,2.424l-4.271-2.193L622.584,256.007
					z M623.276,260.739l4.271,2.308l0.347,2.308l-4.155-2.193L623.276,260.739z M628.354,278.744l-4.616-2.54l-0.346-2.077h0.346
					l6.117,3.231l0.23,1.385H628.354z M624.084,265.586l4.271,2.192l0.347,2.424l-4.27-2.308L624.084,265.586z M624.892,270.319
					l4.271,2.308l0.347,2.308l-4.271-2.193L624.892,270.319z"/>
				<path fill="#FFFFFF" d="M635.738,274.127l8.656,4.617h-4.041l-5.193-2.77v-1.847H635.738z M636.199,278.744h-1.039v-0.577
					L636.199,278.744z M637.008,268.241l0.693-1.847l3.808,2.077h-4.038L637.008,268.241z M642.894,203.379h-4.155l-0.924-0.461
					v-2.193L642.894,203.379z M638.97,262.702l4.617,2.423l-0.578,1.962l-4.731-2.539L638.97,262.702z M642.433,198.763l8.655,4.616
					h-4.039l-8.656-4.616H642.433z M640.239,259.008l4.615,2.423l-0.575,1.847l-4.734-2.424L640.239,259.008z M643.932,274.127
					l8.656,4.617h-4.038l-8.656-4.617H643.932z M641.509,255.315l4.617,2.423l-0.577,1.847l-4.732-2.423L641.509,255.315z
					 M642.778,251.622l4.615,2.423l-0.576,1.847l-4.733-2.424L642.778,251.622z M644.047,247.929l4.618,2.423l-0.578,1.847
					l-4.731-2.424L644.047,247.929z M645.318,244.12l4.614,2.539l-0.576,1.847l-4.731-2.539L645.318,244.12z M646.586,240.426
					l4.618,2.539l-0.578,1.847l-4.731-2.539L646.586,240.426z M650.626,198.763l3.578,1.962l-0.693,1.846l-6.925-3.808H650.626z
					 M647.857,236.733l4.616,2.539l-0.578,1.847l-4.731-2.539L647.857,236.733z M652.127,274.127l8.656,4.617h-4.04l-8.656-4.617
					H652.127z M649.125,233.04l4.618,2.539l-0.578,1.847l-4.731-2.539L649.125,233.04z M650.396,229.347l4.617,2.424l-0.578,1.846
					l-4.731-2.423L650.396,229.347z M651.664,225.653l4.617,2.424l-0.576,1.846l-4.733-2.423L651.664,225.653z M652.935,221.96
					l4.616,2.424l-0.577,1.847l-4.73-2.423L652.935,221.96z M654.204,218.267l4.616,2.423l-0.576,1.847l-4.733-2.423
					L654.204,218.267z M655.474,214.459l4.618,2.539l-0.58,1.846l-4.729-2.539L655.474,214.459z M656.627,210.766l4.732,2.539
					l-0.576,1.847l-4.733-2.539L656.627,210.766z M664.938,278.744l-8.656-4.617h4.04l5.078,2.655v1.962H664.938z M657.896,207.072
					l4.734,2.539l-0.578,1.846l-4.731-2.539L657.896,207.072z M659.168,203.263l4.73,2.539l-0.692,1.962l-4.731-2.539
					L659.168,203.263z M664.476,203.956l-4.731-2.538l0.577-1.848l4.732,2.54v0.229L664.476,203.956z M665.054,199.917l-3.579-1.962
					h3.579V199.917z M665.399,274.589l-2.885-1.5h2.885V274.589z"/>
				<path fill="#FFFFFF" d="M675.667,197.839l0.923,0.461l0.578,2.539l-3.925-2.077l-0.23-0.924H675.667z M673.82,201.301
					l4.039,2.078l0.576,2.539l-3.922-2.077L673.82,201.301z M675.09,206.379l4.039,2.078l0.578,2.539l-3.926-2.078L675.09,206.379z
					 M676.475,211.458l3.924,2.078l0.576,2.539l-3.807-2.077L676.475,211.458z M677.744,216.536l3.924,2.078l0.693,2.539
					l-3.926-2.078L677.744,216.536z M679.129,221.614l3.925,2.193l0.691,2.539l-4.038-2.193l-0.231-1.27L679.129,221.614z
					 M680.167,226.577l4.156,2.192l0.577,2.539l-4.155-2.192L680.167,226.577z M681.206,231.54l4.155,2.193l0.578,2.424
					l-4.155-2.193L681.206,231.54z M682.246,236.502l3.23,1.731l-0.46,1.962l-2.194-1.269L682.246,236.502z M683.285,241.465
					l1.384,0.693l-0.462,1.962l-0.346-0.231L683.285,241.465z M691.709,276.551v2.192l-6.001-3.231v-1.385h1.384L691.709,276.551z
					 M685.708,277.705l1.848,1.039h-1.848V277.705z M687.092,253.93l0.348-1.5l5.193,2.655l-0.577,1.962l-4.964-2.655V253.93z
					 M687.092,256.584l4.617,2.424v2.193l-4.617-2.424V256.584z M687.092,260.97l4.617,2.423v2.193l-4.617-2.424V260.97z
					 M687.092,265.355l4.617,2.423v2.193l-4.617-2.424V265.355z M687.092,269.741l4.617,2.424v2.193l-4.617-2.424V269.741z
					 M688.479,248.505l5.078,2.77l-0.462,1.962l-5.193-2.77L688.479,248.505z M689.402,244.696l5.193,2.771l-0.463,1.962
					l-5.193-2.771L689.402,244.696z M690.439,240.773l5.194,2.77l-0.578,1.962l-5.193-2.771L690.439,240.773z M691.364,236.964
					l5.192,2.77l-0.461,1.962l-5.193-2.77L691.364,236.964z M692.401,233.04l5.193,2.77l-0.576,1.962l-5.193-2.77L692.401,233.04z
					 M693.325,229.232l5.192,2.77l-0.46,1.962l-5.192-2.77L693.325,229.232z M694.364,225.423l5.193,2.77l-0.577,1.847l-5.194-2.77
					L694.364,225.423z M695.287,221.499l5.194,2.771l-0.462,1.961l-5.193-2.77L695.287,221.499z M696.327,217.69l5.193,2.77
					l-0.464,1.847l-5.193-2.771L696.327,217.69z M697.365,213.766l5.079,2.77l-0.463,1.962l-5.194-2.77L697.365,213.766z
					 M698.288,209.957l5.194,2.771l-0.463,1.962l-5.193-2.771L698.288,209.957z M699.326,206.149l5.079,2.77l-0.462,1.847
					l-5.193-2.771L699.326,206.149z M700.25,202.225l5.193,2.77l-0.46,1.962l-5.194-2.77L700.25,202.225z M701.288,198.416
					l5.078,2.77l-0.46,1.846l-5.193-2.77L701.288,198.416z M706.944,199.224l-2.539-1.385h2.885L706.944,199.224z"/>
				<path fill="#FFFFFF" d="M502.219,367.001v-2.192l6.811,3.693h-4.156L502.219,367.001z M503.72,288.635h3.578l8.655,4.617h-4.154
					l-8.079-4.27V288.635z M503.72,291.175l4.616,2.424v2.192l-4.616-2.423V291.175z M503.72,295.56l4.616,2.424v2.193l-4.616-2.424
					V295.56z M503.72,299.946l4.616,2.423v2.193l-4.616-2.424V299.946z M503.72,304.332l4.616,2.424v2.192l-4.616-2.423V304.332z
					 M503.72,308.718l4.616,2.424v2.192l-4.616-2.424V308.718z M503.72,313.104l4.616,2.424v2.192l-4.616-2.423V313.104z
					 M503.72,317.489l4.616,2.423v2.193l-4.616-2.424V317.489z M503.72,321.875l4.616,2.423v2.194l-4.616-2.425V321.875z
					 M503.72,326.26l4.616,2.424v2.193l-4.616-2.424V326.26z M504.873,333.416l-1.153-0.577v-2.192l4.616,2.423v0.347H504.873z
					 M508.336,344.034l-4.616-2.424v-2.192l7.386,3.924h-2.77V344.034z M503.72,343.803l4.616,2.424v2.192l-4.616-2.423V343.803z
					 M503.72,348.188l4.616,2.424v2.193l-4.616-2.425V348.188z M503.72,352.575l4.616,2.423v2.193l-4.616-2.424V352.575z
					 M503.72,356.96l2.885,1.5h-2.885V356.96z M508.566,363.886l8.656,4.616h-4.039l-8.656-4.616H508.566z M515.261,343.342
					l-8.656-4.616h4.155l8.655,4.616h-0.345H515.261z M521.147,293.945l-9.811-5.31h0.692
					C517.108,288.751,519.878,290.828,521.147,293.945z M516.068,363.886h0.692l7.617,4.039c-0.925,0.346-1.962,0.461-2.999,0.577
					l-8.657-4.616H516.068z M521.147,342.071l-6.349-3.346C517.685,338.956,519.878,339.995,521.147,342.071z M522.878,362.73
					l5.655,3.001c-0.577,0.462-1.153,0.924-1.731,1.27l-6.924-3.577l0.807-0.347C521.492,363.077,522.186,362.961,522.878,362.73z
					 M524.841,333.186l4.729,2.539c-0.344,0.462-0.691,1.038-1.151,1.501l-4.617-2.54L524.841,333.186z M525.879,359.961l5.193,2.77
					l-1.038,1.616l-5.31-2.77C525.186,361.115,525.532,360.538,525.879,359.961z M525.532,337.802l1.5,0.808l-0.576,0.461
					C526.108,338.726,525.879,338.264,525.532,337.802z M529.919,294.175l-3.117-1.731c-0.346-0.808-0.693-1.616-1.153-2.424
					C527.38,291.059,528.879,292.444,529.919,294.175z M526.341,329.492l5.077,2.77c-0.229,0.577-0.461,1.154-0.808,1.731
					l-4.847-2.539C525.994,330.877,526.224,330.184,526.341,329.492z M527.264,356.384l5.077,2.653
					c-0.115,0.692-0.229,1.385-0.459,1.962l-5.31-2.884C526.802,357.768,527.032,357.075,527.264,356.384z M527.495,325.799
					l4.846,2.539c0,0.691-0.115,1.385-0.346,2.078l-4.963-2.655C527.264,327.068,527.38,326.492,527.495,325.799z M529.688,342.303
					l-2.308-1.27l-0.348-0.808C528.071,340.802,528.994,341.495,529.688,342.303z M532.111,299.715l-4.271-2.308
					c0-0.808-0.114-1.616-0.345-2.308l3.923,2.077C531.765,297.984,531.995,298.792,532.111,299.715z M527.84,322.336v-0.808
					l4.618,2.539v2.192l-4.732-2.539C527.84,323.26,527.84,322.798,527.84,322.336z M528.071,352.344l4.618,2.539v1.039
					c0,0.346-0.116,0.692-0.116,1.038l-4.848-2.539L528.071,352.344z M532.573,304.332l-4.733-2.424l0.116-2.193l4.502,2.424
					c0.115,0.578,0.115,1.154,0.115,1.731V304.332z M527.84,303.986l4.618,2.539v2.192l-4.618-2.539V303.986z M527.84,308.371
					l4.618,2.539v2.193l-4.618-2.539V308.371z M527.84,312.757l4.618,2.54v2.192l-4.618-2.54V312.757z M527.84,317.143l4.618,2.539
					v2.193l-4.618-2.539V317.143z M532.458,348.188l-4.387-2.423v-0.116c0-0.692,0-1.385-0.115-2.077l3.809,2.077
					C532.111,346.458,532.341,347.266,532.458,348.188z M528.071,347.958l4.618,2.54v2.192l-4.618-2.54V347.958z"/>
				<path fill="#FFFFFF" d="M542.955,368.502h-1.616l0.115-0.809L542.955,368.502z M542.032,363.886h0.461l5.194,2.77l-0.232,1.847
					h-0.46l-5.31-2.886L542.032,363.886z M543.417,360.077l4.846,2.653l-0.229,1.963l-4.964-2.655L543.417,360.077z
					 M543.993,355.922l4.964,2.654l-0.346,1.962l-4.849-2.539L543.993,355.922z M544.687,351.882l4.848,2.655l-0.231,2.077
					l-4.962-2.654L544.687,351.882z M545.264,347.843l4.962,2.655l-0.346,2.077l-4.963-2.655L545.264,347.843z M550.572,348.536
					l-4.964-2.655l0.348-2.078l5.539,3.002h-0.693L550.572,348.536z M549.188,336.763h-2.308l0.115-1.154L549.188,336.763z
					 M555.881,346.919l-8.656-4.616h4.157l8.655,4.616H555.881z M547.571,331.569l4.962,2.655l-0.344,2.076l-4.85-2.654
					L547.571,331.569z M548.263,327.529l4.85,2.54l-0.348,2.077l-4.846-2.654L548.263,327.529z M548.841,323.49l4.848,2.539
					l-0.346,2.078l-4.849-2.654L548.841,323.49z M549.534,319.451l4.729,2.539l-0.344,1.963l-4.732-2.539L549.534,319.451z
					 M549.88,317.143l0.23-1.846l4.733,2.539l-0.348,2.076l-4.732-2.539L549.88,317.143z M555.073,315.873l-4.731-2.539l0.23-2.077
					l4.616,2.423l0.115,1.039L555.073,315.873z M551.033,307.102l3.579,1.847l0.346,2.425l-4.156-2.193L551.033,307.102z
					 M551.495,302.947l2.539,1.27l0.346,2.424l-3.114-1.616L551.495,302.947z M552.073,298.792l1.384,0.807l0.347,2.424
					l-2.078-1.154L552.073,298.792z M552.533,294.752l0.348,0.116l0.346,2.424l-0.924-0.462L552.533,294.752z M559.805,344.611
					l-4.385-2.309h4.04L559.805,344.611z M557.034,288.29l4.156,2.308l0.462,2.424l-4.27-2.308L557.034,288.29z M557.729,293.137
					l4.271,2.308l0.345,2.424l-4.27-2.309L557.729,293.137z M558.42,297.869l4.272,2.308l0.344,2.424l-4.27-2.308L558.42,297.869z
					 M559.113,302.601l4.271,2.308l0.346,2.424l-4.156-2.308L559.113,302.601z M559.922,307.448l4.153,2.192l0.462,2.424
					l-4.27-2.192L559.922,307.448z M560.613,312.18l4.27,2.309l0.348,2.309l-4.156-2.193L560.613,312.18z M561.421,317.027
					l4.154,2.193l0.464,2.422l-4.156-2.191L561.421,317.027z M562.229,321.875l4.155,2.192l0.347,2.425l-4.155-2.309
					L562.229,321.875z M562.922,326.607l4.154,2.192l0.346,2.423l-4.153-2.309L562.922,326.607z M563.729,331.339l4.155,2.192
					l0.345,2.425l-4.154-2.194L563.729,331.339z M564.423,336.187l4.271,2.191l0.344,2.424l-4.27-2.192L564.423,336.187z
					 M565.114,340.918l4.387,2.309l0.345,2.423l-4.271-2.308L565.114,340.918z M565.922,345.766l4.271,2.192l0.348,2.423
					l-4.271-2.192L565.922,345.766z M566.614,350.498l4.27,2.308l0.348,2.309l-4.155-2.194L566.614,350.498z M571.691,368.502
					l-4.615-2.54l-0.346-2.076h0.346l6.116,3.23l0.23,1.386H571.691z M567.422,355.345l4.27,2.192l0.349,2.424l-4.271-2.309
					L567.422,355.345z M568.229,360.077l4.271,2.308l0.347,2.309l-4.271-2.193L568.229,360.077z"/>
				<path fill="#FFFFFF" d="M583.115,347.727v-0.23l4.618,2.424v2.193l-4.618-2.425C583,348.997,583,348.419,583.115,347.727z
					 M583.115,344.496h2.654l1.964,1.038v2.192l-4.618-2.422V344.496z M583.807,295.214l5.194,2.77
					c-0.23,0.578-0.461,1.27-0.576,1.962l-4.964-2.654L583.807,295.214z M588.076,304.102l-4.615-2.539v-2.193l4.615,2.539v1.847
					V304.102z M583.461,303.755l4.615,2.538v2.194l-4.615-2.539V303.755z M583.461,308.141l4.615,2.539v2.193l-4.615-2.541V308.141z
					 M583.461,312.526l4.615,2.538v2.194l-4.615-2.54V312.526z M588.076,356.729l-3.346-1.731c-0.461-0.923-0.924-1.847-1.153-2.885
					l4.156,2.192C587.733,355.229,587.963,355.922,588.076,356.729z M583.807,317.143l4.27,2.309v0.23
					c0,0.809,0.117,1.502,0.232,2.078l-3.001-1.617C584.614,319.221,584.154,318.297,583.807,317.143z M595.233,369.195
					l-9.694-5.079c-0.461-0.462-0.809-1.039-1.154-1.616c1.848,1.154,3.924,1.847,6.232,2.078l8.886,4.731
					c-0.576,0.115-1.153,0.115-1.73,0.115C596.85,369.425,596.041,369.31,595.233,369.195z M585.654,291.868l5.425,2.885
					c-0.462,0.347-0.924,0.923-1.271,1.5l-5.308-2.885C584.847,292.79,585.192,292.329,585.654,291.868z M599.852,336.647
					l-13.39-7.155c-0.692-0.692-1.384-1.5-1.961-2.309c2.424,1.846,5.308,3.348,7.962,4.848
					C595.233,333.646,597.888,335.031,599.852,336.647z M588.771,289.097l6.81,3.693c-0.923,0.116-1.846,0.347-2.654,0.693
					l-5.887-3.116L588.771,289.097z M599.388,292.56l-8.424-4.386c0.346-0.115,0.691-0.115,1.154-0.115
					C595.695,288.059,598.119,289.79,599.388,292.56z M602.506,368.732l-7.618-4.039c1.153-0.115,2.193-0.231,3.116-0.577
					l7.041,3.692C604.236,368.271,603.429,368.502,602.506,368.732z M606.892,366.771l-6.003-3.231
					c0.809-0.23,1.501-0.578,2.077-1.039l5.541,2.886L606.892,366.771z M607.813,292.675l-2.885-1.5l-1.039-2.078
					C605.391,290.021,606.66,291.29,607.813,292.675z M609.774,363.886l-5.193-2.771c0.348-0.461,0.81-1.038,1.04-1.616l5.192,2.77
					C610.468,362.847,610.237,363.424,609.774,363.886z M605.16,313.219v-2.193l5.653,3.002h-4.038L605.16,313.219z
					 M610.468,298.445l-4.271-2.192l-0.345-2.424l3.691,1.962C609.891,296.714,610.237,297.522,610.468,298.445z M606.428,309.41
					v-2.078l4.618,2.425v2.192l-4.733-2.539H606.428z M606.428,298.562l4.386,2.308c0.117,0.809,0.232,1.5,0.232,2.309l-4.618-2.424
					v-1.846V298.562z M606.428,302.947l4.618,2.423v2.192l-4.618-2.424V302.947z M611.737,360.538l-5.31-2.771l0.348-1.269
					l0.23-0.577l5.31,2.77C612.199,359.385,611.969,359.961,611.737,360.538z M612.776,356.729l-5.077-2.654
					c0.23-0.693,0.46-1.27,0.576-1.962l4.848,2.654C613.123,355.46,612.893,356.037,612.776,356.729z M612.776,343.572l-4.153-2.192
					c-0.116-0.809-0.231-1.616-0.464-2.424l3.116,1.731C611.854,341.61,612.43,342.534,612.776,343.572z M608.623,347.958
					l4.613,2.423v2.194l-4.729-2.539C608.623,349.343,608.623,348.65,608.623,347.958z M613.236,348.188l-4.613-2.423v-2.193
					l4.613,2.424v0.692V348.188z"/>
				<path fill="#FFFFFF" d="M619.927,288.404h0.692l6.001,3.232v1.385h-1.499l-5.194-2.77V288.404z M619.927,292.444l1.039,0.577
					h-1.039V292.444z M626.62,289.444l-1.962-1.04h1.962V289.444z M635.046,368.502l-3.809-2.078v-2.193l5.886,3.117v1.154H635.046z
					 M637.123,295.099l-4.616-2.54v-2.193l4.964,2.655h-0.348V295.099z M632.507,294.752l4.616,2.54v2.192l-4.616-2.539V294.752z
					 M632.507,299.139l4.616,2.539v2.192l-4.616-2.539V299.139z M632.507,303.523l4.616,2.539v2.193l-4.616-2.539V303.523z
					 M632.507,307.91l4.616,2.539v2.193l-4.616-2.539V307.91z M632.507,312.295l4.616,2.539v2.193l-4.616-2.539V312.295z
					 M632.507,316.682l4.616,2.539v2.193l-4.616-2.541V316.682z M632.507,321.067l4.616,2.538v2.193l-4.616-2.539V321.067z
					 M632.507,325.453l4.616,2.539v2.191l-4.616-2.539V325.453z M632.507,329.839l4.616,2.538v2.193l-4.616-2.539V329.839z
					 M632.507,334.225l4.616,2.538v2.193l-4.616-2.539V334.225z M632.507,338.609l4.616,2.54v2.192l-4.616-2.54V338.609z
					 M632.507,342.995l4.616,2.539v2.192l-4.616-2.538V342.995z M632.507,347.381l4.616,2.539v2.193l-4.616-2.539V347.381z
					 M632.507,351.767l4.616,2.539v2.193l-4.616-2.539V351.767z M632.507,356.152l4.616,2.539v2.193l-4.616-2.539V356.152z
					 M632.507,360.538l4.616,2.539v2.078l-4.616-2.425V360.538z M637.008,288.404l8.655,4.617h-4.039l-8.655-4.617H637.008z
					 M643.702,287.713h0.229l4.387,2.308v2.193l-7.155-3.81h2.539V287.713z"/>
				<path fill="#FFFFFF" d="M655.587,368.502h-1.616l0.115-0.809L655.587,368.502z M654.663,363.886h0.462l5.193,2.77l-0.23,1.847
					h-0.463l-5.31-2.886L654.663,363.886z M656.047,360.077l4.85,2.653l-0.232,1.963l-4.962-2.655L656.047,360.077z
					 M656.626,355.922l4.962,2.654l-0.348,1.962l-4.846-2.539L656.626,355.922z M657.317,351.882l4.847,2.655l-0.23,2.077
					l-4.963-2.654L657.317,351.882z M657.894,347.843l4.964,2.655l-0.347,2.077l-4.963-2.655L657.894,347.843z M663.203,348.536
					l-4.962-2.655l0.346-2.078l5.54,3.002h-0.691L663.203,348.536z M661.819,336.763h-2.311l0.116-1.154L661.819,336.763z
					 M668.513,346.919l-8.656-4.616h4.154l8.656,4.616H668.513z M660.203,331.569l4.963,2.655l-0.348,2.076l-4.847-2.654
					L660.203,331.569z M660.896,327.529l4.846,2.54l-0.346,2.077l-4.849-2.654L660.896,327.529z M661.473,323.49l4.847,2.539
					l-0.346,2.078l-4.848-2.654L661.473,323.49z M662.164,319.451l4.733,2.539l-0.349,1.963l-4.729-2.539L662.164,319.451z
					 M662.511,317.143l0.231-1.846l4.731,2.539l-0.347,2.076l-4.731-2.539L662.511,317.143z M667.705,315.873l-4.732-2.539
					l0.23-2.077l4.617,2.423l0.116,1.039L667.705,315.873z M663.665,307.102l3.578,1.847l0.346,2.425l-4.153-2.193L663.665,307.102z
					 M664.127,302.947l2.538,1.27l0.348,2.424l-3.118-1.616L664.127,302.947z M664.704,298.792l1.385,0.807l0.347,2.424
					l-2.077-1.154L664.704,298.792z M665.166,294.752l0.346,0.116l0.346,2.424l-0.923-0.462L665.166,294.752z M672.437,344.611
					l-4.387-2.309h4.041L672.437,344.611z M669.668,288.29l4.153,2.308l0.461,2.424l-4.27-2.308L669.668,288.29z M670.359,293.137
					l4.27,2.308l0.347,2.424l-4.271-2.309L670.359,293.137z M671.051,297.869l4.271,2.308l0.348,2.424l-4.271-2.308L671.051,297.869
					z M671.743,302.601l4.271,2.308l0.347,2.424l-4.153-2.308L671.743,302.601z M672.551,307.448l4.155,2.192l0.462,2.424
					l-4.27-2.192L672.551,307.448z M673.244,312.18l4.271,2.309l0.344,2.309l-4.153-2.193L673.244,312.18z M674.053,317.027
					l4.155,2.193l0.46,2.422l-4.154-2.191L674.053,317.027z M674.861,321.875l4.154,2.192l0.346,2.425l-4.156-2.309L674.861,321.875
					z M675.553,326.607l4.154,2.192l0.348,2.423l-4.156-2.309L675.553,326.607z M676.36,331.339l4.154,2.192l0.348,2.425
					l-4.156-2.194L676.36,331.339z M677.053,336.187l4.271,2.191l0.347,2.424l-4.271-2.192L677.053,336.187z M677.746,340.918
					l4.385,2.309l0.347,2.423l-4.27-2.308L677.746,340.918z M678.554,345.766l4.271,2.192l0.345,2.423l-4.27-2.192L678.554,345.766z
					 M679.247,350.498l4.271,2.308l0.344,2.309l-4.154-2.194L679.247,350.498z M684.325,368.502l-4.618-2.54l-0.346-2.076h0.346
					l6.117,3.23l0.231,1.386H684.325z M680.055,355.345l4.271,2.192l0.345,2.424l-4.271-2.309L680.055,355.345z M680.862,360.077
					l4.27,2.308l0.347,2.309l-4.271-2.193L680.862,360.077z"/>
				<path fill="#FFFFFF" d="M698.171,368.502l-2.655-1.501v-2.192l6.117,3.347v0.347H698.171z M697.017,288.521h3.346l8.656,4.617
					h-4.155l-7.847-4.155V288.521z M697.017,291.175l4.616,2.424v2.192l-4.616-2.423V291.175z M697.017,295.56l4.616,2.424v2.193
					l-4.616-2.424V295.56z M697.017,299.946l4.616,2.423v2.193l-4.616-2.424V299.946z M697.017,304.332l4.616,2.424v2.192
					l-4.616-2.423V304.332z M697.017,308.718l4.616,2.424v2.192l-4.616-2.424V308.718z M697.017,313.104l4.616,2.424v2.192
					l-4.616-2.423V313.104z M697.017,317.489l4.616,2.423v2.193l-4.616-2.424V317.489z M697.017,321.875l4.616,2.423v2.194
					l-4.616-2.425V321.875z M697.017,326.26l4.616,2.424v2.193l-4.616-2.424V326.26z M697.017,330.646l4.616,2.423v2.193
					l-4.616-2.424V330.646z M701.401,337.34h-4.038l-0.347-0.114v-2.194L701.401,337.34z M701.633,348.419l-4.616-2.423v-2.193
					l6.809,3.578h-2.192V348.419z M697.017,348.188l4.616,2.424v2.193l-4.616-2.425V348.188z M697.017,352.575l4.616,2.423v2.193
					l-4.616-2.424V352.575z M697.017,356.96l4.616,2.425v2.192l-4.616-2.424V356.96z M697.017,361.347l4.616,2.423v2.192
					l-4.616-2.423V361.347z M703.364,342.765l8.656,4.616h-4.155l-8.656-4.616H703.364z M714.098,293.714l-9.695-5.193h1.153
					C709.941,288.521,713.288,291.175,714.098,293.714z M715.02,346.805l-7.501-4.04h0.924
					C711.672,342.765,714.098,344.38,715.02,346.805z M718.021,337.456l4.846,2.539c-0.345,0.576-0.808,1.154-1.268,1.615
					l-4.85-2.654C717.214,338.495,717.675,338.032,718.021,337.456z M719.521,333.878l5.078,2.654
					c-0.229,0.577-0.46,1.27-0.808,1.846l-4.847-2.653L719.521,333.878z M723.561,294.406l-3.348-1.847
					c-0.344-0.923-0.692-1.846-1.152-2.654C720.792,290.944,722.407,292.444,723.561,294.406z M719.061,342.418l1.038,0.577
					l-0.347,0.231L719.061,342.418z M720.676,330.069l4.962,2.654c-0.116,0.692-0.229,1.385-0.46,2.077l-5.079-2.77L720.676,330.069
					z M722.753,368.502l-2.54-1.386v-2.192l6.003,3.116v0.462H722.753z M723.561,347.035l-2.769-1.501
					c-0.116-0.346-0.347-0.692-0.464-1.154C721.6,345.072,722.753,345.996,723.561,347.035z M725.408,299.715l-4.387-2.308
					c0-0.808-0.115-1.616-0.229-2.308l4.038,2.077C725.062,297.984,725.292,298.792,725.408,299.715z M721.137,326.376v-0.462
					l4.617,2.539v2.078l-4.732-2.424C721.137,327.529,721.137,326.953,721.137,326.376z M725.754,304.332l-4.617-2.539V299.6
					l4.617,2.539v1.963V304.332z M721.137,303.986l4.617,2.539v2.192l-4.617-2.539V303.986z M721.137,308.371l4.617,2.539v2.193
					l-4.617-2.539V308.371z M721.137,312.757l4.617,2.54v2.192l-4.617-2.54V312.757z M721.137,317.143l4.617,2.539v2.193
					l-4.617-2.539V317.143z M721.137,321.528l4.617,2.539v2.192l-4.617-2.539V321.528z M726.1,352.69l-4.5-2.424v-0.578
					c0-0.461-0.116-1.038-0.116-1.614l4.038,2.192C725.754,351.074,725.985,351.882,726.1,352.69z M721.6,352.459l4.616,2.539v2.193
					l-4.616-2.54V352.459z M721.6,356.845l4.616,2.54v2.192l-4.616-2.54V356.845z M721.6,361.23l4.616,2.539v2.078l-4.616-2.424
					V361.23z"/>
				<path fill="#FFFFFF" d="M737.753,367.116v-2.192l6.579,3.578h-4.156L737.753,367.116z M739.253,288.521h3.118l8.655,4.617
					h-4.155l-7.618-4.04V288.521z M739.253,291.29l4.617,2.424v2.193l-4.617-2.424V291.29z M739.253,295.676l4.617,2.424v2.193
					l-4.617-2.424V295.676z M739.253,300.063l4.617,2.423v2.193l-4.617-2.424V300.063z M739.253,304.447l4.617,2.424v2.193
					l-4.617-2.424V304.447z M739.253,308.832l4.617,2.425v2.192l-4.617-2.424V308.832z M739.253,313.219l4.617,2.424v2.193
					l-4.617-2.424V313.219z M739.253,317.604l4.617,2.425v2.192l-4.617-2.423V317.604z M739.253,321.99l4.617,2.424v2.193
					l-4.617-2.424V321.99z M739.253,326.376l4.617,2.424v2.192l-4.617-2.423V326.376z M739.253,330.762l4.617,2.424v2.192
					l-4.617-2.424V330.762z M739.253,335.147l4.617,2.423v2.193l-4.617-2.424V335.147z M739.253,339.533l4.617,2.424v2.192
					l-4.617-2.424V339.533z M739.253,343.919l4.617,2.423v2.194l-4.617-2.425V343.919z M739.253,348.305l4.617,2.424v2.191
					l-4.617-2.422V348.305z M739.253,352.69l4.617,2.424v2.192l-4.617-2.424V352.69z M739.253,357.075l2.194,1.154h-2.194V357.075z
					 M743.87,363.886l8.655,4.616h-4.038l-8.657-4.616H743.87z M750.68,288.635l6.348,3.348c0.346,0.577,0.576,1.154,0.808,1.731
					c-0.808-0.231-1.614-0.461-2.539-0.461l-8.771-4.732h1.616C749.063,288.521,749.871,288.521,750.68,288.635z M751.834,363.77
					l7.501,3.924c-1.038,0.347-2.077,0.462-2.999,0.577l-8.312-4.385h0.116C748.948,363.886,750.333,363.886,751.834,363.77z
					 M757.488,362.385l6.232,3.231c-0.691,0.462-1.27,0.924-1.961,1.27l-6.927-3.693c0.579-0.115,1.039-0.346,1.503-0.576
					C756.681,362.616,757.027,362.5,757.488,362.385z M761.182,359.961l5.193,2.886c-0.346,0.577-0.691,1.039-1.153,1.384
					l-5.655-2.884C760.143,360.999,760.721,360.538,761.182,359.961z M762.682,356.729c0-0.115,0.116-0.115,0.116-0.23l5.309,2.77
					l-0.692,1.847l-5.309-2.77C762.337,357.885,762.566,357.307,762.682,356.729z M767.761,295.445l-3.925-2.077l-0.691-2.54
					l2.885,1.616C766.723,293.252,767.299,294.291,767.761,295.445z M763.952,352.69l4.847,2.654c0,0.692-0.115,1.385-0.23,1.962
					l-5.077-2.655L763.952,352.69z M768.799,300.523l-4.387-2.424c0-0.808-0.113-1.5-0.229-2.309l4.271,2.309
					C768.684,298.792,768.684,299.6,768.799,300.523z M764.412,348.536l4.618,2.538v1.501v0.692l-4.731-2.539
					C764.299,350.036,764.412,349.343,764.412,348.536z M769.03,305.024l-4.618-2.539v-2.192l4.618,2.539v1.154V305.024z
					 M764.412,304.679l4.618,2.539v2.192l-4.618-2.539V304.679z M764.412,309.064l4.618,2.539v2.193l-4.618-2.54V309.064z
					 M764.412,313.449l4.618,2.539v2.193l-4.618-2.539V313.449z M764.412,317.836l4.618,2.537v2.194l-4.618-2.539V317.836z
					 M764.412,322.221l4.618,2.539v2.193l-4.618-2.539V322.221z M764.412,326.607l4.618,2.539v2.192l-4.618-2.539V326.607z
					 M764.412,330.992l4.618,2.539v2.077l-4.618-2.423V330.992z M764.412,335.378l4.618,2.54v2.077l-4.618-2.425V335.378z
					 M764.412,339.764l4.618,2.539v2.193l-4.618-2.539V339.764z M764.412,344.149l4.618,2.539v2.192l-4.618-2.539V344.149z"/>
			</g>
			<g>
				<path fill="#FFFFFF" d="M586.854,268.631v5.424H563.08v-80.789h6.116v75.365H586.854z"/>
				<path fill="#FFFFFF" d="M616.051,252.357v0.115h-13.273v-0.115l-3.346,21.698h-6.117l12.466-80.789h7.038l12.58,80.789h-6.001
					L616.051,252.357z M615.359,246.933l-3.117-19.621l-2.886-23.891l-2.884,23.891l-3.002,19.621H615.359z"/>
				<path fill="#FFFFFF" d="M660.943,197.652L636.938,268.4h23.772v5.655h-30.237v-4.617l24.353-70.748h-21.698v-5.424h27.815
					V197.652z"/>
				<path fill="#FFFFFF" d="M702.604,193.15l-15.58,60.707v20.198h-6.001v-20.198l-15.351-60.707h6.115l7.617,29.661l4.616,21.929
					l4.733-22.044c2.539-9.925,5.194-19.966,7.502-29.545H702.604z"/>
				<path fill="#FFFFFF" d="M528,351.233c0,9.001-6.232,12.579-12.003,12.579h-18.466v-80.789h14.427
					c10.271,0,15.927,6.348,15.927,16.158l-0.116,23.082c0,4.848-1.73,9.58-6.694,12.696c5.426,1.731,6.926,6.232,6.926,10.618
					V351.233z M503.647,288.563v44.78h8.541c4.155,0,9.81-4.27,9.81-11.194v-22.968c0-6.116-2.423-10.502-10.04-10.618H503.647z
					 M521.998,345.578c0-4.617-3.23-6.81-7.616-6.925h-10.734v19.735h12.35c5.31,0,6.001-4.963,6.001-7.155V345.578z"/>
				<path fill="#FFFFFF" d="M559.389,342.115v0.115h-13.272v-0.115l-3.348,21.697h-6.116l12.464-80.789h7.039l12.581,80.789h-6.001
					L559.389,342.115z M558.695,336.691l-3.116-19.621l-2.886-23.89l-2.884,23.89l-3.002,19.621H558.695z"/>
				<path fill="#FFFFFF" d="M577.042,347.654v-7.848h6.002v7.848c-0.231,6.003,3.117,11.658,10.042,11.658
					c6.347,0,9.579-5.079,9.579-11.426v-5.426c0-5.309-4.733-7.387-10.273-10.501c-6.577-3.694-14.426-7.503-15.118-16.735v-16.158
					c0-9.233,4.616-16.619,14.773-16.619c9.117,0,14.311,7.04,14.311,16.388v10.502h-5.887v-10.387
					c0-6.001-2.308-10.964-8.424-10.964c-5.194,0-8.656,3.578-8.656,11.08v15.927c0.346,5.309,5.078,8.31,9.81,10.964
					c8.194,4.617,15.351,7.848,15.351,16.043v5.887c0,9.002-4.964,16.851-15.465,16.851
					C583.62,364.737,576.927,357.928,577.042,347.654z"/>
				<path fill="#FFFFFF" d="M643.631,288.333h-11.194v75.48h-5.888v-75.48h-11.31v-5.309h28.392V288.333z"/>
				<path fill="#FFFFFF" d="M672.019,342.115v0.115h-13.272v-0.115l-3.348,21.697h-6.117l12.467-80.789h7.04l12.58,80.789h-6.003
					L672.019,342.115z M671.326,336.691l-3.116-19.621l-2.885-23.89l-2.886,23.89l-3.001,19.621H671.326z"/>
				<path fill="#FFFFFF" d="M721.527,363.813h-6.001v-14.195c0-4.155-2.654-6.925-7.156-6.925h-11.427v21.12h-6.117v-80.789h14.659
					c8.771,0.115,15.811,4.617,15.58,16.388v26.892c0,4.501-2.309,9.926-6.579,12.695c4.849,1.847,7.041,6.117,7.041,10.618V363.813
					z M696.943,337.269h8.542c4.155,0,9.694-3.809,9.694-10.965v-26.892c0-6.694-3.231-10.964-9.694-10.964h-8.542V337.269z"/>
				<path fill="#FFFFFF" d="M764.343,347.887c0,16.157-12.58,15.926-16.275,15.926h-15.002v-80.789h15.002
					c8.08,0,16.275,1.154,16.275,16.273V347.887z M758.455,299.297c0-10.156-4.614-10.849-10.388-10.849h-8.885v69.71h8.885
					c4.733,0,10.388-0.808,10.388-10.271V299.297z"/>
			</g>
		</g>
	</g>
</g>
</svg>
