<?xml version="1.0" encoding="utf-8"?>
<!-- Generator: Adobe Illustrator 15.0.0, SVG Export Plug-In . SVG Version: 6.00 Build 0)  -->
<!DOCTYPE svg PUBLIC "-//W3C//DTD SVG 1.1//EN" "http://www.w3.org/Graphics/SVG/1.1/DTD/svg11.dtd">
<svg version="1.1" id="Layer_1" xmlns="http://www.w3.org/2000/svg" xmlns:xlink="http://www.w3.org/1999/xlink" x="0px" y="0px"
	 width="841.891px" height="595.279px" viewBox="0 0 841.891 595.279" enable-background="new 0 0 841.891 595.279"
	 xml:space="preserve">
<g>
	<path d="M350.996,291.18h6.842l8.326,4.439c0.018,0.01,0.038,0.015,0.059,0.015h4.038c0.057,0,0.107-0.039,0.121-0.095
		c0.014-0.056-0.012-0.114-0.063-0.141l-7.91-4.219h3.623l8.323,4.439c0.018,0.01,0.038,0.015,0.059,0.015h4.04
		c0.002-0.001,0.004,0,0.006,0c0.069,0,0.125-0.056,0.125-0.125c0-0.058-0.039-0.106-0.092-0.121l-7.89-4.208h3.631l4.738,2.478
		c0.04,0.02,0.085,0.02,0.123-0.004c0.037-0.022,0.06-0.063,0.06-0.107v-2.193c0-0.047-0.027-0.091-0.069-0.112l-2.538-1.269
		c-0.017-0.009-0.036-0.013-0.056-0.013h-1.597v-4.329c0-0.069-0.056-0.125-0.125-0.125h-15.003
		c0.004-0.012,0.006-0.025,0.006-0.038c0-0.058-0.039-0.106-0.093-0.121l-2.444-1.271v-1.909l4.078,2.142
		c0.038,0.02,0.085,0.02,0.123-0.004c0.038-0.022,0.061-0.063,0.061-0.107v-2.193c0-0.046-0.026-0.089-0.067-0.111l-4.194-2.202
		v-1.91l4.078,2.141c0.038,0.02,0.085,0.019,0.123-0.004c0.038-0.022,0.061-0.063,0.061-0.107v-2.192
		c0-0.046-0.026-0.089-0.067-0.111l-4.194-2.202v-1.911l4.078,2.141c0.038,0.02,0.085,0.019,0.123-0.004
		c0.038-0.022,0.061-0.063,0.061-0.107v-2.193c0-0.046-0.026-0.089-0.067-0.111l-4.194-2.201v-1.91l4.078,2.141
		c0.038,0.02,0.085,0.019,0.123-0.004c0.038-0.022,0.061-0.063,0.061-0.107v-2.193c0-0.046-0.026-0.089-0.067-0.111l-4.194-2.202
		v-1.91l4.078,2.141c0.038,0.02,0.085,0.019,0.123-0.004c0.038-0.022,0.061-0.063,0.061-0.107v-2.192
		c0-0.046-0.026-0.089-0.067-0.111l-4.194-2.202v-1.91l4.078,2.141c0.038,0.02,0.085,0.02,0.123-0.004
		c0.038-0.022,0.061-0.063,0.061-0.107v-2.192c0-0.046-0.026-0.089-0.067-0.111l-4.194-2.203v-1.911l4.078,2.141
		c0.038,0.02,0.085,0.02,0.123-0.004c0.038-0.022,0.061-0.063,0.061-0.107v-2.192c0-0.046-0.026-0.089-0.067-0.111l-4.194-2.201
		v-1.912l4.078,2.142c0.038,0.02,0.085,0.02,0.123-0.004c0.038-0.022,0.061-0.063,0.061-0.107v-2.193
		c0-0.046-0.026-0.089-0.067-0.111l-4.194-2.202v-1.911l4.078,2.141c0.038,0.02,0.085,0.02,0.123-0.004
		c0.038-0.022,0.061-0.063,0.061-0.107v-2.192c0-0.046-0.026-0.089-0.067-0.111l-4.194-2.201v-1.91l4.078,2.14
		c0.038,0.02,0.085,0.019,0.123-0.004c0.038-0.022,0.061-0.063,0.061-0.107v-2.191c0-0.046-0.026-0.089-0.067-0.111l-4.194-2.203
		v-1.91l4.078,2.141c0.038,0.019,0.085,0.019,0.123-0.004c0.038-0.022,0.061-0.063,0.061-0.107v-2.193
		c0-0.046-0.026-0.089-0.067-0.111l-4.194-2.201v-1.911l4.078,2.141c0.038,0.02,0.085,0.02,0.123-0.004
		c0.038-0.022,0.061-0.063,0.061-0.107v-2.193c0-0.046-0.026-0.089-0.067-0.111l-4.194-2.202v-1.91l4.078,2.141
		c0.038,0.02,0.085,0.019,0.123-0.004c0.038-0.022,0.061-0.063,0.061-0.107v-2.192c0-0.046-0.026-0.089-0.067-0.111l-4.194-2.202
		v-1.911l4.078,2.142c0.038,0.02,0.085,0.019,0.123-0.004c0.038-0.022,0.061-0.063,0.061-0.107v-2.192
		c0-0.046-0.026-0.089-0.067-0.111l-4.194-2.203v-1.91l4.078,2.141c0.038,0.02,0.085,0.019,0.123-0.004
		c0.038-0.022,0.061-0.063,0.061-0.107v-2.193c0-0.046-0.026-0.089-0.067-0.111l-4.194-2.2v-1.912l4.078,2.142
		c0.038,0.02,0.085,0.019,0.123-0.004c0.038-0.022,0.061-0.063,0.061-0.107v-2.193c0-0.046-0.025-0.088-0.065-0.11l-2.769-1.501
		c-0.018-0.01-0.039-0.015-0.06-0.015h-1.367v-4.329c0-0.069-0.056-0.125-0.125-0.125h-6.116c-0.069,0-0.125,0.056-0.125,0.125
		v80.789C350.871,291.124,350.927,291.18,350.996,291.18z"/>
	<path d="M355.315,291.706c-0.038-0.021-0.085-0.019-0.124,0.002c-0.038,0.022-0.061,0.063-0.061,0.107v2.193
		c0,0.045,0.024,0.086,0.063,0.109l2.654,1.5c0.019,0.011,0.04,0.016,0.062,0.016h4.156c0.057,0,0.107-0.039,0.121-0.094
		c0.014-0.056-0.011-0.113-0.062-0.141L355.315,291.706z"/>
	<path d="M381.228,291.177h4.768l-0.281,1.423c-0.011,0.054,0.015,0.108,0.063,0.134l5.311,2.885c0.018,0.01,0.039,0.015,0.06,0.015
		h0.46c0.063,0,0.116-0.047,0.124-0.109l0.23-1.847c0.006-0.052-0.02-0.102-0.065-0.126l-4.483-2.391
		c0.03-0.019,0.051-0.05,0.057-0.087l0.249-1.619l4.406,2.355c0.036,0.019,0.08,0.019,0.117,0c0.037-0.019,0.061-0.055,0.066-0.096
		l0.229-1.963c0.006-0.051-0.02-0.1-0.064-0.124l-4.408-2.415l0.283-1.838l4.354,2.281c0.035,0.018,0.077,0.018,0.113,0.001
		c0.036-0.018,0.061-0.051,0.068-0.09l0.347-1.962c0.009-0.053-0.017-0.107-0.064-0.132l-4.465-2.388l0.266-1.721l4.426,2.368
		c0.036,0.019,0.08,0.019,0.117,0c0.037-0.02,0.062-0.056,0.066-0.097l0.232-2.078c0.006-0.05-0.02-0.099-0.064-0.124l-4.417-2.417
		l0.258-1.671l4.384,2.347c0.035,0.019,0.078,0.02,0.114,0.002c0.036-0.018,0.062-0.052,0.068-0.092l0.347-2.078
		c0.009-0.053-0.017-0.105-0.064-0.131l-4.485-2.399l0.265-1.721l4.449,2.379c0.036,0.019,0.079,0.021,0.116,0.001
		c0.037-0.019,0.062-0.054,0.067-0.095l0.215-1.623h0.584c0.001,0,0.004-0.001,0.006,0c0.069,0,0.125-0.056,0.125-0.125
		c0-0.057-0.039-0.105-0.091-0.12l-5.109-2.769l0.204-1.326h0.868l8.323,4.44c0.018,0.01,0.038,0.015,0.059,0.015h4.156
		c0.001-0.001,0.004,0,0.006,0c0.069,0,0.125-0.056,0.125-0.125c0-0.058-0.039-0.106-0.092-0.121l-7.892-4.209h3.512l4.388,2.32
		l2.954,19.156c0.009,0.061,0.062,0.106,0.124,0.106h3.49l0.301,1.811c0.006,0.038,0.03,0.071,0.063,0.089l4.616,2.54
		c0.018,0.01,0.039,0.016,0.06,0.016h1.73c0.002-0.001,0.004,0,0.006,0c0.069,0,0.125-0.056,0.125-0.125
		c0-0.021-0.005-0.041-0.014-0.058l-0.223-1.348c-0.007-0.039-0.031-0.072-0.065-0.09l-5.365-2.834h1.275c0.001,0,0.002,0,0.003,0
		c0.086,0,0.128-0.055,0.128-0.125c0-0.021-0.005-0.04-0.014-0.057l-0.167-1.076l3.677,1.888c0.018,0.009,0.038,0.014,0.057,0.014
		c0.002-0.001,0.004,0,0.006,0c0.069,0,0.125-0.056,0.125-0.125c0-0.02-0.005-0.039-0.013-0.056l-0.341-2.27
		c-0.006-0.039-0.029-0.073-0.064-0.091l-3.873-2.093l-0.322-2.064l3.613,1.953c0.02,0.011,0.044,0.022,0.063,0.015
		c0.073,0.001,0.128-0.055,0.128-0.125c0-0.02-0.005-0.039-0.013-0.055l-0.341-2.386c-0.005-0.04-0.03-0.075-0.066-0.094
		l-3.795-1.948l-0.332-2.127l3.55,1.873c0.018,0.01,0.038,0.015,0.058,0.015c0.002,0,0.004,0,0.006,0
		c0.069,0,0.125-0.056,0.125-0.125c0-0.02-0.005-0.039-0.013-0.056l-0.342-2.271c-0.006-0.039-0.03-0.073-0.064-0.091l-3.737-2.02
		l-0.315-2.026l3.591,1.844c0.018,0.009,0.038,0.014,0.057,0.014c0.001-0.001,0.004,0,0.006,0c0.069,0,0.125-0.056,0.125-0.125
		c0-0.02-0.005-0.039-0.013-0.055l-0.342-2.386c-0.005-0.04-0.03-0.075-0.066-0.094l-3.785-1.944l-0.33-2.116l3.652,1.973
		c0.02,0.011,0.046,0.014,0.063,0.015c0.067-0.001,0.128-0.055,0.128-0.125c0-0.02-0.005-0.039-0.013-0.055l-0.34-2.386
		c-0.005-0.04-0.03-0.074-0.065-0.093l-3.843-2.022l-0.314-2.018l3.579,1.838c0.019,0.01,0.04,0.011,0.06,0.014
		c0.072-0.006,0.128-0.056,0.128-0.125c0-0.02-0.005-0.039-0.013-0.055l-0.339-2.385c-0.005-0.04-0.03-0.075-0.066-0.094
		l-3.776-1.938l-0.331-2.126l3.529,1.864c0.019,0.01,0.039,0.015,0.059,0.015c0.002,0,0.004,0,0.006,0
		c0.069,0,0.125-0.056,0.125-0.125c0-0.02-0.005-0.039-0.013-0.055l-0.339-2.386c-0.005-0.04-0.03-0.074-0.065-0.093l-3.729-1.968
		l-0.319-2.047l3.465,1.925c0.019,0.01,0.04,0.016,0.061,0.016c0.002,0,0.004,0,0.006,0c0.069,0,0.125-0.056,0.125-0.125
		c0-0.02-0.005-0.039-0.013-0.055l-0.34-2.385c-0.005-0.04-0.03-0.074-0.065-0.093l-3.651-1.928l-0.33-2.115l3.516,1.954
		c0.019,0.01,0.04,0.016,0.061,0.016c0.002,0,0.004,0,0.006,0c0.069,0,0.125-0.056,0.125-0.125c0-0.02-0.005-0.039-0.013-0.055
		l-0.341-2.387c-0.005-0.04-0.03-0.074-0.065-0.093l-3.7-1.951l-0.332-2.134l3.569,1.883c0.018,0.01,0.038,0.015,0.058,0.015
		c0.002,0,0.004-0.001,0.006,0c0.069,0,0.125-0.056,0.125-0.125c0-0.022-0.006-0.042-0.016-0.061l-0.456-2.386
		c-0.007-0.037-0.031-0.069-0.064-0.087l-3.641-1.923l-0.332-2.134l3.512,1.853c0.018,0.01,0.038,0.015,0.058,0.015
		c0.002,0,0.004,0,0.006,0c0.069,0,0.125-0.056,0.125-0.125c0-0.02-0.005-0.039-0.013-0.056l-0.342-2.272
		c-0.006-0.039-0.03-0.073-0.064-0.091l-3.7-1.998l-0.315-2.027l3.552,1.824c0.019,0.01,0.03,0.018,0.061,0.014
		c0.07,0,0.127-0.055,0.128-0.125c0-0.022-0.006-0.042-0.016-0.061l-0.454-2.387c-0.007-0.037-0.031-0.069-0.064-0.087l-3.633-1.918
		l-0.329-2.113l3.498,1.941c0.019,0.01,0.04,0.016,0.061,0.016c0.002,0,0.004,0,0.006,0c0.069,0,0.125-0.056,0.125-0.125
		c0-0.02-0.005-0.039-0.013-0.056l-0.342-2.385c-0.005-0.04-0.029-0.074-0.064-0.092l-3.69-1.995l-0.311-2.005l3.536,1.911
		c0.02,0.011,0.035,0.021,0.063,0.015c0.069,0.003,0.127-0.055,0.128-0.125c0-0.02-0.005-0.039-0.013-0.055l-0.339-2.386
		c-0.005-0.039-0.029-0.074-0.064-0.092l-3.739-2.021l-0.313-2.007l3.585,1.939c0.019,0.01,0.039,0.015,0.06,0.015
		c0.002,0,0.004,0,0.006,0c0.069,0,0.125-0.056,0.125-0.125c0-0.02-0.005-0.039-0.013-0.055l-0.341-2.387
		c-0.005-0.04-0.029-0.074-0.064-0.092l-3.787-2.046l-0.332-2.132l3.653,1.974c0.019,0.01,0.039,0.015,0.06,0.015
		c0.002-0.001,0.004,0,0.006,0c0.069,0,0.125-0.056,0.125-0.125c0-0.022-0.006-0.042-0.016-0.061l-0.455-2.387
		c-0.007-0.037-0.029-0.068-0.062-0.086l-3.739-2.076l-0.805-5.173c-0.009-0.061-0.062-0.106-0.124-0.106h-7.038
		c-0.062,0-0.114,0.045-0.124,0.106l-12.466,80.789c-0.005,0.036,0.005,0.073,0.029,0.101
		C381.157,291.161,381.192,291.177,381.228,291.177z M396.734,225.937l0.207-1.713l0.71,0.363l0.24,1.988L396.734,225.937z
		 M396.229,230.108l0.214-1.782l1.773,0.958l0.235,1.949L396.229,230.108z M395.73,234.248l0.218-1.8l2.829,1.467l0.246,2.035
		L395.73,234.248z M396.465,263.329l0.344-2.077c0.008-0.053-0.018-0.105-0.064-0.131l-4.438-2.373l0.279-1.824l4.271,2.339
		c0.036,0.019,0.078,0.02,0.115,0.002c0.036-0.018,0.062-0.052,0.068-0.092l0.348-2.076c0.009-0.053-0.017-0.106-0.065-0.131
		l-4.392-2.3l0.27-1.76l4.233,2.318c0.036,0.02,0.078,0.021,0.115,0.002c0.036-0.018,0.062-0.052,0.069-0.092l0.348-2.077
		c0.009-0.053-0.018-0.106-0.065-0.131l-4.353-2.28l0.278-1.823l4.188,2.247c0.036,0.02,0.079,0.02,0.114,0.002
		c0.036-0.018,0.062-0.051,0.068-0.091l0.345-1.962c0.009-0.053-0.017-0.106-0.064-0.132l-4.306-2.313l0.271-1.773l4.15,2.227
		c0.035,0.019,0.078,0.019,0.114,0.002c0.036-0.018,0.062-0.052,0.068-0.092l0.348-2.077c0.009-0.053-0.017-0.105-0.064-0.131
		l-4.312-2.313l0.204-1.692l4.22,2.264c0.03,0.016,0.064,0.02,0.097,0.009l0.586-0.188l0.184,1.52l3.094,19.477h-9.673
		c0.001-0.002,0.001-0.005,0.002-0.008c0.014-0.056-0.013-0.114-0.063-0.141l-1.702-0.896l0.261-1.713l4.327,2.369
		c0.035,0.019,0.079,0.021,0.115,0.002C396.433,263.404,396.458,263.369,396.465,263.329z M395.23,238.388l0.218-1.801l3.899,2.047
		l0.245,2.037L395.23,238.388z"/>
	<path d="M385.55,294.59c-0.037,0.019-0.062,0.054-0.067,0.094l-0.116,0.808c-0.005,0.036,0.005,0.072,0.029,0.1
		c0.023,0.027,0.058,0.043,0.094,0.043h1.617c0.057,0,0.107-0.039,0.121-0.094c0.014-0.056-0.011-0.114-0.062-0.141l-1.501-0.808
		C385.63,294.572,385.587,294.571,385.55,294.59z"/>
	<path d="M426.228,220.27h4.155c0.058,0,0.107-0.039,0.121-0.095c0.014-0.056-0.012-0.114-0.063-0.141l-5.079-2.655
		c-0.038-0.021-0.087-0.019-0.122,0.004c-0.038,0.022-0.061,0.063-0.061,0.107v2.193c0,0.047,0.026,0.091,0.069,0.112l0.924,0.462
		C426.19,220.265,426.209,220.27,426.228,220.27z"/>
	<path d="M449.884,289.824c-0.014,0.056,0.013,0.114,0.063,0.141l2.885,1.5c0.018,0.009,0.038,0.014,0.058,0.014
		c0.022,0,0.045-0.006,0.064-0.018c0.038-0.023,0.061-0.063,0.061-0.107v-1.5c0-0.069-0.056-0.125-0.125-0.125h-2.885
		C449.947,289.729,449.897,289.768,449.884,289.824z"/>
	<path d="M423.688,295.634c0.057,0,0.106-0.039,0.121-0.094s-0.011-0.113-0.061-0.141l-1.039-0.577
		c-0.038-0.021-0.086-0.021-0.124,0.001s-0.062,0.063-0.062,0.108v0.577c0,0.069,0.056,0.125,0.125,0.125H423.688z"/>
	<path d="M440.079,295.635c0.073,0.013,0.128-0.055,0.128-0.125c0-0.058-0.038-0.106-0.091-0.121l-7.892-4.208h3.624l8.324,4.439
		c0.018,0.01,0.038,0.015,0.059,0.015h4.04c0.001,0,0.002,0,0.003,0c0.069,0.013,0.128-0.055,0.128-0.125
		c0-0.058-0.038-0.106-0.091-0.121l-7.892-4.208h3.622l8.325,4.439c0.018,0.01,0.038,0.015,0.059,0.015h0.462
		c0.069,0,0.125-0.056,0.125-0.125v-1.962c0-0.046-0.025-0.089-0.067-0.111l-4.316-2.256c0.067-0.002,0.121-0.057,0.121-0.125V285.4
		c0-0.069-0.056-0.125-0.125-0.125h-19.503c0.004-0.012,0.006-0.025,0.006-0.038c0-0.057-0.038-0.105-0.09-0.12l-3.338-1.821
		l0.538-1.587l4.199,2.253c0.034,0.018,0.075,0.02,0.107,0.005c0.035-0.015,0.062-0.044,0.072-0.08l0.578-1.962
		c0.017-0.057-0.009-0.118-0.063-0.146l-4.176-2.191l0.54-1.591l4.214,2.158c0.033,0.018,0.072,0.018,0.105,0.004
		s0.06-0.043,0.07-0.078l0.575-1.848c0.019-0.058-0.008-0.12-0.061-0.148l-4.188-2.199l0.54-1.59l4.227,2.164
		c0.033,0.017,0.072,0.019,0.105,0.004c0.033-0.014,0.06-0.043,0.07-0.078l0.577-1.847c0.019-0.058-0.008-0.12-0.062-0.148
		l-4.203-2.205l0.54-1.59l4.24,2.17c0.032,0.018,0.071,0.018,0.105,0.004c0.033-0.014,0.06-0.043,0.07-0.078l0.575-1.847
		c0.019-0.058-0.008-0.12-0.062-0.148l-4.216-2.213l0.541-1.591l4.254,2.18c0.033,0.018,0.073,0.018,0.104,0.004
		c0.034-0.014,0.061-0.042,0.071-0.078l0.578-1.847c0.019-0.058-0.008-0.12-0.062-0.148l-4.231-2.221l0.57-1.678l4.235,2.273
		c0.032,0.017,0.072,0.019,0.106,0.005c0.035-0.014,0.062-0.043,0.072-0.079l0.575-1.847c0.018-0.057-0.007-0.118-0.059-0.146
		l-4.215-2.32l0.539-1.588l4.249,2.282c0.032,0.017,0.071,0.019,0.106,0.005c0.035-0.014,0.062-0.043,0.072-0.079l0.578-1.848
		c0.018-0.057-0.007-0.118-0.059-0.146l-4.231-2.327l0.539-1.589l4.264,2.289c0.032,0.017,0.072,0.019,0.106,0.005
		c0.035-0.014,0.062-0.043,0.072-0.079l0.578-1.847c0.018-0.057-0.007-0.118-0.059-0.146l-4.245-2.335l0.539-1.586l4.278,2.295
		c0.03,0.016,0.071,0.02,0.105,0.005c0.035-0.014,0.062-0.043,0.072-0.079l0.578-1.847c0.018-0.057-0.007-0.118-0.059-0.146
		l-4.26-2.341l0.542-1.597l4.291,2.197c0.033,0.018,0.073,0.019,0.104,0.004c0.034-0.014,0.061-0.042,0.071-0.078l0.578-1.846
		c0.019-0.058-0.008-0.12-0.061-0.148l-4.268-2.24l0.539-1.589l4.307,2.204c0.033,0.017,0.072,0.019,0.105,0.004
		c0.033-0.014,0.06-0.043,0.07-0.078l0.576-1.846c0.019-0.058-0.008-0.12-0.062-0.148l-4.28-2.247l0.539-1.59l4.318,2.212
		c0.032,0.018,0.071,0.018,0.105,0.004c0.033-0.014,0.06-0.043,0.07-0.078l0.577-1.848c0.019-0.058-0.008-0.12-0.061-0.148
		l-4.296-2.255l0.54-1.588l4.334,2.218c0.033,0.018,0.072,0.019,0.105,0.004c0.033-0.014,0.06-0.043,0.07-0.078l0.576-1.847
		c0.019-0.058-0.008-0.12-0.061-0.148l-4.31-2.263l0.569-1.679l4.313,2.315c0.032,0.017,0.072,0.02,0.106,0.005
		c0.035-0.014,0.062-0.042,0.072-0.078l0.58-1.846c0.018-0.057-0.007-0.119-0.059-0.147l-4.296-2.362l0.539-1.588l4.328,2.323
		c0.031,0.017,0.072,0.02,0.106,0.005c0.035-0.014,0.062-0.043,0.072-0.079l0.575-1.848c0.018-0.057-0.007-0.119-0.061-0.147
		l-4.323-2.318l0.558-1.639l4.342,2.331c0.032,0.017,0.071,0.02,0.106,0.005s0.062-0.043,0.072-0.078l0.578-1.846
		c0.019-0.058-0.007-0.12-0.061-0.148l-4.332-2.322l0.538-1.585l4.258,2.285c0.032,0.016,0.07,0.018,0.104,0.006
		c0.034-0.013,0.061-0.041,0.073-0.075l0.692-1.962c0.021-0.058-0.005-0.123-0.059-0.152l-4.318-2.317l0.538-1.583l4.238,2.274
		c0.031,0.017,0.069,0.018,0.104,0.006c0.034-0.013,0.061-0.041,0.073-0.075l0.577-1.616c0.004-0.014,0.007-0.028,0.007-0.042
		v-0.229c0-0.046-0.025-0.088-0.065-0.11l-4.234-2.273l0.56-1.651l3.556,1.95c0.02,0.011,0.04,0.016,0.061,0.016
		c0.022,0,0.044-0.006,0.063-0.018c0.038-0.022,0.062-0.063,0.062-0.107v-1.963c0-0.069-0.056-0.125-0.125-0.125h-3.559v-4.328
		c0-0.069-0.056-0.125-0.125-0.125h-27.814c-0.069,0-0.125,0.056-0.125,0.125v5.424c0,0.069,0.056,0.125,0.125,0.125h5.11
		l8.325,4.439c0.018,0.01,0.038,0.015,0.059,0.015h4.039c0.001,0,0.002,0,0.003,0c0.059,0.003,0.128-0.055,0.128-0.125
		c0-0.058-0.038-0.106-0.091-0.121l-7.892-4.208h3.61l6.915,3.825l-22.979,66.757c-0.004,0.013-0.007,0.027-0.007,0.041v4.617
		c0,0.069,0.056,0.125,0.125,0.125h4.135v1.537c-0.01,0.053,0.016,0.106,0.064,0.132l5.193,2.771
		c0.018,0.01,0.038,0.015,0.059,0.015h4.041c0.001,0,0.002,0,0.003,0c0.074,0.013,0.128-0.055,0.128-0.125
		c0-0.058-0.038-0.106-0.091-0.121l-7.893-4.208h3.624l8.324,4.439c0.018,0.01,0.038,0.015,0.059,0.015h4.038
		C440.077,295.635,440.078,295.635,440.079,295.635z M442.567,215.815l-0.588,1.711l-3.088-1.711H442.567z"/>
	<path d="M494.375,216.099c0.019,0.01,0.039,0.015,0.06,0.015c0.017,0,0.034-0.003,0.05-0.011c0.036-0.015,0.063-0.046,0.071-0.084
		l0.345-1.386c0.01-0.038,0.001-0.077-0.022-0.107s-0.061-0.048-0.099-0.048h-2.884c-0.057,0-0.107,0.039-0.121,0.094
		c-0.014,0.055,0.011,0.113,0.062,0.141L494.375,216.099z"/>
	<path d="M473.259,294.362c-0.039-0.021-0.086-0.021-0.125,0.001c-0.038,0.022-0.062,0.063-0.062,0.108v1.038
		c0,0.069,0.056,0.125,0.125,0.125h1.849c0.057,0,0.106-0.039,0.121-0.093c0.015-0.055-0.011-0.113-0.06-0.141L473.259,294.362z"/>
	<path d="M289.767,381.463c-0.038-0.02-0.085-0.019-0.124,0.003c-0.038,0.022-0.061,0.063-0.061,0.107v2.193
		c0,0.045,0.024,0.087,0.063,0.108l2.654,1.501c0.019,0.011,0.04,0.017,0.062,0.017h4.157c0.057,0,0.107-0.039,0.121-0.095
		c0.014-0.055-0.011-0.113-0.062-0.141L289.767,381.463z"/>
	<path d="M329.002,384.349c-0.036-0.02-0.08-0.019-0.115-0.001c-0.037,0.019-0.062,0.054-0.067,0.094l-0.115,0.809
		c-0.005,0.036,0.005,0.072,0.029,0.1c0.023,0.027,0.058,0.043,0.094,0.043h1.616c0.057,0,0.107-0.039,0.121-0.095
		c0.014-0.056-0.011-0.113-0.062-0.141L329.002,384.349z"/>
	<path d="M360.739,383.771l-5.365-2.833h1.278c0.001,0,0.002,0,0.003,0c0.085,0.001,0.128-0.055,0.128-0.125
		c0-0.021-0.005-0.04-0.014-0.057l-0.167-1.074l3.677,1.89c0.018,0.009,0.038,0.014,0.057,0.014c0.002,0,0.004,0,0.006,0
		c0.069,0,0.125-0.056,0.125-0.125c0-0.021-0.005-0.039-0.013-0.056l-0.341-2.272c-0.006-0.039-0.029-0.072-0.064-0.092
		l-3.873-2.091l-0.322-2.067l3.614,1.955c0.02,0.01,0.039,0.014,0.063,0.015c0.071,0.002,0.128-0.055,0.128-0.125
		c0-0.02-0.005-0.039-0.013-0.056l-0.343-2.386c-0.005-0.04-0.03-0.075-0.066-0.094l-3.794-1.948l-0.332-2.128l3.55,1.874
		c0.02,0.011,0.041,0.019,0.062,0.015c0.076-0.003,0.128-0.055,0.128-0.125c0-0.021-0.005-0.039-0.013-0.057l-0.343-2.271
		c-0.006-0.039-0.03-0.072-0.064-0.092l-3.736-2.019l-0.315-2.027l3.591,1.843c0.018,0.009,0.038,0.014,0.057,0.014
		c0.002-0.001,0.004-0.001,0.006,0c0.069,0,0.125-0.056,0.125-0.125c0-0.02-0.005-0.039-0.013-0.056l-0.342-2.385
		c-0.005-0.04-0.03-0.075-0.066-0.094l-3.786-1.944l-0.33-2.117l3.651,1.974c0.019,0.01,0.039,0.015,0.06,0.015
		c0.002-0.001,0.005-0.001,0.006,0c0.069,0,0.125-0.056,0.125-0.125c0-0.02-0.005-0.039-0.013-0.056l-0.339-2.385
		c-0.005-0.04-0.03-0.074-0.065-0.093l-3.844-2.023l-0.314-2.018l3.58,1.838c0.018,0.009,0.038,0.014,0.057,0.014
		c0.001-0.001,0.004-0.001,0.006,0c0.069,0,0.125-0.056,0.125-0.125c0-0.02-0.005-0.038-0.013-0.056l-0.339-2.386
		c-0.005-0.04-0.03-0.075-0.066-0.094l-3.777-1.938l-0.331-2.127l3.528,1.864c0.02,0.011,0.041,0.021,0.062,0.015
		c0.077-0.009,0.128-0.055,0.128-0.125c0-0.02-0.005-0.039-0.013-0.056l-0.339-2.387c-0.005-0.04-0.03-0.074-0.065-0.093
		l-3.729-1.968l-0.317-2.048l3.465,1.927c0.019,0.011,0.04,0.016,0.061,0.016c0.002,0,0.004,0,0.006,0
		c0.069,0,0.125-0.056,0.125-0.125c0-0.02-0.005-0.039-0.013-0.056l-0.34-2.385c-0.005-0.04-0.03-0.074-0.065-0.093l-3.651-1.927
		l-0.329-2.114l3.515,1.953c0.02,0.012,0.04,0.018,0.063,0.016c0.076-0.006,0.128-0.055,0.128-0.125c0-0.02-0.005-0.039-0.013-0.056
		l-0.341-2.388c-0.005-0.04-0.03-0.074-0.065-0.093l-3.699-1.951l-0.333-2.135l3.571,1.883c0.02,0.01,0.048,0.015,0.061,0.015
		c0.069-0.01,0.128-0.055,0.128-0.125c0-0.021-0.006-0.043-0.016-0.061l-0.457-2.385c-0.007-0.037-0.031-0.069-0.064-0.087
		l-3.641-1.923l-0.333-2.133l3.511,1.854c0.019,0.01,0.039,0.015,0.059,0.015c0.002-0.001,0.004-0.001,0.006,0
		c0.069,0,0.125-0.056,0.125-0.125c0-0.021-0.005-0.039-0.013-0.057l-0.342-2.271c-0.006-0.039-0.03-0.072-0.064-0.092l-3.7-1.999
		l-0.315-2.027l3.553,1.824c0.018,0.009,0.038,0.014,0.057,0.014c0.001,0,0.004,0,0.006,0c0.069,0,0.125-0.056,0.125-0.125
		c0-0.021-0.006-0.042-0.016-0.061l-0.455-2.387c-0.007-0.037-0.031-0.069-0.064-0.087l-3.633-1.916l-0.329-2.114l3.497,1.941
		c0.019,0.011,0.04,0.016,0.061,0.016c0.002,0,0.004,0,0.006,0c0.069,0,0.125-0.056,0.125-0.125c0-0.02-0.005-0.039-0.013-0.056
		l-0.34-2.386c-0.005-0.039-0.029-0.073-0.064-0.093l-3.691-1.993l-0.312-2.005l3.537,1.911c0.019,0.01,0.039,0.015,0.06,0.015
		c0.002,0,0.004,0,0.006,0c0.069,0,0.125-0.056,0.125-0.125c0-0.02-0.005-0.038-0.013-0.056l-0.339-2.386
		c-0.005-0.039-0.029-0.073-0.064-0.093l-3.742-2.02l-0.311-2.007l3.585,1.94c0.019,0.01,0.039,0.015,0.06,0.015
		c0.002,0,0.004,0,0.006,0c0.069,0,0.125-0.056,0.125-0.125c0-0.02-0.005-0.039-0.013-0.056l-0.339-2.387
		c-0.005-0.039-0.029-0.073-0.064-0.093l-3.789-2.045l-0.332-2.134l3.654,1.977c0.019,0.01,0.039,0.015,0.06,0.015
		c0.001-0.001,0.004-0.001,0.006,0c0.069,0,0.125-0.056,0.125-0.125c0-0.021-0.006-0.042-0.016-0.061l-0.455-2.387
		c-0.007-0.036-0.029-0.067-0.062-0.086l-3.741-2.076l-0.804-5.173c-0.009-0.061-0.062-0.105-0.124-0.105h-7.039
		c-0.062,0-0.114,0.045-0.124,0.105l-12.464,80.789c-0.005,0.036,0.005,0.073,0.029,0.101c0.023,0.028,0.058,0.044,0.095,0.044
		h4.769l-0.285,1.42c-0.011,0.054,0.015,0.108,0.063,0.134l5.311,2.886c0.018,0.011,0.039,0.016,0.06,0.016h0.46
		c0.063,0,0.116-0.047,0.124-0.109l0.231-1.847c0.006-0.052-0.02-0.102-0.065-0.126l-4.485-2.392c0.03-0.019,0.052-0.05,0.058-0.088
		l0.249-1.618l4.407,2.356c0.036,0.019,0.079,0.02,0.117,0c0.037-0.019,0.061-0.055,0.066-0.096l0.229-1.964
		c0.006-0.051-0.02-0.1-0.064-0.124l-4.408-2.414l0.284-1.84l4.355,2.281c0.035,0.02,0.077,0.021,0.113,0.002
		c0.036-0.018,0.061-0.052,0.068-0.091l0.346-1.962c0.009-0.053-0.017-0.106-0.064-0.132l-4.465-2.389l0.266-1.721l4.426,2.368
		c0.036,0.019,0.08,0.019,0.117,0c0.037-0.019,0.062-0.056,0.066-0.097l0.231-2.077c0.006-0.05-0.02-0.099-0.064-0.123l-4.416-2.419
		l0.258-1.67l4.384,2.347c0.036,0.019,0.078,0.02,0.114,0.002c0.036-0.018,0.062-0.052,0.068-0.092l0.346-2.077
		c0.009-0.053-0.017-0.105-0.064-0.131l-4.484-2.399l0.266-1.721l4.449,2.38c0.036,0.019,0.08,0.02,0.116,0.001
		s0.062-0.055,0.067-0.095l0.214-1.623h0.584c0.001-0.001,0.004-0.001,0.006,0c0.069,0,0.125-0.056,0.125-0.125
		c0-0.058-0.039-0.105-0.091-0.12l-5.108-2.769l0.205-1.326h0.865l8.325,4.439c0.018,0.01,0.038,0.015,0.059,0.015h4.156
		c0.002-0.001,0.004,0,0.006,0c0.069,0,0.125-0.056,0.125-0.125c0-0.058-0.039-0.105-0.092-0.12l-7.892-4.209h3.511l4.05,2.132
		c0.018,0.01,0.038,0.015,0.058,0.015c0.002,0,0.004,0,0.006,0c0.069,0,0.125-0.056,0.125-0.125c0-0.021-0.005-0.039-0.013-0.056
		l-0.292-1.966h0.097l3.313,21.477c0.009,0.061,0.062,0.105,0.124,0.105h3.49l0.301,1.811c0.006,0.038,0.03,0.07,0.063,0.089
		l4.615,2.54c0.018,0.011,0.039,0.016,0.06,0.016h1.73c0.037,0,0.072-0.017,0.095-0.044c0.024-0.028,0.034-0.065,0.028-0.102
		l-0.229-1.386C360.797,383.823,360.773,383.788,360.739,383.771z M336.717,353.407l-1.686-0.888l0.261-1.713l4.328,2.368
		c0.036,0.021,0.08,0.021,0.115,0.003c0.037-0.018,0.062-0.052,0.069-0.092l0.344-2.076c0.008-0.053-0.018-0.105-0.064-0.131
		l-4.439-2.375l0.279-1.823l4.271,2.34c0.036,0.021,0.078,0.022,0.115,0.003c0.036-0.018,0.062-0.052,0.068-0.092l0.349-2.076
		c0.009-0.053-0.017-0.106-0.065-0.131l-4.393-2.302l0.27-1.759l4.235,2.317c0.036,0.021,0.08,0.022,0.115,0.003
		c0.036-0.018,0.062-0.052,0.069-0.092l0.347-2.077c0.009-0.053-0.018-0.106-0.065-0.131l-4.354-2.28l0.279-1.823l4.188,2.248
		c0.036,0.019,0.078,0.021,0.114,0.002c0.036-0.018,0.062-0.051,0.068-0.091l0.344-1.963c0.009-0.053-0.017-0.106-0.064-0.132
		l-4.306-2.313l0.271-1.772l4.15,2.228c0.036,0.02,0.078,0.021,0.114,0.002c0.036-0.018,0.062-0.052,0.068-0.092l0.348-2.076
		c0.009-0.053-0.017-0.105-0.064-0.131l-4.313-2.313l0.205-1.694l4.219,2.266c0.035,0.019,0.076,0.02,0.112,0.003
		c0.036-0.018,0.062-0.05,0.069-0.089l0.229-1.154c0.002-0.013,0.003-0.025,0.001-0.038l-0.114-1.039
		c-0.004-0.041-0.029-0.078-0.066-0.097l-4.169-2.188l0.217-1.8l3.605,1.902c0.018,0.01,0.038,0.015,0.058,0.015
		c0.002,0,0.004,0,0.006,0c0.069,0,0.125-0.056,0.125-0.125c0-0.02-0.005-0.039-0.013-0.056l-0.34-2.387
		c-0.005-0.04-0.03-0.075-0.066-0.094l-3.093-1.597l0.217-1.8l2.527,1.312c0.018,0.009,0.038,0.014,0.058,0.014
		c0.002,0,0.005-0.001,0.006,0c0.069,0,0.125-0.056,0.125-0.125c0-0.02-0.005-0.039-0.013-0.056l-0.34-2.386
		c-0.005-0.041-0.031-0.076-0.068-0.094l-2.013-1.007l0.214-1.772l1.451,0.806c0.019,0.011,0.04,0.016,0.061,0.016
		c0.001,0,0.004,0,0.006,0c0.069,0,0.125-0.056,0.125-0.125c0-0.02-0.005-0.039-0.013-0.056l-0.341-2.386
		c-0.005-0.038-0.027-0.071-0.061-0.091l-0.941-0.548l0.208-1.73l0.383,0.191c0.019,0.011,0.041,0.019,0.059,0.014
		c0.067,0.004,0.128-0.055,0.128-0.125c0-0.02-0.005-0.039-0.013-0.056l-0.304-2.127l0.079-0.653l2.762,22.868l3.093,19.477h-9.661
		c0.004-0.013,0.006-0.025,0.006-0.039C336.809,353.47,336.77,353.421,336.717,353.407z"/>
	<path d="M392.585,327.683c-0.038,0.022-0.061,0.063-0.061,0.107v2.193c0,0.047,0.027,0.091,0.069,0.111l1.616,0.81
		c0.018,0.009,0.037,0.014,0.056,0.014h4.038c0.058,0,0.107-0.039,0.121-0.095c0.014-0.056-0.012-0.113-0.063-0.141l-5.654-3.003
		C392.668,327.659,392.623,327.66,392.585,327.683z"/>
	<path d="M435.808,304.354h-1.039c-0.057,0-0.106,0.038-0.121,0.094c-0.015,0.055,0.011,0.113,0.061,0.141l1.039,0.577
		c0.019,0.011,0.04,0.016,0.061,0.016c0.021,0,0.044-0.006,0.063-0.018c0.038-0.022,0.062-0.063,0.062-0.107v-0.577
		C435.933,304.409,435.878,304.354,435.808,304.354z"/>
	<path d="M407.476,309.101c-0.038-0.021-0.086-0.021-0.124,0.002c-0.038,0.022-0.062,0.063-0.062,0.107v0.576
		c0,0.069,0.056,0.125,0.125,0.125h1.039c0.057,0,0.107-0.038,0.121-0.094c0.014-0.055-0.011-0.113-0.061-0.141L407.476,309.101z"/>
	<path d="M473.373,383.774l-5.367-2.836h1.278c0.001,0,0.002,0,0.003,0c0.08-0.001,0.128-0.055,0.128-0.125
		c0-0.021-0.005-0.04-0.014-0.057l-0.167-1.074l3.678,1.888c0.018,0.009,0.037,0.014,0.057,0.014c0.002,0,0.004,0,0.006,0
		c0.069,0,0.125-0.056,0.125-0.125c0-0.021-0.005-0.039-0.013-0.057l-0.342-2.271c-0.006-0.039-0.03-0.072-0.064-0.092l-3.871-2.092
		l-0.322-2.064l3.612,1.953c0.019,0.01,0.039,0.015,0.06,0.015c0.002,0,0.004,0,0.006,0c0.069,0,0.125-0.056,0.125-0.125
		c0-0.02-0.004-0.039-0.013-0.056l-0.339-2.386c-0.006-0.04-0.031-0.075-0.067-0.094l-3.795-1.949l-0.331-2.127l3.547,1.874
		c0.019,0.01,0.039,0.015,0.059,0.015c0.002,0,0.004,0,0.006,0c0.069,0,0.125-0.056,0.125-0.125c0-0.021-0.004-0.039-0.013-0.056
		l-0.338-2.272c-0.006-0.039-0.03-0.072-0.064-0.092l-3.737-2.019l-0.316-2.027l3.589,1.843c0.019,0.01,0.041,0.016,0.06,0.014
		c0.077-0.008,0.128-0.055,0.128-0.125c0-0.02-0.004-0.039-0.013-0.056l-0.339-2.385c-0.006-0.04-0.031-0.075-0.067-0.094
		l-3.785-1.944l-0.329-2.118l3.651,1.975c0.02,0.011,0.042,0.021,0.063,0.015c0.065,0.014,0.128-0.055,0.128-0.125
		c0-0.02-0.004-0.039-0.013-0.056l-0.342-2.385c-0.006-0.04-0.03-0.074-0.065-0.093l-3.841-2.022l-0.315-2.019l3.581,1.838
		c0.019,0.009,0.043,0.009,0.06,0.014c0.064,0.01,0.128-0.055,0.128-0.125c0-0.02-0.004-0.039-0.013-0.056l-0.341-2.386
		c-0.006-0.04-0.031-0.075-0.067-0.094l-3.774-1.937l-0.331-2.128l3.529,1.863c0.02,0.011,0.043,0.017,0.062,0.015
		c0.063,0.005,0.128-0.055,0.128-0.125c0-0.02-0.004-0.039-0.013-0.056l-0.342-2.388c-0.006-0.04-0.03-0.074-0.065-0.093
		l-3.727-1.966l-0.319-2.048l3.467,1.926c0.02,0.012,0.049,0.022,0.063,0.016c0.063-0.008,0.128-0.055,0.128-0.125
		c0-0.02-0.004-0.039-0.013-0.056l-0.343-2.385c-0.006-0.04-0.03-0.074-0.065-0.093l-3.649-1.926l-0.329-2.114l3.514,1.952
		c0.019,0.011,0.04,0.016,0.061,0.016c0.002,0,0.004,0,0.006,0c0.069,0,0.125-0.056,0.125-0.125c0-0.02-0.004-0.039-0.013-0.056
		l-0.34-2.388c-0.006-0.04-0.03-0.074-0.065-0.093l-3.699-1.951l-0.333-2.134l3.566,1.882c0.02,0.011,0.045,0.016,0.062,0.015
		c0.08,0.01,0.128-0.055,0.128-0.125c0-0.021-0.005-0.042-0.015-0.061l-0.453-2.385c-0.008-0.037-0.031-0.069-0.064-0.087
		l-3.639-1.918l-0.333-2.133l3.509,1.853c0.02,0.011,0.04,0.017,0.062,0.015c0.077-0.001,0.128-0.055,0.128-0.125
		c0-0.021-0.004-0.039-0.013-0.056l-0.338-2.271c-0.006-0.039-0.03-0.072-0.064-0.092l-3.699-1.998l-0.315-2.027l3.551,1.823
		c0.018,0.009,0.037,0.014,0.057,0.014c0.002,0,0.004,0,0.006,0c0.069,0,0.125-0.056,0.125-0.125c0-0.021-0.005-0.042-0.015-0.061
		l-0.455-2.387c-0.008-0.037-0.031-0.069-0.064-0.087l-3.63-1.914l-0.33-2.117l3.495,1.942c0.02,0.012,0.047,0.018,0.063,0.016
		c0.064,0.007,0.128-0.055,0.128-0.125c0-0.02-0.004-0.039-0.013-0.056l-0.341-2.386c-0.006-0.039-0.029-0.073-0.064-0.093
		l-3.688-1.992l-0.313-2.006l3.537,1.911c0.019,0.01,0.039,0.015,0.06,0.015c0.002,0,0.004,0,0.006,0
		c0.069,0,0.125-0.056,0.125-0.125c0-0.02-0.004-0.039-0.013-0.056l-0.342-2.386c-0.006-0.039-0.029-0.073-0.064-0.093l-3.736-2.018
		l-0.313-2.009l3.585,1.94c0.02,0.01,0.044,0.015,0.063,0.015c0.077,0.012,0.128-0.055,0.128-0.125c0-0.02-0.004-0.039-0.013-0.056
		l-0.342-2.386c-0.006-0.039-0.029-0.073-0.064-0.093l-3.785-2.046l-0.332-2.132l3.651,1.975c0.02,0.011,0.04,0.018,0.063,0.015
		c0.068,0.008,0.128-0.055,0.128-0.125c0-0.021-0.005-0.042-0.015-0.061l-0.454-2.387c-0.007-0.036-0.03-0.067-0.063-0.086
		l-3.738-2.077l-0.805-5.172c-0.009-0.061-0.062-0.105-0.123-0.105h-7.04c-0.062,0-0.114,0.045-0.123,0.105l-12.469,80.789
		c-0.005,0.036,0.006,0.073,0.029,0.101c0.023,0.028,0.059,0.044,0.095,0.044h4.771l-0.285,1.42
		c-0.011,0.054,0.016,0.108,0.063,0.134l5.31,2.886c0.019,0.011,0.039,0.016,0.06,0.016h0.463c0.063,0,0.116-0.047,0.124-0.109
		l0.23-1.847c0.007-0.052-0.02-0.102-0.065-0.126l-4.486-2.393c0.03-0.019,0.052-0.05,0.058-0.087l0.249-1.62l4.407,2.357
		c0.035,0.019,0.08,0.02,0.116,0c0.037-0.019,0.062-0.055,0.066-0.096l0.232-1.963c0.006-0.051-0.02-0.1-0.064-0.124l-4.412-2.414
		l0.284-1.84l4.354,2.281c0.033,0.019,0.077,0.019,0.112,0.002c0.036-0.018,0.062-0.051,0.068-0.091l0.348-1.962
		c0.01-0.053-0.017-0.106-0.064-0.132l-4.466-2.39l0.267-1.72l4.429,2.368c0.034,0.02,0.079,0.02,0.117,0
		c0.036-0.02,0.062-0.056,0.065-0.097l0.229-2.077c0.006-0.05-0.02-0.099-0.064-0.123l-4.415-2.419l0.259-1.671l4.386,2.348
		c0.034,0.02,0.079,0.021,0.113,0.002c0.036-0.018,0.062-0.052,0.068-0.092l0.347-2.077c0.009-0.053-0.017-0.105-0.064-0.131
		l-4.486-2.399l0.267-1.722l4.448,2.381c0.034,0.019,0.079,0.02,0.115,0.001c0.037-0.019,0.062-0.054,0.067-0.095l0.218-1.623h0.581
		c0.001,0,0.002,0,0.003,0c0.063,0.013,0.128-0.055,0.128-0.125c0-0.058-0.038-0.105-0.091-0.12l-5.109-2.77l0.205-1.325h0.866
		l8.326,4.439c0.018,0.01,0.038,0.015,0.059,0.015h4.153c0.001,0,0.002,0,0.003,0c0.066,0.004,0.128-0.055,0.128-0.125
		c0-0.058-0.038-0.105-0.091-0.12l-7.893-4.209h3.512l4.052,2.131c0.019,0.01,0.039,0.015,0.059,0.015c0.002,0,0.004,0,0.006,0
		c0.069,0,0.125-0.056,0.125-0.125c0-0.021-0.004-0.039-0.013-0.056l-0.294-1.965h0.095l3.313,21.477
		c0.01,0.061,0.063,0.105,0.124,0.105h3.491l0.301,1.811c0.006,0.038,0.029,0.07,0.063,0.089l4.618,2.54
		c0.019,0.011,0.039,0.016,0.061,0.016h1.73c0.037,0,0.071-0.017,0.096-0.044c0.023-0.028,0.033-0.065,0.027-0.102l-0.231-1.386
		C473.431,383.825,473.407,383.791,473.373,383.774z M449.348,353.406l-1.688-0.887l0.262-1.714l4.326,2.369
		c0.035,0.021,0.078,0.021,0.114,0.003c0.036-0.018,0.062-0.052,0.068-0.092l0.348-2.076c0.009-0.053-0.017-0.105-0.064-0.131
		l-4.439-2.375l0.277-1.822l4.274,2.339c0.035,0.021,0.077,0.022,0.114,0.003c0.036-0.018,0.062-0.052,0.068-0.092l0.346-2.076
		c0.009-0.053-0.018-0.106-0.065-0.131l-4.391-2.303l0.27-1.758l4.236,2.317c0.036,0.021,0.078,0.022,0.114,0.003
		c0.036-0.018,0.062-0.052,0.068-0.092l0.346-2.077c0.009-0.054-0.018-0.106-0.065-0.131l-4.354-2.281l0.278-1.821l4.187,2.247
		c0.036,0.019,0.077,0.021,0.114,0.002c0.036-0.018,0.062-0.051,0.068-0.091l0.35-1.963c0.01-0.053-0.017-0.106-0.063-0.132
		l-4.312-2.313l0.271-1.773l4.15,2.229c0.036,0.02,0.08,0.021,0.114,0.002c0.036-0.018,0.062-0.052,0.068-0.092l0.348-2.076
		c0.009-0.053-0.017-0.105-0.063-0.131l-4.313-2.313l0.205-1.693l4.22,2.266c0.036,0.02,0.076,0.021,0.113,0.003
		c0.035-0.017,0.062-0.05,0.069-0.089l0.23-1.154c0.003-0.013,0.004-0.025,0.002-0.038l-0.116-1.039
		c-0.005-0.041-0.029-0.078-0.066-0.097l-4.17-2.188l0.218-1.801l3.604,1.903c0.02,0.01,0.035,0.015,0.062,0.015
		c0.081,0.008,0.128-0.055,0.128-0.125c0-0.02-0.004-0.039-0.013-0.056l-0.34-2.387c-0.006-0.04-0.03-0.075-0.066-0.094
		l-3.093-1.597l0.217-1.8l2.529,1.312c0.02,0.009,0.037,0.009,0.061,0.014c0.061-0.006,0.128-0.055,0.128-0.125
		c0-0.02-0.004-0.039-0.013-0.056l-0.342-2.386c-0.006-0.041-0.031-0.076-0.068-0.094l-2.013-1.007l0.214-1.773l1.453,0.807
		c0.02,0.012,0.046,0.02,0.063,0.016c0.075,0.007,0.128-0.055,0.128-0.125c0-0.02-0.004-0.039-0.013-0.056l-0.342-2.386
		c-0.006-0.038-0.028-0.071-0.062-0.091l-0.941-0.548l0.209-1.73l0.383,0.191c0.018,0.01,0.036,0.014,0.056,0.014
		c0.002,0,0.004,0,0.006,0c0.069,0,0.125-0.056,0.125-0.125c0-0.02-0.004-0.039-0.013-0.056l-0.304-2.124l0.079-0.655l2.762,22.867
		l3.093,19.477h-9.66c0.004-0.013,0.006-0.026,0.006-0.04C449.44,353.47,449.401,353.421,449.348,353.406z"/>
	<path d="M441.635,384.349c-0.036-0.02-0.08-0.019-0.116-0.001c-0.036,0.019-0.062,0.054-0.067,0.094l-0.114,0.809
		c-0.005,0.036,0.006,0.072,0.029,0.1c0.024,0.027,0.059,0.043,0.095,0.043h1.615c0.058,0,0.107-0.039,0.121-0.095
		s-0.012-0.113-0.062-0.141L441.635,384.349z"/>
	<path d="M483.065,381.464c-0.038-0.021-0.085-0.02-0.123,0.002c-0.038,0.022-0.062,0.063-0.062,0.107v2.193
		c0,0.045,0.024,0.087,0.063,0.108l2.654,1.501c0.019,0.011,0.04,0.017,0.062,0.017h3.462c0.069,0,0.125-0.056,0.125-0.125v-0.347
		c0-0.046-0.025-0.088-0.065-0.109L483.065,381.464z"/>
	<path d="M507.76,381.577c-0.04-0.02-0.086-0.02-0.122,0.005c-0.038,0.022-0.061,0.063-0.061,0.106v2.193
		c0,0.046,0.025,0.088,0.065,0.109l2.54,1.386c0.019,0.011,0.039,0.016,0.06,0.016h3.463c0.069,0,0.125-0.056,0.125-0.125v-0.462
		c0-0.047-0.026-0.09-0.067-0.111L507.76,381.577z"/>
	<path d="M525.302,381.579c-0.038-0.022-0.085-0.021-0.123,0.002s-0.062,0.063-0.062,0.107v2.193c0,0.045,0.024,0.086,0.063,0.108
		l2.423,1.386c0.02,0.011,0.041,0.017,0.063,0.017h4.156c0.058,0,0.107-0.039,0.121-0.094c0.014-0.056-0.011-0.113-0.062-0.141
		L525.302,381.579z"/>
	<path d="M468.818,291.02c-0.003,0.011-0.005,0.022-0.005,0.035c0,0.069,0.056,0.125,0.125,0.125h4.134v1.098
		c0,0.046,0.025,0.088,0.065,0.11l6.001,3.231c0.019,0.01,0.039,0.015,0.06,0.015c0.022,0,0.044-0.006,0.064-0.018
		c0.037-0.022,0.061-0.063,0.061-0.107v-2.192c0-0.046-0.025-0.089-0.066-0.111l-4.192-2.201v-1.91l4.075,2.14
		c0.039,0.02,0.086,0.018,0.123-0.004c0.038-0.022,0.061-0.063,0.061-0.107v-2.193c0-0.046-0.025-0.089-0.066-0.111l-4.192-2.201
		v-1.91l4.076,2.14c0.037,0.019,0.085,0.019,0.122-0.004c0.038-0.022,0.061-0.063,0.061-0.107v-2.192
		c0-0.046-0.025-0.089-0.067-0.111l-4.191-2.2v-1.91l4.076,2.14c0.037,0.019,0.085,0.019,0.122-0.004
		c0.038-0.022,0.061-0.063,0.061-0.107v-2.192c0-0.046-0.025-0.089-0.067-0.111l-4.191-2.2v-1.911l4.075,2.14
		c0.039,0.02,0.086,0.018,0.123-0.004c0.038-0.022,0.061-0.063,0.061-0.107v-2.193c0-0.046-0.025-0.089-0.067-0.111l-4.191-2.2
		v-1.905l4.422,2.365c0.032,0.018,0.074,0.02,0.106,0.005c0.035-0.015,0.062-0.044,0.072-0.08l0.576-1.962
		c0.017-0.058-0.01-0.119-0.063-0.146l-4.718-2.412l0.433-1.684l4.631,2.47c0.034,0.018,0.074,0.019,0.11,0.003
		c0.035-0.016,0.061-0.047,0.07-0.085l0.463-1.962c0.013-0.055-0.013-0.112-0.063-0.139l-4.638-2.529l0.41-1.597l4.685,2.5
		c0.034,0.018,0.074,0.019,0.11,0.003c0.035-0.016,0.061-0.047,0.07-0.085l0.464-1.963c0.013-0.055-0.013-0.112-0.063-0.139
		l-4.702-2.508l0.434-1.691l4.611,2.459c0.034,0.018,0.073,0.02,0.107,0.005c0.034-0.015,0.061-0.044,0.071-0.08l0.577-1.962
		c0.017-0.057-0.009-0.118-0.062-0.146l-4.729-2.522l0.408-1.593l4.668,2.489c0.033,0.018,0.073,0.019,0.11,0.003
		c0.035-0.016,0.062-0.047,0.07-0.085l0.461-1.962c0.013-0.055-0.014-0.112-0.063-0.139l-4.683-2.497l0.435-1.693l4.592,2.45
		c0.034,0.018,0.072,0.02,0.107,0.005c0.034-0.015,0.061-0.044,0.071-0.08l0.575-1.962c0.017-0.057-0.009-0.118-0.062-0.146
		l-4.709-2.512l0.409-1.592l4.646,2.478c0.034,0.018,0.074,0.019,0.11,0.003c0.035-0.016,0.062-0.047,0.07-0.085l0.46-1.962
		c0.013-0.055-0.014-0.112-0.063-0.139l-4.661-2.487l0.435-1.692l4.572,2.438c0.032,0.016,0.07,0.02,0.106,0.005
		c0.034-0.014,0.061-0.043,0.071-0.079l0.577-1.847c0.019-0.057-0.007-0.119-0.061-0.147l-4.717-2.516l0.435-1.693l4.627,2.467
		c0.033,0.017,0.073,0.019,0.11,0.003c0.035-0.016,0.061-0.047,0.07-0.085l0.462-1.961c0.013-0.055-0.014-0.112-0.063-0.139
		l-4.643-2.477l0.448-1.747l4.653,2.483c0.034,0.017,0.073,0.019,0.109,0.004c0.035-0.016,0.062-0.046,0.07-0.084l0.464-1.848
		c0.014-0.056-0.012-0.114-0.063-0.141l-4.697-2.505l0.435-1.692l4.606,2.457c0.034,0.018,0.074,0.019,0.11,0.003
		c0.035-0.016,0.061-0.047,0.07-0.085l0.463-1.962c0.013-0.055-0.013-0.112-0.063-0.139l-4.612-2.516l0.41-1.598l4.66,2.487
		c0.034,0.018,0.074,0.019,0.11,0.003c0.035-0.016,0.061-0.047,0.07-0.085l0.463-1.962c0.013-0.055-0.014-0.112-0.063-0.139
		l-4.678-2.495l0.435-1.694l4.587,2.448c0.034,0.017,0.073,0.02,0.109,0.004c0.035-0.016,0.062-0.046,0.07-0.084l0.462-1.848
		c0.014-0.055-0.012-0.113-0.062-0.14l-4.617-2.518l0.436-1.699l4.642,2.475c0.033,0.018,0.074,0.019,0.11,0.003
		c0.035-0.016,0.062-0.047,0.07-0.085l0.46-1.962c0.013-0.055-0.014-0.112-0.063-0.139l-4.656-2.483l0.435-1.693l4.567,2.436
		c0.033,0.018,0.072,0.02,0.109,0.004c0.035-0.016,0.062-0.047,0.07-0.084l0.46-1.846c0.014-0.055-0.012-0.113-0.062-0.14
		l-4.597-2.508l1.322-5.152c0.01-0.038,0.001-0.077-0.022-0.108c-0.023-0.03-0.06-0.048-0.099-0.048h-6.348
		c-0.058,0-0.108,0.04-0.121,0.096c-1.673,6.937-3.561,14.249-5.387,21.32c-0.707,2.742-1.416,5.487-2.117,8.228l-4.609,21.47
		l-0.082-0.388l0.425-1.8c0.013-0.057-0.015-0.115-0.066-0.141l-0.856-0.429l-0.466-2.21l1.553,0.898
		c0.034,0.019,0.076,0.021,0.112,0.006c0.036-0.016,0.063-0.048,0.072-0.086l0.46-1.962c0.013-0.055-0.013-0.112-0.063-0.139
		l-2.709-1.452l-0.479-2.269l3.533,1.864c0.019,0.01,0.039,0.015,0.059,0.015c0.002,0,0.004,0,0.006,0
		c0.069,0,0.125-0.056,0.125-0.125c0-0.024-0.006-0.046-0.018-0.065l-0.569-2.388c-0.009-0.035-0.032-0.065-0.063-0.082
		l-3.639-1.921l-0.45-2.135l3.511,1.853c0.019,0.01,0.039,0.015,0.059,0.015c0.002,0,0.004,0,0.006,0
		c0.069,0,0.125-0.056,0.125-0.125c0-0.023-0.006-0.045-0.018-0.064l-0.568-2.503c-0.008-0.036-0.031-0.066-0.063-0.083
		l-3.646-1.924l-0.447-2.125l3.397,1.846c0.02,0.011,0.04,0.015,0.063,0.015c0.062-0.01,0.128-0.055,0.128-0.125
		c0-0.025-0.007-0.049-0.02-0.068l-0.682-2.503c-0.01-0.033-0.031-0.06-0.061-0.076l-3.486-1.95l-0.565-2.202l3.241,1.715
		c0.02,0.01,0.038,0.011,0.062,0.015c0.073,0.017,0.128-0.055,0.128-0.125c0-0.025-0.007-0.049-0.02-0.068l-0.685-2.503
		c-0.009-0.034-0.031-0.062-0.062-0.078l-3.394-1.797l-0.577-2.246l3.16,1.725c0.019,0.01,0.039,0.015,0.06,0.015
		c0.002,0,0.004,0,0.006,0c0.069,0,0.125-0.056,0.125-0.125c0-0.023-0.006-0.045-0.018-0.064l-0.567-2.503
		c-0.008-0.035-0.031-0.065-0.063-0.083l-3.435-1.819l-0.562-2.188l3.188,1.687c0.019,0.01,0.039,0.015,0.059,0.015
		c0.002,0,0.004,0,0.006,0c0.069,0,0.125-0.056,0.125-0.125c0-0.023-0.006-0.045-0.018-0.064l-0.569-2.503
		c-0.009-0.036-0.032-0.066-0.064-0.083l-3.458-1.778l-0.577-2.248l3.227,1.708c0.02,0.01,0.045,0.019,0.062,0.015
		c0.06-0.006,0.128-0.055,0.128-0.125c0-0.023-0.006-0.045-0.018-0.064l-0.567-2.503c-0.009-0.036-0.032-0.066-0.064-0.083
		l-3.498-1.799l-0.577-2.247l3.268,1.728c0.02,0.01,0.041,0.012,0.062,0.015c0.062,0.011,0.128-0.055,0.128-0.125
		c0-0.023-0.006-0.045-0.018-0.064l-0.569-2.503c-0.009-0.037-0.033-0.067-0.066-0.084l-0.923-0.461
		c-0.018-0.009-0.036-0.013-0.056-0.013h-2.213l-1.12-4.36c-0.015-0.055-0.064-0.094-0.121-0.094h-6.114
		c-0.038,0-0.075,0.018-0.099,0.048c-0.023,0.03-0.032,0.07-0.022,0.107l15.347,60.676V291.02z"/>
	<path d="M316.04,364.845v-1.906l3.847,2.125c0.041,0.022,0.091,0.021,0.131-0.006c0.039-0.026,0.06-0.072,0.054-0.119
		c-0.115-0.904-0.338-1.722-0.703-2.572c-0.011-0.026-0.03-0.048-0.055-0.061l-3.406-1.858c-0.096-0.767-0.25-1.5-0.458-2.185
		l1.666,0.915c0.019,0.011,0.04,0.016,0.06,0.016c0.001-0.001,0.004-0.001,0.006,0c0.069,0,0.125-0.056,0.125-0.125
		c0-0.044-0.022-0.082-0.056-0.104c-0.558-0.644-1.297-1.248-2.198-1.798c-0.218-0.516-0.473-1.003-0.759-1.448l0.306-0.244
		c0.033-0.026,0.05-0.067,0.046-0.108c-0.004-0.042-0.028-0.079-0.065-0.1l-1.05-0.565c-1.08-1.245-2.509-2.179-4.252-2.775
		c0.365-0.238,0.733-0.505,1.119-0.808l5.451,2.983c0.048,0.027,0.109,0.018,0.149-0.021c0.337-0.339,0.607-0.727,0.869-1.102
		c0.1-0.144,0.197-0.282,0.293-0.413c0.022-0.028,0.03-0.066,0.022-0.102s-0.031-0.065-0.063-0.083l-5.103-2.738
		c0.401-0.428,0.776-0.884,1.118-1.358l4.908,2.587c0.058,0.03,0.131,0.012,0.165-0.046c0.358-0.596,0.591-1.183,0.817-1.75
		c0.023-0.059-0.001-0.126-0.057-0.155l-4.687-2.549c0.239-0.488,0.449-0.99,0.627-1.494l4.518,2.417
		c0.033,0.017,0.07,0.019,0.105,0.006c0.034-0.014,0.061-0.042,0.072-0.077c0.233-0.705,0.352-1.418,0.352-2.117
		c0-0.047-0.026-0.089-0.067-0.11l-4.394-2.303c0.109-0.571,0.188-1.157,0.241-1.783l4.152,2.228
		c0.04,0.021,0.086,0.021,0.123-0.003c0.038-0.022,0.061-0.063,0.061-0.107v-2.192c0-0.046-0.025-0.088-0.065-0.109l-4.193-2.306
		l0.009-1.902l4.064,2.234c0.04,0.022,0.086,0.021,0.124-0.002c0.038-0.022,0.062-0.063,0.062-0.107v-2.193
		c0-0.046-0.025-0.088-0.065-0.109l-4.172-2.293l0.011-1.903l4.042,2.223c0.04,0.022,0.086,0.021,0.124-0.002
		c0.038-0.022,0.062-0.063,0.062-0.107v-2.192c0-0.046-0.025-0.088-0.065-0.109l-4.149-2.282l0.009-1.902l4.02,2.21
		c0.04,0.023,0.086,0.021,0.124-0.002c0.038-0.022,0.062-0.063,0.062-0.107v-2.192c0-0.046-0.025-0.088-0.065-0.109l-4.127-2.27
		l0.01-1.902l3.998,2.197c0.04,0.023,0.086,0.021,0.124-0.002c0.038-0.022,0.062-0.063,0.062-0.107v-2.191
		c0-0.046-0.025-0.088-0.065-0.109l-4.105-2.257l0.009-1.813l4.094,2.097c0.038,0.019,0.084,0.02,0.123-0.005
		c0.037-0.022,0.06-0.063,0.06-0.106v-0.462c0-0.573,0-1.166-0.118-1.756c-0.007-0.036-0.03-0.068-0.063-0.086l-4.082-2.196
		l0.002-0.415c0-0.525-0.017-1.053-0.05-1.571l3.666,1.98c0.019,0.01,0.039,0.015,0.06,0.015c0.002,0,0.004,0,0.006,0
		c0.069,0,0.125-0.056,0.125-0.125c0-0.02-0.004-0.037-0.012-0.054c-0.115-0.883-0.337-1.689-0.698-2.534
		c-0.011-0.026-0.031-0.048-0.056-0.062l-3.431-1.816c-0.162-0.849-0.353-1.604-0.58-2.295l2.394,1.33
		c0.019,0.011,0.04,0.016,0.061,0.016c0.001,0,0.003,0,0.006,0c0.069,0,0.125-0.056,0.125-0.125c0-0.037-0.016-0.07-0.042-0.093
		c-0.877-1.45-2.13-2.724-3.725-3.786c-2.636-4.687-7.441-7.164-13.899-7.164H285.45c-0.069,0-0.125,0.056-0.125,0.125v80.789
		c0,0.069,0.056,0.125,0.125,0.125h6.84l8.327,4.44c0.018,0.01,0.038,0.015,0.059,0.015h4.038c0.002,0,0.004,0,0.006,0
		c0.069,0,0.125-0.056,0.125-0.125c0-0.058-0.039-0.105-0.092-0.12l-7.893-4.21h3.624l8.327,4.44
		c0.021,0.011,0.058,0.011,0.085,0.013c1.023-0.115,2.081-0.233,3.017-0.583c0.046-0.018,0.078-0.06,0.081-0.109
		c0.003-0.049-0.022-0.095-0.066-0.118l-6.962-3.692c0.889-0.066,1.763-0.219,2.605-0.452l6.666,3.443
		c0.038,0.019,0.084,0.018,0.121-0.004c0.586-0.351,1.176-0.823,1.746-1.28c0.033-0.026,0.05-0.067,0.046-0.109
		s-0.029-0.079-0.066-0.099l-5.819-3.061c0.537-0.303,1.049-0.651,1.527-1.039l5.675,2.937c0.057,0.027,0.128,0.011,0.163-0.044
		l1.038-1.616c0.019-0.029,0.025-0.065,0.016-0.1c-0.009-0.033-0.032-0.062-0.063-0.078l-5.2-2.744
		c0.379-0.475,0.7-0.947,0.976-1.438l4.916,2.67c0.032,0.019,0.069,0.021,0.102,0.008c0.034-0.012,0.061-0.038,0.074-0.071
		c0.232-0.584,0.35-1.287,0.466-1.987c0.009-0.054-0.018-0.106-0.065-0.131l-4.643-2.428c0.204-0.585,0.358-1.136,0.47-1.675
		l4.29,2.245c0.039,0.021,0.085,0.02,0.123-0.003c0.037-0.023,0.06-0.063,0.06-0.107c0-0.162,0.027-0.325,0.056-0.498
		c0.03-0.176,0.06-0.356,0.06-0.54v-1.039c0-0.046-0.025-0.088-0.065-0.109l-4.24-2.331l0.006-0.09
		c0.018-0.284,0.036-0.578,0.036-0.885v-0.911l4.079,2.243c0.039,0.022,0.086,0.021,0.124-0.002
		c0.038-0.022,0.062-0.063,0.062-0.107v-2.191c0-0.046-0.025-0.088-0.065-0.109L316.04,364.845z M294.131,375.105l-2.443-1.271
		v-1.906l4.079,2.141c0.039,0.021,0.085,0.019,0.123-0.003c0.038-0.023,0.061-0.063,0.061-0.107v-2.193
		c0-0.047-0.026-0.089-0.067-0.11l-4.195-2.201v-1.911l4.079,2.141c0.039,0.021,0.085,0.02,0.123-0.003
		c0.038-0.023,0.061-0.063,0.061-0.107v-2.192c0-0.047-0.026-0.089-0.067-0.11l-4.195-2.202v-1.911l4.079,2.141
		c0.039,0.021,0.085,0.02,0.123-0.003c0.038-0.023,0.061-0.063,0.061-0.107v-2.192c0-0.047-0.026-0.089-0.067-0.11l-4.195-2.201
		v-1.91l4.079,2.141c0.039,0.021,0.085,0.02,0.123-0.003c0.038-0.023,0.061-0.063,0.061-0.107v-0.567h2.646c0.001,0,0.002,0,0.003,0
		c0.083,0,0.128-0.055,0.128-0.125c0-0.058-0.039-0.105-0.092-0.12l-6.946-3.689v-0.52h2.678l8.325,4.439
		c0.018,0.01,0.038,0.015,0.059,0.015h4.155c0.001,0,0.002,0,0.003,0c0.081,0,0.128-0.055,0.128-0.125
		c0-0.058-0.039-0.105-0.092-0.12l-7.891-4.209h3.241c0.063,0.002,0.124,0.006,0.184,0.011c0.04,0.002,0.08,0.005,0.12,0.007
		l6.41,3.382c0.519,0.967,0.781,2.111,0.781,3.401v5.654c0,1.649-0.424,7.03-5.876,7.03h-9.697c0.004-0.013,0.007-0.026,0.007-0.041
		C294.224,375.168,294.185,375.119,294.131,375.105z M309.789,339.164c-0.008,6.85-5.644,11.054-9.685,11.054h-4.16
		c0.004-0.012,0.006-0.024,0.006-0.038v-0.348c0-0.047-0.026-0.089-0.067-0.11l-4.195-2.201v-1.91l4.079,2.141
		c0.039,0.021,0.085,0.019,0.123-0.003c0.038-0.023,0.061-0.063,0.061-0.107v-2.193c0-0.047-0.026-0.089-0.067-0.11l-4.195-2.201
		v-1.91l4.079,2.142c0.039,0.021,0.085,0.02,0.123-0.003c0.038-0.023,0.061-0.063,0.061-0.107v-2.194
		c0-0.047-0.026-0.089-0.067-0.11l-4.195-2.202v-1.909l4.079,2.14c0.039,0.021,0.085,0.02,0.123-0.003
		c0.038-0.023,0.061-0.063,0.061-0.107v-2.192c0-0.047-0.026-0.089-0.067-0.11l-4.195-2.201v-1.91l4.079,2.14
		c0.039,0.021,0.085,0.02,0.123-0.003c0.038-0.023,0.061-0.063,0.061-0.107v-2.191c0-0.047-0.026-0.089-0.067-0.11l-4.195-2.202
		v-1.911l4.079,2.141c0.039,0.021,0.085,0.019,0.123-0.003c0.038-0.023,0.061-0.063,0.061-0.107v-2.192
		c0-0.047-0.026-0.089-0.067-0.11l-4.195-2.201v-1.911l4.079,2.141c0.039,0.021,0.085,0.02,0.123-0.003
		c0.038-0.023,0.061-0.063,0.061-0.107v-2.192c0-0.047-0.026-0.089-0.067-0.11l-4.195-2.202v-1.91l4.079,2.141
		c0.039,0.021,0.085,0.02,0.123-0.003c0.038-0.023,0.061-0.063,0.061-0.107v-2.193c0-0.047-0.026-0.089-0.067-0.11l-4.195-2.201
		v-1.91l4.079,2.14c0.039,0.021,0.085,0.02,0.123-0.003c0.038-0.023,0.061-0.063,0.061-0.107v-2.191c0-0.047-0.026-0.089-0.067-0.11
		l-4.195-2.203v-1.909l4.079,2.14c0.039,0.021,0.085,0.02,0.123-0.003c0.038-0.023,0.061-0.063,0.061-0.107v-2.19
		c0-0.047-0.026-0.089-0.067-0.11l-4.195-2.203v-1.909l7.541,3.985c0.018,0.01,0.038,0.015,0.059,0.015h4.154
		c0.002,0,0.005-0.001,0.006,0c0.069,0,0.125-0.056,0.125-0.125c0-0.058-0.039-0.105-0.091-0.12l-7.892-4.209h3.503l9.883,5.336
		c0.538,1.418,0.811,3.152,0.811,5.157v22.962C309.788,339.154,309.788,339.159,309.789,339.164z"/>
	<path d="M396.59,360.453v-1.427c0.002-0.009,0.003-0.018,0.003-0.027c0-0.155-0.011-0.304-0.022-0.452
		c0-0.007-0.001-0.014-0.001-0.021l3.639,1.921c0.019,0.01,0.039,0.015,0.059,0.015c0.001-0.001,0.004-0.001,0.006,0
		c0.069,0,0.125-0.056,0.125-0.125c0-0.027-0.009-0.054-0.024-0.074c-0.356-1.049-0.938-1.979-1.502-2.878
		c-0.011-0.018-0.027-0.032-0.045-0.043l-2.63-1.46c-1.451-5.494-6.82-8.477-13.035-11.928c-0.652-0.362-1.314-0.73-1.984-1.108
		c-2.484-1.393-5.261-3.042-7.182-5.15l1.744,0.939c0.019,0.01,0.039,0.015,0.059,0.015c0.002,0,0.004,0,0.006,0
		c0.069,0,0.125-0.056,0.125-0.125c0-0.022-0.006-0.043-0.016-0.062c-0.111-0.563-0.222-1.241-0.222-2.017v-0.229
		c0-0.046-0.025-0.088-0.065-0.11l-3.798-2.053c-0.221-0.692-0.35-1.369-0.396-2.061v-0.101l4.074,2.241
		c0.04,0.022,0.086,0.021,0.124-0.002c0.038-0.022,0.062-0.063,0.062-0.107v-2.194c0-0.046-0.025-0.088-0.065-0.109l-4.194-2.307
		v-1.907l4.074,2.242c0.04,0.022,0.086,0.021,0.124-0.002c0.038-0.022,0.062-0.063,0.062-0.107v-2.193
		c0-0.046-0.025-0.088-0.065-0.109l-4.194-2.308v-1.906l4.074,2.241c0.04,0.023,0.086,0.021,0.124-0.002
		c0.038-0.022,0.062-0.063,0.062-0.107v-2.194c0-0.046-0.025-0.088-0.065-0.109l-4.194-2.307v-1.907l4.074,2.241
		c0.04,0.023,0.086,0.021,0.124-0.002c0.038-0.022,0.062-0.063,0.062-0.107v-2.193c0-0.046-0.025-0.088-0.065-0.109l-4.194-2.308
		v-0.191c0-0.503,0.021-1.02,0.063-1.574l4.359,2.331c0.036,0.019,0.078,0.02,0.114,0.002c0.036-0.018,0.062-0.052,0.068-0.092
		c0.096-0.578,0.288-1.23,0.569-1.937c0.023-0.059-0.001-0.126-0.058-0.156l-4.728-2.522c0.126-0.582,0.286-1.139,0.477-1.656
		l4.94,2.668c0.06,0.03,0.132,0.012,0.167-0.046c0.373-0.619,0.825-1.153,1.24-1.466c0.034-0.025,0.053-0.066,0.049-0.109
		s-0.028-0.081-0.066-0.101l-5.39-2.853c0.334-0.519,0.707-0.977,1.109-1.365l6.011,3.17c0.033,0.018,0.072,0.019,0.107,0.005
		c0.764-0.328,1.67-0.564,2.621-0.684c0.054-0.007,0.097-0.048,0.107-0.101c0.01-0.054-0.016-0.107-0.063-0.134l-6.725-3.626
		c0.697-0.308,1.462-0.516,2.278-0.618l8.383,4.366c0.794,1.734,1.197,3.882,1.197,6.384v10.388c0,0.069,0.056,0.125,0.125,0.125
		h5.687l4.403,2.362c0.04,0.021,0.086,0.021,0.123-0.003c0.038-0.022,0.061-0.063,0.061-0.107v-2.192
		c0-0.047-0.026-0.089-0.067-0.11l-4.195-2.201v-1.911l4.079,2.14c0.038,0.021,0.085,0.02,0.123-0.003
		c0.038-0.023,0.061-0.063,0.061-0.107v-2.192c0-0.047-0.026-0.089-0.067-0.11l-4.195-2.2v-1.91l4.079,2.139
		c0.018,0.01,0.038,0.015,0.058,0.015c0.002,0,0.004,0,0.006,0c0.069,0,0.125-0.056,0.125-0.125c0-0.014-0.002-0.027-0.006-0.039
		c-0.003-0.722-0.094-1.34-0.199-2.054l-0.034-0.233c-0.005-0.04-0.03-0.074-0.065-0.093l-3.975-2.092
		c-0.011-0.648-0.051-1.298-0.12-1.977l3.633,1.866c0.018,0.009,0.038,0.014,0.057,0.014c0.002,0,0.004,0,0.006,0
		c0.069,0,0.125-0.056,0.125-0.125c0-0.024-0.007-0.047-0.019-0.066c-0.182-0.719-0.433-1.368-0.698-2.055
		c-0.073-0.188-0.147-0.38-0.221-0.577c-0.011-0.028-0.032-0.052-0.059-0.066l-3.263-1.735c-0.178-0.754-0.41-1.512-0.69-2.257
		l2.108,1.098c0.018,0.009,0.038,0.014,0.058,0.014c0.001,0,0.003-0.001,0.006,0c0.069,0,0.125-0.056,0.125-0.125
		c0-0.043-0.022-0.081-0.055-0.104c-1.092-1.309-2.166-2.332-3.283-3.128c-2.495-4.441-6.803-6.888-12.134-6.888
		c-4.801,0-8.706,1.692-11.292,4.894c-2.359,2.921-3.605,7.018-3.605,11.85l0,16.168c0.36,4.804,2.659,8.62,7.234,12.01
		c0.54,0.717,1.126,1.397,1.696,1.969c0.009,0.009,0.019,0.017,0.029,0.022l13.092,6.993c2.31,1.827,3.339,3.749,3.339,6.233v5.426
		c0,6.865-3.711,11.301-9.454,11.301c-4.088,0-6.453-1.955-7.763-3.756l2.27,1.175c0.018,0.009,0.038,0.014,0.058,0.014
		c0.002,0,0.004-0.001,0.006,0c0.069,0,0.125-0.056,0.125-0.125c0-0.02-0.005-0.039-0.013-0.056
		c-0.038-0.261-0.087-0.513-0.136-0.757c-0.099-0.497-0.2-1.011-0.2-1.612c0-0.046-0.026-0.089-0.067-0.11l-3.687-1.945
		c-0.193-0.671-0.333-1.383-0.419-2.12l3.99,2.094c0.038,0.021,0.086,0.02,0.123-0.003c0.038-0.023,0.061-0.063,0.061-0.107v-2.193
		c0-0.047-0.026-0.089-0.067-0.11l-4.197-2.202v-1.908l4.081,2.138c0.038,0.021,0.085,0.02,0.123-0.003
		c0.037-0.023,0.06-0.063,0.06-0.107V362.3c0-0.046-0.025-0.089-0.066-0.11l-1.965-1.038c-0.018-0.01-0.038-0.015-0.059-0.015
		h-2.174v-4.33c0-0.069-0.056-0.125-0.125-0.125h-6.002c-0.069,0-0.125,0.056-0.125,0.125v7.847
		c-0.071,6.286,2.345,11.425,6.804,14.472c0.554,0.914,0.993,1.535,1.303,1.846c0.009,0.01,0.019,0.017,0.03,0.022l9.694,5.079
		c0.013,0.007,0.026,0.012,0.041,0.014l0.036,0.005c0.788,0.11,1.602,0.225,2.52,0.225c0.574,0,1.167,0,1.755-0.117
		c0.052-0.011,0.092-0.053,0.099-0.104c0.008-0.053-0.018-0.104-0.065-0.129l-7.904-4.207c1.291,0.137,2.308,0.137,3.573,0.025
		l7.216,3.826c0.027,0.014,0.058,0.019,0.089,0.011c0.869-0.216,1.72-0.45,2.571-0.937c0.04-0.022,0.064-0.065,0.063-0.11
		c-0.001-0.046-0.026-0.088-0.067-0.108l-6.399-3.356c0.685-0.209,1.34-0.463,1.955-0.755l6.172,3.294
		c0.046,0.023,0.102,0.02,0.141-0.016l1.615-1.385c0.031-0.027,0.047-0.067,0.042-0.109c-0.005-0.041-0.03-0.077-0.066-0.097
		l-5.749-2.976c0.543-0.393,1.015-0.784,1.435-1.19l5.465,2.889c0.049,0.025,0.108,0.017,0.147-0.021
		c0.345-0.345,0.56-0.74,0.787-1.159c0.086-0.159,0.174-0.32,0.271-0.482c0.018-0.029,0.022-0.065,0.013-0.098
		c-0.009-0.033-0.032-0.062-0.062-0.077l-5.166-2.73c0.333-0.446,0.646-0.919,0.931-1.409l5.042,2.631
		c0.031,0.018,0.071,0.012,0.104,0c0.033-0.013,0.063-0.046,0.076-0.078c0.227-0.569,0.462-1.157,0.579-1.858
		c0.009-0.054-0.017-0.106-0.065-0.131l-4.77-2.488c0.212-0.511,0.407-1.055,0.581-1.623l4.534,2.369
		c0.037,0.02,0.078,0.02,0.114,0.002c0.036-0.019,0.061-0.052,0.067-0.092c0.041-0.24,0.096-0.471,0.15-0.693
		c0.102-0.426,0.199-0.827,0.199-1.289c0-0.046-0.025-0.088-0.065-0.109l-4.458-2.44c0.113-0.616,0.196-1.203,0.253-1.785
		l4.198,2.254c0.04,0.021,0.086,0.02,0.123-0.003c0.038-0.022,0.061-0.063,0.061-0.107v-2.194c0-0.047-0.026-0.089-0.067-0.11
		l-4.192-2.202v-1.908l4.076,2.139c0.038,0.021,0.086,0.02,0.123-0.003c0.038-0.023,0.061-0.063,0.061-0.107v-2.191
		c0-0.047-0.026-0.089-0.067-0.11L396.59,360.453z"/>
	<path d="M431.673,304.474v-4.451c0-0.069-0.056-0.125-0.125-0.125h-28.393c-0.069,0-0.125,0.056-0.125,0.125v5.31
		c0,0.069,0.056,0.125,0.125,0.125h4.136v1.561c0,0.046,0.025,0.089,0.066,0.11l5.194,2.77c0.018,0.01,0.038,0.015,0.059,0.015
		h1.729v70.9c0,0.069,0.056,0.125,0.125,0.125h4.17c-0.012,0.02-0.032,0.034-0.032,0.058v2.193c0,0.046,0.025,0.088,0.065,0.109
		l3.808,2.079c0.018,0.011,0.039,0.016,0.06,0.016h2.077c0.069,0,0.125-0.056,0.125-0.125v-1.155c0-0.046-0.025-0.089-0.066-0.11
		l-5.785-3.064h1.467c0.069,0,0.125-0.056,0.125-0.125v-0.922l4.076,2.141c0.019,0.01,0.039,0.015,0.059,0.015
		c0.022,0,0.045-0.006,0.064-0.018c0.038-0.023,0.061-0.063,0.061-0.107v-2.078c0-0.046-0.024-0.088-0.064-0.109l-4.195-2.309
		v-1.906l4.074,2.241c0.041,0.023,0.087,0.021,0.124-0.002c0.038-0.022,0.062-0.063,0.062-0.107v-2.192
		c0-0.046-0.024-0.088-0.064-0.109l-4.195-2.309v-1.906l4.074,2.241c0.041,0.022,0.087,0.021,0.124-0.002
		c0.038-0.022,0.062-0.063,0.062-0.107v-2.193c0-0.046-0.024-0.088-0.064-0.109l-4.195-2.308v-1.906l4.074,2.241
		c0.041,0.022,0.087,0.021,0.124-0.002c0.038-0.022,0.062-0.063,0.062-0.107v-2.193c0-0.046-0.024-0.088-0.064-0.109l-4.195-2.308
		v-1.907l4.074,2.24c0.041,0.022,0.087,0.021,0.124-0.002c0.038-0.022,0.062-0.063,0.062-0.107V362.3
		c0-0.046-0.024-0.088-0.064-0.109l-4.195-2.309v-1.906l4.074,2.241c0.041,0.023,0.087,0.021,0.124-0.002
		c0.038-0.022,0.062-0.063,0.062-0.107v-2.192c0-0.046-0.024-0.088-0.064-0.109l-4.195-2.309v-1.906l4.074,2.241
		c0.041,0.023,0.087,0.021,0.124-0.002c0.038-0.022,0.062-0.063,0.062-0.107v-2.193c0-0.046-0.024-0.088-0.064-0.109l-4.195-2.307
		v-1.907l4.074,2.241c0.041,0.023,0.087,0.021,0.124-0.002c0.038-0.022,0.062-0.063,0.062-0.107v-2.193
		c0-0.046-0.024-0.088-0.064-0.109l-4.195-2.307v-1.909l4.074,2.241c0.041,0.023,0.087,0.021,0.124-0.002
		c0.038-0.022,0.062-0.063,0.062-0.107v-2.19c0-0.046-0.024-0.088-0.064-0.109l-4.195-2.308v-1.908l4.074,2.241
		c0.041,0.023,0.087,0.021,0.124-0.002c0.038-0.022,0.062-0.063,0.062-0.107v-2.193c0-0.046-0.024-0.088-0.064-0.109l-4.195-2.307
		v-1.907l4.074,2.242c0.041,0.023,0.087,0.021,0.124-0.002c0.038-0.022,0.062-0.063,0.062-0.107v-2.193
		c0-0.046-0.024-0.088-0.064-0.109l-4.195-2.308v-1.907l4.074,2.241c0.041,0.022,0.087,0.021,0.124-0.002
		c0.038-0.022,0.062-0.063,0.062-0.107V331.6c0-0.046-0.024-0.088-0.064-0.109l-4.195-2.308v-1.906l4.074,2.241
		c0.041,0.023,0.087,0.021,0.124-0.002c0.038-0.022,0.062-0.063,0.062-0.107v-2.192c0-0.046-0.024-0.088-0.064-0.109l-4.195-2.309
		v-1.907l4.074,2.241c0.041,0.023,0.087,0.021,0.124-0.002c0.038-0.022,0.062-0.063,0.062-0.107v-2.193
		c0-0.046-0.024-0.088-0.064-0.109l-4.195-2.308v-1.906l4.074,2.241c0.041,0.023,0.087,0.021,0.124-0.002
		c0.038-0.022,0.062-0.063,0.062-0.107v-2.192c0-0.046-0.024-0.088-0.064-0.109l-4.195-2.308v-1.907l4.074,2.241
		c0.041,0.023,0.087,0.021,0.124-0.002c0.038-0.022,0.062-0.063,0.062-0.107v-2.192c0-0.046-0.024-0.088-0.064-0.109l-4.195-2.308
		v-1.907l4.074,2.241c0.041,0.023,0.087,0.021,0.124-0.002c0.038-0.022,0.062-0.063,0.062-0.107v-1.952h0.224
		c0.001,0,0.002,0,0.003,0c0.071,0.005,0.128-0.055,0.128-0.125c0-0.058-0.038-0.105-0.091-0.12l-4.522-2.421v-1.789h0.254
		l8.323,4.44c0.018,0.01,0.038,0.015,0.059,0.015h4.039c0.001,0,0.002,0,0.003,0c0.07,0.005,0.128-0.055,0.128-0.125
		c0-0.058-0.038-0.105-0.091-0.12l-7.891-4.21h3.624l6.823,3.632c0.039,0.021,0.086,0.02,0.123-0.003s0.061-0.063,0.061-0.107
		v-2.192c0-0.047-0.025-0.089-0.066-0.11L431.673,304.474z M414.341,306.477v1.881l-5.428-2.9h3.509L414.341,306.477z"/>
	<path d="M509.569,369.352v-1.919l3.961,2.133c0.02,0.011,0.043,0.013,0.063,0.015c0.071,0.001,0.128-0.055,0.128-0.125
		c0-0.02-0.004-0.039-0.013-0.056c-0.115-0.794-0.345-1.596-0.567-2.372l-0.009-0.03c-0.009-0.032-0.031-0.06-0.061-0.076
		l-3.605-1.956c-0.092-0.739-0.242-1.452-0.448-2.125l1.974,1.071c0.02,0.01,0.047,0.017,0.063,0.015
		c0.079-0.005,0.128-0.055,0.128-0.125c0-0.042-0.02-0.078-0.052-0.102c-0.658-0.841-1.583-1.641-2.677-2.315
		c-0.241-0.521-0.524-1.021-0.841-1.488l0.046-0.031c0.036-0.024,0.058-0.065,0.056-0.108c-0.002-0.044-0.026-0.083-0.064-0.104
		l-0.345-0.192c-1.17-1.548-2.727-2.721-4.632-3.489c0.237-0.163,0.482-0.346,0.753-0.563l5.604,3.078
		c0.051,0.027,0.11,0.019,0.149-0.021c0.493-0.495,0.95-1.077,1.286-1.639c0.018-0.029,0.022-0.065,0.013-0.098
		c-0.009-0.033-0.031-0.062-0.062-0.077l-5.328-2.824c0.377-0.425,0.734-0.88,1.067-1.355l5.064,2.782
		c0.06,0.032,0.133,0.013,0.168-0.045c0.278-0.461,0.485-1.001,0.668-1.478c0.05-0.133,0.1-0.262,0.149-0.387
		c0.023-0.059-0.001-0.127-0.058-0.156l-4.876-2.579c0.246-0.479,0.471-0.976,0.67-1.478l4.667,2.544
		c0.031,0.019,0.07,0.02,0.105,0.007c0.034-0.014,0.062-0.042,0.072-0.077c0.229-0.688,0.346-1.385,0.459-2.058l0.006-0.038
		c0.009-0.053-0.017-0.105-0.064-0.131l-4.546-2.432c0.144-0.578,0.254-1.148,0.329-1.698l4.217,2.159
		c0.037,0.019,0.084,0.019,0.122-0.005c0.037-0.022,0.06-0.063,0.06-0.106v-2.078c0-0.046-0.024-0.088-0.064-0.109l-4.197-2.309
		v-1.908l4.076,2.242c0.041,0.023,0.088,0.021,0.124-0.002c0.038-0.022,0.062-0.063,0.062-0.107v-2.191
		c0-0.046-0.024-0.088-0.064-0.109l-4.197-2.31v-1.906l4.076,2.242c0.041,0.023,0.088,0.021,0.124-0.002
		c0.038-0.022,0.062-0.063,0.062-0.107v-2.193c0-0.046-0.024-0.088-0.064-0.109l-4.197-2.309v-1.907l4.076,2.243
		c0.041,0.023,0.088,0.021,0.124-0.002c0.038-0.022,0.062-0.063,0.062-0.107v-2.192c0-0.046-0.024-0.088-0.064-0.109l-4.197-2.31
		v-1.906l4.076,2.242c0.041,0.023,0.088,0.021,0.124-0.002c0.038-0.022,0.062-0.063,0.062-0.107v-2.193
		c0-0.046-0.024-0.088-0.064-0.109l-4.197-2.309v-1.907l4.076,2.242c0.041,0.022,0.088,0.021,0.124-0.002
		c0.038-0.022,0.062-0.063,0.062-0.107v-2.191c0-0.046-0.024-0.088-0.064-0.109l-4.197-2.31v-1.907l4.076,2.242
		c0.041,0.022,0.088,0.021,0.124-0.002c0.038-0.022,0.062-0.063,0.062-0.107v-2.193c0-0.046-0.024-0.088-0.064-0.109l-4.197-2.309
		v-0.07c0.012-0.6,0.003-1.191-0.027-1.803l3.76,1.978c0.02,0.01,0.039,0.013,0.062,0.015c0.06-0.008,0.128-0.055,0.128-0.125
		c0-0.02-0.004-0.037-0.012-0.054c-0.119-0.918-0.352-1.732-0.577-2.52c-0.01-0.033-0.032-0.062-0.063-0.077l-3.577-1.839
		c-0.126-0.747-0.296-1.471-0.518-2.203l2.707,1.494c0.021,0.012,0.048,0.017,0.063,0.016c0.079-0.009,0.128-0.055,0.128-0.125
		c0-0.036-0.016-0.069-0.04-0.092c-0.988-1.67-2.359-3.086-4.075-4.21c-2.493-4.476-7.217-6.887-13.664-6.972h-14.659
		c-0.069,0-0.125,0.056-0.125,0.125v80.788c0,0.069,0.056,0.125,0.125,0.125h6.117c0.069,0,0.125-0.056,0.125-0.125V380.7
		l4.081,2.141c0.018,0.01,0.038,0.015,0.058,0.015c0.022,0,0.045-0.006,0.064-0.018c0.038-0.023,0.061-0.063,0.061-0.107v-2.191
		c0-0.047-0.025-0.089-0.067-0.11l-4.196-2.202v-1.911l4.081,2.142c0.037,0.021,0.085,0.02,0.122-0.003
		c0.038-0.023,0.061-0.063,0.061-0.107v-2.192c0-0.047-0.025-0.089-0.067-0.11l-4.196-2.203v-1.91l4.081,2.142
		c0.037,0.021,0.085,0.019,0.122-0.003c0.038-0.023,0.061-0.063,0.061-0.107v-2.193c0-0.047-0.025-0.089-0.067-0.11l-4.196-2.202
		v-1.911l4.08,2.143c0.039,0.02,0.086,0.019,0.123-0.003c0.038-0.023,0.061-0.063,0.061-0.107v-2.193
		c0-0.047-0.025-0.089-0.067-0.11l-4.196-2.203v-1.909l4.081,2.14c0.037,0.021,0.085,0.02,0.122-0.003
		c0.038-0.023,0.061-0.063,0.061-0.107v-0.913h2.066c0.002,0,0.004,0,0.006,0c0.069,0,0.125-0.056,0.125-0.125
		c0-0.058-0.039-0.106-0.092-0.121l-6.369-3.347v-0.862h1.987l8.325,4.439c0.018,0.01,0.038,0.015,0.059,0.015h4.155
		c0.002,0,0.004,0,0.006,0c0.069,0,0.125-0.056,0.125-0.125c0-0.058-0.038-0.105-0.091-0.12l-7.894-4.209h3.62l7.594,4.097
		c0.296,0.817,0.446,1.728,0.446,2.704v14.194c0,0.069,0.056,0.125,0.125,0.125h6.001c0.069,0,0.125-0.056,0.125-0.125v-0.229
		l4.079,2.141c0.037,0.021,0.085,0.019,0.122-0.003c0.038-0.023,0.061-0.063,0.061-0.107v-2.078c0-0.046-0.024-0.088-0.064-0.109
		l-4.197-2.31v-1.906l4.076,2.242c0.042,0.023,0.087,0.021,0.124-0.002c0.038-0.022,0.062-0.063,0.062-0.107v-2.192
		c0-0.046-0.024-0.088-0.064-0.109l-4.197-2.31v-1.906l4.076,2.242c0.042,0.023,0.087,0.021,0.124-0.002
		c0.038-0.022,0.062-0.063,0.062-0.107v-2.193c0-0.046-0.024-0.088-0.064-0.109L509.569,369.352z M488.929,353.986l-3.945-2.077
		v-1.911l4.079,2.142c0.039,0.021,0.086,0.019,0.123-0.003c0.038-0.023,0.061-0.063,0.061-0.107v-2.192
		c0-0.047-0.025-0.089-0.067-0.11l-4.195-2.202v-1.911l4.079,2.142c0.039,0.02,0.086,0.019,0.123-0.003
		c0.038-0.023,0.061-0.063,0.061-0.107v-2.193c0-0.047-0.025-0.089-0.067-0.11l-4.195-2.202v-1.91l4.079,2.143
		c0.039,0.021,0.086,0.019,0.123-0.003c0.038-0.023,0.061-0.063,0.061-0.107v-2.194c0-0.047-0.025-0.089-0.067-0.11l-4.195-2.202
		v-1.91l4.079,2.142c0.039,0.021,0.086,0.02,0.123-0.003c0.038-0.023,0.061-0.063,0.061-0.107v-2.193
		c0-0.047-0.025-0.089-0.067-0.11l-4.195-2.202v-1.909l4.08,2.14c0.037,0.021,0.085,0.019,0.122-0.003
		c0.038-0.023,0.061-0.063,0.061-0.107v-2.191c0-0.047-0.025-0.089-0.066-0.11l-4.196-2.203v-1.911l4.079,2.142
		c0.039,0.021,0.086,0.019,0.123-0.003c0.038-0.023,0.061-0.063,0.061-0.107v-2.191c0-0.047-0.025-0.089-0.066-0.11l-4.196-2.203
		v-1.91l4.08,2.141c0.037,0.021,0.085,0.019,0.122-0.003c0.038-0.023,0.061-0.063,0.061-0.107v-2.192
		c0-0.047-0.025-0.089-0.067-0.11l-4.195-2.202v-1.911l4.079,2.142c0.039,0.021,0.086,0.019,0.123-0.003
		c0.038-0.023,0.061-0.063,0.061-0.107v-2.193c0-0.047-0.025-0.089-0.067-0.11l-4.195-2.202v-1.91l4.08,2.141
		c0.037,0.021,0.085,0.019,0.122-0.003c0.038-0.023,0.061-0.063,0.061-0.107v-2.191c0-0.047-0.025-0.089-0.066-0.11l-4.196-2.203
		v-1.909l4.08,2.14c0.037,0.021,0.085,0.019,0.122-0.003c0.038-0.023,0.061-0.063,0.061-0.107v-2.19c0-0.047-0.025-0.089-0.066-0.11
		l-4.196-2.204v-1.906l7.31,3.869c0.019,0.01,0.038,0.015,0.059,0.015h4.155c0.001,0,0.002,0,0.003,0
		c0.067-0.01,0.128-0.055,0.128-0.125c0-0.058-0.038-0.105-0.091-0.12l-7.894-4.209h3.508l9.812,5.254
		c0.661,1.571,0.996,3.45,0.996,5.585v26.892c0,7.073-5.558,10.84-9.569,10.84h-4.388c0.006-0.015,0.009-0.03,0.009-0.047
		C489.021,354.048,488.982,353.999,488.929,353.986z"/>
	<path d="M556.46,321.903c0.042,0.023,0.087,0.021,0.124-0.002c0.038-0.022,0.062-0.063,0.062-0.107v-2.192
		c0-0.046-0.024-0.088-0.064-0.109l-4.196-2.308v-0.887c0-0.353-0.006-0.694-0.015-1.03l3.858,2.131
		c0.019,0.011,0.04,0.016,0.061,0.016c0.002,0,0.004,0,0.006,0c0.069,0,0.125-0.056,0.125-0.125c0-0.019-0.004-0.037-0.012-0.053
		c-0.031-0.264-0.055-0.518-0.076-0.761c-0.053-0.592-0.104-1.15-0.27-1.649c-0.01-0.03-0.03-0.056-0.059-0.071l-3.8-2.053
		c-0.08-0.761-0.184-1.474-0.309-2.126l3.298,1.745c0.019,0.01,0.039,0.015,0.059,0.015c0.002,0,0.004,0,0.006,0
		c0.069,0,0.125-0.056,0.125-0.125c0-0.03-0.011-0.058-0.028-0.079c-0.491-1.222-1.077-2.231-1.739-3.003
		c-0.01-0.012-0.021-0.021-0.033-0.028l-2.471-1.385c-2.661-7.212-9.202-7.817-15.126-7.817h-15.002
		c-0.069,0-0.125,0.056-0.125,0.125v80.789c0,0.069,0.056,0.125,0.125,0.125h6.61l8.326,4.44c0.018,0.01,0.038,0.015,0.059,0.015
		h4.038c0.002,0,0.004,0,0.006,0c0.069,0,0.125-0.056,0.125-0.125c0-0.058-0.038-0.105-0.091-0.12l-7.894-4.21h3.626l7.979,4.209
		c0.023,0.012,0.049,0.019,0.074,0.014l0.151-0.019c0.881-0.108,1.879-0.231,2.872-0.563c0.047-0.016,0.081-0.059,0.085-0.108
		s-0.022-0.098-0.067-0.12l-6.906-3.614c0.898-0.117,1.763-0.289,2.573-0.515l6.643,3.541c0.037,0.019,0.079,0.02,0.114,0.001
		c0.5-0.25,0.938-0.557,1.401-0.882c0.186-0.13,0.375-0.263,0.573-0.396c0.037-0.024,0.058-0.066,0.056-0.11
		c-0.003-0.044-0.028-0.084-0.067-0.104l-5.989-3.105c0.585-0.3,1.136-0.636,1.64-1.003l5.736,2.944
		c0.041,0.021,0.093,0.016,0.132-0.011c0.426-0.318,0.78-0.743,1.185-1.42c0.018-0.029,0.022-0.064,0.014-0.097
		c-0.009-0.033-0.031-0.061-0.061-0.077l-5.249-2.918c0.366-0.4,0.708-0.831,1.017-1.282l5.153,2.688
		c0.03,0.018,0.067,0.018,0.103,0.007c0.033-0.014,0.06-0.04,0.072-0.073l0.692-1.848c0.022-0.06-0.003-0.126-0.06-0.154
		l-4.873-2.544c0.226-0.491,0.434-1.029,0.621-1.602l4.599,2.404c0.033,0.019,0.076,0.02,0.111,0.002
		c0.036-0.017,0.062-0.049,0.069-0.088c0.108-0.543,0.232-1.26,0.232-1.986c0-0.046-0.025-0.088-0.065-0.109l-4.391-2.404
		c0.116-0.601,0.205-1.167,0.269-1.725l4.233,2.271c0.04,0.021,0.087,0.021,0.124-0.003c0.037-0.022,0.061-0.063,0.061-0.107v-2.192
		c0-0.046-0.024-0.088-0.064-0.109l-4.208-2.314c0.001-0.052,0.003-0.104,0.005-0.155c0.004-0.123,0.008-0.246,0.008-0.375v-1.372
		l4.075,2.241c0.042,0.023,0.087,0.021,0.124-0.002c0.038-0.022,0.062-0.063,0.062-0.107v-2.192c0-0.046-0.024-0.088-0.064-0.109
		l-4.196-2.308v-1.906l4.075,2.241c0.042,0.023,0.087,0.021,0.124-0.002c0.038-0.022,0.062-0.063,0.062-0.107v-2.193
		c0-0.046-0.024-0.088-0.064-0.109l-4.196-2.308v-1.921l4.077,2.141c0.039,0.021,0.086,0.019,0.123-0.003
		c0.038-0.023,0.061-0.063,0.061-0.107v-2.077c0-0.046-0.024-0.088-0.064-0.109l-4.196-2.309v-1.92l4.078,2.139
		c0.037,0.021,0.085,0.019,0.122-0.003c0.038-0.023,0.061-0.063,0.061-0.107v-2.077c0-0.046-0.024-0.088-0.064-0.109l-4.196-2.309
		v-1.906l4.075,2.241c0.042,0.022,0.087,0.021,0.124-0.002c0.038-0.022,0.062-0.063,0.062-0.107v-2.192
		c0-0.046-0.024-0.088-0.064-0.109l-4.196-2.308v-1.907l4.075,2.241c0.042,0.022,0.087,0.021,0.124-0.002
		c0.038-0.022,0.062-0.063,0.062-0.107v-2.193c0-0.046-0.024-0.088-0.064-0.109l-4.196-2.308V337.2l4.075,2.242
		c0.042,0.023,0.087,0.021,0.124-0.002c0.038-0.022,0.062-0.063,0.062-0.107v-2.194c0-0.046-0.024-0.088-0.064-0.109l-4.196-2.306
		v-1.908l4.075,2.241c0.042,0.023,0.087,0.021,0.124-0.002c0.038-0.022,0.062-0.063,0.062-0.107v-2.192
		c0-0.046-0.024-0.088-0.064-0.109l-4.196-2.308v-1.906l4.075,2.241c0.042,0.023,0.087,0.021,0.124-0.002
		c0.038-0.022,0.062-0.063,0.062-0.107v-2.192c0-0.046-0.024-0.088-0.064-0.109l-4.196-2.309v-1.907l4.075,2.241
		c0.042,0.023,0.087,0.021,0.124-0.002c0.038-0.022,0.062-0.063,0.062-0.107v-2.192c0-0.046-0.024-0.088-0.064-0.109l-4.196-2.308
		v-1.907L556.46,321.903z M528.975,374.873l-1.752-0.921v-1.909l4.078,2.139c0.038,0.021,0.085,0.019,0.122-0.003
		c0.038-0.023,0.061-0.063,0.061-0.107v-2.191c0-0.047-0.025-0.089-0.067-0.11l-4.193-2.201v-1.911l4.078,2.139
		c0.038,0.021,0.085,0.019,0.122-0.003c0.038-0.023,0.061-0.063,0.061-0.107v-2.191c0-0.047-0.025-0.089-0.067-0.11l-4.193-2.2
		v-1.911l4.077,2.141c0.04,0.021,0.086,0.019,0.123-0.003c0.038-0.023,0.061-0.063,0.061-0.107v-2.194
		c0-0.047-0.025-0.089-0.067-0.11l-4.193-2.199v-1.911l4.078,2.14c0.038,0.021,0.085,0.019,0.122-0.003
		c0.038-0.023,0.061-0.063,0.061-0.107v-2.192c0-0.047-0.025-0.089-0.067-0.11l-4.193-2.201v-1.91l4.078,2.139
		c0.038,0.021,0.085,0.019,0.122-0.003c0.038-0.023,0.061-0.063,0.061-0.107v-2.192c0-0.047-0.025-0.089-0.067-0.11l-4.193-2.2
		v-1.911l4.078,2.14c0.038,0.021,0.085,0.018,0.122-0.003c0.038-0.023,0.061-0.063,0.061-0.107v-2.192
		c0-0.047-0.025-0.089-0.067-0.11l-4.193-2.2v-1.91l4.078,2.139c0.038,0.021,0.085,0.02,0.122-0.003
		c0.038-0.023,0.061-0.063,0.061-0.107v-2.192c0-0.047-0.025-0.089-0.067-0.11l-4.193-2.2v-1.91l4.078,2.14
		c0.038,0.021,0.085,0.019,0.122-0.003c0.038-0.023,0.061-0.063,0.061-0.107v-2.193c0-0.047-0.025-0.089-0.067-0.11l-4.193-2.201
		v-1.909l4.078,2.138c0.038,0.021,0.085,0.019,0.122-0.003c0.038-0.023,0.061-0.063,0.061-0.107V336.8
		c0-0.047-0.025-0.089-0.066-0.11l-4.194-2.202v-1.908l4.078,2.139c0.038,0.021,0.085,0.019,0.122-0.003
		c0.038-0.023,0.061-0.063,0.061-0.107v-2.192c0-0.047-0.025-0.089-0.067-0.11l-4.193-2.201v-1.911l4.078,2.14
		c0.038,0.021,0.085,0.019,0.122-0.003c0.038-0.023,0.061-0.063,0.061-0.107v-2.192c0-0.047-0.025-0.089-0.067-0.11l-4.193-2.201
		v-1.909l4.078,2.14c0.038,0.021,0.085,0.019,0.122-0.003c0.038-0.023,0.061-0.063,0.061-0.107v-2.193
		c0-0.047-0.025-0.089-0.067-0.11l-4.193-2.201v-1.909l4.078,2.14c0.038,0.021,0.085,0.019,0.122-0.003
		c0.038-0.023,0.061-0.063,0.061-0.107v-2.193c0-0.047-0.025-0.089-0.067-0.11l-4.193-2.2v-1.91l4.078,2.139
		c0.038,0.021,0.085,0.02,0.122-0.003c0.038-0.023,0.061-0.063,0.061-0.107v-2.192c0-0.047-0.025-0.089-0.067-0.11l-4.193-2.201
		v-1.911l4.077,2.141c0.04,0.021,0.086,0.019,0.123-0.003c0.038-0.023,0.061-0.063,0.061-0.107v-2.193
		c0-0.047-0.025-0.089-0.067-0.11l-4.193-2.201v-1.907l7.078,3.754c0.018,0.01,0.038,0.015,0.059,0.015h4.155
		c0.002,0,0.004,0,0.006,0c0.069,0,0.125-0.056,0.125-0.125c0-0.058-0.038-0.105-0.091-0.12l-7.893-4.209h3.619l8.442,4.554
		c0.019,0.01,0.039,0.015,0.06,0.015c1.446,0,2.053,0.31,2.589,0.582c0.069,0.035,0.137,0.07,0.204,0.103
		c0.449,1.497,0.668,3.288,0.668,5.471v48.578c0,0.005,0,0.011,0.001,0.016c-0.006,8.901-4.936,10.13-10.263,10.13h-6.922
		c0.004-0.012,0.006-0.024,0.006-0.038C529.067,374.937,529.028,374.888,528.975,374.873z M539.006,305.702
		c2.764,0.297,4.486,1.209,5.615,2.974L539.006,305.702z"/>
</g>
</svg>
