<?xml version="1.0" encoding="utf-8"?>
<!-- Generator: Adobe Illustrator 15.0.0, SVG Export Plug-In . SVG Version: 6.00 Build 0)  -->
<!DOCTYPE svg PUBLIC "-//W3C//DTD SVG 1.1//EN" "http://www.w3.org/Graphics/SVG/1.1/DTD/svg11.dtd">
<svg version="1.1" xmlns="http://www.w3.org/2000/svg" xmlns:xlink="http://www.w3.org/1999/xlink" x="0px" y="0px"
	 width="841.89px" height="595.28px" viewBox="0 0 841.89 595.28" enable-background="new 0 0 841.89 595.28" xml:space="preserve">
<g id="Layer_1" display="none">
	
		<rect x="883.5" y="51.522" display="inline" stroke="#000000" stroke-width="6.4113" stroke-linecap="square" stroke-linejoin="round" stroke-miterlimit="10" width="440.242" height="543.891"/>
	
		<rect x="-11.813" y="20" display="inline" stroke="#000000" stroke-width="6.5945" stroke-linecap="square" stroke-linejoin="round" stroke-miterlimit="10" width="440.242" height="575.413"/>
	<path stroke="#000000" stroke-width="4" stroke-linecap="square" stroke-linejoin="round" stroke-miterlimit="10" d="
		M466.784,139.534v-0.504h2.88v3.384h-14.833v-2.88H466.784z M458.647,136.149h-2.88V92.01h2.88V136.149z M485.432,128.949
		c-2.016,0-4.393-0.072-5.832-0.072l-2.088,13.537h-3.816l0.432-2.88h0.504l2.088-13.465H485L485.432,128.949z M482.408,108.859
		l-1.945,13.753h-3.313l1.873-12.241l1.8-14.905L482.408,108.859z M483.416,92.01h2.447l7.85,50.404h-3.744l-0.433-2.88h1.296
		L483.416,92.01z M512.863,139.534v-0.648h2.881v3.528h-18.865v-2.88H512.863z M515.528,94.746l-14.042,41.26h-3.455l14.904-43.996
		h2.593V94.746z M508.184,95.394h-9.648v-2.88h10.656L508.184,95.394z M520.494,91.938h2.16l4.752,18.506l1.152,5.472l-1.152,5.329
		l-2.88-13.681L520.494,91.938z M529.279,126.933l8.928-34.995h3.673l-9.721,37.875v12.601h-3.744v-2.88h0.864V126.933z
		 M432.945,190.565c0,5.616-3.889,7.849-7.488,7.849h-11.521v-2.88h8.641c0.936,0,1.944-0.144,2.881-0.504
		c2.376,0,3.24-1.584,3.6-3.024c0.432-0.576,1.008-2.52,1.008-4.32v-3.528c0-1.152-0.144-2.304-0.647-3.384
		c2.521,1.368,3.528,3.888,3.528,6.265V190.565z M417.752,151.466v25.058h-2.88v-27.938h5.185c3.241,0.072,4.968,1.368,5.76,3.384
		c-0.792-0.36-1.8-0.504-2.88-0.504H417.752z M426.177,183.004c-0.576-0.144-1.152-0.288-1.728-0.288h-6.697v9.433h-2.88v-12.313
		h6.697C423.873,179.908,425.673,180.917,426.177,183.004z M428.553,149.45c2.809,1.656,4.32,4.752,4.32,8.641l-0.072,14.401
		c0,2.736-1.296,5.617-3.744,7.561c-0.504-0.792-1.296-1.584-2.304-2.088c1.08-0.936,1.944-2.376,2.304-4.104
		c0.576-1.296,0.864-2.736,0.864-4.249l0.072-14.401C429.993,152.978,429.488,151.034,428.553,149.45z M450.08,184.949
		c-2.017,0-4.393-0.072-5.833-0.072l-2.088,13.537h-3.816l0.433-2.88h0.504l2.088-13.465h8.281L450.08,184.949z M447.056,164.859
		l-1.944,13.753h-3.313l1.873-12.241l1.799-14.905L447.056,164.859z M448.063,148.01h2.448l7.849,50.404h-3.744l-0.433-2.88h1.297
		L448.063,148.01z M464.406,185.453v-2.016h2.881v4.896c-0.072,1.368,0.145,2.736,0.648,3.888
		C465.486,191.069,464.263,188.333,464.406,185.453z M474.703,151.394c-0.576-0.144-1.151-0.288-1.8-0.288
		c-3.24,0-5.4,2.232-5.4,6.913v9.937c0.072,0.937,0.216,1.729,0.647,2.448c-1.871-1.368-3.384-2.952-3.527-5.328v-9.937
		c0-1.224,0.144-2.304,0.432-3.168c0.864-1.656,2.305-2.952,4.033-3.672c0.359-0.072,0.575-0.072,0.936-0.072
		C472.399,148.226,473.983,149.45,474.703,151.394z M465.199,194.669c1.584,0.936,3.456,1.44,5.473,1.44
		c1.367,0,2.52-0.216,3.6-0.576c2.664-0.216,4.32-2.016,4.896-4.608c0.792-1.584,1.152-3.384,1.152-5.329v-3.672
		c0-1.368-0.36-2.592-0.936-3.6c2.231,1.728,3.815,3.744,3.815,6.48v3.672c0,5.617-3.097,10.513-9.648,10.513
		C469.879,198.99,466.927,197.334,465.199,194.669z M476.216,180.269l-2.16-1.224l-0.937-0.504l-0.72-0.432
		c-2.593-1.44-5.4-3.024-7.128-5.473c1.512,1.152,3.312,2.088,4.968,3.024C472.832,177.172,475.207,178.252,476.216,180.269z
		 M477.367,148.874c2.881,1.656,4.465,5.041,4.465,9.001v6.553h-3.672v-2.88h0.792v-6.553
		C478.952,152.69,478.376,150.53,477.367,148.874z M491.55,151.322h-4.177v-2.88h4.177V151.322z M505.087,151.322h-6.984v47.092
		h-3.673v-2.88h0.793v-47.092h6.984v-0.432h2.88V151.322z M520.35,184.949c-2.016,0-4.392-0.072-5.832-0.072l-2.088,13.537h-3.816
		l0.432-2.88h0.504l2.089-13.465h8.28L520.35,184.949z M517.326,164.859l-1.944,13.753h-3.313l1.872-12.241l1.801-14.905
		L517.326,164.859z M518.334,148.01h2.448l7.849,50.404h-3.744l-0.432-2.88h1.296L518.334,148.01z M546.918,185.453
		c-0.432-0.144-0.936-0.216-1.439-0.216h-7.129v13.177h-3.816v-2.88h0.936v-13.177h7.129
		C544.902,182.356,546.486,183.581,546.918,185.453z M535.469,148.514h5.329c2.808,0,4.896,1.656,5.4,3.312
		c-0.72-0.288-1.584-0.432-2.521-0.432h-5.328v27.578h-2.881V148.514z M549.223,149.378c2.592,1.512,4.248,4.32,4.176,8.856v16.777
		c0,2.665-1.367,5.833-3.744,7.633c-0.576-0.792-1.367-1.584-2.376-2.16c1.152-1.008,2.089-2.448,2.376-4.393
		c0.576-1.296,0.864-2.664,0.864-3.96v-16.778C550.519,152.906,550.086,150.89,549.223,149.378z M553.688,198.414h-3.745v-2.88
		h0.864v-8.857c0-1.152-0.288-2.304-0.792-3.312c2.448,1.296,3.673,3.672,3.673,6.192V198.414z M580.399,188.477
		c0,10.081-7.85,9.937-10.153,9.937h-9.361v-2.88h6.481c1.08,0,3.384,0,5.112-0.792c1.728-0.36,3.384-1.224,3.96-3.672
		c0.648-1.368,1.08-3.096,1.08-5.473v-30.314c0-2.736-0.432-4.752-1.225-6.192c2.449,1.224,4.105,3.744,4.105,9.073V188.477z
		 M573.415,151.754c-0.937-0.288-2.017-0.36-3.169-0.36h-5.544v40.611h-2.881v-43.492h5.545
		C570.103,148.514,572.479,148.802,573.415,151.754z"/>
</g>
<g id="Layer_2">
</g>
<g id="someone_has_to_mute">
	<g id="stripes_1_" display="none">
		<path display="inline" fill="#158035" d="M356.582,425.442L41.554,244.097l4.797-8.335l315.029,181.347L356.582,425.442z
			 M361.381,446.458L46.352,265.112l-4.797,8.334l315.028,181.346L361.381,446.458z M361.381,475.808L46.352,294.461l-4.797,8.335
			l315.028,181.345L361.381,475.808z M361.381,505.157L46.352,323.812l-4.797,8.335l315.028,181.347L361.381,505.157z
			 M361.381,534.507L46.352,353.161l-4.797,8.334l315.028,181.346L361.381,534.507z M361.381,563.857L46.352,382.511l-4.797,8.336
			L356.582,572.19L361.381,563.857z M361.381,241.009L46.352,59.664l-4.797,8.335l315.028,181.346L361.381,241.009z
			 M361.381,212.516L46.352,31.17l-4.797,8.335l315.028,181.346L361.381,212.516z M361.381,270.359L46.352,89.013l-4.797,8.335
			l315.028,181.346L361.381,270.359z M361.381,299.709L46.352,118.363l-4.797,8.335l315.028,181.346L361.381,299.709z
			 M361.381,329.059L46.352,147.713l-4.797,8.334l315.028,181.346L361.381,329.059z M361.381,358.408L46.352,177.063l-4.797,8.335
			l315.028,181.346L361.381,358.408z M361.381,387.758L46.352,206.413l-4.797,8.335l315.028,181.346L361.381,387.758z"/>
	</g>
	<g>
		<path fill="#FFFFFF" d="M101.677,257.061l5.424,2.885l1.385-1.501l-5.194-2.654C102.831,256.252,102.253,256.714,101.677,257.061z
			"/>
		<polygon fill="#FFFFFF" points="103.523,218.627 106.177,220.012 109.293,220.012 109.293,219.436 103.523,216.435 		"/>
		<path fill="#FFFFFF" d="M98.791,238.017l1.5,0.809c-0.922-2.078-2.884-3.462-5.77-5.31l-7.271-3.924
			c2.308,2.886,6.232,5.194,10.618,7.733L98.791,238.017z"/>
		<path fill="#FFFFFF" d="M106.53,239.93v-0.1c0.015-0.785-0.072-1.521-0.241-2.217l3.004,1.558
			c-0.992-1.322-2.306-2.537-3.829-3.648c-1.926-3.519-6.174-5.898-10.245-8.272c-1.399-0.84-2.642-1.611-3.724-2.357
			c-0.209-0.55-0.322-1.104-0.322-1.764v-0.231l-3.768-1.937c-0.419-0.737-0.667-1.514-0.726-2.366v-0.246l4.494,2.472v-2.193
			l-4.494-2.472v-2.193l4.494,2.473v-2.193l-4.494-2.471v-2.193l4.494,2.472v-0.693v-1.5l-4.494-2.471v-0.563
			c0-0.563,0.034-1.086,0.087-1.588l4.868,2.545c0.116-0.578,0.462-1.155,0.693-1.731l-5.18-2.816
			c0.773-2.59,2.448-4.009,4.575-4.383l-0.318,0.159l6.925,3.693c-0.493-1.478-1.377-2.649-2.642-3.343
			c2.358,1.204,3.341,4.046,3.341,7.349v8.771h5.771v-0.593l4.494,2.473v-2.193l-4.494-2.472V210.5l4.494,2.472v-1.847v-0.346
			l-4.494-2.472v-1.716c0-0.165-0.013-0.323-0.017-0.485l4.281,2.365c-0.115-0.923-0.346-1.731-0.577-2.539l-3.882-2.107
			c-0.129-0.888-0.323-1.737-0.578-2.541l3.075,1.647c-0.985-1.532-2.292-2.742-3.9-3.652c-1.884-3.727-5.39-6.075-10.29-6.075
			c-8.425,0-12.465,5.886-12.465,13.618v12.003c0.116,6.348,5.655,9.695,12.927,13.965c4.27,2.539,7.271,4.27,7.271,7.386v4.848
			c0,4.732-2.308,8.425-7.04,8.425c-3.093,0-5.194-1.648-6.254-4.007l3.708,1.963c-0.115-0.578-0.115-1.27,0-1.962v-0.231
			l-4.412-2.315c-0.085-0.645-0.118-1.31-0.083-1.988v-0.249l4.495,2.36v-2.193l-3.809-2.077h-0.686v-4.535h-6.117v6.693
			c-0.103,7.506,4.38,12.71,10.744,13.759c-1.71-0.214-3.332-0.671-4.518-1.492c0.116,0.347,0.347,0.693,0.577,0.924l9.81,5.309
			h1.04c0.923,0,1.846-0.116,2.654-0.231l-8.125-4.348c0.323,0.021,0.645,0.044,0.976,0.044c0.987,0,1.907-0.091,2.778-0.245
			l7.141,3.74c0.692-0.231,1.384-0.692,2.077-1.039l-6.348-3.346h-0.516c2.778-1.05,4.8-2.969,6.082-5.417
			c-0.125,0.534-0.298,1.021-0.487,1.493l5.079,2.77c0.346-0.578,0.461-1.154,0.692-1.847l-5.13-2.736
			c0.285-0.582,0.539-1.185,0.745-1.817l4.963,2.707c0.115-0.692,0.231-1.385,0.231-2.078l-4.726-2.476
			c0.131-0.668,0.231-1.351,0.285-2.051l4.556,2.333v-2.077l-4.495-2.472v-2.192l4.495,2.471v-0.23c0-0.693-0.115-1.5-0.346-2.193
			L106.53,239.93z"/>
		<path fill="#FFFFFF" d="M88.058,201.546l5.539,3c0.692-0.46,1.385-0.922,2.193-1.038l-6.232-3.347
			C88.981,200.507,88.52,201.084,88.058,201.546z"/>
		<path fill="#FFFFFF" d="M130.41,203.508l-5.886-3.116c-0.461,0.346-0.923,0.923-1.384,1.384l5.309,2.886
			C129.025,204.201,129.602,203.739,130.41,203.508z"/>
		<path fill="#FFFFFF" d="M136.065,256.944l5.655,3.001c0.462-0.461,0.924-0.924,1.27-1.501l-5.194-2.77
			C137.334,256.252,136.758,256.599,136.065,256.944z"/>
		<polygon fill="#FFFFFF" points="186.382,262.715 184.42,261.677 184.535,262.715 		"/>
		<polygon fill="#FFFFFF" points="160.645,262.138 155.104,259.138 154.989,261.215 157.759,262.715 160.645,262.715 		"/>
		<polygon fill="#FFFFFF" points="175.417,261.215 169.3,257.984 169.647,260.292 171.262,261.215 		"/>
		<polygon fill="#FFFFFF" points="184.304,259.369 190.421,262.6 190.306,260.407 185.922,258.047 185.84,255.869 190.19,258.099 
			190.075,255.906 185.754,253.58 185.672,251.402 190.075,253.713 189.959,251.52 185.589,249.167 185.503,246.875 
			189.844,249.212 189.728,247.02 185.421,244.7 185.339,242.521 189.728,244.826 189.613,242.519 185.251,240.169 185.169,237.995 
			189.497,240.325 189.497,238.017 185.083,235.7 185,233.465 189.382,235.825 189.267,233.516 184.914,231.171 184.832,228.997 
			189.151,231.323 189.151,229.13 184.75,226.819 184.665,224.527 189.036,226.822 188.921,224.629 184.583,222.352 
			184.499,220.117 188.805,222.436 188.805,220.128 184.413,217.822 184.329,215.587 188.69,217.935 188.575,215.627 
			184.243,213.295 184.162,211.12 188.459,213.435 188.344,211.241 184.076,208.833 183.994,206.649 188.344,208.933 
			188.228,206.74 183.91,204.416 183.824,202.122 188.113,204.432 188.113,202.239 183.742,199.944 183.502,193.55 176.463,193.55 
			169.884,234.291 168.384,247.678 168.25,246.379 168.377,246.442 168.607,244.48 168.021,244.146 167.784,241.827 
			168.838,242.402 169.069,240.325 167.546,239.513 167.309,237.2 169.3,238.248 169.531,236.17 167.072,234.887 166.999,234.175 
			166.689,232.446 169.762,234.093 170.108,232.131 166.259,230.042 165.816,227.566 169.877,229.822 169.416,227.399 
			165.385,225.16 164.954,222.75 169.069,224.975 168.607,222.552 164.523,220.344 164.091,217.93 168.146,220.012 167.685,217.705 
			163.662,215.53 163.219,213.054 167.338,215.28 166.876,212.856 162.788,210.647 162.356,208.233 166.416,210.318 165.954,208.01 
			161.926,205.833 161.483,203.356 165.607,205.586 165.145,203.162 161.052,200.95 160.621,198.537 164.684,200.623 164.222,198.2 
			163.992,198.084 160.54,198.084 159.728,193.55 152.918,193.55 150.494,258.181 156.149,258.181 156.177,257.486 160.76,259.946 
			160.76,257.868 156.26,255.394 156.345,253.245 160.875,255.675 160.991,253.598 156.429,251.15 156.516,248.941 161.106,251.405 
			161.106,249.212 156.604,246.736 156.685,244.7 161.221,247.134 161.337,244.942 156.772,242.492 156.855,240.398 
			161.452,242.864 161.452,240.671 156.943,238.191 157.028,236.043 161.568,238.479 161.683,236.516 161.568,236.285 
			157.112,233.946 157.199,231.743 161.221,233.978 160.76,231.439 157.283,229.644 157.304,229.097 157.322,227.472 
			160.298,229.015 160.298,228.784 159.952,226.706 157.346,225.295 157.371,223.113 159.606,224.283 159.375,221.975 
			157.395,220.933 157.419,218.701 159.029,219.667 158.798,217.242 157.444,216.514 157.468,214.327 158.451,214.819 
			158.105,212.626 157.491,212.274 157.516,210.023 157.875,210.202 157.653,208.323 157.766,208.323 160.42,228.866 
			165.383,256.681 171.071,256.681 176.11,259.369 176.456,257.406 171.6,254.809 171.945,252.846 176.802,255.444 177.148,253.367 
			172.31,250.779 172.655,248.816 177.495,251.405 177.841,249.327 173.02,246.749 173.366,244.786 178.187,247.365 
			178.533,245.403 173.711,242.825 174.075,240.76 178.88,243.441 179.226,241.826 179.226,241.364 174.421,238.794 
			174.767,236.832 179.11,239.171 178.996,236.863 175.131,234.766 175.478,232.799 178.88,234.554 178.765,232.361 
			175.824,230.837 176.187,228.777 178.648,230.169 178.648,228.899 178.648,227.86 176.485,226.778 176.789,224.686 
			178.765,225.783 178.765,223.59 177.086,222.646 177.376,220.646 178.88,221.397 178.88,219.32 177.672,218.615 177.977,216.517 
			178.996,217.127 178.996,214.935 178.26,214.567 178.565,212.469 179.11,212.742 179.11,210.664 178.847,210.532 179.118,208.669 
			179.349,208.669 178.771,228.981 180.04,258.181 184.304,258.181 		"/>
		<polygon fill="#FFFFFF" points="187.997,198.084 184.42,198.084 187.997,200.046 		"/>
		<polygon fill="#FFFFFF" points="199.996,259.599 199.996,261.792 201.612,262.715 205.767,262.715 		"/>
		<polygon fill="#FFFFFF" points="219.847,241.71 219.847,240.44 217.423,240.44 		"/>
		<polygon fill="#FFFFFF" points="223.309,198.2 220.423,198.2 223.309,199.7 		"/>
		<path fill="#FFFFFF" d="M241.655,203.508l-5.886-3.116c-0.462,0.346-0.923,0.923-1.385,1.384l5.309,2.886
			C240.271,204.201,240.848,203.739,241.655,203.508z"/>
		<path fill="#FFFFFF" d="M247.311,256.944l5.655,3.001c0.462-0.461,0.924-0.924,1.27-1.501l-5.193-2.77
			C248.58,256.252,248.003,256.599,247.311,256.944z"/>
		<polygon fill="#FFFFFF" points="273.044,198.2 271.313,198.2 273.391,199.354 		"/>
		<polygon fill="#FFFFFF" points="273.044,262.715 267.389,259.599 267.389,261.907 268.89,262.715 		"/>
		<polygon fill="#FFFFFF" points="290.017,198.2 290.017,193.665 283.899,193.665 283.899,227.597 285.17,245.139 284.998,244.554 
			284.817,242.75 284.391,242.493 283.614,239.857 284.586,240.44 284.47,238.132 282.87,237.333 282.075,234.634 284.239,235.825 
			284.124,233.516 281.335,232.122 280.541,229.423 283.893,231.323 283.893,230.63 283.201,228.668 279.709,226.813 
			278.798,224.106 282.277,226.015 281.354,223.36 277.911,221.471 277.022,218.831 280.431,220.59 279.623,218.05 276.136,216.197 
			275.225,213.491 278.7,215.396 277.776,212.626 274.29,210.714 273.402,208.078 276.968,209.972 276.045,207.317 272.515,205.442 
			271.627,202.807 275.122,204.663 274.199,202.008 270.695,200.038 268.55,193.665 262.895,193.665 262.895,258.181 
			268.697,258.181 273.506,260.754 273.506,258.561 269.012,256.201 269.012,254.008 273.506,256.368 273.506,254.175 
			269.012,251.815 269.012,249.622 273.506,251.981 273.506,249.789 269.012,247.429 269.012,245.237 273.506,247.596 
			273.506,245.403 269.012,243.044 269.012,240.851 273.506,243.211 273.506,241.018 269.012,238.658 269.012,236.465 
			273.506,238.825 273.506,236.632 269.012,234.272 269.012,232.08 273.506,234.439 273.506,232.246 269.012,229.886 
			269.012,227.694 273.506,230.054 273.506,228.899 273.391,227.86 269.012,225.502 269.012,224.365 268.948,223.336 
			272.929,225.437 272.121,222.783 268.804,221.013 268.66,218.692 271.428,220.243 270.736,217.705 268.526,216.547 
			268.382,214.225 269.928,215.05 269.235,212.511 268.239,211.913 268.101,209.693 268.428,209.856 268.007,208.171 
			267.973,207.63 272.589,224.019 284.361,258.181 287.265,258.181 287.702,259.599 293.587,262.715 294.511,262.715 
			294.511,260.984 289.129,258.181 290.017,258.181 290.017,256.432 294.511,258.792 294.511,256.714 290.017,254.242 
			290.017,252.049 294.511,254.521 294.511,252.329 290.017,249.856 290.017,247.663 294.511,250.136 294.511,247.942 
			290.017,245.471 290.017,243.278 294.511,245.75 294.511,243.557 290.017,241.085 290.017,238.893 294.511,241.364 
			294.511,239.171 290.017,236.699 290.017,234.507 294.511,236.979 294.511,234.785 290.017,232.313 290.017,230.121 
			294.511,232.592 294.511,230.4 290.017,227.928 290.017,225.735 294.511,228.207 294.511,226.015 290.017,223.542 
			290.017,221.349 294.511,223.821 294.511,221.628 290.017,219.157 290.017,216.964 294.511,219.436 294.511,217.242 
			290.017,214.771 290.017,212.578 294.511,215.05 294.511,212.856 290.017,210.385 290.017,208.192 294.511,210.664 
			294.511,208.471 290.017,205.999 290.017,203.807 294.511,206.278 294.511,204.086 290.017,201.613 290.017,199.421 
			294.511,201.893 294.511,199.7 291.856,198.2 		"/>
		<polygon fill="#FFFFFF" points="288.741,262.254 288.856,262.715 289.433,262.715 		"/>
		<polygon fill="#FFFFFF" points="325.323,241.71 325.323,240.44 322.898,240.44 		"/>
		<polygon fill="#FFFFFF" points="325.899,198.2 328.785,199.7 328.785,198.2 		"/>
		<polygon fill="#FFFFFF" points="305.471,261.792 307.087,262.715 311.242,262.715 305.471,259.599 		"/>
		<polygon fill="#FFFFFF" points="118.926,351.665 120.426,352.474 124.582,352.474 118.926,349.357 		"/>
		<polygon fill="#FFFFFF" points="125.043,287.958 122.85,287.958 125.043,289.111 		"/>
		<polygon fill="#FFFFFF" points="138.893,352.474 140.97,352.474 138.893,351.318 		"/>
		<polygon fill="#FFFFFF" points="170.051,288.996 169.936,287.958 168.088,287.958 		"/>
		<polygon fill="#FFFFFF" points="159.433,352.474 159.548,351.318 154.008,348.318 153.662,350.396 157.471,352.474 		"/>
		<polygon fill="#FFFFFF" points="173.975,352.474 178.014,352.474 173.629,350.05 		"/>
		<path fill="#FFFFFF" d="M175.284,346.666l-0.379-2.436l4.148,2.241l-0.461-2.423l-4.067-2.26l-0.37-2.375l4.09,2.211l-0.347-2.309
			l-4.104-2.219l-0.38-2.442l4.138,2.237l-0.346-2.424l-4.162-2.189l-0.361-2.32l4.061,2.087l-0.346-2.425l-4.095-2.101
			l-0.379-2.437l4.012,2.229l-0.346-2.423l-4.036-2.184l-0.36-2.314l4.049,2.188l-0.346-2.422l-4.083-2.207l-0.38-2.442l4.117,2.226
			l-0.462-2.424l-4.025-2.176l-0.361-2.322l4.04,2.074l-0.346-2.309l-4.074-2.202l-0.379-2.439l3.992,2.219l-0.347-2.425
			l-4.006-2.113l-0.371-2.379l4.03,2.068L171.897,301l-4.063-2.197l-0.38-2.442l4.097,2.215l-0.346-2.309l-4.111-2.222l-0.37-2.378
			l4.134,2.177l-0.346-2.423l-4.168-2.195l-0.903-5.802h-6.579l-9.925,64.516h6.001l0.179-1.137l4.777,2.555l0.346-2.078
			l-4.811-2.46l0.328-2.083l4.713,2.581l0.347-2.077l-4.748-2.486l0.32-2.029l4.773,2.553l0.346-2.076l-4.807-2.46l0.329-2.084
			l4.825,2.581l0.231-1.615h0.808l-5.552-2.946l0.25-1.587h0.957l8.5,4.533h0.461l-0.347-2.077l-4.577-2.456h4.354v-0.116
			l2.539,16.966h4.187l6.078,3.265l-0.346-2.424L175.284,346.666z M158.055,326.011l0.013-0.083h3.096l-2.855-1.537l0.311-1.983
			l4.738,2.483l0.231-1.963l-4.651-2.547l0.311-1.986l4.687,2.455l0.347-1.961l-4.71-2.579l0.263-2.061l4.678,2.562
			c0-0.115,0.115-0.347,0.115-0.461l-0.231-1.848l-4.292-2.37l0.25-1.953l3.696,2.016l-0.231-2.425l-3.201-1.655l0.263-2.055
			l2.591,1.403l-0.23-2.424l-2.09-1.1l0.249-1.948l1.496,0.854l-0.231-2.424l-1-0.499l0.261-2.044l0.393,0.236l-0.181-1.896
			l0.072-0.561l2.539,20.774l1.385,9.579H158.055z"/>
		<path fill="#FFFFFF" d="M201.093,327.774l1.5,0.809c-0.923-2.078-2.885-3.462-5.771-5.31l-7.271-3.924
			c2.308,2.886,6.232,5.193,10.618,7.732L201.093,327.774z"/>
		<path fill="#FFFFFF" d="M190.36,291.304l5.54,3c0.692-0.461,1.385-0.923,2.193-1.039l-6.232-3.346
			C191.284,290.266,190.821,290.842,190.36,291.304z"/>
		<path fill="#FFFFFF" d="M205.595,345.549c-0.462,0.461-1.04,0.923-1.616,1.27l5.424,2.886l1.385-1.501L205.595,345.549z"/>
		<polygon fill="#FFFFFF" points="205.825,308.386 208.479,309.77 211.596,309.77 211.596,309.193 205.825,306.193 		"/>
		<path fill="#FFFFFF" d="M208.832,329.688v-0.1c0.015-0.785-0.072-1.521-0.241-2.217l3.005,1.559
			c-0.992-1.322-2.306-2.537-3.829-3.648c-1.926-3.519-6.174-5.898-10.246-8.273c-1.399-0.839-2.642-1.61-3.724-2.356
			c-0.21-0.551-0.323-1.104-0.323-1.765v-0.23l-3.768-1.938c-0.419-0.736-0.667-1.514-0.726-2.365v-0.246l4.493,2.472v-2.192
			l-4.493-2.473v-2.192l4.493,2.473V304l-4.493-2.472v-2.193l4.493,2.472v-0.691v-1.501l-4.493-2.472v-0.563
			c0-0.563,0.034-1.087,0.087-1.588l4.868,2.545c0.116-0.578,0.461-1.155,0.692-1.731l-5.18-2.816
			c0.773-2.59,2.447-4.009,4.573-4.383l-0.317,0.159l6.926,3.693c-0.493-1.478-1.376-2.648-2.64-3.342
			c2.357,1.204,3.339,4.046,3.339,7.348v8.771h5.77v-0.593l4.495,2.473v-2.192l-4.495-2.473v-2.192l4.495,2.472v-1.847v-0.347
			l-4.495-2.472v-1.716c0-0.165-0.013-0.322-0.017-0.485l4.281,2.365c-0.115-0.923-0.346-1.731-0.577-2.539l-3.882-2.107
			c-0.129-0.888-0.323-1.737-0.578-2.541l3.075,1.647c-0.985-1.532-2.292-2.743-3.9-3.652c-1.884-3.728-5.39-6.076-10.29-6.076
			c-8.425,0-12.465,5.886-12.465,13.619v12.003c0.116,6.349,5.655,9.696,12.927,13.966c4.27,2.539,7.271,4.27,7.271,7.386v4.848
			c0,4.731-2.308,8.425-7.04,8.425c-3.093,0-5.194-1.647-6.254-4.008l3.708,1.964c-0.115-0.578-0.115-1.27,0-1.962v-0.231
			l-4.412-2.316c-0.085-0.645-0.118-1.31-0.083-1.987v-0.248l4.495,2.359v-2.193l-3.808-2.077h-0.687v-4.534h-6.117v6.693
			c-0.102,7.496,4.368,12.696,10.717,13.756c-1.7-0.215-3.311-0.671-4.491-1.488c0.116,0.346,0.347,0.692,0.578,0.923l9.81,5.31
			h1.039c0.923,0,1.847-0.115,2.654-0.23l-8.122-4.349c0.322,0.021,0.644,0.045,0.974,0.045c0.987,0,1.908-0.091,2.779-0.245
			l7.14,3.74c0.692-0.231,1.385-0.691,2.078-1.039l-6.348-3.346h-0.517c2.778-1.05,4.8-2.969,6.082-5.418
			c-0.125,0.534-0.298,1.021-0.487,1.493l5.078,2.77c0.346-0.577,0.461-1.153,0.692-1.846l-5.13-2.737
			c0.285-0.581,0.539-1.185,0.745-1.816l4.963,2.707c0.115-0.692,0.23-1.386,0.23-2.078l-4.726-2.476
			c0.131-0.668,0.231-1.351,0.285-2.051l4.557,2.334v-2.078l-4.495-2.471v-2.193l4.495,2.472v-0.23c0-0.693-0.116-1.501-0.346-2.193
			L208.832,329.688z"/>
		<polygon fill="#FFFFFF" points="246.791,350.05 251.176,352.474 252.561,352.474 252.561,350.974 246.791,347.973 		"/>
		<polygon fill="#FFFFFF" points="242.173,293.266 242.173,292.92 237.903,290.612 237.903,292.805 238.827,293.266 		"/>
		<path fill="#FFFFFF" d="M284.528,346.703l5.655,3.001c0.462-0.462,0.924-0.924,1.27-1.501l-5.193-2.77
			C285.797,346.01,285.221,346.356,284.528,346.703z"/>
		<path fill="#FFFFFF" d="M271.602,291.535l5.309,2.885c0.578-0.461,1.155-0.923,1.962-1.154l-5.886-3.115
			C272.525,290.497,272.064,291.074,271.602,291.535z"/>
		<polygon fill="#FFFFFF" points="140.505,440.731 143.275,442.231 146.161,442.231 146.161,441.653 140.621,438.653 		"/>
		<polygon fill="#FFFFFF" points="169.936,377.6 173.514,379.562 173.514,377.6 		"/>
		<polygon fill="#FFFFFF" points="171.439,437.563 171.357,435.386 175.707,437.614 175.592,435.422 171.271,433.096 
			171.189,430.919 175.592,433.229 175.476,431.036 171.106,428.683 171.02,426.391 175.361,428.729 175.245,426.535 
			170.938,424.216 170.856,422.038 175.245,424.342 175.13,422.034 170.769,419.686 170.687,417.512 175.014,419.842 
			175.014,417.532 170.601,415.216 170.517,412.98 174.899,415.341 174.783,413.031 170.431,410.688 170.35,408.513 
			174.668,410.839 174.668,408.646 170.268,406.335 170.182,404.043 174.552,406.338 174.438,404.145 170.1,401.868 
			170.017,399.634 174.322,401.952 174.322,399.644 169.93,397.339 169.847,395.104 174.207,397.451 174.091,395.144 
			169.761,392.812 169.679,390.638 173.975,392.95 173.86,390.758 169.593,388.35 169.511,386.165 173.86,388.449 173.745,386.256 
			169.428,383.932 169.341,381.639 173.629,383.948 173.629,381.755 169.26,379.461 169.02,373.066 161.98,373.066 155.401,413.807 
			153.901,427.194 153.768,425.896 153.894,425.959 154.124,423.997 153.539,423.661 153.301,421.344 154.355,421.919 
			154.586,419.842 153.064,419.029 152.827,416.717 154.817,417.764 155.048,415.687 152.589,414.403 152.516,413.69 
			152.207,411.964 155.278,413.608 155.625,411.647 151.776,409.559 151.333,407.083 155.395,409.339 154.933,406.914 
			150.903,404.677 150.472,402.267 154.586,404.491 154.124,402.068 150.041,399.86 149.609,397.447 153.663,399.528 
			153.201,397.221 149.179,395.047 148.736,392.571 152.854,394.797 152.393,392.373 148.305,390.163 147.873,387.75 
			151.932,389.834 151.47,387.525 147.444,385.35 147,382.872 151.124,385.103 150.662,382.679 146.569,380.466 146.138,378.053 
			150.201,380.14 149.739,377.715 149.508,377.6 146.057,377.6 145.245,373.066 138.436,373.066 136.012,437.697 141.667,437.697 
			141.694,437.003 146.276,439.462 146.276,437.384 141.778,434.909 141.863,432.761 146.392,435.191 146.508,433.113 
			141.946,430.666 142.034,428.458 146.623,430.921 146.623,428.729 142.122,426.253 142.202,424.217 146.738,426.65 
			146.854,424.458 142.29,422.01 142.373,419.915 146.969,422.38 146.969,420.188 142.461,417.708 142.546,415.559 147.084,417.994 
			147.199,416.032 147.084,415.802 142.629,413.464 142.717,411.26 146.738,413.493 146.276,410.954 142.8,409.16 142.822,408.613 
			142.84,406.987 145.815,408.531 145.815,408.3 145.468,406.222 142.864,404.812 142.888,402.63 145.123,403.8 144.892,401.49 
			142.912,400.449 142.937,398.217 144.545,399.183 144.314,396.759 142.961,396.03 142.985,393.844 143.968,394.334 
			143.622,392.142 143.008,391.791 143.033,389.54 143.391,389.719 143.17,387.839 143.283,387.839 145.938,408.382 150.9,436.197 
			156.589,436.197 161.626,438.884 161.973,436.922 157.117,434.324 157.462,432.362 162.319,434.96 162.665,432.883 
			157.827,430.295 158.172,428.333 163.012,430.921 163.358,428.843 158.537,426.266 158.882,424.304 163.704,426.881 
			164.05,424.919 159.229,422.34 159.592,420.276 164.396,422.957 164.743,421.342 164.743,420.88 159.938,418.311 160.284,416.348 
			164.627,418.688 164.512,416.379 160.648,414.282 160.995,412.314 164.396,414.07 164.281,411.878 161.341,410.354 
			161.704,408.293 164.165,409.685 164.165,408.415 164.165,407.377 162.002,406.294 162.307,404.202 164.281,405.3 
			164.281,403.107 162.603,402.163 162.894,400.162 164.396,400.913 164.396,398.836 163.189,398.132 163.494,396.033 
			164.512,396.644 164.512,394.451 163.777,394.084 164.083,391.985 164.627,392.258 164.627,390.18 164.364,390.049 
			164.635,388.186 164.866,388.186 164.288,408.497 165.558,437.697 169.82,437.697 169.82,438.884 175.938,442.116 
			175.823,439.923 		"/>
		<polygon fill="#FFFFFF" points="170.052,442.231 171.898,442.231 169.936,441.193 		"/>
		<polygon fill="#FFFFFF" points="155.164,439.809 156.779,440.731 160.934,440.731 154.817,437.5 		"/>
		<path fill="#FFFFFF" d="M206.756,377.715v-4.534h-6.001v51.244c0,4.731-1.731,8.541-7.041,8.541c-2.787,0-4.616-1.415-5.67-3.427
			l3.47,1.844c-0.116-0.692-0.116-1.5-0.116-2.192l-4.273-2.362c-0.142-0.748-0.211-1.523-0.217-2.301l4.49,2.47v-2.193
			l-4.493-2.472v-2.192l4.493,2.472v-2.192l-4.493-2.472v-2.193l4.493,2.472v-2.193l-4.493-2.472v-2.192l4.493,2.472v-2.192
			l-4.493-2.472v-2.194l4.493,2.473v-2.192l-4.493-2.473v-2.191l4.493,2.471v-2.193l-4.493-2.471v-2.193l4.493,2.472v-2.192
			l-4.493-2.472v-2.192l4.493,2.471v-2.193l-4.493-2.472v-2.192l4.493,2.472v-2.192l-4.493-2.472v-2.193l4.493,2.472v-2.192
			l-4.493-2.473v-2.192l4.493,2.473v-2.193l-4.493-2.472v-5.295h-6.117v51.244c0,6.392,3.396,11.746,9.068,13.416
			c-0.943-0.236-1.821-0.571-2.613-1.033c0.347,0.576,0.692,1.153,1.154,1.614l8.079,4.387c0.577,0.115,1.155,0.115,1.731,0.115
			c0.808,0,1.5-0.115,2.308-0.23l-8.181-4.372c0.45,0.043,0.909,0.068,1.38,0.068c0.844,0,1.633-0.081,2.395-0.201l7.178,3.813
			c0.692-0.231,1.384-0.692,2.077-1.039l-6.579-3.462h-0.063c2.764-1.058,4.812-2.985,6.143-5.383
			c-0.122,0.639-0.326,1.271-0.539,1.805l5.078,2.655c0.347-0.578,0.578-1.155,0.808-1.732l-5.267-2.861
			c0.293-0.543,0.538-1.114,0.759-1.697l5.084,2.712l0.346-2.077l-4.824-2.58c0.151-0.645,0.253-1.307,0.327-1.974l4.613,2.476
			v-2.192l-4.494-2.472v-2.192l4.494,2.472v-2.193l-4.494-2.472V417.6l4.494,2.473v-2.192l-4.494-2.472v-2.192l4.494,2.471v-2.193
			l-4.494-2.472v-2.192l4.494,2.472v-2.192l-4.494-2.472v-2.193l4.494,2.471v-2.192l-4.494-2.472v-2.192l4.494,2.473v-2.193
			l-4.494-2.472v-2.194l4.494,2.473v-2.192l-4.494-2.473v-2.191l4.494,2.472v-2.194l-4.494-2.472V386.9l4.494,2.472v-2.192
			l-4.494-2.472v-2.192l4.494,2.471v-2.193l-4.494-2.472v-2.192l4.494,2.472v-2.192l-1.154-0.693H206.756z"/>
		<polygon fill="#FFFFFF" points="191.398,377.715 189.552,377.715 191.398,378.754 		"/>
		<path fill="#FFFFFF" d="M201.555,436.808l5.425,2.884l1.384-1.5l-5.078-2.653C202.825,435.999,202.248,436.461,201.555,436.808z"
			/>
		<polygon fill="#FFFFFF" points="227.634,439.809 232.02,442.231 233.404,442.231 233.404,440.731 227.634,437.729 		"/>
		<polygon fill="#FFFFFF" points="218.747,382.563 219.671,383.024 223.017,383.024 223.017,382.679 218.747,380.37 		"/>
		<polygon fill="#FFFFFF" points="237.682,377.715 237.682,373.181 214.254,373.181 214.254,378.49 219.359,378.49 223.017,380.485 
			223.017,378.49 223.14,378.49 223.14,437.697 228.911,437.697 228.911,436.179 233.404,438.539 233.404,436.461 228.911,433.989 
			228.911,431.796 233.404,434.268 233.404,432.075 228.911,429.604 228.911,427.41 233.404,429.883 233.404,427.689 
			228.911,425.218 228.911,423.024 233.404,425.497 233.404,423.304 228.911,420.832 228.911,418.64 233.404,421.111 
			233.404,418.918 228.911,416.446 228.911,414.254 233.404,416.725 233.404,414.532 228.911,412.061 228.911,409.868 
			233.404,412.339 233.404,410.146 228.911,407.675 228.911,405.481 233.404,407.954 233.404,405.761 228.911,403.289 
			228.911,401.096 233.404,403.568 233.404,401.375 228.911,398.903 228.911,396.711 233.404,399.183 233.404,396.989 
			228.911,394.519 228.911,392.325 233.404,394.797 233.404,392.604 228.911,390.132 228.911,387.939 233.404,390.411 
			233.404,388.218 228.911,385.746 228.911,383.554 233.404,386.024 233.404,383.833 228.911,381.36 228.911,379.167 
			236.059,383.024 240.214,383.024 231.712,378.49 235.753,378.49 242.176,381.871 242.176,379.678 238.483,377.715 		"/>
		<polygon fill="#FFFFFF" points="273.219,379.216 273.219,377.715 270.333,377.715 		"/>
		<polygon fill="#FFFFFF" points="249.905,441.309 251.521,442.231 255.676,442.231 249.905,439.115 		"/>
		<polygon fill="#FFFFFF" points="269.756,421.227 269.756,419.957 267.333,419.957 		"/>
		<path fill="#FFFFFF" d="M125.514,258.585c-1.411-0.262-2.706-0.741-3.875-1.41c0.23,0.461,0.46,0.809,0.807,1.154l9.233,4.963
			c0.461,0.116,0.809,0.116,1.27,0.116c0.923,0,1.731-0.116,2.539-0.231l-8.267-4.363c0.404,0.032,0.812,0.059,1.233,0.059
			c0.905,0,1.752-0.092,2.561-0.237l7.127,3.733c0.691-0.231,1.384-0.692,1.962-1.039l-6.533-3.438
			c2.464-1.022,4.335-2.782,5.614-4.956l-0.352,1.123l5.195,2.77c0.346-0.578,0.577-1.154,0.807-1.731l-5.284-2.812
			c0.306-0.593,0.568-1.214,0.792-1.853l4.955,2.702c0.23-0.692,0.346-1.27,0.346-1.962l-4.783-2.559
			c0.15-0.684,0.257-1.382,0.322-2.09l4.577,2.455v-2.192l-4.495-2.36v-2.193l4.495,2.36v-2.193l-4.495-2.359v-2.192l4.495,2.359
			v-2.193l-4.495-2.359v-2.193l4.495,2.36v-2.193l-4.495-2.36v-2.192l4.495,2.36v-2.193l-4.495-2.36v-2.193l4.495,2.36v-2.193
			l-4.495-2.36v-2.193l4.495,2.36v-2.193l-4.495-2.36v-2.193l4.495,2.36v-2.193l-4.495-2.359v-2.193l4.495,2.359v-2.192l-4.495-2.36
			v-2.191l4.379,2.358c-0.115-0.924-0.231-1.731-0.462-2.54l-4.051-2.138c-0.104-0.858-0.275-1.693-0.512-2.498l3.293,1.866
			c-0.808-1.615-1.962-3-3.348-4.039l-1.076-0.587c-2.082-3.847-5.907-6.486-11.035-6.486c-8.656,0-13.157,6.578-13.157,13.733
			v38.203C115.297,251.682,119.089,257.279,125.514,258.585z M125.542,258.592c0.134,0.027,0.277,0.038,0.414,0.062
			C125.818,258.632,125.678,258.617,125.542,258.592z M133.293,200.622l-4.013-2.064
			C131.023,198.741,132.342,199.51,133.293,200.622z M127.817,198.544l-1.446,0.578l7.386,3.924c0.231,0,0.577,0.116,0.808,0.116
			c-0.345-0.919-0.691-1.724-1.263-2.529c1.358,1.595,1.962,3.891,1.962,6.189v38.086c0,4.617-2.077,8.31-6.809,8.31
			c-2.882,0-4.86-1.417-5.97-3.514l3.54,1.931c-0.115-0.692-0.115-1.27-0.115-2.078v-0.231L121.586,247
			c-0.11-0.638-0.172-1.299-0.172-1.976v-0.25l4.495,2.359v-2.192l-4.495-2.359v-2.193l4.495,2.36v-2.193l-4.495-2.36v-2.193
			l4.495,2.36v-2.193l-4.495-2.36v-2.193l4.495,2.36v-2.193l-4.495-2.36v-2.193l4.495,2.359v-2.192l-4.495-2.36v-2.192l4.495,2.359
			v-2.192l-4.495-2.36v-2.193l4.495,2.36v-2.193l-4.495-2.359v-2.193l4.495,2.36v-2.193l-4.495-2.359v-2.193l4.495,2.36v-0.693v-1.5
			l-4.495-2.36v-0.674c0-0.504,0.033-0.995,0.088-1.473l4.869,2.545c0.231-0.577,0.461-1.27,0.808-1.731l-5.193-2.77l-0.155,0.258
			C122.634,200.812,124.618,198.783,127.817,198.544z"/>
		<polygon fill="#FFFFFF" points="209.613,258.181 218.116,262.715 222.155,262.715 213.653,258.181 217.809,258.181 223.309,261.1 
			223.309,258.906 219.962,257.175 218.815,257.175 218.815,252.642 201.618,252.642 201.618,252.56 203.227,252.56 
			201.618,251.701 201.618,249.511 206.113,251.981 206.113,249.789 201.618,247.317 201.618,245.124 206.113,247.596 
			206.113,245.865 207.036,245.865 201.618,242.93 201.618,241.332 202.69,241.332 211.191,245.865 215.23,245.865 206.729,241.332 
			210.884,241.332 219.385,245.865 219.847,245.865 219.847,243.903 215.039,241.332 215.352,241.332 215.352,235.907 
			201.618,235.907 201.618,235.825 204.728,235.825 201.618,234.158 201.618,231.968 206.113,234.439 206.113,232.246 
			201.618,229.774 201.618,227.582 206.113,230.054 206.113,227.86 201.618,225.389 201.618,223.196 206.113,225.668 
			206.113,223.475 201.618,221.003 201.618,218.811 206.113,221.282 206.113,219.09 201.618,216.617 201.618,214.424 
			206.113,216.896 206.113,214.704 201.618,212.231 201.618,210.039 206.113,212.511 206.113,210.318 201.618,207.847 
			201.618,205.653 206.113,208.125 206.113,205.932 201.618,203.46 201.618,201.268 206.113,203.739 206.113,203.508 
			209.922,203.508 201.618,199.072 201.618,198.975 205.459,198.975 213.961,203.508 218.116,203.508 209.614,198.975 
			213.654,198.975 222.155,203.508 223.309,203.508 223.309,201.893 217.81,198.975 218.815,198.975 218.815,193.665 
			195.501,193.665 195.501,258.181 201.419,258.181 209.922,262.715 213.961,262.715 205.458,258.181 		"/>
		<path fill="#FFFFFF" d="M236.762,258.585c-1.412-0.262-2.707-0.741-3.877-1.41c0.231,0.461,0.461,0.809,0.808,1.154l9.232,4.963
			c0.462,0.116,0.809,0.116,1.271,0.116c0.923,0,1.731-0.116,2.539-0.231l-8.267-4.363c0.404,0.032,0.812,0.059,1.233,0.059
			c0.905,0,1.752-0.092,2.562-0.237l7.126,3.733c0.692-0.231,1.385-0.692,1.962-1.039l-6.532-3.438
			c2.464-1.022,4.335-2.781,5.613-4.955l-0.351,1.122l5.194,2.77c0.346-0.578,0.577-1.154,0.808-1.731l-5.285-2.812
			c0.306-0.593,0.568-1.214,0.792-1.853l4.955,2.702c0.231-0.692,0.346-1.27,0.346-1.962l-4.783-2.559
			c0.15-0.684,0.257-1.382,0.322-2.089l4.576,2.455v-2.192l-4.494-2.359v-2.193l4.494,2.359v-2.193l-4.494-2.359v-2.192l4.494,2.358
			v-2.193l-4.494-2.358v-2.193l4.494,2.359v-2.193l-4.494-2.359v-2.192l4.494,2.359v-2.193l-4.494-2.359v-2.193l4.494,2.359v-2.193
			l-4.494-2.359v-2.193l4.494,2.359v-2.193l-4.494-2.359v-2.193l4.494,2.359v-2.193l-4.494-2.358v-2.193l4.494,2.358v-2.192
			l-4.494-2.359v-2.191l4.378,2.358c-0.115-0.924-0.231-1.731-0.461-2.54l-4.051-2.138c-0.104-0.858-0.275-1.693-0.512-2.498
			l3.293,1.866c-0.808-1.615-1.962-3-3.347-4.039l-1.076-0.587c-2.082-3.847-5.907-6.486-11.035-6.486
			c-8.656,0-13.158,6.578-13.158,13.733v38.203C226.543,251.682,230.335,257.28,236.762,258.585z M236.788,258.592
			c0.134,0.027,0.278,0.038,0.414,0.062C237.064,258.632,236.924,258.617,236.788,258.592z M244.539,200.622l-4.013-2.064
			C242.269,198.741,243.588,199.51,244.539,200.622z M239.063,198.544l-1.447,0.578l7.387,3.924c0.231,0,0.577,0.116,0.808,0.116
			c-0.345-0.92-0.69-1.726-1.265-2.531c1.359,1.595,1.964,3.892,1.964,6.191v38.086c0,4.617-2.077,8.31-6.809,8.31
			c-2.882,0-4.861-1.417-5.971-3.514l3.54,1.931c-0.115-0.692-0.115-1.27-0.115-2.078v-0.231L232.833,247
			c-0.11-0.638-0.172-1.298-0.172-1.976v-0.25l4.495,2.359v-2.192l-4.495-2.359v-2.193l4.495,2.36v-2.193l-4.495-2.36v-2.193
			l4.495,2.36v-2.193l-4.495-2.36v-2.193l4.495,2.36v-2.193l-4.495-2.36v-2.193l4.495,2.359v-2.192l-4.495-2.36v-2.192l4.495,2.359
			v-2.192l-4.495-2.36v-2.193l4.495,2.36v-2.193l-4.495-2.359v-2.193l4.495,2.36v-2.193l-4.495-2.359v-2.193l4.495,2.36v-0.693v-1.5
			l-4.495-2.36v-0.674c0-0.504,0.033-0.995,0.088-1.473l4.868,2.545c0.231-0.577,0.462-1.27,0.808-1.731l-5.194-2.77l-0.154,0.257
			C233.88,200.811,235.864,198.783,239.063,198.544z"/>
		<polygon fill="#FFFFFF" points="324.29,198.975 324.29,193.665 300.977,193.665 300.977,258.181 306.895,258.181 315.397,262.715 
			319.437,262.715 310.934,258.181 315.089,258.181 323.591,262.715 327.631,262.715 319.128,258.181 323.284,258.181 
			328.785,261.1 328.785,258.906 325.438,257.175 324.29,257.175 324.29,252.642 307.094,252.642 307.094,252.56 308.704,252.56 
			307.094,251.701 307.094,249.511 311.588,251.981 311.588,249.789 307.094,247.317 307.094,245.124 311.588,247.596 
			311.588,245.865 312.512,245.865 307.094,242.93 307.094,241.332 308.166,241.332 316.667,245.865 320.706,245.865 
			312.205,241.332 316.359,241.332 324.86,245.865 325.323,245.865 325.323,243.903 320.514,241.332 320.828,241.332 
			320.828,235.907 307.094,235.907 307.094,235.825 310.204,235.825 307.094,234.158 307.094,231.968 311.588,234.439 
			311.588,232.246 307.094,229.774 307.094,227.582 311.588,230.054 311.588,227.86 307.094,225.389 307.094,223.196 
			311.588,225.668 311.588,223.475 307.094,221.003 307.094,218.811 311.588,221.282 311.588,219.09 307.094,216.617 
			307.094,214.424 311.588,216.896 311.588,214.704 307.094,212.231 307.094,210.039 311.588,212.511 311.588,210.318 
			307.094,207.847 307.094,205.653 311.588,208.125 311.588,205.932 307.094,203.46 307.094,201.268 311.588,203.739 
			311.588,203.508 315.397,203.508 307.094,199.072 307.094,198.975 310.935,198.975 319.437,203.508 323.591,203.508 
			315.09,198.975 319.129,198.975 327.631,203.508 328.785,203.508 328.785,201.893 323.285,198.975 		"/>
		<polygon fill="#FFFFFF" points="138.893,347.939 138.893,349.126 144.894,352.357 144.894,350.165 140.4,347.807 140.4,345.613 
			144.894,347.973 144.894,345.779 140.4,343.42 140.4,341.228 144.894,343.587 144.894,341.395 140.4,339.034 140.4,336.842 
			144.894,339.201 144.894,337.008 140.4,334.648 140.4,332.456 144.894,334.815 144.894,332.622 140.4,330.264 140.4,328.07 
			144.894,330.43 144.894,328.236 140.4,325.877 140.4,323.686 144.894,326.044 144.894,323.85 140.4,321.492 140.4,319.299 
			144.894,321.658 144.894,319.466 140.4,317.105 140.4,314.914 144.894,317.271 144.894,315.08 140.4,312.721 140.4,310.527 
			144.894,312.887 144.894,310.694 140.4,308.334 140.4,306.142 144.894,308.5 144.894,306.309 140.4,303.949 140.4,301.756 
			144.894,304.115 144.894,301.922 140.4,299.563 140.4,297.37 144.894,299.73 144.894,297.537 140.4,295.177 140.4,292.984 
			144.894,295.344 144.894,293.151 140.4,290.791 140.4,288.599 144.894,290.958 144.894,288.766 143.394,287.958 140.4,287.958 
			140.4,283.423 134.398,283.423 134.398,326.242 120.548,326.242 120.548,326.16 124.582,326.16 120.548,324.03 120.548,321.838 
			125.043,324.197 125.043,322.005 120.548,319.645 120.548,317.452 125.043,319.811 125.043,317.619 120.548,315.259 
			120.548,313.066 125.043,315.426 125.043,313.232 120.548,310.875 120.548,308.681 125.043,311.039 125.043,308.848 
			120.548,306.488 120.548,304.295 125.043,306.655 125.043,304.461 120.548,302.102 120.548,299.91 125.043,302.27 
			125.043,300.076 120.548,297.716 120.548,295.523 125.043,297.883 125.043,295.69 120.548,293.33 120.548,291.138 
			125.043,293.497 125.043,291.304 120.548,288.944 120.548,283.423 114.432,283.423 114.432,347.939 120.236,347.939 
			125.043,350.512 125.043,348.318 120.548,345.959 120.548,343.767 125.043,346.126 125.043,343.933 120.548,341.573 
			120.548,339.381 125.043,341.74 125.043,339.547 120.548,337.188 120.548,334.995 125.043,337.354 125.043,336.315 
			127.236,336.315 120.548,332.803 120.548,331.781 122.775,331.781 131.275,336.315 134.276,336.315 134.276,335.738 
			126.929,331.781 130.969,331.781 134.276,333.546 134.276,331.781 134.398,331.781 134.398,347.939 		"/>
		<polygon fill="#FFFFFF" points="248.067,347.939 248.067,346.421 252.561,348.78 252.561,346.703 248.067,344.231 
			248.067,342.038 252.561,344.51 252.561,342.317 248.067,339.845 248.067,337.652 252.561,340.125 252.561,337.932 
			248.067,335.46 248.067,333.266 252.561,335.738 252.561,333.546 248.067,331.074 248.067,328.882 252.561,331.354 
			252.561,329.16 248.067,326.688 248.067,324.495 252.561,326.967 252.561,324.774 248.067,322.303 248.067,320.11 252.561,322.58 
			252.561,320.389 248.067,317.917 248.067,315.724 252.561,318.196 252.561,316.004 248.067,313.531 248.067,311.339 
			252.561,313.811 252.561,311.617 248.067,309.146 248.067,306.953 252.561,309.425 252.561,307.23 248.067,304.76 
			248.067,302.567 252.561,305.039 252.561,302.846 248.067,300.374 248.067,298.182 252.561,300.652 252.561,298.46 
			248.067,295.988 248.067,293.795 252.561,296.267 252.561,294.075 248.067,291.603 248.067,289.408 255.215,293.266 
			259.371,293.266 250.87,288.733 254.91,288.733 261.333,292.113 261.333,289.92 257.639,287.958 256.838,287.958 256.838,283.423 
			233.409,283.423 233.409,288.733 238.517,288.733 242.173,290.727 242.173,288.733 242.296,288.733 242.296,347.939 		"/>
		<path fill="#FFFFFF" d="M289.728,296.91l4.379,2.357c-0.115-0.923-0.231-1.73-0.462-2.539l-4.051-2.139
			c-0.104-0.858-0.275-1.693-0.512-2.498l3.293,1.867c-0.808-1.616-1.962-3.001-3.347-4.039l-1.078-0.588
			c-2.082-3.847-5.907-6.485-11.035-6.485c-8.656,0-13.158,6.578-13.158,13.733v38.202c0,6.646,3.778,12.232,10.181,13.552
			c-1.396-0.263-2.68-0.738-3.838-1.4c0.23,0.462,0.46,0.809,0.807,1.154l9.233,4.963c0.461,0.115,0.809,0.115,1.271,0.115
			c0.922,0,1.731-0.115,2.539-0.23l-8.265-4.362c0.403,0.032,0.81,0.059,1.23,0.059c0.906,0,1.753-0.092,2.563-0.237l7.126,3.732
			c0.691-0.231,1.384-0.691,1.962-1.039l-6.533-3.438c2.465-1.022,4.336-2.782,5.614-4.957l-0.352,1.124l5.195,2.77
			c0.346-0.577,0.576-1.153,0.808-1.73l-5.285-2.812c0.306-0.594,0.568-1.214,0.792-1.853l4.956,2.702
			c0.23-0.692,0.346-1.27,0.346-1.962l-4.784-2.56c0.151-0.684,0.257-1.382,0.322-2.09l4.577,2.456v-2.193l-4.495-2.359v-2.193
			l4.495,2.36v-2.192l-4.495-2.361v-2.191l4.495,2.359v-2.193l-4.495-2.359v-2.193l4.495,2.36v-2.191l-4.495-2.361v-2.192
			l4.495,2.359v-2.192l-4.495-2.36v-2.193l4.495,2.36v-2.193l-4.495-2.359v-2.192l4.495,2.359v-2.192l-4.495-2.36v-2.193l4.495,2.36
			v-2.193l-4.495-2.359v-2.192l4.495,2.359v-2.192l-4.495-2.36V296.91z M281.755,290.38l-4.014-2.064
			C279.485,288.499,280.805,289.268,281.755,290.38z M274.015,348.352c0.123,0.024,0.255,0.035,0.381,0.057
			C274.269,348.389,274.14,348.374,274.015,348.352z M283.726,334.666c0,4.617-2.077,8.311-6.809,8.311
			c-2.883,0-4.861-1.418-5.971-3.515l3.541,1.933c-0.115-0.692-0.115-1.27-0.115-2.078v-0.231l-4.323-2.327
			c-0.11-0.638-0.172-1.298-0.172-1.976v-0.25l4.496,2.36V334.7l-4.496-2.36v-2.192l4.496,2.359v-2.192l-4.496-2.36v-2.193
			l4.496,2.36v-2.193l-4.496-2.359v-2.192l4.496,2.359v-2.192l-4.496-2.36v-2.193l4.496,2.36v-2.193l-4.496-2.359v-2.192
			l4.496,2.359v-2.192l-4.496-2.36v-2.192l4.496,2.359v-2.192l-4.496-2.359v-2.193l4.496,2.36V304l-4.496-2.36v-2.193l4.496,2.36
			v-0.691v-1.501l-4.496-2.36v-0.674c0-0.504,0.033-0.995,0.088-1.474l4.869,2.545c0.231-0.577,0.462-1.27,0.808-1.731l-5.193-2.77
			l-0.156,0.26c0.804-2.841,2.788-4.87,5.988-5.109l-1.447,0.578l7.387,3.924c0.231,0,0.577,0.116,0.807,0.116
			c-0.344-0.919-0.69-1.723-1.261-2.527c1.356,1.595,1.96,3.889,1.96,6.187V334.666z"/>
		<polygon fill="#FFFFFF" points="268.725,378.49 268.725,373.181 245.412,373.181 245.412,437.697 251.331,437.697 
			259.831,442.231 263.871,442.231 255.371,437.697 259.525,437.697 268.025,442.231 272.064,442.231 263.564,437.697 
			267.72,437.697 273.219,440.616 273.219,438.422 269.872,436.691 268.725,436.691 268.725,432.158 251.528,432.158 
			251.528,432.075 253.137,432.075 251.528,431.218 251.528,429.026 256.022,431.498 256.022,429.305 251.528,426.834 
			251.528,424.641 256.022,427.112 256.022,425.381 256.946,425.381 251.528,422.446 251.528,420.848 252.601,420.848 
			261.101,425.381 265.14,425.381 256.64,420.848 260.795,420.848 269.295,425.381 269.756,425.381 269.756,423.419 
			264.949,420.848 265.263,420.848 265.263,415.423 251.528,415.423 251.528,415.341 254.638,415.341 251.528,413.674 
			251.528,411.483 256.022,413.955 256.022,411.763 251.528,409.291 251.528,407.098 256.022,409.569 256.022,407.377 
			251.528,404.905 251.528,402.712 256.022,405.184 256.022,402.99 251.528,400.52 251.528,398.326 256.022,400.798 
			256.022,398.605 251.528,396.134 251.528,393.94 256.022,396.412 256.022,394.22 251.528,391.747 251.528,389.556 
			256.022,392.027 256.022,389.834 251.528,387.362 251.528,385.17 256.022,387.641 256.022,385.448 251.528,382.977 
			251.528,380.784 256.022,383.255 256.022,383.024 259.831,383.024 251.528,378.589 251.528,378.49 255.369,378.49 
			263.871,383.024 268.025,383.024 259.523,378.49 263.563,378.49 272.064,383.024 273.219,383.024 273.219,381.409 267.719,378.49 
					"/>
	</g>
</g>
<g id="lazy_bastard">
	<g id="stripes" display="none">
		<path display="inline" fill="#158035" d="M1251.894,425.442L936.866,244.097l4.798-8.335l315.029,181.347L1251.894,425.442z
			 M1256.693,446.458L941.664,265.112l-4.798,8.334l315.027,181.346L1256.693,446.458z M1256.693,475.808L941.664,294.461
			l-4.798,8.335l315.027,181.345L1256.693,475.808z M1256.693,505.157L941.664,323.812l-4.798,8.335l315.027,181.347
			L1256.693,505.157z M1256.693,534.507L941.664,353.161l-4.798,8.334l315.027,181.346L1256.693,534.507z M1256.693,241.009
			L941.664,59.664l-4.798,8.335l315.027,181.346L1256.693,241.009z M1256.693,270.359L941.664,89.013l-4.798,8.335l315.027,181.346
			L1256.693,270.359z M1256.693,299.709L941.664,118.363l-4.798,8.335l315.027,181.346L1256.693,299.709z M1256.693,329.059
			L941.664,147.713l-4.798,8.334l315.027,181.346L1256.693,329.059z M1256.693,358.408L941.664,177.063l-4.798,8.335
			l315.027,181.346L1256.693,358.408z M1256.693,387.758L941.664,206.413l-4.798,8.335l315.027,181.346L1256.693,387.758z"/>
	</g>
	<g id="white" display="none">
		<g display="inline">
			<g>
				<path fill="#FFFFFF" d="M1034.144,277.244v-2.193l6.811,3.693h-4.156L1034.144,277.244z M1035.645,197.955h1.848l2.769,1.5
					v2.193l-4.616-2.424V197.955z M1035.645,201.417l4.616,2.423v2.192l-4.616-2.423V201.417z M1035.645,205.802l4.616,2.424v2.193
					l-4.616-2.424V205.802z M1035.645,210.188l4.616,2.424v2.193l-4.616-2.424V210.188z M1035.645,214.574l4.616,2.424v2.193
					l-4.616-2.423V214.574z M1035.645,218.959l4.616,2.424v2.193l-4.616-2.423V218.959z M1035.645,223.345l4.616,2.424v2.192
					l-4.616-2.423V223.345z M1035.645,227.731l4.616,2.423v2.193l-4.616-2.424V227.731z M1035.645,232.117l4.616,2.423v2.193
					l-4.616-2.424V232.117z M1035.645,236.502l4.616,2.424v2.192l-4.616-2.424V236.502z M1035.645,240.888l4.616,2.424v2.193
					l-4.616-2.424V240.888z M1035.645,245.274l4.616,2.424v2.193l-4.616-2.424V245.274z M1035.645,249.66l4.616,2.423v2.193
					l-4.616-2.423V249.66z M1035.645,254.045l4.616,2.424v2.193l-4.616-2.424V254.045z M1035.645,258.431l4.616,2.424v2.193
					l-4.616-2.424V258.431z M1035.645,262.817l4.616,2.423v2.193l-4.616-2.424V262.817z M1035.645,267.203l2.885,1.5h-2.885V267.203
					z M1040.492,274.127l8.655,4.617h-4.038l-8.657-4.617H1040.492z M1048.686,274.127l8.656,4.617h-4.04l-8.656-4.617H1048.686z
					 M1053.302,273.319h2.079l2.538,1.27v2.193l-5.077-2.655h0.46V273.319z"/>
				<path fill="#FFFFFF" d="M1065.995,278.744h-1.617l0.116-0.808L1065.995,278.744z M1065.07,274.127h0.463l5.193,2.77
					l-0.231,1.847h-0.46l-5.31-2.885L1065.07,274.127z M1066.457,270.319l4.846,2.654l-0.23,1.962l-4.964-2.654L1066.457,270.319z
					 M1067.033,266.164l4.963,2.654l-0.347,1.962l-4.847-2.539L1067.033,266.164z M1067.726,262.124l4.849,2.654l-0.232,2.078
					l-4.962-2.654L1067.726,262.124z M1068.303,258.084l4.963,2.655l-0.347,2.078l-4.963-2.655L1068.303,258.084z M1073.611,258.777
					l-4.964-2.655l0.348-2.078l5.54,3.001h-0.693L1073.611,258.777z M1072.226,247.005h-2.307l0.116-1.154L1072.226,247.005z
					 M1078.92,257.162l-8.655-4.617h4.155l8.656,4.617H1078.92z M1070.61,241.812l4.962,2.654l-0.344,2.077l-4.85-2.655
					L1070.61,241.812z M1071.303,237.772l4.849,2.54l-0.347,2.077l-4.847-2.655L1071.303,237.772z M1071.88,233.732l4.848,2.539
					l-0.347,2.078l-4.847-2.655L1071.88,233.732z M1072.574,229.693l4.729,2.539l-0.345,1.962l-4.733-2.539L1072.574,229.693z
					 M1072.919,227.384l0.23-1.846l4.733,2.539l-0.348,2.077l-4.731-2.539L1072.919,227.384z M1078.113,226.115l-4.732-2.539
					l0.23-2.078l4.615,2.424l0.117,1.039L1078.113,226.115z M1074.073,217.343l3.577,1.847l0.347,2.424l-4.155-2.192
					L1074.073,217.343z M1074.535,213.188l2.539,1.271l0.345,2.424l-3.114-1.616L1074.535,213.188z M1075.111,209.034l1.385,0.808
					l0.348,2.423l-2.079-1.154L1075.111,209.034z M1075.572,204.994l0.348,0.116l0.346,2.424l-0.923-0.462L1075.572,204.994z
					 M1082.845,254.854l-4.386-2.309h4.04L1082.845,254.854z M1080.074,198.532l4.155,2.308l0.462,2.424l-4.271-2.308
					L1080.074,198.532z M1080.768,203.379l4.27,2.308l0.347,2.424l-4.27-2.309L1080.768,203.379z M1081.459,208.111l4.271,2.308
					l0.345,2.424l-4.27-2.308L1081.459,208.111z M1082.152,212.843l4.27,2.308l0.347,2.423l-4.155-2.308L1082.152,212.843z
					 M1082.96,217.69l4.155,2.193l0.461,2.424l-4.27-2.193L1082.96,217.69z M1083.652,222.422l4.271,2.308l0.347,2.309l-4.155-2.193
					L1083.652,222.422z M1084.46,227.27l4.154,2.193l0.463,2.423l-4.155-2.192L1084.46,227.27z M1085.268,232.117l4.156,2.192
					l0.346,2.424l-4.154-2.308L1085.268,232.117z M1085.961,236.849l4.154,2.193l0.346,2.423l-4.154-2.308L1085.961,236.849z
					 M1086.769,241.581l4.156,2.193l0.344,2.424l-4.153-2.193L1086.769,241.581z M1087.462,246.428l4.27,2.192l0.345,2.423
					l-4.27-2.192L1087.462,246.428z M1088.154,251.16l4.386,2.308l0.346,2.424l-4.271-2.308L1088.154,251.16z M1088.961,256.007
					l4.271,2.193l0.348,2.424l-4.271-2.193L1088.961,256.007z M1089.653,260.739l4.271,2.308l0.347,2.308l-4.155-2.193
					L1089.653,260.739z M1094.731,278.744l-4.616-2.54l-0.346-2.077h0.346l6.117,3.231l0.23,1.385H1094.731z M1090.461,265.586
					l4.271,2.192l0.347,2.424l-4.27-2.308L1090.461,265.586z M1091.269,270.319l4.271,2.308l0.347,2.308l-4.271-2.193
					L1091.269,270.319z"/>
				<path fill="#FFFFFF" d="M1102.115,274.127l8.656,4.617h-4.041l-5.193-2.77v-1.847H1102.115z M1102.576,278.744h-1.039v-0.577
					L1102.576,278.744z M1103.385,268.241l0.693-1.847l3.808,2.077h-4.038L1103.385,268.241z M1109.271,203.379h-4.155l-0.924-0.461
					v-2.193L1109.271,203.379z M1105.347,262.702l4.617,2.423l-0.578,1.962l-4.731-2.539L1105.347,262.702z M1108.81,198.763
					l8.655,4.616h-4.039l-8.656-4.616H1108.81z M1106.616,259.008l4.615,2.423l-0.575,1.847l-4.734-2.424L1106.616,259.008z
					 M1110.309,274.127l8.656,4.617h-4.038l-8.656-4.617H1110.309z M1107.886,255.315l4.617,2.423l-0.577,1.847l-4.732-2.423
					L1107.886,255.315z M1109.155,251.622l4.615,2.423l-0.576,1.847l-4.733-2.424L1109.155,251.622z M1110.424,247.929l4.618,2.423
					l-0.578,1.847l-4.731-2.424L1110.424,247.929z M1111.695,244.12l4.614,2.539l-0.576,1.847l-4.731-2.539L1111.695,244.12z
					 M1112.963,240.426l4.618,2.539l-0.578,1.847l-4.731-2.539L1112.963,240.426z M1117.003,198.763l3.578,1.962l-0.693,1.846
					l-6.925-3.808H1117.003z M1114.234,236.733l4.616,2.539l-0.578,1.847l-4.731-2.539L1114.234,236.733z M1118.504,274.127
					l8.656,4.617h-4.04l-8.656-4.617H1118.504z M1115.502,233.04l4.618,2.539l-0.578,1.847l-4.731-2.539L1115.502,233.04z
					 M1116.772,229.347l4.617,2.424l-0.578,1.846l-4.731-2.423L1116.772,229.347z M1118.041,225.653l4.617,2.424l-0.576,1.846
					l-4.733-2.423L1118.041,225.653z M1119.312,221.96l4.616,2.424l-0.577,1.847l-4.73-2.423L1119.312,221.96z M1120.581,218.267
					l4.616,2.423l-0.576,1.847l-4.733-2.423L1120.581,218.267z M1121.851,214.459l4.618,2.539l-0.58,1.846l-4.729-2.539
					L1121.851,214.459z M1123.004,210.766l4.732,2.539l-0.576,1.847l-4.733-2.539L1123.004,210.766z M1131.314,278.744l-8.656-4.617
					h4.04l5.078,2.655v1.962H1131.314z M1124.273,207.072l4.734,2.539l-0.578,1.846l-4.731-2.539L1124.273,207.072z
					 M1125.545,203.263l4.73,2.539l-0.692,1.962l-4.731-2.539L1125.545,203.263z M1130.853,203.956l-4.731-2.538l0.577-1.848
					l4.732,2.54v0.229L1130.853,203.956z M1131.431,199.917l-3.579-1.962h3.579V199.917z M1131.776,274.589l-2.885-1.5h2.885
					V274.589z"/>
				<path fill="#FFFFFF" d="M1142.044,197.839l0.923,0.461l0.578,2.539l-3.925-2.077l-0.23-0.924H1142.044z M1140.197,201.301
					l4.039,2.078l0.576,2.539l-3.922-2.077L1140.197,201.301z M1141.467,206.379l4.039,2.078l0.578,2.539l-3.926-2.078
					L1141.467,206.379z M1142.852,211.458l3.924,2.078l0.576,2.539l-3.807-2.077L1142.852,211.458z M1144.121,216.536l3.924,2.078
					l0.693,2.539l-3.926-2.078L1144.121,216.536z M1145.506,221.614l3.925,2.193l0.691,2.539l-4.038-2.193l-0.231-1.27
					L1145.506,221.614z M1146.544,226.577l4.156,2.192l0.577,2.539l-4.155-2.192L1146.544,226.577z M1147.583,231.54l4.155,2.193
					l0.578,2.424l-4.155-2.193L1147.583,231.54z M1148.623,236.502l3.23,1.731l-0.46,1.962l-2.194-1.269L1148.623,236.502z
					 M1149.662,241.465l1.384,0.693l-0.462,1.962l-0.346-0.231L1149.662,241.465z M1158.086,276.551v2.192l-6.001-3.231v-1.385
					h1.384L1158.086,276.551z M1152.085,277.705l1.848,1.039h-1.848V277.705z M1153.469,253.93l0.348-1.5l5.193,2.655l-0.577,1.962
					l-4.964-2.655V253.93z M1153.469,256.584l4.617,2.424v2.193l-4.617-2.424V256.584z M1153.469,260.97l4.617,2.423v2.193
					l-4.617-2.424V260.97z M1153.469,265.355l4.617,2.423v2.193l-4.617-2.424V265.355z M1153.469,269.741l4.617,2.424v2.193
					l-4.617-2.424V269.741z M1154.855,248.505l5.078,2.77l-0.462,1.962l-5.193-2.77L1154.855,248.505z M1155.779,244.696
					l5.193,2.771l-0.463,1.962l-5.193-2.771L1155.779,244.696z M1156.816,240.773l5.194,2.77l-0.578,1.962l-5.193-2.771
					L1156.816,240.773z M1157.741,236.964l5.192,2.77l-0.461,1.962l-5.193-2.77L1157.741,236.964z M1158.778,233.04l5.193,2.77
					l-0.576,1.962l-5.193-2.77L1158.778,233.04z M1159.702,229.232l5.192,2.77l-0.46,1.962l-5.192-2.77L1159.702,229.232z
					 M1160.741,225.423l5.193,2.77l-0.577,1.847l-5.194-2.77L1160.741,225.423z M1161.664,221.499l5.194,2.771l-0.462,1.961
					l-5.193-2.77L1161.664,221.499z M1162.704,217.69l5.193,2.77l-0.464,1.847l-5.193-2.771L1162.704,217.69z M1163.742,213.766
					l5.079,2.77l-0.463,1.962l-5.194-2.77L1163.742,213.766z M1164.665,209.957l5.194,2.771l-0.463,1.962l-5.193-2.771
					L1164.665,209.957z M1165.703,206.149l5.079,2.77l-0.462,1.847l-5.193-2.771L1165.703,206.149z M1166.627,202.225l5.193,2.77
					l-0.46,1.962l-5.194-2.77L1166.627,202.225z M1167.665,198.416l5.078,2.77l-0.46,1.846l-5.193-2.77L1167.665,198.416z
					 M1173.321,199.224l-2.539-1.385h2.885L1173.321,199.224z"/>
				<path fill="#FFFFFF" d="M968.596,367.001v-2.192l6.811,3.693h-4.156L968.596,367.001z M970.097,288.635h3.578l8.655,4.617
					h-4.154l-8.079-4.27V288.635z M970.097,291.175l4.616,2.424v2.192l-4.616-2.423V291.175z M970.097,295.56l4.616,2.424v2.193
					l-4.616-2.424V295.56z M970.097,299.946l4.616,2.423v2.193l-4.616-2.424V299.946z M970.097,304.332l4.616,2.424v2.192
					l-4.616-2.423V304.332z M970.097,308.718l4.616,2.424v2.192l-4.616-2.424V308.718z M970.097,313.104l4.616,2.424v2.192
					l-4.616-2.423V313.104z M970.097,317.489l4.616,2.423v2.193l-4.616-2.424V317.489z M970.097,321.875l4.616,2.423v2.194
					l-4.616-2.425V321.875z M970.097,326.26l4.616,2.424v2.193l-4.616-2.424V326.26z M971.25,333.416l-1.153-0.577v-2.192
					l4.616,2.423v0.347H971.25z M974.713,344.034l-4.616-2.424v-2.192l7.386,3.924h-2.77V344.034z M970.097,343.803l4.616,2.424
					v2.192l-4.616-2.423V343.803z M970.097,348.188l4.616,2.424v2.193l-4.616-2.425V348.188z M970.097,352.575l4.616,2.423v2.193
					l-4.616-2.424V352.575z M970.097,356.96l2.885,1.5h-2.885V356.96z M974.943,363.886l8.656,4.616h-4.039l-8.656-4.616H974.943z
					 M981.638,343.342l-8.656-4.616h4.155l8.655,4.616h-0.345H981.638z M987.524,293.945l-9.811-5.31h0.692
					C983.485,288.751,986.255,290.828,987.524,293.945z M982.445,363.886h0.692l7.617,4.039c-0.925,0.346-1.962,0.461-2.999,0.577
					l-8.657-4.616H982.445z M987.524,342.071l-6.349-3.346C984.062,338.956,986.255,339.995,987.524,342.071z M989.255,362.73
					l5.655,3.001c-0.577,0.462-1.153,0.924-1.731,1.27l-6.924-3.577l0.807-0.347C987.869,363.077,988.563,362.961,989.255,362.73z
					 M991.218,333.186l4.729,2.539c-0.344,0.462-0.691,1.038-1.151,1.501l-4.617-2.54L991.218,333.186z M992.256,359.961l5.193,2.77
					l-1.038,1.616l-5.31-2.77C991.563,361.115,991.909,360.538,992.256,359.961z M991.909,337.802l1.5,0.808l-0.576,0.461
					C992.485,338.726,992.256,338.264,991.909,337.802z M996.296,294.175l-3.117-1.731c-0.346-0.808-0.693-1.616-1.153-2.424
					C993.757,291.059,995.256,292.444,996.296,294.175z M992.718,329.492l5.077,2.77c-0.229,0.577-0.461,1.154-0.808,1.731
					l-4.847-2.539C992.371,330.877,992.601,330.184,992.718,329.492z M993.641,356.384l5.077,2.653
					c-0.115,0.692-0.229,1.385-0.459,1.962l-5.31-2.884C993.179,357.768,993.409,357.075,993.641,356.384z M993.872,325.799
					l4.846,2.539c0,0.691-0.115,1.385-0.346,2.078l-4.963-2.655C993.641,327.068,993.757,326.492,993.872,325.799z M996.064,342.303
					l-2.308-1.27l-0.348-0.808C994.448,340.802,995.371,341.495,996.064,342.303z M998.488,299.715l-4.271-2.308
					c0-0.808-0.114-1.616-0.345-2.308l3.923,2.077C998.142,297.984,998.372,298.792,998.488,299.715z M994.217,322.336v-0.808
					l4.618,2.539v2.192l-4.732-2.539C994.217,323.26,994.217,322.798,994.217,322.336z M994.448,352.344l4.618,2.539v1.039
					c0,0.346-0.116,0.692-0.116,1.038l-4.848-2.539L994.448,352.344z M998.95,304.332l-4.733-2.424l0.116-2.193l4.502,2.424
					c0.115,0.578,0.115,1.154,0.115,1.731V304.332z M994.217,303.986l4.618,2.539v2.192l-4.618-2.539V303.986z M994.217,308.371
					l4.618,2.539v2.193l-4.618-2.539V308.371z M994.217,312.757l4.618,2.54v2.192l-4.618-2.54V312.757z M994.217,317.143
					l4.618,2.539v2.193l-4.618-2.539V317.143z M998.835,348.188l-4.387-2.423v-0.116c0-0.692,0-1.385-0.115-2.077l3.809,2.077
					C998.488,346.458,998.718,347.266,998.835,348.188z M994.448,347.958l4.618,2.54v2.192l-4.618-2.54V347.958z"/>
				<path fill="#FFFFFF" d="M1009.332,368.502h-1.616l0.115-0.809L1009.332,368.502z M1008.409,363.886h0.461l5.194,2.77
					l-0.232,1.847h-0.46l-5.31-2.886L1008.409,363.886z M1009.794,360.077l4.846,2.653l-0.229,1.963l-4.964-2.655L1009.794,360.077z
					 M1010.37,355.922l4.964,2.654l-0.346,1.962l-4.849-2.539L1010.37,355.922z M1011.063,351.882l4.848,2.655l-0.231,2.077
					l-4.962-2.654L1011.063,351.882z M1011.641,347.843l4.962,2.655l-0.346,2.077l-4.963-2.655L1011.641,347.843z M1016.949,348.536
					l-4.964-2.655l0.348-2.078l5.539,3.002h-0.693L1016.949,348.536z M1015.564,336.763h-2.308l0.115-1.154L1015.564,336.763z
					 M1022.258,346.919l-8.656-4.616h4.157l8.655,4.616H1022.258z M1013.948,331.569l4.962,2.655l-0.344,2.076l-4.85-2.654
					L1013.948,331.569z M1014.64,327.529l4.85,2.54l-0.348,2.077l-4.846-2.654L1014.64,327.529z M1015.218,323.49l4.848,2.539
					l-0.346,2.078l-4.849-2.654L1015.218,323.49z M1015.911,319.451l4.729,2.539l-0.344,1.963l-4.732-2.539L1015.911,319.451z
					 M1016.257,317.143l0.23-1.846l4.733,2.539l-0.348,2.076l-4.732-2.539L1016.257,317.143z M1021.45,315.873l-4.731-2.539
					l0.23-2.077l4.616,2.423l0.115,1.039L1021.45,315.873z M1017.41,307.102l3.579,1.847l0.346,2.425l-4.156-2.193L1017.41,307.102z
					 M1017.872,302.947l2.539,1.27l0.346,2.424l-3.114-1.616L1017.872,302.947z M1018.45,298.792l1.384,0.807l0.347,2.424
					l-2.078-1.154L1018.45,298.792z M1018.91,294.752l0.348,0.116l0.346,2.424l-0.924-0.462L1018.91,294.752z M1026.182,344.611
					l-4.385-2.309h4.04L1026.182,344.611z M1023.411,288.29l4.156,2.308l0.462,2.424l-4.27-2.308L1023.411,288.29z
					 M1024.105,293.137l4.271,2.308l0.345,2.424l-4.27-2.309L1024.105,293.137z M1024.797,297.869l4.272,2.308l0.344,2.424
					l-4.27-2.308L1024.797,297.869z M1025.49,302.601l4.271,2.308l0.346,2.424l-4.156-2.308L1025.49,302.601z M1026.299,307.448
					l4.153,2.192l0.462,2.424l-4.27-2.192L1026.299,307.448z M1026.99,312.18l4.27,2.309l0.348,2.309l-4.156-2.193L1026.99,312.18z
					 M1027.798,317.027l4.154,2.193l0.464,2.422l-4.156-2.191L1027.798,317.027z M1028.605,321.875l4.155,2.192l0.347,2.425
					l-4.155-2.309L1028.605,321.875z M1029.299,326.607l4.154,2.192l0.346,2.423l-4.153-2.309L1029.299,326.607z M1030.106,331.339
					l4.155,2.192l0.345,2.425l-4.154-2.194L1030.106,331.339z M1030.8,336.187l4.271,2.191l0.344,2.424l-4.27-2.192L1030.8,336.187z
					 M1031.491,340.918l4.387,2.309l0.345,2.423l-4.271-2.308L1031.491,340.918z M1032.299,345.766l4.271,2.192l0.348,2.423
					l-4.271-2.192L1032.299,345.766z M1032.991,350.498l4.27,2.308l0.348,2.309l-4.155-2.194L1032.991,350.498z M1038.068,368.502
					l-4.615-2.54l-0.346-2.076h0.346l6.116,3.23l0.23,1.386H1038.068z M1033.799,355.345l4.27,2.192l0.349,2.424l-4.271-2.309
					L1033.799,355.345z M1034.606,360.077l4.271,2.308l0.347,2.309l-4.271-2.193L1034.606,360.077z"/>
				<path fill="#FFFFFF" d="M1049.492,347.727v-0.23l4.618,2.424v2.193l-4.618-2.425
					C1049.377,348.997,1049.377,348.419,1049.492,347.727z M1049.492,344.496h2.654l1.964,1.038v2.192l-4.618-2.422V344.496z
					 M1050.184,295.214l5.194,2.77c-0.23,0.578-0.461,1.27-0.576,1.962l-4.964-2.654L1050.184,295.214z M1054.453,304.102
					l-4.615-2.539v-2.193l4.615,2.539v1.847V304.102z M1049.838,303.755l4.615,2.538v2.194l-4.615-2.539V303.755z M1049.838,308.141
					l4.615,2.539v2.193l-4.615-2.541V308.141z M1049.838,312.526l4.615,2.538v2.194l-4.615-2.54V312.526z M1054.453,356.729
					l-3.346-1.731c-0.461-0.923-0.924-1.847-1.153-2.885l4.156,2.192C1054.11,355.229,1054.34,355.922,1054.453,356.729z
					 M1050.184,317.143l4.27,2.309v0.23c0,0.809,0.117,1.502,0.232,2.078l-3.001-1.617
					C1050.991,319.221,1050.531,318.297,1050.184,317.143z M1061.61,369.195l-9.694-5.079c-0.461-0.462-0.809-1.039-1.154-1.616
					c1.848,1.154,3.924,1.847,6.232,2.078l8.886,4.731c-0.576,0.115-1.153,0.115-1.73,0.115
					C1063.227,369.425,1062.418,369.31,1061.61,369.195z M1052.031,291.868l5.425,2.885c-0.462,0.347-0.924,0.923-1.271,1.5
					l-5.308-2.885C1051.224,292.79,1051.569,292.329,1052.031,291.868z M1066.229,336.647l-13.39-7.155
					c-0.692-0.692-1.384-1.5-1.961-2.309c2.424,1.846,5.308,3.348,7.962,4.848C1061.61,333.646,1064.265,335.031,1066.229,336.647z
					 M1055.147,289.097l6.81,3.693c-0.923,0.116-1.846,0.347-2.654,0.693l-5.887-3.116L1055.147,289.097z M1065.765,292.56
					l-8.424-4.386c0.346-0.115,0.691-0.115,1.154-0.115C1062.072,288.059,1064.496,289.79,1065.765,292.56z M1068.883,368.732
					l-7.618-4.039c1.153-0.115,2.193-0.231,3.116-0.577l7.041,3.692C1070.613,368.271,1069.806,368.502,1068.883,368.732z
					 M1073.269,366.771l-6.003-3.231c0.809-0.23,1.501-0.578,2.077-1.039l5.541,2.886L1073.269,366.771z M1074.19,292.675
					l-2.885-1.5l-1.039-2.078C1071.768,290.021,1073.037,291.29,1074.19,292.675z M1076.151,363.886l-5.193-2.771
					c0.348-0.461,0.81-1.038,1.04-1.616l5.192,2.77C1076.845,362.847,1076.614,363.424,1076.151,363.886z M1071.537,313.219v-2.193
					l5.653,3.002h-4.038L1071.537,313.219z M1076.845,298.445l-4.271-2.192l-0.345-2.424l3.691,1.962
					C1076.268,296.714,1076.614,297.522,1076.845,298.445z M1072.805,309.41v-2.078l4.618,2.425v2.192l-4.733-2.539H1072.805z
					 M1072.805,298.562l4.386,2.308c0.117,0.809,0.232,1.5,0.232,2.309l-4.618-2.424v-1.846V298.562z M1072.805,302.947l4.618,2.423
					v2.192l-4.618-2.424V302.947z M1078.114,360.538l-5.31-2.771l0.348-1.269l0.23-0.577l5.31,2.77
					C1078.576,359.385,1078.346,359.961,1078.114,360.538z M1079.153,356.729l-5.077-2.654c0.23-0.693,0.46-1.27,0.576-1.962
					l4.848,2.654C1079.5,355.46,1079.27,356.037,1079.153,356.729z M1079.153,343.572L1075,341.38
					c-0.116-0.809-0.231-1.616-0.464-2.424l3.116,1.731C1078.23,341.61,1078.807,342.534,1079.153,343.572z M1075,347.958
					l4.613,2.423v2.194l-4.729-2.539C1075,349.343,1075,348.65,1075,347.958z M1079.613,348.188l-4.613-2.423v-2.193l4.613,2.424
					v0.692V348.188z"/>
				<path fill="#FFFFFF" d="M1086.304,288.404h0.692l6.001,3.232v1.385h-1.499l-5.194-2.77V288.404z M1086.304,292.444l1.039,0.577
					h-1.039V292.444z M1092.997,289.444l-1.962-1.04h1.962V289.444z M1101.423,368.502l-3.809-2.078v-2.193l5.886,3.117v1.154
					H1101.423z M1103.5,295.099l-4.616-2.54v-2.193l4.964,2.655h-0.348V295.099z M1098.884,294.752l4.616,2.54v2.192l-4.616-2.539
					V294.752z M1098.884,299.139l4.616,2.539v2.192l-4.616-2.539V299.139z M1098.884,303.523l4.616,2.539v2.193l-4.616-2.539
					V303.523z M1098.884,307.91l4.616,2.539v2.193l-4.616-2.539V307.91z M1098.884,312.295l4.616,2.539v2.193l-4.616-2.539V312.295z
					 M1098.884,316.682l4.616,2.539v2.193l-4.616-2.541V316.682z M1098.884,321.067l4.616,2.538v2.193l-4.616-2.539V321.067z
					 M1098.884,325.453l4.616,2.539v2.191l-4.616-2.539V325.453z M1098.884,329.839l4.616,2.538v2.193l-4.616-2.539V329.839z
					 M1098.884,334.225l4.616,2.538v2.193l-4.616-2.539V334.225z M1098.884,338.609l4.616,2.54v2.192l-4.616-2.54V338.609z
					 M1098.884,342.995l4.616,2.539v2.192l-4.616-2.538V342.995z M1098.884,347.381l4.616,2.539v2.193l-4.616-2.539V347.381z
					 M1098.884,351.767l4.616,2.539v2.193l-4.616-2.539V351.767z M1098.884,356.152l4.616,2.539v2.193l-4.616-2.539V356.152z
					 M1098.884,360.538l4.616,2.539v2.078l-4.616-2.425V360.538z M1103.385,288.404l8.655,4.617h-4.039l-8.655-4.617H1103.385z
					 M1110.079,287.713h0.229l4.387,2.308v2.193l-7.155-3.81h2.539V287.713z"/>
				<path fill="#FFFFFF" d="M1121.964,368.502h-1.616l0.115-0.809L1121.964,368.502z M1121.04,363.886h0.462l5.193,2.77l-0.23,1.847
					h-0.463l-5.31-2.886L1121.04,363.886z M1122.424,360.077l4.85,2.653l-0.232,1.963l-4.962-2.655L1122.424,360.077z
					 M1123.003,355.922l4.962,2.654l-0.348,1.962l-4.846-2.539L1123.003,355.922z M1123.694,351.882l4.847,2.655l-0.23,2.077
					l-4.963-2.654L1123.694,351.882z M1124.271,347.843l4.964,2.655l-0.347,2.077l-4.963-2.655L1124.271,347.843z M1129.58,348.536
					l-4.962-2.655l0.346-2.078l5.54,3.002h-0.691L1129.58,348.536z M1128.196,336.763h-2.311l0.116-1.154L1128.196,336.763z
					 M1134.89,346.919l-8.656-4.616h4.154l8.656,4.616H1134.89z M1126.58,331.569l4.963,2.655l-0.348,2.076l-4.847-2.654
					L1126.58,331.569z M1127.273,327.529l4.846,2.54l-0.346,2.077l-4.849-2.654L1127.273,327.529z M1127.85,323.49l4.847,2.539
					l-0.346,2.078l-4.848-2.654L1127.85,323.49z M1128.541,319.451l4.733,2.539l-0.349,1.963l-4.729-2.539L1128.541,319.451z
					 M1128.888,317.143l0.231-1.846l4.731,2.539l-0.347,2.076l-4.731-2.539L1128.888,317.143z M1134.082,315.873l-4.732-2.539
					l0.23-2.077l4.617,2.423l0.116,1.039L1134.082,315.873z M1130.042,307.102l3.578,1.847l0.346,2.425l-4.153-2.193
					L1130.042,307.102z M1130.504,302.947l2.538,1.27l0.348,2.424l-3.118-1.616L1130.504,302.947z M1131.081,298.792l1.385,0.807
					l0.347,2.424l-2.077-1.154L1131.081,298.792z M1131.543,294.752l0.346,0.116l0.346,2.424l-0.923-0.462L1131.543,294.752z
					 M1138.813,344.611l-4.387-2.309h4.041L1138.813,344.611z M1136.045,288.29l4.153,2.308l0.461,2.424l-4.27-2.308
					L1136.045,288.29z M1136.736,293.137l4.27,2.308l0.347,2.424l-4.271-2.309L1136.736,293.137z M1137.428,297.869l4.271,2.308
					l0.348,2.424l-4.271-2.308L1137.428,297.869z M1138.12,302.601l4.271,2.308l0.347,2.424l-4.153-2.308L1138.12,302.601z
					 M1138.928,307.448l4.155,2.192l0.462,2.424l-4.27-2.192L1138.928,307.448z M1139.621,312.18l4.271,2.309l0.344,2.309
					l-4.153-2.193L1139.621,312.18z M1140.43,317.027l4.155,2.193l0.46,2.422l-4.154-2.191L1140.43,317.027z M1141.238,321.875
					l4.154,2.192l0.346,2.425l-4.156-2.309L1141.238,321.875z M1141.93,326.607l4.154,2.192l0.348,2.423l-4.156-2.309
					L1141.93,326.607z M1142.737,331.339l4.154,2.192l0.348,2.425l-4.156-2.194L1142.737,331.339z M1143.43,336.187l4.271,2.191
					l0.347,2.424l-4.271-2.192L1143.43,336.187z M1144.123,340.918l4.385,2.309l0.347,2.423l-4.27-2.308L1144.123,340.918z
					 M1144.931,345.766l4.271,2.192l0.345,2.423l-4.27-2.192L1144.931,345.766z M1145.624,350.498l4.271,2.308l0.344,2.309
					l-4.154-2.194L1145.624,350.498z M1150.702,368.502l-4.618-2.54l-0.346-2.076h0.346l6.117,3.23l0.231,1.386H1150.702z
					 M1146.432,355.345l4.271,2.192l0.345,2.424l-4.271-2.309L1146.432,355.345z M1147.239,360.077l4.27,2.308l0.347,2.309
					l-4.271-2.193L1147.239,360.077z"/>
				<path fill="#FFFFFF" d="M1164.548,368.502l-2.655-1.501v-2.192l6.117,3.347v0.347H1164.548z M1163.394,288.521h3.346
					l8.656,4.617h-4.155l-7.847-4.155V288.521z M1163.394,291.175l4.616,2.424v2.192l-4.616-2.423V291.175z M1163.394,295.56
					l4.616,2.424v2.193l-4.616-2.424V295.56z M1163.394,299.946l4.616,2.423v2.193l-4.616-2.424V299.946z M1163.394,304.332
					l4.616,2.424v2.192l-4.616-2.423V304.332z M1163.394,308.718l4.616,2.424v2.192l-4.616-2.424V308.718z M1163.394,313.104
					l4.616,2.424v2.192l-4.616-2.423V313.104z M1163.394,317.489l4.616,2.423v2.193l-4.616-2.424V317.489z M1163.394,321.875
					l4.616,2.423v2.194l-4.616-2.425V321.875z M1163.394,326.26l4.616,2.424v2.193l-4.616-2.424V326.26z M1163.394,330.646
					l4.616,2.423v2.193l-4.616-2.424V330.646z M1167.778,337.34h-4.038l-0.347-0.114v-2.194L1167.778,337.34z M1168.01,348.419
					l-4.616-2.423v-2.193l6.809,3.578h-2.192V348.419z M1163.394,348.188l4.616,2.424v2.193l-4.616-2.425V348.188z
					 M1163.394,352.575l4.616,2.423v2.193l-4.616-2.424V352.575z M1163.394,356.96l4.616,2.425v2.192l-4.616-2.424V356.96z
					 M1163.394,361.347l4.616,2.423v2.192l-4.616-2.423V361.347z M1169.741,342.765l8.656,4.616h-4.155l-8.656-4.616H1169.741z
					 M1180.475,293.714l-9.695-5.193h1.153C1176.318,288.521,1179.665,291.175,1180.475,293.714z M1181.396,346.805l-7.501-4.04
					h0.924C1178.049,342.765,1180.475,344.38,1181.396,346.805z M1184.398,337.456l4.846,2.539
					c-0.345,0.576-0.808,1.154-1.268,1.615l-4.85-2.654C1183.591,338.495,1184.052,338.032,1184.398,337.456z M1185.897,333.878
					l5.078,2.654c-0.229,0.577-0.46,1.27-0.808,1.846l-4.847-2.653L1185.897,333.878z M1189.938,294.406l-3.348-1.847
					c-0.344-0.923-0.692-1.846-1.152-2.654C1187.169,290.944,1188.784,292.444,1189.938,294.406z M1185.438,342.418l1.038,0.577
					l-0.347,0.231L1185.438,342.418z M1187.053,330.069l4.962,2.654c-0.116,0.692-0.229,1.385-0.46,2.077l-5.079-2.77
					L1187.053,330.069z M1189.13,368.502l-2.54-1.386v-2.192l6.003,3.116v0.462H1189.13z M1189.938,347.035l-2.769-1.501
					c-0.116-0.346-0.347-0.692-0.464-1.154C1187.977,345.072,1189.13,345.996,1189.938,347.035z M1191.785,299.715l-4.387-2.308
					c0-0.808-0.115-1.616-0.229-2.308l4.038,2.077C1191.438,297.984,1191.669,298.792,1191.785,299.715z M1187.514,326.376v-0.462
					l4.617,2.539v2.078l-4.732-2.424C1187.514,327.529,1187.514,326.953,1187.514,326.376z M1192.131,304.332l-4.617-2.539V299.6
					l4.617,2.539v1.963V304.332z M1187.514,303.986l4.617,2.539v2.192l-4.617-2.539V303.986z M1187.514,308.371l4.617,2.539v2.193
					l-4.617-2.539V308.371z M1187.514,312.757l4.617,2.54v2.192l-4.617-2.54V312.757z M1187.514,317.143l4.617,2.539v2.193
					l-4.617-2.539V317.143z M1187.514,321.528l4.617,2.539v2.192l-4.617-2.539V321.528z M1192.477,352.69l-4.5-2.424v-0.578
					c0-0.461-0.116-1.038-0.116-1.614l4.038,2.192C1192.131,351.074,1192.362,351.882,1192.477,352.69z M1187.977,352.459
					l4.616,2.539v2.193l-4.616-2.54V352.459z M1187.977,356.845l4.616,2.54v2.192l-4.616-2.54V356.845z M1187.977,361.23
					l4.616,2.539v2.078l-4.616-2.424V361.23z"/>
				<path fill="#FFFFFF" d="M1204.13,367.116v-2.192l6.579,3.578h-4.156L1204.13,367.116z M1205.63,288.521h3.118l8.655,4.617
					h-4.155l-7.618-4.04V288.521z M1205.63,291.29l4.617,2.424v2.193l-4.617-2.424V291.29z M1205.63,295.676l4.617,2.424v2.193
					l-4.617-2.424V295.676z M1205.63,300.063l4.617,2.423v2.193l-4.617-2.424V300.063z M1205.63,304.447l4.617,2.424v2.193
					l-4.617-2.424V304.447z M1205.63,308.832l4.617,2.425v2.192l-4.617-2.424V308.832z M1205.63,313.219l4.617,2.424v2.193
					l-4.617-2.424V313.219z M1205.63,317.604l4.617,2.425v2.192l-4.617-2.423V317.604z M1205.63,321.99l4.617,2.424v2.193
					l-4.617-2.424V321.99z M1205.63,326.376l4.617,2.424v2.192l-4.617-2.423V326.376z M1205.63,330.762l4.617,2.424v2.192
					l-4.617-2.424V330.762z M1205.63,335.147l4.617,2.423v2.193l-4.617-2.424V335.147z M1205.63,339.533l4.617,2.424v2.192
					l-4.617-2.424V339.533z M1205.63,343.919l4.617,2.423v2.194l-4.617-2.425V343.919z M1205.63,348.305l4.617,2.424v2.191
					l-4.617-2.422V348.305z M1205.63,352.69l4.617,2.424v2.192l-4.617-2.424V352.69z M1205.63,357.075l2.194,1.154h-2.194V357.075z
					 M1210.247,363.886l8.655,4.616h-4.038l-8.657-4.616H1210.247z M1217.057,288.635l6.348,3.348
					c0.346,0.577,0.576,1.154,0.808,1.731c-0.808-0.231-1.614-0.461-2.539-0.461l-8.771-4.732h1.616
					C1215.44,288.521,1216.248,288.521,1217.057,288.635z M1218.211,363.77l7.501,3.924c-1.038,0.347-2.077,0.462-2.999,0.577
					l-8.312-4.385h0.116C1215.325,363.886,1216.71,363.886,1218.211,363.77z M1223.865,362.385l6.232,3.231
					c-0.691,0.462-1.27,0.924-1.961,1.27l-6.927-3.693c0.579-0.115,1.039-0.346,1.503-0.576
					C1223.058,362.616,1223.404,362.5,1223.865,362.385z M1227.559,359.961l5.193,2.886c-0.346,0.577-0.691,1.039-1.153,1.384
					l-5.655-2.884C1226.52,360.999,1227.098,360.538,1227.559,359.961z M1229.059,356.729c0-0.115,0.116-0.115,0.116-0.23
					l5.309,2.77l-0.692,1.847l-5.309-2.77C1228.714,357.885,1228.943,357.307,1229.059,356.729z M1234.138,295.445l-3.925-2.077
					l-0.691-2.54l2.885,1.616C1233.1,293.252,1233.676,294.291,1234.138,295.445z M1230.329,352.69l4.847,2.654
					c0,0.692-0.115,1.385-0.23,1.962l-5.077-2.655L1230.329,352.69z M1235.176,300.523l-4.387-2.424c0-0.808-0.113-1.5-0.229-2.309
					l4.271,2.309C1235.061,298.792,1235.061,299.6,1235.176,300.523z M1230.789,348.536l4.618,2.538v1.501v0.692l-4.731-2.539
					C1230.676,350.036,1230.789,349.343,1230.789,348.536z M1235.407,305.024l-4.618-2.539v-2.192l4.618,2.539v1.154V305.024z
					 M1230.789,304.679l4.618,2.539v2.192l-4.618-2.539V304.679z M1230.789,309.064l4.618,2.539v2.193l-4.618-2.54V309.064z
					 M1230.789,313.449l4.618,2.539v2.193l-4.618-2.539V313.449z M1230.789,317.836l4.618,2.537v2.194l-4.618-2.539V317.836z
					 M1230.789,322.221l4.618,2.539v2.193l-4.618-2.539V322.221z M1230.789,326.607l4.618,2.539v2.192l-4.618-2.539V326.607z
					 M1230.789,330.992l4.618,2.539v2.077l-4.618-2.423V330.992z M1230.789,335.378l4.618,2.54v2.077l-4.618-2.425V335.378z
					 M1230.789,339.764l4.618,2.539v2.193l-4.618-2.539V339.764z M1230.789,344.149l4.618,2.539v2.192l-4.618-2.539V344.149z"/>
			</g>
			<g>
				<path fill="#FFFFFF" d="M1053.231,268.631v5.424h-23.774v-80.789h6.116v75.365H1053.231z"/>
				<path fill="#FFFFFF" d="M1082.428,252.357v0.115h-13.273v-0.115l-3.346,21.698h-6.117l12.466-80.789h7.038l12.58,80.789h-6.001
					L1082.428,252.357z M1081.736,246.933l-3.117-19.621l-2.886-23.891l-2.884,23.891l-3.002,19.621H1081.736z"/>
				<path fill="#FFFFFF" d="M1127.32,197.652l-24.005,70.748h23.772v5.655h-30.237v-4.617l24.353-70.748h-21.698v-5.424h27.815
					V197.652z"/>
				<path fill="#FFFFFF" d="M1168.98,193.15l-15.58,60.707v20.198h-6.001v-20.198l-15.351-60.707h6.115l7.617,29.661l4.616,21.929
					l4.733-22.044c2.539-9.925,5.194-19.966,7.502-29.545H1168.98z"/>
				<path fill="#FFFFFF" d="M994.377,351.233c0,9.001-6.232,12.579-12.003,12.579h-18.466v-80.789h14.427
					c10.271,0,15.927,6.348,15.927,16.158l-0.116,23.082c0,4.848-1.73,9.58-6.694,12.696c5.426,1.731,6.926,6.232,6.926,10.618
					V351.233z M970.024,288.563v44.78h8.541c4.155,0,9.81-4.27,9.81-11.194v-22.968c0-6.116-2.423-10.502-10.04-10.618H970.024z
					 M988.375,345.578c0-4.617-3.23-6.81-7.616-6.925h-10.734v19.735h12.35c5.31,0,6.001-4.963,6.001-7.155V345.578z"/>
				<path fill="#FFFFFF" d="M1025.766,342.115v0.115h-13.272v-0.115l-3.348,21.697h-6.116l12.464-80.789h7.039l12.581,80.789h-6.001
					L1025.766,342.115z M1025.072,336.691l-3.116-19.621l-2.886-23.89l-2.884,23.89l-3.002,19.621H1025.072z"/>
				<path fill="#FFFFFF" d="M1043.419,347.654v-7.848h6.002v7.848c-0.231,6.003,3.117,11.658,10.042,11.658
					c6.347,0,9.579-5.079,9.579-11.426v-5.426c0-5.309-4.733-7.387-10.273-10.501c-6.577-3.694-14.426-7.503-15.118-16.735v-16.158
					c0-9.233,4.616-16.619,14.773-16.619c9.117,0,14.311,7.04,14.311,16.388v10.502h-5.887v-10.387
					c0-6.001-2.308-10.964-8.424-10.964c-5.194,0-8.656,3.578-8.656,11.08v15.927c0.346,5.309,5.078,8.31,9.81,10.964
					c8.194,4.617,15.351,7.848,15.351,16.043v5.887c0,9.002-4.964,16.851-15.465,16.851
					C1049.997,364.737,1043.304,357.928,1043.419,347.654z"/>
				<path fill="#FFFFFF" d="M1110.008,288.333h-11.194v75.48h-5.888v-75.48h-11.31v-5.309h28.392V288.333z"/>
				<path fill="#FFFFFF" d="M1138.396,342.115v0.115h-13.272v-0.115l-3.348,21.697h-6.117l12.467-80.789h7.04l12.58,80.789h-6.003
					L1138.396,342.115z M1137.703,336.691l-3.116-19.621l-2.885-23.89l-2.886,23.89l-3.001,19.621H1137.703z"/>
				<path fill="#FFFFFF" d="M1187.904,363.813h-6.001v-14.195c0-4.155-2.654-6.925-7.156-6.925h-11.427v21.12h-6.117v-80.789h14.659
					c8.771,0.115,15.811,4.617,15.58,16.388v26.892c0,4.501-2.309,9.926-6.579,12.695c4.849,1.847,7.041,6.117,7.041,10.618V363.813
					z M1163.32,337.269h8.542c4.155,0,9.694-3.809,9.694-10.965v-26.892c0-6.694-3.231-10.964-9.694-10.964h-8.542V337.269z"/>
				<path fill="#FFFFFF" d="M1230.72,347.887c0,16.157-12.58,15.926-16.275,15.926h-15.002v-80.789h15.002
					c8.08,0,16.275,1.154,16.275,16.273V347.887z M1224.832,299.297c0-10.156-4.614-10.849-10.388-10.849h-8.885v69.71h8.885
					c4.733,0,10.388-0.808,10.388-10.271V299.297z"/>
			</g>
		</g>
	</g>
</g>
</svg>
