  0
SECTION
  2
HEADER
  9
$ACADVER
  1
AC1018
  9
$ACADMAINTVER
 70
     0
  9
$DWGCODEPAGE
  3
ANSI_1252
  9
$INSBASE
 10
0.0
 20
0.0
 30
0.0
  9
$EXTMIN
 10
1.000000000000000E+20
 20
1.000000000000000E+20
 30
1.000000000000000E+20
  9
$EXTMAX
 10
-1.000000000000000E+20
 20
-1.000000000000000E+20
 30
-1.000000000000000E+20
  9
$LIMMIN
 10
0.0
 20
0.0
  9
$LIMMAX
 10
12.0
 20
9.0
  9
$ORTHOMODE
 70
     0
  9
$REGENMODE
 70
     1
  9
$FILLMODE
 70
     1
  9
$QTEXTMODE
 70
     0
  9
$MIRRTEXT
 70
     1
  9
$LTSCALE
 40
1.0
  9
$ATTMODE
 70
     1
  9
$TEXTSIZE
 40
0.2
  9
$TRACEWID
 40
0.05
  9
$TEXTSTYLE
  7
Standard
  9
$CLAYER
  8
0
  9
$CELTYPE
  6
ByLayer
  9
$CECOLOR
 62
   256
  9
$CELTSCALE
 40
1.0
  9
$DISPSILH
 70
     0
  9
$DIMSCALE
 40
1.0
  9
$DIMASZ
 40
0.18
  9
$DIMEXO
 40
0.0625
  9
$DIMDLI
 40
0.38
  9
$DIMRND
 40
0.0
  9
$DIMDLE
 40
0.0
  9
$DIMEXE
 40
0.18
  9
$DIMTP
 40
0.0
  9
$DIMTM
 40
0.0
  9
$DIMTXT
 40
0.18
  9
$DIMCEN
 40
0.09
  9
$DIMTSZ
 40
0.0
  9
$DIMTOL
 70
     0
  9
$DIMLIM
 70
     0
  9
$DIMTIH
 70
     1
  9
$DIMTOH
 70
     1
  9
$DIMSE1
 70
     0
  9
$DIMSE2
 70
     0
  9
$DIMTAD
 70
     0
  9
$DIMZIN
 70
     0
  9
$DIMBLK
  1

  9
$DIMASO
 70
     1
  9
$DIMSHO
 70
     1
  9
$DIMPOST
  1

  9
$DIMAPOST
  1

  9
$DIMALT
 70
     0
  9
$DIMALTD
 70
     2
  9
$DIMALTF
 40
25.4
  9
$DIMLFAC
 40
1.0
  9
$DIMTOFL
 70
     0
  9
$DIMTVP
 40
0.0
  9
$DIMTIX
 70
     0
  9
$DIMSOXD
 70
     0
  9
$DIMSAH
 70
     0
  9
$DIMBLK1
  1

  9
$DIMBLK2
  1

  9
$DIMSTYLE
  2
Standard
  9
$DIMCLRD
 70
     0
  9
$DIMCLRE
 70
     0
  9
$DIMCLRT
 70
     0
  9
$DIMTFAC
 40
1.0
  9
$DIMGAP
 40
0.09
  9
$DIMJUST
 70
     0
  9
$DIMSD1
 70
     0
  9
$DIMSD2
 70
     0
  9
$DIMTOLJ
 70
     1
  9
$DIMTZIN
 70
     0
  9
$DIMALTZ
 70
     0
  9
$DIMALTTZ
 70
     0
  9
$DIMUPT
 70
     0
  9
$DIMDEC
 70
     4
  9
$DIMTDEC
 70
     4
  9
$DIMALTU
 70
     2
  9
$DIMALTTD
 70
     2
  9
$DIMTXSTY
  7
Standard
  9
$DIMAUNIT
 70
     0
  9
$DIMADEC
 70
     0
  9
$DIMALTRND
 40
0.0
  9
$DIMAZIN
 70
     0
  9
$DIMDSEP
 70
    46
  9
$DIMATFIT
 70
     3
  9
$DIMFRAC
 70
     0
  9
$DIMLDRBLK
  1

  9
$DIMLUNIT
 70
     2
  9
$DIMLWD
 70
    -2
  9
$DIMLWE
 70
    -2
  9
$DIMTMOVE
 70
     0
  9
$LUNITS
 70
     2
  9
$LUPREC
 70
     4
  9
$SKETCHINC
 40
0.1
  9
$FILLETRAD
 40
0.5
  9
$AUNITS
 70
     0
  9
$AUPREC
 70
     0
  9
$MENU
  1
.
  9
$ELEVATION
 40
0.0
  9
$PELEVATION
 40
0.0
  9
$THICKNESS
 40
0.0
  9
$LIMCHECK
 70
     0
  9
$CHAMFERA
 40
0.5
  9
$CHAMFERB
 40
0.5
  9
$CHAMFERC
 40
1.0
  9
$CHAMFERD
 40
0.0
  9
$SKPOLY
 70
     0
  9
$TDCREATE
 40
2457071.441945162
  9
$TDUCREATE
 40
2457071.400278495
  9
$TDUPDATE
 40
2457071.441945174
  9
$TDUUPDATE
 40
2457071.400278507
  9
$TDINDWG
 40
0.0000000116
  9
$TDUSRTIMER
 40
0.0000000116
  9
$USRTIMER
 70
     1
  9
$ANGBASE
 50
0.0
  9
$ANGDIR
 70
     0
  9
$PDMODE
 70
     0
  9
$PDSIZE
 40
0.0
  9
$PLINEWID
 40
0.0
  9
$SPLFRAME
 70
     0
  9
$SPLINETYPE
 70
     6
  9
$SPLINESEGS
 70
     8
  9
$HANDSEED
  5
437
  9
$SURFTAB1
 70
     6
  9
$SURFTAB2
 70
     6
  9
$SURFTYPE
 70
     6
  9
$SURFU
 70
     6
  9
$SURFV
 70
     6
  9
$UCSBASE
  2

  9
$UCSNAME
  2

  9
$UCSORG
 10
0.0
 20
0.0
 30
0.0
  9
$UCSXDIR
 10
1.0
 20
0.0
 30
0.0
  9
$UCSYDIR
 10
0.0
 20
1.0
 30
0.0
  9
$UCSORTHOREF
  2

  9
$UCSORTHOVIEW
 70
     0
  9
$UCSORGTOP
 10
0.0
 20
0.0
 30
0.0
  9
$UCSORGBOTTOM
 10
0.0
 20
0.0
 30
0.0
  9
$UCSORGLEFT
 10
0.0
 20
0.0
 30
0.0
  9
$UCSORGRIGHT
 10
0.0
 20
0.0
 30
0.0
  9
$UCSORGFRONT
 10
0.0
 20
0.0
 30
0.0
  9
$UCSORGBACK
 10
0.0
 20
0.0
 30
0.0
  9
$PUCSBASE
  2

  9
$PUCSNAME
  2

  9
$PUCSORG
 10
0.0
 20
0.0
 30
0.0
  9
$PUCSXDIR
 10
1.0
 20
0.0
 30
0.0
  9
$PUCSYDIR
 10
0.0
 20
1.0
 30
0.0
  9
$PUCSORTHOREF
  2

  9
$PUCSORTHOVIEW
 70
     0
  9
$PUCSORGTOP
 10
0.0
 20
0.0
 30
0.0
  9
$PUCSORGBOTTOM
 10
0.0
 20
0.0
 30
0.0
  9
$PUCSORGLEFT
 10
0.0
 20
0.0
 30
0.0
  9
$PUCSORGRIGHT
 10
0.0
 20
0.0
 30
0.0
  9
$PUCSORGFRONT
 10
0.0
 20
0.0
 30
0.0
  9
$PUCSORGBACK
 10
0.0
 20
0.0
 30
0.0
  9
$USERI1
 70
     0
  9
$USERI2
 70
     0
  9
$USERI3
 70
     0
  9
$USERI4
 70
     0
  9
$USERI5
 70
     0
  9
$USERR1
 40
0.0
  9
$USERR2
 40
0.0
  9
$USERR3
 40
0.0
  9
$USERR4
 40
0.0
  9
$USERR5
 40
0.0
  9
$WORLDVIEW
 70
     1
  9
$SHADEDGE
 70
     3
  9
$SHADEDIF
 70
    70
  9
$TILEMODE
 70
     1
  9
$MAXACTVP
 70
    64
  9
$PINSBASE
 10
0.0
 20
0.0
 30
0.0
  9
$PLIMCHECK
 70
     0
  9
$PEXTMIN
 10
1.000000000000000E+20
 20
1.000000000000000E+20
 30
1.000000000000000E+20
  9
$PEXTMAX
 10
-1.000000000000000E+20
 20
-1.000000000000000E+20
 30
-1.000000000000000E+20
  9
$PLIMMIN
 10
0.0
 20
0.0
  9
$PLIMMAX
 10
12.0
 20
9.0
  9
$UNITMODE
 70
     0
  9
$VISRETAIN
 70
     1
  9
$PLINEGEN
 70
     0
  9
$PSLTSCALE
 70
     1
  9
$TREEDEPTH
 70
  3020
  9
$CMLSTYLE
  2
Standard
  9
$CMLJUST
 70
     0
  9
$CMLSCALE
 40
1.0
  9
$PROXYGRAPHICS
 70
     1
  9
$MEASUREMENT
 70
     0
  9
$CELWEIGHT
370
    -1
  9
$ENDCAPS
280
     0
  9
$JOINSTYLE
280
     0
  9
$LWDISPLAY
290
     1
  9
$INSUNITS
 70
     1
  9
$HYPERLINKBASE
  1

  9
$STYLESHEET
  1

  9
$XEDIT
290
     1
  9
$CEPSNTYPE
380
     0
  9
$PSTYLEMODE
290
     1
  9
$FINGERPRINTGUID
  2
{FB8E9FE5-5B72-4611-A94E-7E870AD51396}
  9
$VERSIONGUID
  2
{FAEB1C32-E019-11D5-929B-00C0DF256EC4}
  9
$EXTNAMES
290
     1
  9
$PSVPSCALE
 40
0.0
  9
$OLESTARTUP
290
     0
  9
$SORTENTS
280
   127
  9
$INDEXCTL
280
     0
  9
$HIDETEXT
280
     1
  9
$XCLIPFRAME
290
     0
  9
$HALOGAP
280
     0
  9
$OBSCOLOR
 70
   257
  9
$OBSLTYPE
280
     0
  9
$INTERSECTIONDISPLAY
280
     0
  9
$INTERSECTIONCOLOR
 70
   257
  9
$DIMASSOC
280
     2
  9
$PROJECTNAME
  1

  0
ENDSEC
  0
SECTION
  2
CLASSES
  0
CLASS
  1
ACDBDICTIONARYWDFLT
  2
AcDbDictionaryWithDefault
  3
ObjectDBX Classes
 90
        0
 91
        3
280
     0
281
     0
  0
CLASS
  1
VISUALSTYLE
  2
AcDbVisualStyle
  3
ObjectDBX Classes
 90
     4095
 91
        3
280
     0
281
     0
  0
ENDSEC
  0
SECTION
  2
TABLES
  0
TABLE
  2
VPORT
  5
8
330
0
100
AcDbSymbolTable
 70
     1
  0
VPORT
  5
29
330
8
100
AcDbSymbolTableRecord
100
AcDbViewportTableRecord
  2
*Active
 70
     0
 10
0.0
 20
0.0
 11
1.0
 21
1.0
 12
0.0
 22
0.0
 13
0.0
 23
0.0
 14
0.5
 24
0.5
 15
0.5
 25
0.5
 16
0.0
 26
0.0
 36
1.0
 17
209.9998956989764
 27
-148.5000775824991
 37
0.0
 40
297.0001551649982
 41
1.414139972972816
 42
50.0
 43
0.0
 44
0.0
 50
0.0
 51
0.0
 71
     0
 72
   100
 73
     1
 74
     3
 75
     0
 76
     0
 77
     0
 78
     0
281
     0
 65
     1
110
0.0
120
0.0
130
0.0
111
1.0
121
0.0
131
0.0
112
0.0
122
1.0
132
0.0
 79
     0
146
0.0
  0
ENDTAB
  0
TABLE
  2
LTYPE
  5
5
330
0
100
AcDbSymbolTable
 70
     1
  0
LTYPE
  5
14
330
5
100
AcDbSymbolTableRecord
100
AcDbLinetypeTableRecord
  2
ByBlock
 70
     0
  3

 72
    65
 73
     0
 40
0.0
  0
LTYPE
  5
15
330
5
100
AcDbSymbolTableRecord
100
AcDbLinetypeTableRecord
  2
ByLayer
 70
     0
  3

 72
    65
 73
     0
 40
0.0
  0
LTYPE
  5
16
330
5
100
AcDbSymbolTableRecord
100
AcDbLinetypeTableRecord
  2
Continuous
 70
     0
  3
Solid line
 72
    65
 73
     0
 40
0.0
  0
ENDTAB
  0
TABLE
  2
LAYER
  5
2
330
0
100
AcDbSymbolTable
 70
     2
  0
LAYER
  5
10
330
2
100
AcDbSymbolTableRecord
100
AcDbLayerTableRecord
  2
0
 70
     0
 62
     7
  6
Continuous
370
    -3
390
F
  0
LAYER
  5
3B
330
2
100
AcDbSymbolTableRecord
100
AcDbLayerTableRecord
  2
Layer 1
 70
     0
 62
     7
  6
Continuous
370
    -3
390
F
  0
ENDTAB
  0
TABLE
  2
STYLE
  5
3
330
0
100
AcDbSymbolTable
 70
     1
  0
STYLE
  5
11
330
3
100
AcDbSymbolTableRecord
100
AcDbTextStyleTableRecord
  2
Standard
 70
     0
 40
0.0
 41
1.0
 50
0.0
 71
     0
 42
0.2
  3
txt
  4

  0
ENDTAB
  0
TABLE
  2
VIEW
  5
6
330
0
100
AcDbSymbolTable
 70
     0
  0
ENDTAB
  0
TABLE
  2
UCS
  5
7
330
0
100
AcDbSymbolTable
 70
     0
  0
ENDTAB
  0
TABLE
  2
APPID
  5
9
330
0
100
AcDbSymbolTable
 70
     1
  0
APPID
  5
12
330
9
100
AcDbSymbolTableRecord
100
AcDbRegAppTableRecord
  2
ACAD
 70
     0
  0
ENDTAB
  0
TABLE
  2
DIMSTYLE
  5
A
330
0
100
AcDbSymbolTable
 70
     1
100
AcDbDimStyleTable
  0
DIMSTYLE
105
27
330
A
100
AcDbSymbolTableRecord
100
AcDbDimStyleTableRecord
  2
Standard
 70
     0
340
11
  0
ENDTAB
  0
TABLE
  2
BLOCK_RECORD
  5
1
330
0
100
AcDbSymbolTable
 70
   165
  0
BLOCK_RECORD
  5
1F
330
1
100
AcDbSymbolTableRecord
100
AcDbBlockTableRecord
  2
*Model_Space
340
22
  0
BLOCK_RECORD
  5
1B
330
1
100
AcDbSymbolTableRecord
100
AcDbBlockTableRecord
  2
*Paper_Space
340
1E
  0
BLOCK_RECORD
  5
23
330
1
100
AcDbSymbolTableRecord
100
AcDbBlockTableRecord
  2
*Paper_Space0
340
26
  0
BLOCK_RECORD
  5
3C
330
1
100
AcDbSymbolTableRecord
100
AcDbBlockTableRecord
  2
block 2
340
0
102
{BLKREFS
331
3D
102
}
  0
BLOCK_RECORD
  5
41
330
1
100
AcDbSymbolTableRecord
100
AcDbBlockTableRecord
  2
block 3
340
0
102
{BLKREFS
331
42
102
}
  0
BLOCK_RECORD
  5
46
330
1
100
AcDbSymbolTableRecord
100
AcDbBlockTableRecord
  2
block 4
340
0
102
{BLKREFS
331
47
102
}
  0
BLOCK_RECORD
  5
4B
330
1
100
AcDbSymbolTableRecord
100
AcDbBlockTableRecord
  2
block 5
340
0
102
{BLKREFS
331
4C
102
}
  0
BLOCK_RECORD
  5
50
330
1
100
AcDbSymbolTableRecord
100
AcDbBlockTableRecord
  2
block 6
340
0
102
{BLKREFS
331
51
102
}
  0
BLOCK_RECORD
  5
55
330
1
100
AcDbSymbolTableRecord
100
AcDbBlockTableRecord
  2
block 7
340
0
102
{BLKREFS
331
56
102
}
  0
BLOCK_RECORD
  5
5A
330
1
100
AcDbSymbolTableRecord
100
AcDbBlockTableRecord
  2
block 8
340
0
102
{BLKREFS
331
5B
102
}
  0
BLOCK_RECORD
  5
5F
330
1
100
AcDbSymbolTableRecord
100
AcDbBlockTableRecord
  2
block 9
340
0
102
{BLKREFS
331
60
102
}
  0
BLOCK_RECORD
  5
64
330
1
100
AcDbSymbolTableRecord
100
AcDbBlockTableRecord
  2
block 10
340
0
102
{BLKREFS
331
65
102
}
  0
BLOCK_RECORD
  5
69
330
1
100
AcDbSymbolTableRecord
100
AcDbBlockTableRecord
  2
block 11
340
0
102
{BLKREFS
331
6A
102
}
  0
BLOCK_RECORD
  5
6E
330
1
100
AcDbSymbolTableRecord
100
AcDbBlockTableRecord
  2
block 12
340
0
102
{BLKREFS
331
6F
102
}
  0
BLOCK_RECORD
  5
73
330
1
100
AcDbSymbolTableRecord
100
AcDbBlockTableRecord
  2
block 13
340
0
102
{BLKREFS
331
74
102
}
  0
BLOCK_RECORD
  5
78
330
1
100
AcDbSymbolTableRecord
100
AcDbBlockTableRecord
  2
block 14
340
0
102
{BLKREFS
331
79
102
}
  0
BLOCK_RECORD
  5
7D
330
1
100
AcDbSymbolTableRecord
100
AcDbBlockTableRecord
  2
block 15
340
0
102
{BLKREFS
331
7E
102
}
  0
BLOCK_RECORD
  5
82
330
1
100
AcDbSymbolTableRecord
100
AcDbBlockTableRecord
  2
block 16
340
0
102
{BLKREFS
331
83
102
}
  0
BLOCK_RECORD
  5
87
330
1
100
AcDbSymbolTableRecord
100
AcDbBlockTableRecord
  2
block 17
340
0
102
{BLKREFS
331
88
102
}
  0
BLOCK_RECORD
  5
8C
330
1
100
AcDbSymbolTableRecord
100
AcDbBlockTableRecord
  2
block 18
340
0
102
{BLKREFS
331
8D
102
}
  0
BLOCK_RECORD
  5
91
330
1
100
AcDbSymbolTableRecord
100
AcDbBlockTableRecord
  2
block 19
340
0
102
{BLKREFS
331
92
102
}
  0
BLOCK_RECORD
  5
96
330
1
100
AcDbSymbolTableRecord
100
AcDbBlockTableRecord
  2
block 20
340
0
102
{BLKREFS
331
97
102
}
  0
BLOCK_RECORD
  5
9B
330
1
100
AcDbSymbolTableRecord
100
AcDbBlockTableRecord
  2
block 21
340
0
102
{BLKREFS
331
9C
102
}
  0
BLOCK_RECORD
  5
A0
330
1
100
AcDbSymbolTableRecord
100
AcDbBlockTableRecord
  2
block 22
340
0
102
{BLKREFS
331
A1
102
}
  0
BLOCK_RECORD
  5
A5
330
1
100
AcDbSymbolTableRecord
100
AcDbBlockTableRecord
  2
block 23
340
0
102
{BLKREFS
331
A6
102
}
  0
BLOCK_RECORD
  5
AA
330
1
100
AcDbSymbolTableRecord
100
AcDbBlockTableRecord
  2
block 24
340
0
102
{BLKREFS
331
AB
102
}
  0
BLOCK_RECORD
  5
AF
330
1
100
AcDbSymbolTableRecord
100
AcDbBlockTableRecord
  2
block 25
340
0
102
{BLKREFS
331
B0
102
}
  0
BLOCK_RECORD
  5
B4
330
1
100
AcDbSymbolTableRecord
100
AcDbBlockTableRecord
  2
block 26
340
0
102
{BLKREFS
331
B5
102
}
  0
BLOCK_RECORD
  5
B9
330
1
100
AcDbSymbolTableRecord
100
AcDbBlockTableRecord
  2
block 27
340
0
102
{BLKREFS
331
BA
102
}
  0
BLOCK_RECORD
  5
BE
330
1
100
AcDbSymbolTableRecord
100
AcDbBlockTableRecord
  2
block 28
340
0
102
{BLKREFS
331
BF
102
}
  0
BLOCK_RECORD
  5
C3
330
1
100
AcDbSymbolTableRecord
100
AcDbBlockTableRecord
  2
block 29
340
0
102
{BLKREFS
331
C4
102
}
  0
BLOCK_RECORD
  5
C8
330
1
100
AcDbSymbolTableRecord
100
AcDbBlockTableRecord
  2
block 30
340
0
102
{BLKREFS
331
C9
102
}
  0
BLOCK_RECORD
  5
CD
330
1
100
AcDbSymbolTableRecord
100
AcDbBlockTableRecord
  2
block 31
340
0
102
{BLKREFS
331
CE
102
}
  0
BLOCK_RECORD
  5
D2
330
1
100
AcDbSymbolTableRecord
100
AcDbBlockTableRecord
  2
block 32
340
0
102
{BLKREFS
331
D3
102
}
  0
BLOCK_RECORD
  5
D7
330
1
100
AcDbSymbolTableRecord
100
AcDbBlockTableRecord
  2
block 33
340
0
102
{BLKREFS
331
D8
102
}
  0
BLOCK_RECORD
  5
DC
330
1
100
AcDbSymbolTableRecord
100
AcDbBlockTableRecord
  2
block 34
340
0
102
{BLKREFS
331
DD
102
}
  0
BLOCK_RECORD
  5
E1
330
1
100
AcDbSymbolTableRecord
100
AcDbBlockTableRecord
  2
block 35
340
0
102
{BLKREFS
331
E2
102
}
  0
BLOCK_RECORD
  5
E6
330
1
100
AcDbSymbolTableRecord
100
AcDbBlockTableRecord
  2
block 36
340
0
102
{BLKREFS
331
E7
102
}
  0
BLOCK_RECORD
  5
EB
330
1
100
AcDbSymbolTableRecord
100
AcDbBlockTableRecord
  2
block 37
340
0
102
{BLKREFS
331
EC
102
}
  0
BLOCK_RECORD
  5
F0
330
1
100
AcDbSymbolTableRecord
100
AcDbBlockTableRecord
  2
block 38
340
0
102
{BLKREFS
331
F1
102
}
  0
BLOCK_RECORD
  5
F5
330
1
100
AcDbSymbolTableRecord
100
AcDbBlockTableRecord
  2
block 39
340
0
102
{BLKREFS
331
F6
102
}
  0
BLOCK_RECORD
  5
FA
330
1
100
AcDbSymbolTableRecord
100
AcDbBlockTableRecord
  2
block 40
340
0
102
{BLKREFS
331
FB
102
}
  0
BLOCK_RECORD
  5
FF
330
1
100
AcDbSymbolTableRecord
100
AcDbBlockTableRecord
  2
block 41
340
0
102
{BLKREFS
331
100
102
}
  0
BLOCK_RECORD
  5
104
330
1
100
AcDbSymbolTableRecord
100
AcDbBlockTableRecord
  2
block 42
340
0
102
{BLKREFS
331
105
102
}
  0
BLOCK_RECORD
  5
109
330
1
100
AcDbSymbolTableRecord
100
AcDbBlockTableRecord
  2
block 43
340
0
102
{BLKREFS
331
10A
102
}
  0
BLOCK_RECORD
  5
10E
330
1
100
AcDbSymbolTableRecord
100
AcDbBlockTableRecord
  2
block 44
340
0
102
{BLKREFS
331
10F
102
}
  0
BLOCK_RECORD
  5
113
330
1
100
AcDbSymbolTableRecord
100
AcDbBlockTableRecord
  2
block 45
340
0
102
{BLKREFS
331
114
102
}
  0
BLOCK_RECORD
  5
118
330
1
100
AcDbSymbolTableRecord
100
AcDbBlockTableRecord
  2
block 46
340
0
102
{BLKREFS
331
119
102
}
  0
BLOCK_RECORD
  5
11D
330
1
100
AcDbSymbolTableRecord
100
AcDbBlockTableRecord
  2
block 47
340
0
102
{BLKREFS
331
11E
102
}
  0
BLOCK_RECORD
  5
122
330
1
100
AcDbSymbolTableRecord
100
AcDbBlockTableRecord
  2
block 48
340
0
102
{BLKREFS
331
123
102
}
  0
BLOCK_RECORD
  5
127
330
1
100
AcDbSymbolTableRecord
100
AcDbBlockTableRecord
  2
block 49
340
0
102
{BLKREFS
331
128
102
}
  0
BLOCK_RECORD
  5
12C
330
1
100
AcDbSymbolTableRecord
100
AcDbBlockTableRecord
  2
block 50
340
0
102
{BLKREFS
331
12D
102
}
  0
BLOCK_RECORD
  5
131
330
1
100
AcDbSymbolTableRecord
100
AcDbBlockTableRecord
  2
block 51
340
0
102
{BLKREFS
331
132
102
}
  0
BLOCK_RECORD
  5
136
330
1
100
AcDbSymbolTableRecord
100
AcDbBlockTableRecord
  2
block 52
340
0
102
{BLKREFS
331
137
102
}
  0
BLOCK_RECORD
  5
13B
330
1
100
AcDbSymbolTableRecord
100
AcDbBlockTableRecord
  2
block 53
340
0
102
{BLKREFS
331
13C
102
}
  0
BLOCK_RECORD
  5
140
330
1
100
AcDbSymbolTableRecord
100
AcDbBlockTableRecord
  2
block 54
340
0
102
{BLKREFS
331
141
102
}
  0
BLOCK_RECORD
  5
145
330
1
100
AcDbSymbolTableRecord
100
AcDbBlockTableRecord
  2
block 55
340
0
102
{BLKREFS
331
146
102
}
  0
BLOCK_RECORD
  5
14A
330
1
100
AcDbSymbolTableRecord
100
AcDbBlockTableRecord
  2
block 56
340
0
102
{BLKREFS
331
14B
102
}
  0
BLOCK_RECORD
  5
14F
330
1
100
AcDbSymbolTableRecord
100
AcDbBlockTableRecord
  2
block 57
340
0
102
{BLKREFS
331
150
102
}
  0
BLOCK_RECORD
  5
157
330
1
100
AcDbSymbolTableRecord
100
AcDbBlockTableRecord
  2
block 58
340
0
102
{BLKREFS
331
158
102
}
  0
BLOCK_RECORD
  5
15F
330
1
100
AcDbSymbolTableRecord
100
AcDbBlockTableRecord
  2
block 59
340
0
102
{BLKREFS
331
160
102
}
  0
BLOCK_RECORD
  5
164
330
1
100
AcDbSymbolTableRecord
100
AcDbBlockTableRecord
  2
block 60
340
0
102
{BLKREFS
331
165
102
}
  0
BLOCK_RECORD
  5
169
330
1
100
AcDbSymbolTableRecord
100
AcDbBlockTableRecord
  2
block 61
340
0
102
{BLKREFS
331
16A
102
}
  0
BLOCK_RECORD
  5
16E
330
1
100
AcDbSymbolTableRecord
100
AcDbBlockTableRecord
  2
block 62
340
0
102
{BLKREFS
331
16F
102
}
  0
BLOCK_RECORD
  5
176
330
1
100
AcDbSymbolTableRecord
100
AcDbBlockTableRecord
  2
block 63
340
0
102
{BLKREFS
331
177
102
}
  0
BLOCK_RECORD
  5
17E
330
1
100
AcDbSymbolTableRecord
100
AcDbBlockTableRecord
  2
block 64
340
0
102
{BLKREFS
331
17F
102
}
  0
BLOCK_RECORD
  5
186
330
1
100
AcDbSymbolTableRecord
100
AcDbBlockTableRecord
  2
block 65
340
0
102
{BLKREFS
331
187
102
}
  0
BLOCK_RECORD
  5
18E
330
1
100
AcDbSymbolTableRecord
100
AcDbBlockTableRecord
  2
block 66
340
0
102
{BLKREFS
331
18F
102
}
  0
BLOCK_RECORD
  5
193
330
1
100
AcDbSymbolTableRecord
100
AcDbBlockTableRecord
  2
block 67
340
0
102
{BLKREFS
331
194
102
}
  0
BLOCK_RECORD
  5
198
330
1
100
AcDbSymbolTableRecord
100
AcDbBlockTableRecord
  2
block 68
340
0
102
{BLKREFS
331
199
102
}
  0
BLOCK_RECORD
  5
19D
330
1
100
AcDbSymbolTableRecord
100
AcDbBlockTableRecord
  2
block 69
340
0
102
{BLKREFS
331
19E
102
}
  0
BLOCK_RECORD
  5
1A2
330
1
100
AcDbSymbolTableRecord
100
AcDbBlockTableRecord
  2
block 70
340
0
102
{BLKREFS
331
1A3
102
}
  0
BLOCK_RECORD
  5
1A7
330
1
100
AcDbSymbolTableRecord
100
AcDbBlockTableRecord
  2
block 71
340
0
102
{BLKREFS
331
1A8
102
}
  0
BLOCK_RECORD
  5
1AF
330
1
100
AcDbSymbolTableRecord
100
AcDbBlockTableRecord
  2
block 72
340
0
102
{BLKREFS
331
1B0
102
}
  0
BLOCK_RECORD
  5
1B7
330
1
100
AcDbSymbolTableRecord
100
AcDbBlockTableRecord
  2
block 73
340
0
102
{BLKREFS
331
1B8
102
}
  0
BLOCK_RECORD
  5
1BF
330
1
100
AcDbSymbolTableRecord
100
AcDbBlockTableRecord
  2
block 74
340
0
102
{BLKREFS
331
1C0
102
}
  0
BLOCK_RECORD
  5
1C7
330
1
100
AcDbSymbolTableRecord
100
AcDbBlockTableRecord
  2
block 75
340
0
102
{BLKREFS
331
1C8
102
}
  0
BLOCK_RECORD
  5
1CC
330
1
100
AcDbSymbolTableRecord
100
AcDbBlockTableRecord
  2
block 76
340
0
102
{BLKREFS
331
1CD
102
}
  0
BLOCK_RECORD
  5
1D1
330
1
100
AcDbSymbolTableRecord
100
AcDbBlockTableRecord
  2
block 77
340
0
102
{BLKREFS
331
1D2
102
}
  0
BLOCK_RECORD
  5
1D6
330
1
100
AcDbSymbolTableRecord
100
AcDbBlockTableRecord
  2
block 78
340
0
102
{BLKREFS
331
1D7
102
}
  0
BLOCK_RECORD
  5
1DE
330
1
100
AcDbSymbolTableRecord
100
AcDbBlockTableRecord
  2
block 79
340
0
102
{BLKREFS
331
1DF
102
}
  0
BLOCK_RECORD
  5
1E6
330
1
100
AcDbSymbolTableRecord
100
AcDbBlockTableRecord
  2
block 80
340
0
102
{BLKREFS
331
1E7
102
}
  0
BLOCK_RECORD
  5
1EE
330
1
100
AcDbSymbolTableRecord
100
AcDbBlockTableRecord
  2
block 81
340
0
102
{BLKREFS
331
1EF
102
}
  0
BLOCK_RECORD
  5
1F6
330
1
100
AcDbSymbolTableRecord
100
AcDbBlockTableRecord
  2
block 82
340
0
102
{BLKREFS
331
1F7
102
}
  0
BLOCK_RECORD
  5
1FE
330
1
100
AcDbSymbolTableRecord
100
AcDbBlockTableRecord
  2
block 83
340
0
102
{BLKREFS
331
1FF
102
}
  0
BLOCK_RECORD
  5
206
330
1
100
AcDbSymbolTableRecord
100
AcDbBlockTableRecord
  2
block 84
340
0
102
{BLKREFS
331
207
102
}
  0
BLOCK_RECORD
  5
20E
330
1
100
AcDbSymbolTableRecord
100
AcDbBlockTableRecord
  2
block 85
340
0
102
{BLKREFS
331
20F
102
}
  0
BLOCK_RECORD
  5
216
330
1
100
AcDbSymbolTableRecord
100
AcDbBlockTableRecord
  2
block 86
340
0
102
{BLKREFS
331
217
102
}
  0
BLOCK_RECORD
  5
21E
330
1
100
AcDbSymbolTableRecord
100
AcDbBlockTableRecord
  2
block 87
340
0
102
{BLKREFS
331
21F
102
}
  0
BLOCK_RECORD
  5
226
330
1
100
AcDbSymbolTableRecord
100
AcDbBlockTableRecord
  2
block 88
340
0
102
{BLKREFS
331
227
102
}
  0
BLOCK_RECORD
  5
22E
330
1
100
AcDbSymbolTableRecord
100
AcDbBlockTableRecord
  2
block 89
340
0
102
{BLKREFS
331
22F
102
}
  0
BLOCK_RECORD
  5
236
330
1
100
AcDbSymbolTableRecord
100
AcDbBlockTableRecord
  2
block 90
340
0
102
{BLKREFS
331
237
102
}
  0
BLOCK_RECORD
  5
23E
330
1
100
AcDbSymbolTableRecord
100
AcDbBlockTableRecord
  2
block 91
340
0
102
{BLKREFS
331
23F
102
}
  0
BLOCK_RECORD
  5
246
330
1
100
AcDbSymbolTableRecord
100
AcDbBlockTableRecord
  2
block 92
340
0
102
{BLKREFS
331
247
102
}
  0
BLOCK_RECORD
  5
24E
330
1
100
AcDbSymbolTableRecord
100
AcDbBlockTableRecord
  2
block 93
340
0
102
{BLKREFS
331
24F
102
}
  0
BLOCK_RECORD
  5
256
330
1
100
AcDbSymbolTableRecord
100
AcDbBlockTableRecord
  2
block 94
340
0
102
{BLKREFS
331
257
102
}
  0
BLOCK_RECORD
  5
25E
330
1
100
AcDbSymbolTableRecord
100
AcDbBlockTableRecord
  2
block 95
340
0
102
{BLKREFS
331
25F
102
}
  0
BLOCK_RECORD
  5
266
330
1
100
AcDbSymbolTableRecord
100
AcDbBlockTableRecord
  2
block 96
340
0
102
{BLKREFS
331
267
102
}
  0
BLOCK_RECORD
  5
26E
330
1
100
AcDbSymbolTableRecord
100
AcDbBlockTableRecord
  2
block 97
340
0
102
{BLKREFS
331
26F
102
}
  0
BLOCK_RECORD
  5
273
330
1
100
AcDbSymbolTableRecord
100
AcDbBlockTableRecord
  2
block 98
340
0
102
{BLKREFS
331
274
102
}
  0
BLOCK_RECORD
  5
278
330
1
100
AcDbSymbolTableRecord
100
AcDbBlockTableRecord
  2
block 99
340
0
102
{BLKREFS
331
279
102
}
  0
BLOCK_RECORD
  5
27D
330
1
100
AcDbSymbolTableRecord
100
AcDbBlockTableRecord
  2
block 100
340
0
102
{BLKREFS
331
27E
102
}
  0
BLOCK_RECORD
  5
282
330
1
100
AcDbSymbolTableRecord
100
AcDbBlockTableRecord
  2
block 101
340
0
102
{BLKREFS
331
283
102
}
  0
BLOCK_RECORD
  5
287
330
1
100
AcDbSymbolTableRecord
100
AcDbBlockTableRecord
  2
block 102
340
0
102
{BLKREFS
331
288
102
}
  0
BLOCK_RECORD
  5
28F
330
1
100
AcDbSymbolTableRecord
100
AcDbBlockTableRecord
  2
block 103
340
0
102
{BLKREFS
331
290
102
}
  0
BLOCK_RECORD
  5
297
330
1
100
AcDbSymbolTableRecord
100
AcDbBlockTableRecord
  2
block 104
340
0
102
{BLKREFS
331
298
102
}
  0
BLOCK_RECORD
  5
29F
330
1
100
AcDbSymbolTableRecord
100
AcDbBlockTableRecord
  2
block 105
340
0
102
{BLKREFS
331
2A0
102
}
  0
BLOCK_RECORD
  5
2A7
330
1
100
AcDbSymbolTableRecord
100
AcDbBlockTableRecord
  2
block 106
340
0
102
{BLKREFS
331
2A8
102
}
  0
BLOCK_RECORD
  5
2AF
330
1
100
AcDbSymbolTableRecord
100
AcDbBlockTableRecord
  2
block 107
340
0
102
{BLKREFS
331
2B0
102
}
  0
BLOCK_RECORD
  5
2B7
330
1
100
AcDbSymbolTableRecord
100
AcDbBlockTableRecord
  2
block 108
340
0
102
{BLKREFS
331
2B8
102
}
  0
BLOCK_RECORD
  5
2BC
330
1
100
AcDbSymbolTableRecord
100
AcDbBlockTableRecord
  2
block 109
340
0
102
{BLKREFS
331
2BD
102
}
  0
BLOCK_RECORD
  5
2C1
330
1
100
AcDbSymbolTableRecord
100
AcDbBlockTableRecord
  2
block 110
340
0
102
{BLKREFS
331
2C2
102
}
  0
BLOCK_RECORD
  5
2C6
330
1
100
AcDbSymbolTableRecord
100
AcDbBlockTableRecord
  2
block 111
340
0
102
{BLKREFS
331
2C7
102
}
  0
BLOCK_RECORD
  5
2CB
330
1
100
AcDbSymbolTableRecord
100
AcDbBlockTableRecord
  2
block 112
340
0
102
{BLKREFS
331
2CC
102
}
  0
BLOCK_RECORD
  5
2D0
330
1
100
AcDbSymbolTableRecord
100
AcDbBlockTableRecord
  2
block 113
340
0
102
{BLKREFS
331
2D1
102
}
  0
BLOCK_RECORD
  5
2D8
330
1
100
AcDbSymbolTableRecord
100
AcDbBlockTableRecord
  2
block 114
340
0
102
{BLKREFS
331
2D9
102
}
  0
BLOCK_RECORD
  5
2E0
330
1
100
AcDbSymbolTableRecord
100
AcDbBlockTableRecord
  2
block 115
340
0
102
{BLKREFS
331
2E1
102
}
  0
BLOCK_RECORD
  5
2E8
330
1
100
AcDbSymbolTableRecord
100
AcDbBlockTableRecord
  2
block 116
340
0
102
{BLKREFS
331
2E9
102
}
  0
BLOCK_RECORD
  5
2F0
330
1
100
AcDbSymbolTableRecord
100
AcDbBlockTableRecord
  2
block 117
340
0
102
{BLKREFS
331
2F1
102
}
  0
BLOCK_RECORD
  5
2F8
330
1
100
AcDbSymbolTableRecord
100
AcDbBlockTableRecord
  2
block 118
340
0
102
{BLKREFS
331
2F9
102
}
  0
BLOCK_RECORD
  5
300
330
1
100
AcDbSymbolTableRecord
100
AcDbBlockTableRecord
  2
block 119
340
0
102
{BLKREFS
331
301
102
}
  0
BLOCK_RECORD
  5
308
330
1
100
AcDbSymbolTableRecord
100
AcDbBlockTableRecord
  2
block 120
340
0
102
{BLKREFS
331
309
102
}
  0
BLOCK_RECORD
  5
30D
330
1
100
AcDbSymbolTableRecord
100
AcDbBlockTableRecord
  2
block 121
340
0
102
{BLKREFS
331
30E
102
}
  0
BLOCK_RECORD
  5
312
330
1
100
AcDbSymbolTableRecord
100
AcDbBlockTableRecord
  2
block 122
340
0
102
{BLKREFS
331
313
102
}
  0
BLOCK_RECORD
  5
317
330
1
100
AcDbSymbolTableRecord
100
AcDbBlockTableRecord
  2
block 123
340
0
102
{BLKREFS
331
318
102
}
  0
BLOCK_RECORD
  5
31C
330
1
100
AcDbSymbolTableRecord
100
AcDbBlockTableRecord
  2
block 124
340
0
102
{BLKREFS
331
31D
102
}
  0
BLOCK_RECORD
  5
321
330
1
100
AcDbSymbolTableRecord
100
AcDbBlockTableRecord
  2
block 125
340
0
102
{BLKREFS
331
322
102
}
  0
BLOCK_RECORD
  5
326
330
1
100
AcDbSymbolTableRecord
100
AcDbBlockTableRecord
  2
block 126
340
0
102
{BLKREFS
331
327
102
}
  0
BLOCK_RECORD
  5
32B
330
1
100
AcDbSymbolTableRecord
100
AcDbBlockTableRecord
  2
block 127
340
0
102
{BLKREFS
331
32C
102
}
  0
BLOCK_RECORD
  5
330
330
1
100
AcDbSymbolTableRecord
100
AcDbBlockTableRecord
  2
block 128
340
0
102
{BLKREFS
331
331
102
}
  0
BLOCK_RECORD
  5
335
330
1
100
AcDbSymbolTableRecord
100
AcDbBlockTableRecord
  2
block 129
340
0
102
{BLKREFS
331
336
102
}
  0
BLOCK_RECORD
  5
33A
330
1
100
AcDbSymbolTableRecord
100
AcDbBlockTableRecord
  2
block 130
340
0
102
{BLKREFS
331
33B
102
}
  0
BLOCK_RECORD
  5
33F
330
1
100
AcDbSymbolTableRecord
100
AcDbBlockTableRecord
  2
block 131
340
0
102
{BLKREFS
331
340
102
}
  0
BLOCK_RECORD
  5
347
330
1
100
AcDbSymbolTableRecord
100
AcDbBlockTableRecord
  2
block 132
340
0
102
{BLKREFS
331
348
102
}
  0
BLOCK_RECORD
  5
34F
330
1
100
AcDbSymbolTableRecord
100
AcDbBlockTableRecord
  2
block 133
340
0
102
{BLKREFS
331
350
102
}
  0
BLOCK_RECORD
  5
357
330
1
100
AcDbSymbolTableRecord
100
AcDbBlockTableRecord
  2
block 134
340
0
102
{BLKREFS
331
358
102
}
  0
BLOCK_RECORD
  5
35F
330
1
100
AcDbSymbolTableRecord
100
AcDbBlockTableRecord
  2
block 135
340
0
102
{BLKREFS
331
360
102
}
  0
BLOCK_RECORD
  5
367
330
1
100
AcDbSymbolTableRecord
100
AcDbBlockTableRecord
  2
block 136
340
0
102
{BLKREFS
331
368
102
}
  0
BLOCK_RECORD
  5
36F
330
1
100
AcDbSymbolTableRecord
100
AcDbBlockTableRecord
  2
block 137
340
0
102
{BLKREFS
331
370
102
}
  0
BLOCK_RECORD
  5
377
330
1
100
AcDbSymbolTableRecord
100
AcDbBlockTableRecord
  2
block 138
340
0
102
{BLKREFS
331
378
102
}
  0
BLOCK_RECORD
  5
37F
330
1
100
AcDbSymbolTableRecord
100
AcDbBlockTableRecord
  2
block 139
340
0
102
{BLKREFS
331
380
102
}
  0
BLOCK_RECORD
  5
387
330
1
100
AcDbSymbolTableRecord
100
AcDbBlockTableRecord
  2
block 140
340
0
102
{BLKREFS
331
388
102
}
  0
BLOCK_RECORD
  5
38F
330
1
100
AcDbSymbolTableRecord
100
AcDbBlockTableRecord
  2
block 141
340
0
102
{BLKREFS
331
390
102
}
  0
BLOCK_RECORD
  5
397
330
1
100
AcDbSymbolTableRecord
100
AcDbBlockTableRecord
  2
block 142
340
0
102
{BLKREFS
331
398
102
}
  0
BLOCK_RECORD
  5
39F
330
1
100
AcDbSymbolTableRecord
100
AcDbBlockTableRecord
  2
block 143
340
0
102
{BLKREFS
331
3A0
102
}
  0
BLOCK_RECORD
  5
3A7
330
1
100
AcDbSymbolTableRecord
100
AcDbBlockTableRecord
  2
block 144
340
0
102
{BLKREFS
331
3A8
102
}
  0
BLOCK_RECORD
  5
3AC
330
1
100
AcDbSymbolTableRecord
100
AcDbBlockTableRecord
  2
block 145
340
0
102
{BLKREFS
331
3AD
102
}
  0
BLOCK_RECORD
  5
3B1
330
1
100
AcDbSymbolTableRecord
100
AcDbBlockTableRecord
  2
block 146
340
0
102
{BLKREFS
331
3B2
102
}
  0
BLOCK_RECORD
  5
3B6
330
1
100
AcDbSymbolTableRecord
100
AcDbBlockTableRecord
  2
block 147
340
0
102
{BLKREFS
331
3B7
102
}
  0
BLOCK_RECORD
  5
3BB
330
1
100
AcDbSymbolTableRecord
100
AcDbBlockTableRecord
  2
block 148
340
0
102
{BLKREFS
331
3BC
102
}
  0
BLOCK_RECORD
  5
3C0
330
1
100
AcDbSymbolTableRecord
100
AcDbBlockTableRecord
  2
block 149
340
0
102
{BLKREFS
331
3C1
102
}
  0
BLOCK_RECORD
  5
3C5
330
1
100
AcDbSymbolTableRecord
100
AcDbBlockTableRecord
  2
block 150
340
0
102
{BLKREFS
331
3C6
102
}
  0
BLOCK_RECORD
  5
3CA
330
1
100
AcDbSymbolTableRecord
100
AcDbBlockTableRecord
  2
block 151
340
0
102
{BLKREFS
331
3CB
102
}
  0
BLOCK_RECORD
  5
3CF
330
1
100
AcDbSymbolTableRecord
100
AcDbBlockTableRecord
  2
block 152
340
0
102
{BLKREFS
331
3D0
102
}
  0
BLOCK_RECORD
  5
3D4
330
1
100
AcDbSymbolTableRecord
100
AcDbBlockTableRecord
  2
block 153
340
0
102
{BLKREFS
331
3D5
102
}
  0
BLOCK_RECORD
  5
3D9
330
1
100
AcDbSymbolTableRecord
100
AcDbBlockTableRecord
  2
block 154
340
0
102
{BLKREFS
331
3DA
102
}
  0
BLOCK_RECORD
  5
3DE
330
1
100
AcDbSymbolTableRecord
100
AcDbBlockTableRecord
  2
block 155
340
0
102
{BLKREFS
331
3DF
102
}
  0
BLOCK_RECORD
  5
3E6
330
1
100
AcDbSymbolTableRecord
100
AcDbBlockTableRecord
  2
block 156
340
0
102
{BLKREFS
331
3E7
102
}
  0
BLOCK_RECORD
  5
3EE
330
1
100
AcDbSymbolTableRecord
100
AcDbBlockTableRecord
  2
block 157
340
0
102
{BLKREFS
331
3EF
102
}
  0
BLOCK_RECORD
  5
3F6
330
1
100
AcDbSymbolTableRecord
100
AcDbBlockTableRecord
  2
block 158
340
0
102
{BLKREFS
331
3F7
102
}
  0
BLOCK_RECORD
  5
3FE
330
1
100
AcDbSymbolTableRecord
100
AcDbBlockTableRecord
  2
block 159
340
0
102
{BLKREFS
331
3FF
102
}
  0
BLOCK_RECORD
  5
406
330
1
100
AcDbSymbolTableRecord
100
AcDbBlockTableRecord
  2
block 160
340
0
102
{BLKREFS
331
407
102
}
  0
BLOCK_RECORD
  5
40E
330
1
100
AcDbSymbolTableRecord
100
AcDbBlockTableRecord
  2
block 161
340
0
102
{BLKREFS
331
40F
102
}
  0
BLOCK_RECORD
  5
416
330
1
100
AcDbSymbolTableRecord
100
AcDbBlockTableRecord
  2
block 162
340
0
102
{BLKREFS
331
417
102
}
  0
BLOCK_RECORD
  5
41E
330
1
100
AcDbSymbolTableRecord
100
AcDbBlockTableRecord
  2
block 163
340
0
102
{BLKREFS
331
41F
102
}
  0
BLOCK_RECORD
  5
426
330
1
100
AcDbSymbolTableRecord
100
AcDbBlockTableRecord
  2
block 164
340
0
102
{BLKREFS
331
427
102
}
  0
BLOCK_RECORD
  5
42E
330
1
100
AcDbSymbolTableRecord
100
AcDbBlockTableRecord
  2
block 165
340
0
102
{BLKREFS
331
42F
102
}
  0
ENDTAB
  0
ENDSEC
  0
SECTION
  2
BLOCKS
  0
BLOCK
  5
20
330
1F
100
AcDbEntity
  8
0
100
AcDbBlockBegin
  2
*Model_Space
 70
     0
 71
     0
 10
0.0
 20
0.0
 30
0.0
  3
*Model_Space
  1

  0
ENDBLK
  5
21
330
1F
100
AcDbEntity
  8
0
100
AcDbBlockEnd
  0
BLOCK
  5
1C
330
1B
100
AcDbEntity
 67
     1
  8
0
100
AcDbBlockBegin
  2
*Paper_Space
 70
     0
 71
     0
 10
0.0
 20
0.0
 30
0.0
  3
*Paper_Space
  1

  0
ENDBLK
  5
1D
330
1B
100
AcDbEntity
 67
     1
  8
0
100
AcDbBlockEnd
  0
BLOCK
  5
24
330
23
100
AcDbEntity
  8
0
100
AcDbBlockBegin
  2
*Paper_Space0
 70
     0
 71
     0
 10
0.0
 20
0.0
 30
0.0
  3
*Paper_Space0
  1

  0
ENDBLK
  5
25
330
23
100
AcDbEntity
  8
0
100
AcDbBlockEnd
  0
BLOCK
  5
3E
330
3C
100
AcDbEntity
  8
0
100
AcDbBlockBegin
  2
block 2
 70
     0
 71
     0
 10
0.0
 20
0.0
 30
0.0
  3
block 2
  1

  0
SPLINE
  5
40
330
3C
100
AcDbEntity
  8
Layer 1
370
     0
100
AcDbSpline
210
0.0
220
0.0
230
1.0
 70
    11
 71
     3
 72
    20
 73
    16
 74
     0
 42
0.0000000001
 43
0.0000000001
 40
0.0
 40
0.0
 40
0.0
 40
0.0
 40
1.0
 40
1.0
 40
1.0
 40
2.0
 40
2.0
 40
2.0
 40
3.0
 40
3.0
 40
3.0
 40
4.0
 40
4.0
 40
4.0
 40
5.0
 40
5.0
 40
5.0
 40
5.0
 10
105.6279030433207
 20
-181.7854063357096
 30
0.0
 10
105.6279030433207
 20
-154.1770819229563
 30
0.0
 10
83.24699771361044
 20
-131.7960043383582
 30
0.0
 10
55.63850104596916
 20
-131.7960043383582
 30
0.0
 10
28.03017663321579
 20
-131.7960043383582
 30
0.0
 10
5.649271303505577
 20
-154.1770819229563
 30
0.0
 10
5.649271303505577
 20
-181.7854063357096
 30
0.0
 10
5.649271303505577
 20
-209.393730748463
 30
0.0
 10
28.03017663321579
 20
-231.7748083330611
 30
0.0
 10
55.63867330085706
 20
-231.7748083330611
 30
0.0
 10
83.24699771361044
 20
-231.7748083330611
 30
0.0
 10
105.6279030433207
 20
-209.393730748463
 30
0.0
 10
105.6279030433207
 20
-181.7854063357096
 30
0.0
 10
105.6279030433207
 20
-181.7854063357096
 30
0.0
 10
105.6279030433207
 20
-181.7854063357096
 30
0.0
 10
105.6279030433207
 20
-181.7854063357096
 30
0.0
  0
ENDBLK
  5
3F
330
3C
100
AcDbEntity
  8
0
100
AcDbBlockEnd
  0
BLOCK
  5
43
330
41
100
AcDbEntity
  8
0
100
AcDbBlockBegin
  2
block 3
 70
     0
 71
     0
 10
0.0
 20
0.0
 30
0.0
  3
block 3
  1

  0
SPLINE
  5
45
330
41
100
AcDbEntity
  8
Layer 1
370
     0
100
AcDbSpline
210
0.0
220
0.0
230
1.0
 70
    11
 71
     3
 72
    17
 73
    13
 74
     0
 42
0.0000000001
 43
0.0000000001
 40
0.0
 40
0.0
 40
0.0
 40
0.0
 40
1.0
 40
1.0
 40
1.0
 40
2.0
 40
2.0
 40
2.0
 40
3.0
 40
3.0
 40
3.0
 40
4.0
 40
4.0
 40
4.0
 40
4.0
 10
97.22978823873744
 20
-181.7854063357096
 30
0.0
 10
97.22978823873744
 20
-180.7191485796205
 30
0.0
 10
96.69648710580498
 20
-180.185847446688
 30
0.0
 10
95.63005709482793
 20
-180.185847446688
 30
0.0
 10
94.5636270838509
 20
-180.185847446688
 30
0.0
 10
94.03049820580632
 20
-180.7191485796205
 30
0.0
 10
94.03049820580632
 20
-181.7854063357096
 30
0.0
 10
94.03049820580632
 20
-182.8520086015746
 30
0.0
 10
94.5636270838509
 20
-183.385309734507
 30
0.0
 10
95.63005709482793
 20
-183.385309734507
 30
0.0
 10
96.69648710580498
 20
-183.385309734507
 30
0.0
 10
97.22978823873744
 20
-182.8520086015746
 30
0.0
 10
97.22978823873744
 20
-181.7854063357096
 30
0.0
  0
ENDBLK
  5
44
330
41
100
AcDbEntity
  8
0
100
AcDbBlockEnd
  0
BLOCK
  5
48
330
46
100
AcDbEntity
  8
0
100
AcDbBlockBegin
  2
block 4
 70
     0
 71
     0
 10
0.0
 20
0.0
 30
0.0
  3
block 4
  1

  0
SPLINE
  5
4A
330
46
100
AcDbEntity
  8
Layer 1
370
     0
100
AcDbSpline
210
0.0
220
0.0
230
1.0
 70
    24
 71
     3
 72
     8
 73
     4
 74
     0
 42
0.0000000001
 43
0.0000000001
 40
0.0
 40
0.0
 40
0.0
 40
0.0
 40
1.0
 40
1.0
 40
1.0
 40
1.0
 10
58.98782508625952
 20
-178.536334640176
 30
0.0
 10
61.17081128059194
 20
-178.536334640176
 30
0.0
 10
63.35362522003647
 20
-178.536334640176
 30
0.0
 10
65.53643915948099
 20
-178.536334640176
 30
0.0
  0
ENDBLK
  5
49
330
46
100
AcDbEntity
  8
0
100
AcDbBlockEnd
  0
BLOCK
  5
4D
330
4B
100
AcDbEntity
  8
0
100
AcDbBlockBegin
  2
block 5
 70
     0
 71
     0
 10
0.0
 20
0.0
 30
0.0
  3
block 5
  1

  0
SPLINE
  5
4F
330
4B
100
AcDbEntity
  8
Layer 1
370
     0
100
AcDbSpline
210
0.0
220
0.0
230
1.0
 70
    24
 71
     3
 72
    11
 73
     7
 74
     0
 42
0.0000000001
 43
0.0000000001
 40
0.0
 40
0.0
 40
0.0
 40
0.0
 40
1.0
 40
1.0
 40
1.0
 40
2.0
 40
2.0
 40
2.0
 40
2.0
 10
65.53643915948099
 20
-178.536334640176
 30
0.0
 10
65.53643915948099
 20
-179.6194733752791
 30
0.0
 10
65.53643915948099
 20
-180.7022676006065
 30
0.0
 10
65.53643915948099
 20
-181.7854063357096
 30
0.0
 10
65.53643915948099
 20
-182.8685450708128
 30
0.0
 10
65.53643915948099
 20
-183.9516838059159
 30
0.0
 10
65.53643915948099
 20
-185.0348225410191
 30
0.0
  0
ENDBLK
  5
4E
330
4B
100
AcDbEntity
  8
0
100
AcDbBlockEnd
  0
BLOCK
  5
52
330
50
100
AcDbEntity
  8
0
100
AcDbBlockBegin
  2
block 6
 70
     0
 71
     0
 10
0.0
 20
0.0
 30
0.0
  3
block 6
  1

  0
SPLINE
  5
54
330
50
100
AcDbEntity
  8
Layer 1
370
     0
100
AcDbSpline
210
0.0
220
0.0
230
1.0
 70
    24
 71
     3
 72
     8
 73
     4
 74
     0
 42
0.0000000001
 43
0.0000000001
 40
0.0
 40
0.0
 40
0.0
 40
0.0
 40
1.0
 40
1.0
 40
1.0
 40
1.0
 10
65.53643915948099
 20
-185.0348225410191
 30
0.0
 10
63.35362522003647
 20
-185.0348225410191
 30
0.0
 10
61.17081128059194
 20
-185.0348225410191
 30
0.0
 10
58.98782508625952
 20
-185.0348225410191
 30
0.0
  0
ENDBLK
  5
53
330
50
100
AcDbEntity
  8
0
100
AcDbBlockEnd
  0
BLOCK
  5
57
330
55
100
AcDbEntity
  8
0
100
AcDbBlockBegin
  2
block 7
 70
     0
 71
     0
 10
0.0
 20
0.0
 30
0.0
  3
block 7
  1

  0
SPLINE
  5
59
330
55
100
AcDbEntity
  8
Layer 1
370
     0
100
AcDbSpline
210
0.0
220
0.0
230
1.0
 70
     8
 71
     3
 72
    11
 73
     7
 74
     0
 42
0.0000000001
 43
0.0000000001
 40
0.0
 40
0.0
 40
0.0
 40
0.0
 40
1.0
 40
1.0
 40
1.0
 40
2.0
 40
2.0
 40
2.0
 40
2.0
 10
58.98782508625952
 20
-185.0348225410191
 30
0.0
 10
58.95457989289519
 20
-185.0348225410191
 30
0.0
 10
58.92116244464296
 20
-185.0348225410191
 30
0.0
 10
58.88791725127863
 20
-185.0348225410191
 30
0.0
 10
58.88791725127863
 20
-185.0682399892713
 30
0.0
 10
58.88791725127863
 20
-185.1013129277478
 30
0.0
 10
58.88791725127863
 20
-185.134730376
 30
0.0
  0
ENDBLK
  5
58
330
55
100
AcDbEntity
  8
0
100
AcDbBlockEnd
  0
BLOCK
  5
5C
330
5A
100
AcDbEntity
  8
0
100
AcDbBlockBegin
  2
block 8
 70
     0
 71
     0
 10
0.0
 20
0.0
 30
0.0
  3
block 8
  1

  0
SPLINE
  5
5E
330
5A
100
AcDbEntity
  8
Layer 1
370
     0
100
AcDbSpline
210
0.0
220
0.0
230
1.0
 70
    24
 71
     3
 72
     8
 73
     4
 74
     0
 42
0.0000000001
 43
0.0000000001
 40
0.0
 40
0.0
 40
0.0
 40
0.0
 40
1.0
 40
1.0
 40
1.0
 40
1.0
 10
58.88791725127863
 20
-185.134730376
 30
0.0
 10
58.88791725127863
 20
-187.3175443154445
 30
0.0
 10
58.88791725127863
 20
-189.5007027646649
 30
0.0
 10
58.88791725127863
 20
-191.6835167041094
 30
0.0
  0
ENDBLK
  5
5D
330
5A
100
AcDbEntity
  8
0
100
AcDbBlockEnd
  0
BLOCK
  5
61
330
5F
100
AcDbEntity
  8
0
100
AcDbBlockBegin
  2
block 9
 70
     0
 71
     0
 10
0.0
 20
0.0
 30
0.0
  3
block 9
  1

  0
SPLINE
  5
63
330
5F
100
AcDbEntity
  8
Layer 1
370
     0
100
AcDbSpline
210
0.0
220
0.0
230
1.0
 70
    24
 71
     3
 72
    11
 73
     7
 74
     0
 42
0.0000000001
 43
0.0000000001
 40
0.0
 40
0.0
 40
0.0
 40
0.0
 40
1.0
 40
1.0
 40
1.0
 40
2.0
 40
2.0
 40
2.0
 40
2.0
 10
58.88791725127863
 20
-191.6835167041094
 30
0.0
 10
57.80477851617547
 20
-191.6835167041094
 30
0.0
 10
56.72163978107232
 20
-191.6835167041094
 30
0.0
 10
55.63850104596916
 20
-191.6835167041094
 30
0.0
 10
54.55553456575391
 20
-191.6835167041094
 30
0.0
 10
53.47239583065075
 20
-191.6835167041094
 30
0.0
 10
52.3892570955476
 20
-191.6835167041094
 30
0.0
  0
ENDBLK
  5
62
330
5F
100
AcDbEntity
  8
0
100
AcDbBlockEnd
  0
BLOCK
  5
66
330
64
100
AcDbEntity
  8
0
100
AcDbBlockBegin
  2
block 10
 70
     0
 71
     0
 10
0.0
 20
0.0
 30
0.0
  3
block 10
  1

  0
SPLINE
  5
68
330
64
100
AcDbEntity
  8
Layer 1
370
     0
100
AcDbSpline
210
0.0
220
0.0
230
1.0
 70
    24
 71
     3
 72
     8
 73
     4
 74
     0
 42
0.0000000001
 43
0.0000000001
 40
0.0
 40
0.0
 40
0.0
 40
0.0
 40
1.0
 40
1.0
 40
1.0
 40
1.0
 10
52.3892570955476
 20
-191.6835167041094
 30
0.0
 10
52.3892570955476
 20
-189.5007027646649
 30
0.0
 10
52.3892570955476
 20
-187.3175443154445
 30
0.0
 10
52.3892570955476
 20
-185.134730376
 30
0.0
  0
ENDBLK
  5
67
330
64
100
AcDbEntity
  8
0
100
AcDbBlockEnd
  0
BLOCK
  5
6B
330
69
100
AcDbEntity
  8
0
100
AcDbBlockBegin
  2
block 11
 70
     0
 71
     0
 10
0.0
 20
0.0
 30
0.0
  3
block 11
  1

  0
SPLINE
  5
6D
330
69
100
AcDbEntity
  8
Layer 1
370
     0
100
AcDbSpline
210
0.0
220
0.0
230
1.0
 70
     8
 71
     3
 72
    11
 73
     7
 74
     0
 42
0.0000000001
 43
0.0000000001
 40
0.0
 40
0.0
 40
0.0
 40
0.0
 40
1.0
 40
1.0
 40
1.0
 40
2.0
 40
2.0
 40
2.0
 40
2.0
 10
52.3892570955476
 20
-185.134730376
 30
0.0
 10
52.3892570955476
 20
-185.1013129277478
 30
0.0
 10
52.3892570955476
 20
-185.0682399892713
 30
0.0
 10
52.3892570955476
 20
-185.0348225410191
 30
0.0
 10
52.35601190218327
 20
-185.0348225410191
 30
0.0
 10
52.32259445393104
 20
-185.0348225410191
 30
0.0
 10
52.28934926056671
 20
-185.0348225410191
 30
0.0
  0
ENDBLK
  5
6C
330
69
100
AcDbEntity
  8
0
100
AcDbBlockEnd
  0
BLOCK
  5
70
330
6E
100
AcDbEntity
  8
0
100
AcDbBlockBegin
  2
block 12
 70
     0
 71
     0
 10
0.0
 20
0.0
 30
0.0
  3
block 12
  1

  0
SPLINE
  5
72
330
6E
100
AcDbEntity
  8
Layer 1
370
     0
100
AcDbSpline
210
0.0
220
0.0
230
1.0
 70
    24
 71
     3
 72
     8
 73
     4
 74
     0
 42
0.0000000001
 43
0.0000000001
 40
0.0
 40
0.0
 40
0.0
 40
0.0
 40
1.0
 40
1.0
 40
1.0
 40
1.0
 10
52.28934926056671
 20
-185.0348225410191
 30
0.0
 10
50.10636306623429
 20
-185.0348225410191
 30
0.0
 10
47.92354912678976
 20
-185.0348225410191
 30
0.0
 10
45.74073518734524
 20
-185.0348225410191
 30
0.0
  0
ENDBLK
  5
71
330
6E
100
AcDbEntity
  8
0
100
AcDbBlockEnd
  0
BLOCK
  5
75
330
73
100
AcDbEntity
  8
0
100
AcDbBlockBegin
  2
block 13
 70
     0
 71
     0
 10
0.0
 20
0.0
 30
0.0
  3
block 13
  1

  0
SPLINE
  5
77
330
73
100
AcDbEntity
  8
Layer 1
370
     0
100
AcDbSpline
210
0.0
220
0.0
230
1.0
 70
    24
 71
     3
 72
    11
 73
     7
 74
     0
 42
0.0000000001
 43
0.0000000001
 40
0.0
 40
0.0
 40
0.0
 40
0.0
 40
1.0
 40
1.0
 40
1.0
 40
2.0
 40
2.0
 40
2.0
 40
2.0
 10
45.74073518734524
 20
-185.0348225410191
 30
0.0
 10
45.74073518734524
 20
-183.9516838059159
 30
0.0
 10
45.74073518734524
 20
-182.8685450708128
 30
0.0
 10
45.74073518734524
 20
-181.7854063357096
 30
0.0
 10
45.74073518734524
 20
-180.7022676006065
 30
0.0
 10
45.74073518734524
 20
-179.6194733752791
 30
0.0
 10
45.74073518734524
 20
-178.536334640176
 30
0.0
  0
ENDBLK
  5
76
330
73
100
AcDbEntity
  8
0
100
AcDbBlockEnd
  0
BLOCK
  5
7A
330
78
100
AcDbEntity
  8
0
100
AcDbBlockBegin
  2
block 14
 70
     0
 71
     0
 10
0.0
 20
0.0
 30
0.0
  3
block 14
  1

  0
SPLINE
  5
7C
330
78
100
AcDbEntity
  8
Layer 1
370
     0
100
AcDbSpline
210
0.0
220
0.0
230
1.0
 70
    24
 71
     3
 72
     8
 73
     4
 74
     0
 42
0.0000000001
 43
0.0000000001
 40
0.0
 40
0.0
 40
0.0
 40
0.0
 40
1.0
 40
1.0
 40
1.0
 40
1.0
 10
45.74073518734524
 20
-178.536334640176
 30
0.0
 10
47.92354912678976
 20
-178.536334640176
 30
0.0
 10
50.10636306623429
 20
-178.536334640176
 30
0.0
 10
52.28934926056671
 20
-178.536334640176
 30
0.0
  0
ENDBLK
  5
7B
330
78
100
AcDbEntity
  8
0
100
AcDbBlockEnd
  0
BLOCK
  5
7F
330
7D
100
AcDbEntity
  8
0
100
AcDbBlockBegin
  2
block 15
 70
     0
 71
     0
 10
0.0
 20
0.0
 30
0.0
  3
block 15
  1

  0
SPLINE
  5
81
330
7D
100
AcDbEntity
  8
Layer 1
370
     0
100
AcDbSpline
210
0.0
220
0.0
230
1.0
 70
     8
 71
     3
 72
    11
 73
     7
 74
     0
 42
0.0000000001
 43
0.0000000001
 40
0.0
 40
0.0
 40
0.0
 40
0.0
 40
1.0
 40
1.0
 40
1.0
 40
2.0
 40
2.0
 40
2.0
 40
2.0
 10
52.28934926056671
 20
-178.536334640176
 30
0.0
 10
52.32259445393104
 20
-178.536334640176
 30
0.0
 10
52.35601190218327
 20
-178.536334640176
 30
0.0
 10
52.3892570955476
 20
-178.536334640176
 30
0.0
 10
52.3892570955476
 20
-178.5029171919237
 30
0.0
 10
52.3892570955476
 20
-178.4694997436715
 30
0.0
 10
52.3892570955476
 20
-178.4360822954193
 30
0.0
  0
ENDBLK
  5
80
330
7D
100
AcDbEntity
  8
0
100
AcDbBlockEnd
  0
BLOCK
  5
84
330
82
100
AcDbEntity
  8
0
100
AcDbBlockBegin
  2
block 16
 70
     0
 71
     0
 10
0.0
 20
0.0
 30
0.0
  3
block 16
  1

  0
SPLINE
  5
86
330
82
100
AcDbEntity
  8
Layer 1
370
     0
100
AcDbSpline
210
0.0
220
0.0
230
1.0
 70
    24
 71
     3
 72
     8
 73
     4
 74
     0
 42
0.0000000001
 43
0.0000000001
 40
0.0
 40
0.0
 40
0.0
 40
0.0
 40
1.0
 40
1.0
 40
1.0
 40
1.0
 10
52.3892570955476
 20
-178.4360822954193
 30
0.0
 10
52.3892570955476
 20
-176.2532683559748
 30
0.0
 10
52.3892570955476
 20
-174.0704544165302
 30
0.0
 10
52.3892570955476
 20
-171.8876404770857
 30
0.0
  0
ENDBLK
  5
85
330
82
100
AcDbEntity
  8
0
100
AcDbBlockEnd
  0
BLOCK
  5
89
330
87
100
AcDbEntity
  8
0
100
AcDbBlockBegin
  2
block 17
 70
     0
 71
     0
 10
0.0
 20
0.0
 30
0.0
  3
block 17
  1

  0
SPLINE
  5
8B
330
87
100
AcDbEntity
  8
Layer 1
370
     0
100
AcDbSpline
210
0.0
220
0.0
230
1.0
 70
    24
 71
     3
 72
    11
 73
     7
 74
     0
 42
0.0000000001
 43
0.0000000001
 40
0.0
 40
0.0
 40
0.0
 40
0.0
 40
1.0
 40
1.0
 40
1.0
 40
2.0
 40
2.0
 40
2.0
 40
2.0
 10
52.3892570955476
 20
-171.8876404770857
 30
0.0
 10
53.47239583065075
 20
-171.8876404770857
 30
0.0
 10
54.55553456575391
 20
-171.8876404770857
 30
0.0
 10
55.63850104596916
 20
-171.8876404770857
 30
0.0
 10
56.72163978107232
 20
-171.8876404770857
 30
0.0
 10
57.80477851617547
 20
-171.8876404770857
 30
0.0
 10
58.88791725127863
 20
-171.8876404770857
 30
0.0
  0
ENDBLK
  5
8A
330
87
100
AcDbEntity
  8
0
100
AcDbBlockEnd
  0
BLOCK
  5
8E
330
8C
100
AcDbEntity
  8
0
100
AcDbBlockBegin
  2
block 18
 70
     0
 71
     0
 10
0.0
 20
0.0
 30
0.0
  3
block 18
  1

  0
SPLINE
  5
90
330
8C
100
AcDbEntity
  8
Layer 1
370
     0
100
AcDbSpline
210
0.0
220
0.0
230
1.0
 70
    24
 71
     3
 72
     8
 73
     4
 74
     0
 42
0.0000000001
 43
0.0000000001
 40
0.0
 40
0.0
 40
0.0
 40
0.0
 40
1.0
 40
1.0
 40
1.0
 40
1.0
 10
58.88791725127863
 20
-171.8876404770857
 30
0.0
 10
58.88791725127863
 20
-174.0704544165302
 30
0.0
 10
58.88791725127863
 20
-176.2532683559748
 30
0.0
 10
58.88791725127863
 20
-178.4360822954193
 30
0.0
  0
ENDBLK
  5
8F
330
8C
100
AcDbEntity
  8
0
100
AcDbBlockEnd
  0
BLOCK
  5
93
330
91
100
AcDbEntity
  8
0
100
AcDbBlockBegin
  2
block 19
 70
     0
 71
     0
 10
0.0
 20
0.0
 30
0.0
  3
block 19
  1

  0
SPLINE
  5
95
330
91
100
AcDbEntity
  8
Layer 1
370
     0
100
AcDbSpline
210
0.0
220
0.0
230
1.0
 70
     8
 71
     3
 72
    11
 73
     7
 74
     0
 42
0.0000000001
 43
0.0000000001
 40
0.0
 40
0.0
 40
0.0
 40
0.0
 40
1.0
 40
1.0
 40
1.0
 40
2.0
 40
2.0
 40
2.0
 40
2.0
 10
58.88791725127863
 20
-178.4360822954193
 30
0.0
 10
58.88791725127863
 20
-178.4694997436715
 30
0.0
 10
58.88791725127863
 20
-178.5029171919237
 30
0.0
 10
58.88791725127863
 20
-178.536334640176
 30
0.0
 10
58.92116244464296
 20
-178.536334640176
 30
0.0
 10
58.95457989289519
 20
-178.536334640176
 30
0.0
 10
58.98782508625952
 20
-178.536334640176
 30
0.0
  0
ENDBLK
  5
94
330
91
100
AcDbEntity
  8
0
100
AcDbBlockEnd
  0
BLOCK
  5
98
330
96
100
AcDbEntity
  8
0
100
AcDbBlockBegin
  2
block 20
 70
     0
 71
     0
 10
0.0
 20
0.0
 30
0.0
  3
block 20
  1

  0
SPLINE
  5
9A
330
96
100
AcDbEntity
  8
Layer 1
370
     0
100
AcDbSpline
210
0.0
220
0.0
230
1.0
 70
    24
 71
     3
 72
     8
 73
     4
 74
     0
 42
0.0000000001
 43
0.0000000001
 40
0.0
 40
0.0
 40
0.0
 40
0.0
 40
1.0
 40
1.0
 40
1.0
 40
1.0
 10
38.99213318927409
 20
-178.536334640176
 30
0.0
 10
41.17494712871861
 20
-178.536334640176
 30
0.0
 10
43.35793332305104
 20
-178.536334640176
 30
0.0
 10
45.54074726249556
 20
-178.536334640176
 30
0.0
  0
ENDBLK
  5
99
330
96
100
AcDbEntity
  8
0
100
AcDbBlockEnd
  0
BLOCK
  5
9D
330
9B
100
AcDbEntity
  8
0
100
AcDbBlockBegin
  2
block 21
 70
     0
 71
     0
 10
0.0
 20
0.0
 30
0.0
  3
block 21
  1

  0
SPLINE
  5
9F
330
9B
100
AcDbEntity
  8
Layer 1
370
     0
100
AcDbSpline
210
0.0
220
0.0
230
1.0
 70
    24
 71
     3
 72
    11
 73
     7
 74
     0
 42
0.0000000001
 43
0.0000000001
 40
0.0
 40
0.0
 40
0.0
 40
0.0
 40
1.0
 40
1.0
 40
1.0
 40
2.0
 40
2.0
 40
2.0
 40
2.0
 10
45.54074726249556
 20
-178.536334640176
 30
0.0
 10
45.54074726249556
 20
-179.6194733752791
 30
0.0
 10
45.54074726249556
 20
-180.7022676006065
 30
0.0
 10
45.54074726249556
 20
-181.7854063357096
 30
0.0
 10
45.54074726249556
 20
-182.8685450708128
 30
0.0
 10
45.54074726249556
 20
-183.9516838059159
 30
0.0
 10
45.54074726249556
 20
-185.0348225410191
 30
0.0
  0
ENDBLK
  5
9E
330
9B
100
AcDbEntity
  8
0
100
AcDbBlockEnd
  0
BLOCK
  5
A2
330
A0
100
AcDbEntity
  8
0
100
AcDbBlockBegin
  2
block 22
 70
     0
 71
     0
 10
0.0
 20
0.0
 30
0.0
  3
block 22
  1

  0
SPLINE
  5
A4
330
A0
100
AcDbEntity
  8
Layer 1
370
     0
100
AcDbSpline
210
0.0
220
0.0
230
1.0
 70
    24
 71
     3
 72
     8
 73
     4
 74
     0
 42
0.0000000001
 43
0.0000000001
 40
0.0
 40
0.0
 40
0.0
 40
0.0
 40
1.0
 40
1.0
 40
1.0
 40
1.0
 10
45.54074726249556
 20
-185.0348225410191
 30
0.0
 10
43.35793332305104
 20
-185.0348225410191
 30
0.0
 10
41.17494712871861
 20
-185.0348225410191
 30
0.0
 10
38.99213318927409
 20
-185.0348225410191
 30
0.0
  0
ENDBLK
  5
A3
330
A0
100
AcDbEntity
  8
0
100
AcDbBlockEnd
  0
BLOCK
  5
A7
330
A5
100
AcDbEntity
  8
0
100
AcDbBlockBegin
  2
block 23
 70
     0
 71
     0
 10
0.0
 20
0.0
 30
0.0
  3
block 23
  1

  0
SPLINE
  5
A9
330
A5
100
AcDbEntity
  8
Layer 1
370
     0
100
AcDbSpline
210
0.0
220
0.0
230
1.0
 70
     8
 71
     3
 72
    11
 73
     7
 74
     0
 42
0.0000000001
 43
0.0000000001
 40
0.0
 40
0.0
 40
0.0
 40
0.0
 40
1.0
 40
1.0
 40
1.0
 40
2.0
 40
2.0
 40
2.0
 40
2.0
 10
38.99213318927409
 20
-185.0348225410191
 30
0.0
 10
38.95871574102186
 20
-185.0348225410191
 30
0.0
 10
38.92547054765753
 20
-185.0348225410191
 30
0.0
 10
38.8920530994053
 20
-185.0348225410191
 30
0.0
 10
38.8920530994053
 20
-185.0682399892713
 30
0.0
 10
38.8920530994053
 20
-185.1013129277478
 30
0.0
 10
38.8920530994053
 20
-185.134730376
 30
0.0
  0
ENDBLK
  5
A8
330
A5
100
AcDbEntity
  8
0
100
AcDbBlockEnd
  0
BLOCK
  5
AC
330
AA
100
AcDbEntity
  8
0
100
AcDbBlockBegin
  2
block 24
 70
     0
 71
     0
 10
0.0
 20
0.0
 30
0.0
  3
block 24
  1

  0
SPLINE
  5
AE
330
AA
100
AcDbEntity
  8
Layer 1
370
     0
100
AcDbSpline
210
0.0
220
0.0
230
1.0
 70
    24
 71
     3
 72
     8
 73
     4
 74
     0
 42
0.0000000001
 43
0.0000000001
 40
0.0
 40
0.0
 40
0.0
 40
0.0
 40
1.0
 40
1.0
 40
1.0
 40
1.0
 10
38.8920530994053
 20
-185.134730376
 30
0.0
 10
38.8920530994053
 20
-187.3175443154445
 30
0.0
 10
38.8920530994053
 20
-189.5007027646649
 30
0.0
 10
38.8920530994053
 20
-191.6835167041094
 30
0.0
  0
ENDBLK
  5
AD
330
AA
100
AcDbEntity
  8
0
100
AcDbBlockEnd
  0
BLOCK
  5
B1
330
AF
100
AcDbEntity
  8
0
100
AcDbBlockBegin
  2
block 25
 70
     0
 71
     0
 10
0.0
 20
0.0
 30
0.0
  3
block 25
  1

  0
SPLINE
  5
B3
330
AF
100
AcDbEntity
  8
Layer 1
370
     0
100
AcDbSpline
210
0.0
220
0.0
230
1.0
 70
    24
 71
     3
 72
    11
 73
     7
 74
     0
 42
0.0000000001
 43
0.0000000001
 40
0.0
 40
0.0
 40
0.0
 40
0.0
 40
1.0
 40
1.0
 40
1.0
 40
2.0
 40
2.0
 40
2.0
 40
2.0
 10
38.8920530994053
 20
-191.6835167041094
 30
0.0
 10
37.80908661919004
 20
-191.6835167041094
 30
0.0
 10
36.72594788408689
 20
-191.6835167041094
 30
0.0
 10
35.64280914898373
 20
-191.6835167041094
 30
0.0
 10
34.55967041388057
 20
-191.6835167041094
 30
0.0
 10
33.47670393366532
 20
-191.6835167041094
 30
0.0
 10
32.39356519856216
 20
-191.6835167041094
 30
0.0
  0
ENDBLK
  5
B2
330
AF
100
AcDbEntity
  8
0
100
AcDbBlockEnd
  0
BLOCK
  5
B6
330
B4
100
AcDbEntity
  8
0
100
AcDbBlockBegin
  2
block 26
 70
     0
 71
     0
 10
0.0
 20
0.0
 30
0.0
  3
block 26
  1

  0
SPLINE
  5
B8
330
B4
100
AcDbEntity
  8
Layer 1
370
     0
100
AcDbSpline
210
0.0
220
0.0
230
1.0
 70
    24
 71
     3
 72
     8
 73
     4
 74
     0
 42
0.0000000001
 43
0.0000000001
 40
0.0
 40
0.0
 40
0.0
 40
0.0
 40
1.0
 40
1.0
 40
1.0
 40
1.0
 10
32.39356519856216
 20
-191.6835167041094
 30
0.0
 10
32.39356519856216
 20
-189.5007027646649
 30
0.0
 10
32.39356519856216
 20
-187.3175443154445
 30
0.0
 10
32.39356519856216
 20
-185.134730376
 30
0.0
  0
ENDBLK
  5
B7
330
B4
100
AcDbEntity
  8
0
100
AcDbBlockEnd
  0
BLOCK
  5
BB
330
B9
100
AcDbEntity
  8
0
100
AcDbBlockBegin
  2
block 27
 70
     0
 71
     0
 10
0.0
 20
0.0
 30
0.0
  3
block 27
  1

  0
SPLINE
  5
BD
330
B9
100
AcDbEntity
  8
Layer 1
370
     0
100
AcDbSpline
210
0.0
220
0.0
230
1.0
 70
     8
 71
     3
 72
    11
 73
     7
 74
     0
 42
0.0000000001
 43
0.0000000001
 40
0.0
 40
0.0
 40
0.0
 40
0.0
 40
1.0
 40
1.0
 40
1.0
 40
2.0
 40
2.0
 40
2.0
 40
2.0
 10
32.39356519856216
 20
-185.134730376
 30
0.0
 10
32.39356519856216
 20
-185.1013129277478
 30
0.0
 10
32.39356519856216
 20
-185.0682399892713
 30
0.0
 10
32.39356519856216
 20
-185.0348225410191
 30
0.0
 10
32.36014775030993
 20
-185.0348225410191
 30
0.0
 10
32.3269025569456
 20
-185.0348225410191
 30
0.0
 10
32.29348510869337
 20
-185.0348225410191
 30
0.0
  0
ENDBLK
  5
BC
330
B9
100
AcDbEntity
  8
0
100
AcDbBlockEnd
  0
BLOCK
  5
C0
330
BE
100
AcDbEntity
  8
0
100
AcDbBlockBegin
  2
block 28
 70
     0
 71
     0
 10
0.0
 20
0.0
 30
0.0
  3
block 28
  1

  0
SPLINE
  5
C2
330
BE
100
AcDbEntity
  8
Layer 1
370
     0
100
AcDbSpline
210
0.0
220
0.0
230
1.0
 70
    24
 71
     3
 72
     8
 73
     4
 74
     0
 42
0.0000000001
 43
0.0000000001
 40
0.0
 40
0.0
 40
0.0
 40
0.0
 40
1.0
 40
1.0
 40
1.0
 40
1.0
 10
32.29348510869337
 20
-185.0348225410191
 30
0.0
 10
30.11067116924885
 20
-185.0348225410191
 30
0.0
 10
27.92785722980432
 20
-185.0348225410191
 30
0.0
 10
25.7448710354719
 20
-185.0348225410191
 30
0.0
  0
ENDBLK
  5
C1
330
BE
100
AcDbEntity
  8
0
100
AcDbBlockEnd
  0
BLOCK
  5
C5
330
C3
100
AcDbEntity
  8
0
100
AcDbBlockBegin
  2
block 29
 70
     0
 71
     0
 10
0.0
 20
0.0
 30
0.0
  3
block 29
  1

  0
SPLINE
  5
C7
330
C3
100
AcDbEntity
  8
Layer 1
370
     0
100
AcDbSpline
210
0.0
220
0.0
230
1.0
 70
    24
 71
     3
 72
    11
 73
     7
 74
     0
 42
0.0000000001
 43
0.0000000001
 40
0.0
 40
0.0
 40
0.0
 40
0.0
 40
1.0
 40
1.0
 40
1.0
 40
2.0
 40
2.0
 40
2.0
 40
2.0
 10
25.7448710354719
 20
-185.0348225410191
 30
0.0
 10
25.7448710354719
 20
-183.9516838059159
 30
0.0
 10
25.7448710354719
 20
-182.8685450708128
 30
0.0
 10
25.7448710354719
 20
-181.7854063357096
 30
0.0
 10
25.7448710354719
 20
-180.7022676006065
 30
0.0
 10
25.7448710354719
 20
-179.6194733752791
 30
0.0
 10
25.7448710354719
 20
-178.536334640176
 30
0.0
  0
ENDBLK
  5
C6
330
C3
100
AcDbEntity
  8
0
100
AcDbBlockEnd
  0
BLOCK
  5
CA
330
C8
100
AcDbEntity
  8
0
100
AcDbBlockBegin
  2
block 30
 70
     0
 71
     0
 10
0.0
 20
0.0
 30
0.0
  3
block 30
  1

  0
SPLINE
  5
CC
330
C8
100
AcDbEntity
  8
Layer 1
370
     0
100
AcDbSpline
210
0.0
220
0.0
230
1.0
 70
    24
 71
     3
 72
     8
 73
     4
 74
     0
 42
0.0000000001
 43
0.0000000001
 40
0.0
 40
0.0
 40
0.0
 40
0.0
 40
1.0
 40
1.0
 40
1.0
 40
1.0
 10
25.7448710354719
 20
-178.536334640176
 30
0.0
 10
27.92785722980432
 20
-178.536334640176
 30
0.0
 10
30.11067116924885
 20
-178.536334640176
 30
0.0
 10
32.29348510869337
 20
-178.536334640176
 30
0.0
  0
ENDBLK
  5
CB
330
C8
100
AcDbEntity
  8
0
100
AcDbBlockEnd
  0
BLOCK
  5
CF
330
CD
100
AcDbEntity
  8
0
100
AcDbBlockBegin
  2
block 31
 70
     0
 71
     0
 10
0.0
 20
0.0
 30
0.0
  3
block 31
  1

  0
SPLINE
  5
D1
330
CD
100
AcDbEntity
  8
Layer 1
370
     0
100
AcDbSpline
210
0.0
220
0.0
230
1.0
 70
     8
 71
     3
 72
    11
 73
     7
 74
     0
 42
0.0000000001
 43
0.0000000001
 40
0.0
 40
0.0
 40
0.0
 40
0.0
 40
1.0
 40
1.0
 40
1.0
 40
2.0
 40
2.0
 40
2.0
 40
2.0
 10
32.29348510869337
 20
-178.536334640176
 30
0.0
 10
32.3269025569456
 20
-178.536334640176
 30
0.0
 10
32.36014775030993
 20
-178.536334640176
 30
0.0
 10
32.39356519856216
 20
-178.536334640176
 30
0.0
 10
32.39356519856216
 20
-178.5029171919237
 30
0.0
 10
32.39356519856216
 20
-178.4694997436715
 30
0.0
 10
32.39356519856216
 20
-178.4360822954193
 30
0.0
  0
ENDBLK
  5
D0
330
CD
100
AcDbEntity
  8
0
100
AcDbBlockEnd
  0
BLOCK
  5
D4
330
D2
100
AcDbEntity
  8
0
100
AcDbBlockBegin
  2
block 32
 70
     0
 71
     0
 10
0.0
 20
0.0
 30
0.0
  3
block 32
  1

  0
SPLINE
  5
D6
330
D2
100
AcDbEntity
  8
Layer 1
370
     0
100
AcDbSpline
210
0.0
220
0.0
230
1.0
 70
    24
 71
     3
 72
     8
 73
     4
 74
     0
 42
0.0000000001
 43
0.0000000001
 40
0.0
 40
0.0
 40
0.0
 40
0.0
 40
1.0
 40
1.0
 40
1.0
 40
1.0
 10
32.39356519856216
 20
-178.4360822954193
 30
0.0
 10
32.39356519856216
 20
-176.2532683559748
 30
0.0
 10
32.39356519856216
 20
-174.0704544165302
 30
0.0
 10
32.39356519856216
 20
-171.8876404770857
 30
0.0
  0
ENDBLK
  5
D5
330
D2
100
AcDbEntity
  8
0
100
AcDbBlockEnd
  0
BLOCK
  5
D9
330
D7
100
AcDbEntity
  8
0
100
AcDbBlockBegin
  2
block 33
 70
     0
 71
     0
 10
0.0
 20
0.0
 30
0.0
  3
block 33
  1

  0
SPLINE
  5
DB
330
D7
100
AcDbEntity
  8
Layer 1
370
     0
100
AcDbSpline
210
0.0
220
0.0
230
1.0
 70
    24
 71
     3
 72
    11
 73
     7
 74
     0
 42
0.0000000001
 43
0.0000000001
 40
0.0
 40
0.0
 40
0.0
 40
0.0
 40
1.0
 40
1.0
 40
1.0
 40
2.0
 40
2.0
 40
2.0
 40
2.0
 10
32.39356519856216
 20
-171.8876404770857
 30
0.0
 10
33.47670393366532
 20
-171.8876404770857
 30
0.0
 10
34.55967041388057
 20
-171.8876404770857
 30
0.0
 10
35.64280914898373
 20
-171.8876404770857
 30
0.0
 10
36.72594788408689
 20
-171.8876404770857
 30
0.0
 10
37.80908661919004
 20
-171.8876404770857
 30
0.0
 10
38.8920530994053
 20
-171.8876404770857
 30
0.0
  0
ENDBLK
  5
DA
330
D7
100
AcDbEntity
  8
0
100
AcDbBlockEnd
  0
BLOCK
  5
DE
330
DC
100
AcDbEntity
  8
0
100
AcDbBlockBegin
  2
block 34
 70
     0
 71
     0
 10
0.0
 20
0.0
 30
0.0
  3
block 34
  1

  0
SPLINE
  5
E0
330
DC
100
AcDbEntity
  8
Layer 1
370
     0
100
AcDbSpline
210
0.0
220
0.0
230
1.0
 70
    24
 71
     3
 72
     8
 73
     4
 74
     0
 42
0.0000000001
 43
0.0000000001
 40
0.0
 40
0.0
 40
0.0
 40
0.0
 40
1.0
 40
1.0
 40
1.0
 40
1.0
 10
38.8920530994053
 20
-171.8876404770857
 30
0.0
 10
38.8920530994053
 20
-174.0704544165302
 30
0.0
 10
38.8920530994053
 20
-176.2532683559748
 30
0.0
 10
38.8920530994053
 20
-178.4360822954193
 30
0.0
  0
ENDBLK
  5
DF
330
DC
100
AcDbEntity
  8
0
100
AcDbBlockEnd
  0
BLOCK
  5
E3
330
E1
100
AcDbEntity
  8
0
100
AcDbBlockBegin
  2
block 35
 70
     0
 71
     0
 10
0.0
 20
0.0
 30
0.0
  3
block 35
  1

  0
SPLINE
  5
E5
330
E1
100
AcDbEntity
  8
Layer 1
370
     0
100
AcDbSpline
210
0.0
220
0.0
230
1.0
 70
     8
 71
     3
 72
    11
 73
     7
 74
     0
 42
0.0000000001
 43
0.0000000001
 40
0.0
 40
0.0
 40
0.0
 40
0.0
 40
1.0
 40
1.0
 40
1.0
 40
2.0
 40
2.0
 40
2.0
 40
2.0
 10
38.8920530994053
 20
-178.4360822954193
 30
0.0
 10
38.8920530994053
 20
-178.4694997436715
 30
0.0
 10
38.8920530994053
 20
-178.5029171919237
 30
0.0
 10
38.8920530994053
 20
-178.536334640176
 30
0.0
 10
38.92547054765753
 20
-178.536334640176
 30
0.0
 10
38.95871574102186
 20
-178.536334640176
 30
0.0
 10
38.99213318927409
 20
-178.536334640176
 30
0.0
  0
ENDBLK
  5
E4
330
E1
100
AcDbEntity
  8
0
100
AcDbBlockEnd
  0
BLOCK
  5
E8
330
E6
100
AcDbEntity
  8
0
100
AcDbBlockBegin
  2
block 36
 70
     0
 71
     0
 10
0.0
 20
0.0
 30
0.0
  3
block 36
  1

  0
SPLINE
  5
EA
330
E6
100
AcDbEntity
  8
Layer 1
370
     0
100
AcDbSpline
210
0.0
220
0.0
230
1.0
 70
    24
 71
     3
 72
     8
 73
     4
 74
     0
 42
0.0000000001
 43
0.0000000001
 40
0.0
 40
0.0
 40
0.0
 40
0.0
 40
1.0
 40
1.0
 40
1.0
 40
1.0
 10
78.98368923813285
 20
-178.536334640176
 30
0.0
 10
81.16650317757738
 20
-178.536334640176
 30
0.0
 10
83.34931711702191
 20
-178.536334640176
 30
0.0
 10
85.53230331135433
 20
-178.536334640176
 30
0.0
  0
ENDBLK
  5
E9
330
E6
100
AcDbEntity
  8
0
100
AcDbBlockEnd
  0
BLOCK
  5
ED
330
EB
100
AcDbEntity
  8
0
100
AcDbBlockBegin
  2
block 37
 70
     0
 71
     0
 10
0.0
 20
0.0
 30
0.0
  3
block 37
  1

  0
SPLINE
  5
EF
330
EB
100
AcDbEntity
  8
Layer 1
370
     0
100
AcDbSpline
210
0.0
220
0.0
230
1.0
 70
    24
 71
     3
 72
    11
 73
     7
 74
     0
 42
0.0000000001
 43
0.0000000001
 40
0.0
 40
0.0
 40
0.0
 40
0.0
 40
1.0
 40
1.0
 40
1.0
 40
2.0
 40
2.0
 40
2.0
 40
2.0
 10
85.53230331135433
 20
-178.536334640176
 30
0.0
 10
85.53230331135433
 20
-179.6194733752791
 30
0.0
 10
85.53230331135433
 20
-180.7022676006065
 30
0.0
 10
85.53230331135433
 20
-181.7854063357096
 30
0.0
 10
85.53230331135433
 20
-182.8685450708128
 30
0.0
 10
85.53230331135433
 20
-183.9516838059159
 30
0.0
 10
85.53230331135433
 20
-185.0348225410191
 30
0.0
  0
ENDBLK
  5
EE
330
EB
100
AcDbEntity
  8
0
100
AcDbBlockEnd
  0
BLOCK
  5
F2
330
F0
100
AcDbEntity
  8
0
100
AcDbBlockBegin
  2
block 38
 70
     0
 71
     0
 10
0.0
 20
0.0
 30
0.0
  3
block 38
  1

  0
SPLINE
  5
F4
330
F0
100
AcDbEntity
  8
Layer 1
370
     0
100
AcDbSpline
210
0.0
220
0.0
230
1.0
 70
    24
 71
     3
 72
     8
 73
     4
 74
     0
 42
0.0000000001
 43
0.0000000001
 40
0.0
 40
0.0
 40
0.0
 40
0.0
 40
1.0
 40
1.0
 40
1.0
 40
1.0
 10
85.53230331135433
 20
-185.0348225410191
 30
0.0
 10
83.34931711702191
 20
-185.0348225410191
 30
0.0
 10
81.16650317757738
 20
-185.0348225410191
 30
0.0
 10
78.98368923813285
 20
-185.0348225410191
 30
0.0
  0
ENDBLK
  5
F3
330
F0
100
AcDbEntity
  8
0
100
AcDbBlockEnd
  0
BLOCK
  5
F7
330
F5
100
AcDbEntity
  8
0
100
AcDbBlockBegin
  2
block 39
 70
     0
 71
     0
 10
0.0
 20
0.0
 30
0.0
  3
block 39
  1

  0
SPLINE
  5
F9
330
F5
100
AcDbEntity
  8
Layer 1
370
     0
100
AcDbSpline
210
0.0
220
0.0
230
1.0
 70
     8
 71
     3
 72
    11
 73
     7
 74
     0
 42
0.0000000001
 43
0.0000000001
 40
0.0
 40
0.0
 40
0.0
 40
0.0
 40
1.0
 40
1.0
 40
1.0
 40
2.0
 40
2.0
 40
2.0
 40
2.0
 10
78.98368923813285
 20
-185.0348225410191
 30
0.0
 10
78.95027178988063
 20
-185.0348225410191
 30
0.0
 10
78.9170265965163
 20
-185.0348225410191
 30
0.0
 10
78.88360914826407
 20
-185.0348225410191
 30
0.0
 10
78.88360914826407
 20
-185.0682399892713
 30
0.0
 10
78.88360914826407
 20
-185.1013129277478
 30
0.0
 10
78.88360914826407
 20
-185.134730376
 30
0.0
  0
ENDBLK
  5
F8
330
F5
100
AcDbEntity
  8
0
100
AcDbBlockEnd
  0
BLOCK
  5
FC
330
FA
100
AcDbEntity
  8
0
100
AcDbBlockBegin
  2
block 40
 70
     0
 71
     0
 10
0.0
 20
0.0
 30
0.0
  3
block 40
  1

  0
SPLINE
  5
FE
330
FA
100
AcDbEntity
  8
Layer 1
370
     0
100
AcDbSpline
210
0.0
220
0.0
230
1.0
 70
    24
 71
     3
 72
     8
 73
     4
 74
     0
 42
0.0000000001
 43
0.0000000001
 40
0.0
 40
0.0
 40
0.0
 40
0.0
 40
1.0
 40
1.0
 40
1.0
 40
1.0
 10
78.88360914826407
 20
-185.134730376
 30
0.0
 10
78.88360914826407
 20
-187.3175443154445
 30
0.0
 10
78.88360914826407
 20
-189.5007027646649
 30
0.0
 10
78.88360914826407
 20
-191.6835167041094
 30
0.0
  0
ENDBLK
  5
FD
330
FA
100
AcDbEntity
  8
0
100
AcDbBlockEnd
  0
BLOCK
  5
101
330
FF
100
AcDbEntity
  8
0
100
AcDbBlockBegin
  2
block 41
 70
     0
 71
     0
 10
0.0
 20
0.0
 30
0.0
  3
block 41
  1

  0
SPLINE
  5
103
330
FF
100
AcDbEntity
  8
Layer 1
370
     0
100
AcDbSpline
210
0.0
220
0.0
230
1.0
 70
    24
 71
     3
 72
    11
 73
     7
 74
     0
 42
0.0000000001
 43
0.0000000001
 40
0.0
 40
0.0
 40
0.0
 40
0.0
 40
1.0
 40
1.0
 40
1.0
 40
2.0
 40
2.0
 40
2.0
 40
2.0
 10
78.88360914826407
 20
-191.6835167041094
 30
0.0
 10
77.80047041316091
 20
-191.6835167041094
 30
0.0
 10
76.71750393294566
 20
-191.6835167041094
 30
0.0
 10
75.6343651978425
 20
-191.6835167041094
 30
0.0
 10
74.55122646273935
 20
-191.6835167041094
 30
0.0
 10
73.46808772763619
 20
-191.6835167041094
 30
0.0
 10
72.38494899253304
 20
-191.6835167041094
 30
0.0
  0
ENDBLK
  5
102
330
FF
100
AcDbEntity
  8
0
100
AcDbBlockEnd
  0
BLOCK
  5
106
330
104
100
AcDbEntity
  8
0
100
AcDbBlockBegin
  2
block 42
 70
     0
 71
     0
 10
0.0
 20
0.0
 30
0.0
  3
block 42
  1

  0
SPLINE
  5
108
330
104
100
AcDbEntity
  8
Layer 1
370
     0
100
AcDbSpline
210
0.0
220
0.0
230
1.0
 70
    24
 71
     3
 72
     8
 73
     4
 74
     0
 42
0.0000000001
 43
0.0000000001
 40
0.0
 40
0.0
 40
0.0
 40
0.0
 40
1.0
 40
1.0
 40
1.0
 40
1.0
 10
72.38494899253304
 20
-191.6835167041094
 30
0.0
 10
72.38494899253304
 20
-189.5007027646649
 30
0.0
 10
72.38494899253304
 20
-187.3175443154445
 30
0.0
 10
72.38494899253304
 20
-185.134730376
 30
0.0
  0
ENDBLK
  5
107
330
104
100
AcDbEntity
  8
0
100
AcDbBlockEnd
  0
BLOCK
  5
10B
330
109
100
AcDbEntity
  8
0
100
AcDbBlockBegin
  2
block 43
 70
     0
 71
     0
 10
0.0
 20
0.0
 30
0.0
  3
block 43
  1

  0
SPLINE
  5
10D
330
109
100
AcDbEntity
  8
Layer 1
370
     0
100
AcDbSpline
210
0.0
220
0.0
230
1.0
 70
     8
 71
     3
 72
    11
 73
     7
 74
     0
 42
0.0000000001
 43
0.0000000001
 40
0.0
 40
0.0
 40
0.0
 40
0.0
 40
1.0
 40
1.0
 40
1.0
 40
2.0
 40
2.0
 40
2.0
 40
2.0
 10
72.38494899253304
 20
-185.134730376
 30
0.0
 10
72.38494899253304
 20
-185.1013129277478
 30
0.0
 10
72.38494899253304
 20
-185.0682399892713
 30
0.0
 10
72.38494899253304
 20
-185.0348225410191
 30
0.0
 10
72.3517037991687
 20
-185.0348225410191
 30
0.0
 10
72.31845860580438
 20
-185.0348225410191
 30
0.0
 10
72.28504115755214
 20
-185.0348225410191
 30
0.0
  0
ENDBLK
  5
10C
330
109
100
AcDbEntity
  8
0
100
AcDbBlockEnd
  0
BLOCK
  5
110
330
10E
100
AcDbEntity
  8
0
100
AcDbBlockBegin
  2
block 44
 70
     0
 71
     0
 10
0.0
 20
0.0
 30
0.0
  3
block 44
  1

  0
SPLINE
  5
112
330
10E
100
AcDbEntity
  8
Layer 1
370
     0
100
AcDbSpline
210
0.0
220
0.0
230
1.0
 70
    24
 71
     3
 72
     8
 73
     4
 74
     0
 42
0.0000000001
 43
0.0000000001
 40
0.0
 40
0.0
 40
0.0
 40
0.0
 40
1.0
 40
1.0
 40
1.0
 40
1.0
 10
72.28504115755214
 20
-185.0348225410191
 30
0.0
 10
70.10222721810761
 20
-185.0348225410191
 30
0.0
 10
67.9192410237752
 20
-185.0348225410191
 30
0.0
 10
65.73642708433067
 20
-185.0348225410191
 30
0.0
  0
ENDBLK
  5
111
330
10E
100
AcDbEntity
  8
0
100
AcDbBlockEnd
  0
BLOCK
  5
115
330
113
100
AcDbEntity
  8
0
100
AcDbBlockBegin
  2
block 45
 70
     0
 71
     0
 10
0.0
 20
0.0
 30
0.0
  3
block 45
  1

  0
SPLINE
  5
117
330
113
100
AcDbEntity
  8
Layer 1
370
     0
100
AcDbSpline
210
0.0
220
0.0
230
1.0
 70
    24
 71
     3
 72
    11
 73
     7
 74
     0
 42
0.0000000001
 43
0.0000000001
 40
0.0
 40
0.0
 40
0.0
 40
0.0
 40
1.0
 40
1.0
 40
1.0
 40
2.0
 40
2.0
 40
2.0
 40
2.0
 10
65.73642708433067
 20
-185.0348225410191
 30
0.0
 10
65.73642708433067
 20
-183.9516838059159
 30
0.0
 10
65.73642708433067
 20
-182.8685450708128
 30
0.0
 10
65.73642708433067
 20
-181.7854063357096
 30
0.0
 10
65.73642708433067
 20
-180.7022676006065
 30
0.0
 10
65.73642708433067
 20
-179.6194733752791
 30
0.0
 10
65.73642708433067
 20
-178.536334640176
 30
0.0
  0
ENDBLK
  5
116
330
113
100
AcDbEntity
  8
0
100
AcDbBlockEnd
  0
BLOCK
  5
11A
330
118
100
AcDbEntity
  8
0
100
AcDbBlockBegin
  2
block 46
 70
     0
 71
     0
 10
0.0
 20
0.0
 30
0.0
  3
block 46
  1

  0
SPLINE
  5
11C
330
118
100
AcDbEntity
  8
Layer 1
370
     0
100
AcDbSpline
210
0.0
220
0.0
230
1.0
 70
    24
 71
     3
 72
     8
 73
     4
 74
     0
 42
0.0000000001
 43
0.0000000001
 40
0.0
 40
0.0
 40
0.0
 40
0.0
 40
1.0
 40
1.0
 40
1.0
 40
1.0
 10
65.73642708433067
 20
-178.536334640176
 30
0.0
 10
67.9192410237752
 20
-178.536334640176
 30
0.0
 10
70.10222721810761
 20
-178.536334640176
 30
0.0
 10
72.28504115755214
 20
-178.536334640176
 30
0.0
  0
ENDBLK
  5
11B
330
118
100
AcDbEntity
  8
0
100
AcDbBlockEnd
  0
BLOCK
  5
11F
330
11D
100
AcDbEntity
  8
0
100
AcDbBlockBegin
  2
block 47
 70
     0
 71
     0
 10
0.0
 20
0.0
 30
0.0
  3
block 47
  1

  0
SPLINE
  5
121
330
11D
100
AcDbEntity
  8
Layer 1
370
     0
100
AcDbSpline
210
0.0
220
0.0
230
1.0
 70
     8
 71
     3
 72
    11
 73
     7
 74
     0
 42
0.0000000001
 43
0.0000000001
 40
0.0
 40
0.0
 40
0.0
 40
0.0
 40
1.0
 40
1.0
 40
1.0
 40
2.0
 40
2.0
 40
2.0
 40
2.0
 10
72.28504115755214
 20
-178.536334640176
 30
0.0
 10
72.31845860580438
 20
-178.536334640176
 30
0.0
 10
72.3517037991687
 20
-178.536334640176
 30
0.0
 10
72.38494899253304
 20
-178.536334640176
 30
0.0
 10
72.38494899253304
 20
-178.5029171919237
 30
0.0
 10
72.38494899253304
 20
-178.4694997436715
 30
0.0
 10
72.38494899253304
 20
-178.4360822954193
 30
0.0
  0
ENDBLK
  5
120
330
11D
100
AcDbEntity
  8
0
100
AcDbBlockEnd
  0
BLOCK
  5
124
330
122
100
AcDbEntity
  8
0
100
AcDbBlockBegin
  2
block 48
 70
     0
 71
     0
 10
0.0
 20
0.0
 30
0.0
  3
block 48
  1

  0
SPLINE
  5
126
330
122
100
AcDbEntity
  8
Layer 1
370
     0
100
AcDbSpline
210
0.0
220
0.0
230
1.0
 70
    24
 71
     3
 72
     8
 73
     4
 74
     0
 42
0.0000000001
 43
0.0000000001
 40
0.0
 40
0.0
 40
0.0
 40
0.0
 40
1.0
 40
1.0
 40
1.0
 40
1.0
 10
72.38494899253304
 20
-178.4360822954193
 30
0.0
 10
72.38494899253304
 20
-176.2532683559748
 30
0.0
 10
72.38494899253304
 20
-174.0704544165302
 30
0.0
 10
72.38494899253304
 20
-171.8876404770857
 30
0.0
  0
ENDBLK
  5
125
330
122
100
AcDbEntity
  8
0
100
AcDbBlockEnd
  0
BLOCK
  5
129
330
127
100
AcDbEntity
  8
0
100
AcDbBlockBegin
  2
block 49
 70
     0
 71
     0
 10
0.0
 20
0.0
 30
0.0
  3
block 49
  1

  0
SPLINE
  5
12B
330
127
100
AcDbEntity
  8
Layer 1
370
     0
100
AcDbSpline
210
0.0
220
0.0
230
1.0
 70
    24
 71
     3
 72
    11
 73
     7
 74
     0
 42
0.0000000001
 43
0.0000000001
 40
0.0
 40
0.0
 40
0.0
 40
0.0
 40
1.0
 40
1.0
 40
1.0
 40
2.0
 40
2.0
 40
2.0
 40
2.0
 10
72.38494899253304
 20
-171.8876404770857
 30
0.0
 10
73.46808772763619
 20
-171.8876404770857
 30
0.0
 10
74.55122646273935
 20
-171.8876404770857
 30
0.0
 10
75.6343651978425
 20
-171.8876404770857
 30
0.0
 10
76.71750393294566
 20
-171.8876404770857
 30
0.0
 10
77.80047041316091
 20
-171.8876404770857
 30
0.0
 10
78.88360914826407
 20
-171.8876404770857
 30
0.0
  0
ENDBLK
  5
12A
330
127
100
AcDbEntity
  8
0
100
AcDbBlockEnd
  0
BLOCK
  5
12E
330
12C
100
AcDbEntity
  8
0
100
AcDbBlockBegin
  2
block 50
 70
     0
 71
     0
 10
0.0
 20
0.0
 30
0.0
  3
block 50
  1

  0
SPLINE
  5
130
330
12C
100
AcDbEntity
  8
Layer 1
370
     0
100
AcDbSpline
210
0.0
220
0.0
230
1.0
 70
    24
 71
     3
 72
     8
 73
     4
 74
     0
 42
0.0000000001
 43
0.0000000001
 40
0.0
 40
0.0
 40
0.0
 40
0.0
 40
1.0
 40
1.0
 40
1.0
 40
1.0
 10
78.88360914826407
 20
-171.8876404770857
 30
0.0
 10
78.88360914826407
 20
-174.0704544165302
 30
0.0
 10
78.88360914826407
 20
-176.2532683559748
 30
0.0
 10
78.88360914826407
 20
-178.4360822954193
 30
0.0
  0
ENDBLK
  5
12F
330
12C
100
AcDbEntity
  8
0
100
AcDbBlockEnd
  0
BLOCK
  5
133
330
131
100
AcDbEntity
  8
0
100
AcDbBlockBegin
  2
block 51
 70
     0
 71
     0
 10
0.0
 20
0.0
 30
0.0
  3
block 51
  1

  0
SPLINE
  5
135
330
131
100
AcDbEntity
  8
Layer 1
370
     0
100
AcDbSpline
210
0.0
220
0.0
230
1.0
 70
     8
 71
     3
 72
    11
 73
     7
 74
     0
 42
0.0000000001
 43
0.0000000001
 40
0.0
 40
0.0
 40
0.0
 40
0.0
 40
1.0
 40
1.0
 40
1.0
 40
2.0
 40
2.0
 40
2.0
 40
2.0
 10
78.88360914826407
 20
-178.4360822954193
 30
0.0
 10
78.88360914826407
 20
-178.4694997436715
 30
0.0
 10
78.88360914826407
 20
-178.5029171919237
 30
0.0
 10
78.88360914826407
 20
-178.536334640176
 30
0.0
 10
78.9170265965163
 20
-178.536334640176
 30
0.0
 10
78.95027178988063
 20
-178.536334640176
 30
0.0
 10
78.98368923813285
 20
-178.536334640176
 30
0.0
  0
ENDBLK
  5
134
330
131
100
AcDbEntity
  8
0
100
AcDbBlockEnd
  0
BLOCK
  5
138
330
136
100
AcDbEntity
  8
0
100
AcDbBlockBegin
  2
block 52
 70
     0
 71
     0
 10
0.0
 20
0.0
 30
0.0
  3
block 52
  1

  0
SPLINE
  5
13A
330
136
100
AcDbEntity
  8
Layer 1
370
     0
100
AcDbSpline
210
0.0
220
0.0
230
1.0
 70
    11
 71
     3
 72
    17
 73
    13
 74
     0
 42
0.0000000001
 43
0.0000000001
 40
0.0
 40
0.0
 40
0.0
 40
0.0
 40
1.0
 40
1.0
 40
1.0
 40
2.0
 40
2.0
 40
2.0
 40
3.0
 40
3.0
 40
3.0
 40
4.0
 40
4.0
 40
4.0
 40
4.0
 10
77.03410841690234
 20
-216.4193186062743
 30
0.0
 10
77.03410841690234
 20
-215.4860416236425
 30
0.0
 10
76.56746992558642
 20
-215.0195753872144
 30
0.0
 10
75.6343651978425
 20
-215.0195753872144
 30
0.0
 10
74.70126047009857
 20
-215.0195753872144
 30
0.0
 10
74.23462197878267
 20
-215.4860416236425
 30
0.0
 10
74.23462197878267
 20
-216.4193186062743
 30
0.0
 10
74.23462197878267
 20
-217.3522510791303
 30
0.0
 10
74.70126047009857
 20
-217.8187173155583
 30
0.0
 10
75.6343651978425
 20
-217.8187173155583
 30
0.0
 10
76.56746992558642
 20
-217.8187173155583
 30
0.0
 10
77.03410841690234
 20
-217.3522510791303
 30
0.0
 10
77.03410841690234
 20
-216.4193186062743
 30
0.0
  0
ENDBLK
  5
139
330
136
100
AcDbEntity
  8
0
100
AcDbBlockEnd
  0
BLOCK
  5
13D
330
13B
100
AcDbEntity
  8
0
100
AcDbBlockBegin
  2
block 53
 70
     0
 71
     0
 10
0.0
 20
0.0
 30
0.0
  3
block 53
  1

  0
SPLINE
  5
13F
330
13B
100
AcDbEntity
  8
Layer 1
370
     0
100
AcDbSpline
210
0.0
220
0.0
230
1.0
 70
    11
 71
     3
 72
    17
 73
    13
 74
     0
 42
0.0000000001
 43
0.0000000001
 40
0.0
 40
0.0
 40
0.0
 40
0.0
 40
1.0
 40
1.0
 40
1.0
 40
2.0
 40
2.0
 40
2.0
 40
3.0
 40
3.0
 40
3.0
 40
4.0
 40
4.0
 40
4.0
 40
4.0
 10
37.24254029289324
 20
-216.4193186062743
 30
0.0
 10
37.24254029289324
 20
-215.3527163404094
 30
0.0
 10
36.70923915996077
 20
-214.8194152074769
 30
0.0
 10
35.64280914898373
 20
-214.8194152074769
 30
0.0
 10
34.57637913800669
 20
-214.8194152074769
 30
0.0
 10
34.04325025996212
 20
-215.3527163404094
 30
0.0
 10
34.04325025996212
 20
-216.4193186062743
 30
0.0
 10
34.04325025996212
 20
-217.4855763623634
 30
0.0
 10
34.57637913800669
 20
-218.0188774952959
 30
0.0
 10
35.64280914898373
 20
-218.0188774952959
 30
0.0
 10
36.70923915996077
 20
-218.0188774952959
 30
0.0
 10
37.24254029289324
 20
-217.4855763623634
 30
0.0
 10
37.24254029289324
 20
-216.4193186062743
 30
0.0
  0
ENDBLK
  5
13E
330
13B
100
AcDbEntity
  8
0
100
AcDbBlockEnd
  0
BLOCK
  5
142
330
140
100
AcDbEntity
  8
0
100
AcDbBlockBegin
  2
block 54
 70
     0
 71
     0
 10
0.0
 20
0.0
 30
0.0
  3
block 54
  1

  0
SPLINE
  5
144
330
140
100
AcDbEntity
  8
Layer 1
370
     0
100
AcDbSpline
210
0.0
220
0.0
230
1.0
 70
    11
 71
     3
 72
    17
 73
    13
 74
     0
 42
0.0000000001
 43
0.0000000001
 40
0.0
 40
0.0
 40
0.0
 40
0.0
 40
1.0
 40
1.0
 40
1.0
 40
2.0
 40
2.0
 40
2.0
 40
3.0
 40
3.0
 40
3.0
 40
4.0
 40
4.0
 40
4.0
 40
4.0
 10
17.04668821617023
 20
-181.7854063357096
 30
0.0
 10
17.04668821617023
 20
-180.8524738628536
 30
0.0
 10
16.58022197974222
 20
-180.3856631166498
 30
0.0
 10
15.64711725199829
 20
-180.3856631166498
 30
0.0
 10
14.71401252425437
 20
-180.3856631166498
 30
0.0
 10
14.24737403293846
 20
-180.8524738628536
 30
0.0
 10
14.24737403293846
 20
-181.7854063357096
 30
0.0
 10
14.24737403293846
 20
-182.7186833183414
 30
0.0
 10
14.71401252425437
 20
-183.1851495547695
 30
0.0
 10
15.64711725199829
 20
-183.1851495547695
 30
0.0
 10
16.58022197974222
 20
-183.1851495547695
 30
0.0
 10
17.04668821617023
 20
-182.7186833183414
 30
0.0
 10
17.04668821617023
 20
-181.7854063357096
 30
0.0
  0
ENDBLK
  5
143
330
140
100
AcDbEntity
  8
0
100
AcDbBlockEnd
  0
BLOCK
  5
147
330
145
100
AcDbEntity
  8
0
100
AcDbBlockBegin
  2
block 55
 70
     0
 71
     0
 10
0.0
 20
0.0
 30
0.0
  3
block 55
  1

  0
SPLINE
  5
149
330
145
100
AcDbEntity
  8
Layer 1
370
     0
100
AcDbSpline
210
0.0
220
0.0
230
1.0
 70
    11
 71
     3
 72
    17
 73
    13
 74
     0
 42
0.0000000001
 43
0.0000000001
 40
0.0
 40
0.0
 40
0.0
 40
0.0
 40
1.0
 40
1.0
 40
1.0
 40
2.0
 40
2.0
 40
2.0
 40
3.0
 40
3.0
 40
3.0
 40
4.0
 40
4.0
 40
4.0
 40
4.0
 10
37.24254029289324
 20
-147.1518385749208
 30
0.0
 10
37.24254029289324
 20
-146.0852363090559
 30
0.0
 10
36.70923915996077
 20
-145.5522796858992
 30
0.0
 10
35.64280914898373
 20
-145.5522796858992
 30
0.0
 10
34.57637913800669
 20
-145.5522796858992
 30
0.0
 10
34.04325025996212
 20
-146.0852363090559
 30
0.0
 10
34.04325025996212
 20
-147.1518385749208
 30
0.0
 10
34.04325025996212
 20
-148.2184408407857
 30
0.0
 10
34.57637913800669
 20
-148.7513974639424
 30
0.0
 10
35.64280914898373
 20
-148.7513974639424
 30
0.0
 10
36.70923915996077
 20
-148.7513974639424
 30
0.0
 10
37.24254029289324
 20
-148.2184408407857
 30
0.0
 10
37.24254029289324
 20
-147.1518385749208
 30
0.0
  0
ENDBLK
  5
148
330
145
100
AcDbEntity
  8
0
100
AcDbBlockEnd
  0
BLOCK
  5
14C
330
14A
100
AcDbEntity
  8
0
100
AcDbBlockBegin
  2
block 56
 70
     0
 71
     0
 10
0.0
 20
0.0
 30
0.0
  3
block 56
  1

  0
SPLINE
  5
14E
330
14A
100
AcDbEntity
  8
Layer 1
370
     0
100
AcDbSpline
210
0.0
220
0.0
230
1.0
 70
    11
 71
     3
 72
    17
 73
    13
 74
     0
 42
0.0000000001
 43
0.0000000001
 40
0.0
 40
0.0
 40
0.0
 40
0.0
 40
1.0
 40
1.0
 40
1.0
 40
2.0
 40
2.0
 40
2.0
 40
3.0
 40
3.0
 40
3.0
 40
4.0
 40
4.0
 40
4.0
 40
4.0
 10
77.03410841690234
 20
-147.1518385749208
 30
0.0
 10
77.03410841690234
 20
-146.2185615922889
 30
0.0
 10
76.56746992558642
 20
-145.7520953558609
 30
0.0
 10
75.6343651978425
 20
-145.7520953558609
 30
0.0
 10
74.70126047009857
 20
-145.7520953558609
 30
0.0
 10
74.23462197878267
 20
-146.2185615922889
 30
0.0
 10
74.23462197878267
 20
-147.1518385749208
 30
0.0
 10
74.23462197878267
 20
-148.0851155575526
 30
0.0
 10
74.70126047009857
 20
-148.5515817939806
 30
0.0
 10
75.6343651978425
 20
-148.5515817939806
 30
0.0
 10
76.56746992558642
 20
-148.5515817939806
 30
0.0
 10
77.03410841690234
 20
-148.0851155575526
 30
0.0
 10
77.03410841690234
 20
-147.1518385749208
 30
0.0
  0
ENDBLK
  5
14D
330
14A
100
AcDbEntity
  8
0
100
AcDbBlockEnd
  0
BLOCK
  5
151
330
14F
100
AcDbEntity
  8
0
100
AcDbBlockBegin
  2
block 57
 70
     0
 71
     0
 10
0.0
 20
0.0
 30
0.0
  3
block 57
  1

  0
POLYLINE
  5
153
330
14F
100
AcDbEntity
  8
Layer 1
370
     0
100
AcDb2dPolyline
 66
     1
 10
0.0
 20
0.0
 30
0.0
  0
VERTEX
  5
154
330
153
100
AcDbEntity
  8
Layer 1
370
     0
100
AcDbVertex
100
AcDb2dVertex
 10
210.955393562147
 20
-136.9281664683937
 30
0.0
  0
VERTEX
  5
155
330
153
100
AcDbEntity
  8
Layer 1
370
     0
100
AcDbVertex
100
AcDb2dVertex
 10
210.955393562147
 20
-231.6593975581694
 30
0.0
  0
SEQEND
  5
156
330
153
100
AcDbEntity
  8
Layer 1
370
     0
  0
ENDBLK
  5
152
330
14F
100
AcDbEntity
  8
0
100
AcDbBlockEnd
  0
BLOCK
  5
159
330
157
100
AcDbEntity
  8
0
100
AcDbBlockBegin
  2
block 58
 70
     0
 71
     0
 10
0.0
 20
0.0
 30
0.0
  3
block 58
  1

  0
POLYLINE
  5
15B
330
157
100
AcDbEntity
  8
Layer 1
370
     0
100
AcDb2dPolyline
 66
     1
 10
0.0
 20
0.0
 30
0.0
  0
VERTEX
  5
15C
330
15B
100
AcDbEntity
  8
Layer 1
370
     0
100
AcDbVertex
100
AcDb2dVertex
 10
210.955393562147
 20
-231.6593975581694
 30
0.0
  0
VERTEX
  5
15D
330
15B
100
AcDbEntity
  8
Layer 1
370
     0
100
AcDbVertex
100
AcDb2dVertex
 10
210.955393562147
 20
-136.9281664683937
 30
0.0
  0
SEQEND
  5
15E
330
15B
100
AcDbEntity
  8
Layer 1
370
     0
  0
ENDBLK
  5
15A
330
157
100
AcDbEntity
  8
0
100
AcDbBlockEnd
  0
BLOCK
  5
161
330
15F
100
AcDbEntity
  8
0
100
AcDbBlockBegin
  2
block 59
 70
     0
 71
     0
 10
0.0
 20
0.0
 30
0.0
  3
block 59
  1

  0
SPLINE
  5
163
330
15F
100
AcDbEntity
  8
Layer 1
370
     0
100
AcDbSpline
210
0.0
220
0.0
230
1.0
 70
     8
 71
     3
 72
    11
 73
     7
 74
     0
 42
0.0000000001
 43
0.0000000001
 40
0.0
 40
0.0
 40
0.0
 40
0.0
 40
1.0
 40
1.0
 40
1.0
 40
2.0
 40
2.0
 40
2.0
 40
2.0
 10
201.8665366570925
 20
-131.6805935634664
 30
0.0
 10
200.4175285400938
 20
-134.1903472801415
 30
0.0
 10
201.2774249404811
 20
-137.3998003514586
 30
0.0
 10
203.7871786571562
 20
-138.8488084684573
 30
0.0
 10
206.2972768836071
 20
-140.297816585456
 30
0.0
 10
209.5063854451484
 20
-139.4379201850688
 30
0.0
 10
210.955393562147
 20
-136.9281664683937
 30
0.0
  0
ENDBLK
  5
162
330
15F
100
AcDbEntity
  8
0
100
AcDbBlockEnd
  0
BLOCK
  5
166
330
164
100
AcDbEntity
  8
0
100
AcDbBlockBegin
  2
block 60
 70
     0
 71
     0
 10
0.0
 20
0.0
 30
0.0
  3
block 60
  1

  0
SPLINE
  5
168
330
164
100
AcDbEntity
  8
Layer 1
370
     0
100
AcDbSpline
210
0.0
220
0.0
230
1.0
 70
     8
 71
     3
 72
    14
 73
    10
 74
     0
 42
0.0000000001
 43
0.0000000001
 40
0.0
 40
0.0
 40
0.0
 40
0.0
 40
1.0
 40
1.0
 40
1.0
 40
2.0
 40
2.0
 40
2.0
 40
3.0
 40
3.0
 40
3.0
 40
3.0
 10
201.8665366570925
 20
-131.6805935634664
 30
0.0
 10
203.3155447740912
 20
-129.1708398467914
 30
0.0
 10
202.455648373704
 20
-125.9613867754742
 30
0.0
 10
199.9458946570289
 20
-124.5123786584756
 30
0.0
 10
197.4361409403538
 20
-123.0633705414769
 30
0.0
 10
194.2266878690367
 20
-123.9232669418641
 30
0.0
 10
192.777679752038
 20
-126.4330206585392
 30
0.0
 10
191.8402686520966
 20
-127.88512936352
 30
0.0
 10
191.8402686520966
 20
-130.2284848584856
 30
0.0
 10
192.777679752038
 20
-131.6805935634664
 30
0.0
  0
ENDBLK
  5
167
330
164
100
AcDbEntity
  8
0
100
AcDbBlockEnd
  0
BLOCK
  5
16B
330
169
100
AcDbEntity
  8
0
100
AcDbBlockBegin
  2
block 61
 70
     0
 71
     0
 10
0.0
 20
0.0
 30
0.0
  3
block 61
  1

  0
SPLINE
  5
16D
330
169
100
AcDbEntity
  8
Layer 1
370
     0
100
AcDbSpline
210
0.0
220
0.0
230
1.0
 70
     8
 71
     3
 72
    11
 73
     7
 74
     0
 42
0.0000000001
 43
0.0000000001
 40
0.0
 40
0.0
 40
0.0
 40
0.0
 40
1.0
 40
1.0
 40
1.0
 40
2.0
 40
2.0
 40
2.0
 40
2.0
 10
184.3113520118471
 20
-137.7908189469873
 30
0.0
 10
186.2368171487719
 20
-139.9567519074178
 30
0.0
 10
189.5534127603617
 20
-140.1517444405184
 30
0.0
 10
191.719690230568
 20
-138.2262793035936
 30
0.0
 10
193.5662626288354
 20
-136.6597933530485
 30
0.0
 10
194.036862982573
 20
-133.7490302573466
 30
0.0
 10
192.777679752038
 20
-131.6805935634664
 30
0.0
  0
ENDBLK
  5
16C
330
169
100
AcDbEntity
  8
0
100
AcDbBlockEnd
  0
BLOCK
  5
170
330
16E
100
AcDbEntity
  8
0
100
AcDbBlockBegin
  2
block 62
 70
     0
 71
     0
 10
0.0
 20
0.0
 30
0.0
  3
block 62
  1

  0
POLYLINE
  5
172
330
16E
100
AcDbEntity
  8
Layer 1
370
     0
100
AcDb2dPolyline
 66
     1
 10
0.0
 20
0.0
 30
0.0
  0
VERTEX
  5
173
330
172
100
AcDbEntity
  8
Layer 1
370
     0
100
AcDbVertex
100
AcDb2dVertex
 10
184.3113520118471
 20
-137.7908189469873
 30
0.0
  0
VERTEX
  5
174
330
172
100
AcDbEntity
  8
Layer 1
370
     0
100
AcDbVertex
100
AcDb2dVertex
 10
184.3113520118471
 20
-176.956068298599
 30
0.0
  0
SEQEND
  5
175
330
172
100
AcDbEntity
  8
Layer 1
370
     0
  0
ENDBLK
  5
171
330
16E
100
AcDbEntity
  8
0
100
AcDbBlockEnd
  0
BLOCK
  5
178
330
176
100
AcDbEntity
  8
0
100
AcDbBlockBegin
  2
block 63
 70
     0
 71
     0
 10
0.0
 20
0.0
 30
0.0
  3
block 63
  1

  0
POLYLINE
  5
17A
330
176
100
AcDbEntity
  8
Layer 1
370
     0
100
AcDb2dPolyline
 66
     1
 10
0.0
 20
0.0
 30
0.0
  0
VERTEX
  5
17B
330
17A
100
AcDbEntity
  8
Layer 1
370
     0
100
AcDbVertex
100
AcDb2dVertex
 10
184.3113520118471
 20
-176.956068298599
 30
0.0
  0
VERTEX
  5
17C
330
17A
100
AcDbEntity
  8
Layer 1
370
     0
100
AcDbVertex
100
AcDb2dVertex
 10
180.9620279715568
 20
-176.956068298599
 30
0.0
  0
SEQEND
  5
17D
330
17A
100
AcDbEntity
  8
Layer 1
370
     0
  0
ENDBLK
  5
179
330
176
100
AcDbEntity
  8
0
100
AcDbBlockEnd
  0
BLOCK
  5
180
330
17E
100
AcDbEntity
  8
0
100
AcDbBlockBegin
  2
block 64
 70
     0
 71
     0
 10
0.0
 20
0.0
 30
0.0
  3
block 64
  1

  0
POLYLINE
  5
182
330
17E
100
AcDbEntity
  8
Layer 1
370
     0
100
AcDb2dPolyline
 66
     1
 10
0.0
 20
0.0
 30
0.0
  0
VERTEX
  5
183
330
182
100
AcDbEntity
  8
Layer 1
370
     0
100
AcDbVertex
100
AcDb2dVertex
 10
180.9620279715568
 20
-176.956068298599
 30
0.0
  0
VERTEX
  5
184
330
182
100
AcDbEntity
  8
Layer 1
370
     0
100
AcDbVertex
100
AcDb2dVertex
 10
177.6127039312665
 20
-176.956068298599
 30
0.0
  0
SEQEND
  5
185
330
182
100
AcDbEntity
  8
Layer 1
370
     0
  0
ENDBLK
  5
181
330
17E
100
AcDbEntity
  8
0
100
AcDbBlockEnd
  0
BLOCK
  5
188
330
186
100
AcDbEntity
  8
0
100
AcDbBlockBegin
  2
block 65
 70
     0
 71
     0
 10
0.0
 20
0.0
 30
0.0
  3
block 65
  1

  0
POLYLINE
  5
18A
330
186
100
AcDbEntity
  8
Layer 1
370
     0
100
AcDb2dPolyline
 66
     1
 10
0.0
 20
0.0
 30
0.0
  0
VERTEX
  5
18B
330
18A
100
AcDbEntity
  8
Layer 1
370
     0
100
AcDbVertex
100
AcDb2dVertex
 10
177.6127039312665
 20
-176.956068298599
 30
0.0
  0
VERTEX
  5
18C
330
18A
100
AcDbEntity
  8
Layer 1
370
     0
100
AcDbVertex
100
AcDb2dVertex
 10
177.6127039312665
 20
-124.0376441874284
 30
0.0
  0
SEQEND
  5
18D
330
18A
100
AcDbEntity
  8
Layer 1
370
     0
  0
ENDBLK
  5
189
330
186
100
AcDbEntity
  8
0
100
AcDbBlockEnd
  0
BLOCK
  5
190
330
18E
100
AcDbEntity
  8
0
100
AcDbBlockBegin
  2
block 66
 70
     0
 71
     0
 10
0.0
 20
0.0
 30
0.0
  3
block 66
  1

  0
SPLINE
  5
192
330
18E
100
AcDbEntity
  8
Layer 1
370
     0
100
AcDbSpline
210
0.0
220
0.0
230
1.0
 70
     8
 71
     3
 72
    11
 73
     7
 74
     0
 42
0.0000000001
 43
0.0000000001
 40
0.0
 40
0.0
 40
0.0
 40
0.0
 40
1.0
 40
1.0
 40
1.0
 40
2.0
 40
2.0
 40
2.0
 40
2.0
 10
177.6127039312665
 20
-124.0376441874284
 30
0.0
 10
174.8407782752105
 20
-124.883415687008
 30
0.0
 10
173.2791154615264
 20
-127.8162274083608
 30
0.0
 10
174.1252314708818
 20
-130.5881530644168
 30
0.0
 10
174.2065357779697
 20
-130.8889100986868
 30
0.0
 10
174.4352902690984
 20
-131.416010055655
 30
0.0
 10
174.5996214321532
 20
-131.6805935634664
 30
0.0
  0
ENDBLK
  5
191
330
18E
100
AcDbEntity
  8
0
100
AcDbBlockEnd
  0
BLOCK
  5
195
330
193
100
AcDbEntity
  8
0
100
AcDbBlockBegin
  2
block 67
 70
     0
 71
     0
 10
0.0
 20
0.0
 30
0.0
  3
block 67
  1

  0
SPLINE
  5
197
330
193
100
AcDbEntity
  8
Layer 1
370
     0
100
AcDbSpline
210
0.0
220
0.0
230
1.0
 70
     8
 71
     3
 72
    14
 73
    10
 74
     0
 42
0.0000000001
 43
0.0000000001
 40
0.0
 40
0.0
 40
0.0
 40
0.0
 40
1.0
 40
1.0
 40
1.0
 40
2.0
 40
2.0
 40
2.0
 40
3.0
 40
3.0
 40
3.0
 40
3.0
 10
165.5107645270986
 20
-131.6805935634664
 30
0.0
 10
164.0617564100999
 20
-134.1903472801415
 30
0.0
 10
164.9216528104872
 20
-137.3998003514586
 30
0.0
 10
167.4314065271623
 20
-138.8488084684573
 30
0.0
 10
169.9411602438373
 20
-140.297816585456
 30
0.0
 10
173.1506133151545
 20
-139.4379201850688
 30
0.0
 10
174.5996214321532
 20
-136.9281664683937
 30
0.0
 10
175.5370325320945
 20
-135.4760577634128
 30
0.0
 10
175.5370325320945
 20
-133.1327022684473
 30
0.0
 10
174.5996214321532
 20
-131.6805935634664
 30
0.0
  0
ENDBLK
  5
196
330
193
100
AcDbEntity
  8
0
100
AcDbBlockEnd
  0
BLOCK
  5
19A
330
198
100
AcDbEntity
  8
0
100
AcDbBlockBegin
  2
block 68
 70
     0
 71
     0
 10
0.0
 20
0.0
 30
0.0
  3
block 68
  1

  0
SPLINE
  5
19C
330
198
100
AcDbEntity
  8
Layer 1
370
     0
100
AcDbSpline
210
0.0
220
0.0
230
1.0
 70
     8
 71
     3
 72
    14
 73
    10
 74
     0
 42
0.0000000001
 43
0.0000000001
 40
0.0
 40
0.0
 40
0.0
 40
0.0
 40
1.0
 40
1.0
 40
1.0
 40
2.0
 40
2.0
 40
2.0
 40
3.0
 40
3.0
 40
3.0
 40
3.0
 10
165.5107645270986
 20
-131.6805935634664
 30
0.0
 10
166.9597726440973
 20
-129.1708398467914
 30
0.0
 10
166.0998762437101
 20
-125.9613867754742
 30
0.0
 10
163.5897780172592
 20
-124.5123786584756
 30
0.0
 10
161.0800243005841
 20
-123.0633705414769
 30
0.0
 10
157.8707434841549
 20
-123.9232669418641
 30
0.0
 10
156.4217353671562
 20
-126.4330206585392
 30
0.0
 10
155.4843242672148
 20
-127.88512936352
 30
0.0
 10
155.4843242672148
 20
-130.2284848584856
 30
0.0
 10
156.4217353671562
 20
-131.6805935634664
 30
0.0
  0
ENDBLK
  5
19B
330
198
100
AcDbEntity
  8
0
100
AcDbBlockEnd
  0
BLOCK
  5
19F
330
19D
100
AcDbEntity
  8
0
100
AcDbBlockBegin
  2
block 69
 70
     0
 71
     0
 10
0.0
 20
0.0
 30
0.0
  3
block 69
  1

  0
SPLINE
  5
1A1
330
19D
100
AcDbEntity
  8
Layer 1
370
     0
100
AcDbSpline
210
0.0
220
0.0
230
1.0
 70
     8
 71
     3
 72
    14
 73
    10
 74
     0
 42
0.0000000001
 43
0.0000000001
 40
0.0
 40
0.0
 40
0.0
 40
0.0
 40
1.0
 40
1.0
 40
1.0
 40
2.0
 40
2.0
 40
2.0
 40
3.0
 40
3.0
 40
3.0
 40
3.0
 10
147.3327062072138
 20
-131.6805935634664
 30
0.0
 10
145.8836980902151
 20
-134.1903472801415
 30
0.0
 10
146.7435944906023
 20
-137.3998003514586
 30
0.0
 10
149.2533482072774
 20
-138.8488084684573
 30
0.0
 10
151.7632741788404
 20
-140.297816585456
 30
0.0
 10
154.9725549952696
 20
-139.4379201850688
 30
0.0
 10
156.4217353671562
 20
-136.9281664683937
 30
0.0
 10
157.3589742122097
 20
-135.4760577634128
 30
0.0
 10
157.3589742122097
 20
-133.1327022684473
 30
0.0
 10
156.4217353671562
 20
-131.6805935634664
 30
0.0
  0
ENDBLK
  5
1A0
330
19D
100
AcDbEntity
  8
0
100
AcDbBlockEnd
  0
BLOCK
  5
1A4
330
1A2
100
AcDbEntity
  8
0
100
AcDbBlockBegin
  2
block 70
 70
     0
 71
     0
 10
0.0
 20
0.0
 30
0.0
  3
block 70
  1

  0
SPLINE
  5
1A6
330
1A2
100
AcDbEntity
  8
Layer 1
370
     0
100
AcDbSpline
210
0.0
220
0.0
230
1.0
 70
     8
 71
     3
 72
    11
 73
     7
 74
     0
 42
0.0000000001
 43
0.0000000001
 40
0.0
 40
0.0
 40
0.0
 40
0.0
 40
1.0
 40
1.0
 40
1.0
 40
2.0
 40
2.0
 40
2.0
 40
2.0
 10
147.3327062072138
 20
-131.6805935634664
 30
0.0
 10
148.7817143242125
 20
-129.1708398467914
 30
0.0
 10
147.9218179238252
 20
-125.9613867754742
 30
0.0
 10
145.4118919522622
 20
-124.5123786584756
 30
0.0
 10
145.1474806993387
 20
-124.3480474954208
 30
0.0
 10
144.6202084874826
 20
-124.1189484945163
 30
0.0
 10
144.3196237081005
 20
-124.0376441874284
 30
0.0
  0
ENDBLK
  5
1A5
330
1A2
100
AcDbEntity
  8
0
100
AcDbBlockEnd
  0
BLOCK
  5
1A9
330
1A7
100
AcDbEntity
  8
0
100
AcDbBlockBegin
  2
block 71
 70
     0
 71
     0
 10
0.0
 20
0.0
 30
0.0
  3
block 71
  1

  0
POLYLINE
  5
1AB
330
1A7
100
AcDbEntity
  8
Layer 1
370
     0
100
AcDb2dPolyline
 66
     1
 10
0.0
 20
0.0
 30
0.0
  0
VERTEX
  5
1AC
330
1AB
100
AcDbEntity
  8
Layer 1
370
     0
100
AcDbVertex
100
AcDb2dVertex
 10
144.3196237081005
 20
-124.0376441874284
 30
0.0
  0
VERTEX
  5
1AD
330
1AB
100
AcDbEntity
  8
Layer 1
370
     0
100
AcDbVertex
100
AcDb2dVertex
 10
144.3196237081005
 20
-176.956068298599
 30
0.0
  0
SEQEND
  5
1AE
330
1AB
100
AcDbEntity
  8
Layer 1
370
     0
  0
ENDBLK
  5
1AA
330
1A7
100
AcDbEntity
  8
0
100
AcDbBlockEnd
  0
BLOCK
  5
1B1
330
1AF
100
AcDbEntity
  8
0
100
AcDbBlockBegin
  2
block 72
 70
     0
 71
     0
 10
0.0
 20
0.0
 30
0.0
  3
block 72
  1

  0
POLYLINE
  5
1B3
330
1AF
100
AcDbEntity
  8
Layer 1
370
     0
100
AcDb2dPolyline
 66
     1
 10
0.0
 20
0.0
 30
0.0
  0
VERTEX
  5
1B4
330
1B3
100
AcDbEntity
  8
Layer 1
370
     0
100
AcDbVertex
100
AcDb2dVertex
 10
144.3196237081005
 20
-176.956068298599
 30
0.0
  0
VERTEX
  5
1B5
330
1B3
100
AcDbEntity
  8
Layer 1
370
     0
100
AcDbVertex
100
AcDb2dVertex
 10
140.970471922698
 20
-176.956068298599
 30
0.0
  0
SEQEND
  5
1B6
330
1B3
100
AcDbEntity
  8
Layer 1
370
     0
  0
ENDBLK
  5
1B2
330
1AF
100
AcDbEntity
  8
0
100
AcDbBlockEnd
  0
BLOCK
  5
1B9
330
1B7
100
AcDbEntity
  8
0
100
AcDbBlockBegin
  2
block 73
 70
     0
 71
     0
 10
0.0
 20
0.0
 30
0.0
  3
block 73
  1

  0
POLYLINE
  5
1BB
330
1B7
100
AcDbEntity
  8
Layer 1
370
     0
100
AcDb2dPolyline
 66
     1
 10
0.0
 20
0.0
 30
0.0
  0
VERTEX
  5
1BC
330
1BB
100
AcDbEntity
  8
Layer 1
370
     0
100
AcDbVertex
100
AcDb2dVertex
 10
140.970471922698
 20
-176.956068298599
 30
0.0
  0
VERTEX
  5
1BD
330
1BB
100
AcDbEntity
  8
Layer 1
370
     0
100
AcDbVertex
100
AcDb2dVertex
 10
137.6211478824077
 20
-176.956068298599
 30
0.0
  0
SEQEND
  5
1BE
330
1BB
100
AcDbEntity
  8
Layer 1
370
     0
  0
ENDBLK
  5
1BA
330
1B7
100
AcDbEntity
  8
0
100
AcDbBlockEnd
  0
BLOCK
  5
1C1
330
1BF
100
AcDbEntity
  8
0
100
AcDbBlockBegin
  2
block 74
 70
     0
 71
     0
 10
0.0
 20
0.0
 30
0.0
  3
block 74
  1

  0
POLYLINE
  5
1C3
330
1BF
100
AcDbEntity
  8
Layer 1
370
     0
100
AcDb2dPolyline
 66
     1
 10
0.0
 20
0.0
 30
0.0
  0
VERTEX
  5
1C4
330
1C3
100
AcDbEntity
  8
Layer 1
370
     0
100
AcDbVertex
100
AcDb2dVertex
 10
137.6211478824077
 20
-176.956068298599
 30
0.0
  0
VERTEX
  5
1C5
330
1C3
100
AcDbEntity
  8
Layer 1
370
     0
100
AcDbVertex
100
AcDb2dVertex
 10
137.6211478824077
 20
-137.7908189469873
 30
0.0
  0
SEQEND
  5
1C6
330
1C3
100
AcDbEntity
  8
Layer 1
370
     0
  0
ENDBLK
  5
1C2
330
1BF
100
AcDbEntity
  8
0
100
AcDbBlockEnd
  0
BLOCK
  5
1C9
330
1C7
100
AcDbEntity
  8
0
100
AcDbBlockBegin
  2
block 75
 70
     0
 71
     0
 10
0.0
 20
0.0
 30
0.0
  3
block 75
  1

  0
SPLINE
  5
1CB
330
1C7
100
AcDbEntity
  8
Layer 1
370
     0
100
AcDbSpline
210
0.0
220
0.0
230
1.0
 70
     8
 71
     3
 72
    11
 73
     7
 74
     0
 42
0.0000000001
 43
0.0000000001
 40
0.0
 40
0.0
 40
0.0
 40
0.0
 40
1.0
 40
1.0
 40
1.0
 40
2.0
 40
2.0
 40
2.0
 40
2.0
 10
129.1546478873289
 20
-131.6805935634664
 30
0.0
 10
127.7056397703302
 20
-134.1903472801415
 30
0.0
 10
128.5655361707175
 20
-137.3998003514586
 30
0.0
 10
131.0754621422805
 20
-138.8488084684573
 30
0.0
 10
133.1438988361607
 20
-140.1079916989923
 30
0.0
 10
136.0548341867504
 20
-139.6377358550305
 30
0.0
 10
137.6211478824077
 20
-137.7908189469873
 30
0.0
  0
ENDBLK
  5
1CA
330
1C7
100
AcDbEntity
  8
0
100
AcDbBlockEnd
  0
BLOCK
  5
1CE
330
1CC
100
AcDbEntity
  8
0
100
AcDbBlockBegin
  2
block 76
 70
     0
 71
     0
 10
0.0
 20
0.0
 30
0.0
  3
block 76
  1

  0
SPLINE
  5
1D0
330
1CC
100
AcDbEntity
  8
Layer 1
370
     0
100
AcDbSpline
210
0.0
220
0.0
230
1.0
 70
     8
 71
     3
 72
    14
 73
    10
 74
     0
 42
0.0000000001
 43
0.0000000001
 40
0.0
 40
0.0
 40
0.0
 40
0.0
 40
1.0
 40
1.0
 40
1.0
 40
2.0
 40
2.0
 40
2.0
 40
3.0
 40
3.0
 40
3.0
 40
3.0
 10
129.1546478873289
 20
-131.6805935634664
 30
0.0
 10
130.6038282592155
 20
-129.1708398467914
 30
0.0
 10
129.7439318588283
 20
-125.9613867754742
 30
0.0
 10
127.2340058872653
 20
-124.5123786584756
 30
0.0
 10
124.7240799157023
 20
-123.0633705414769
 30
0.0
 10
121.5147990992731
 20
-123.9232669418641
 30
0.0
 10
120.0657909822744
 20
-126.4330206585392
 30
0.0
 10
119.128379882333
 20
-127.88512936352
 30
0.0
 10
119.128379882333
 20
-130.2284848584856
 30
0.0
 10
120.0657909822744
 20
-131.6805935634664
 30
0.0
  0
ENDBLK
  5
1CF
330
1CC
100
AcDbEntity
  8
0
100
AcDbBlockEnd
  0
BLOCK
  5
1D3
330
1D1
100
AcDbEntity
  8
0
100
AcDbBlockBegin
  2
block 77
 70
     0
 71
     0
 10
0.0
 20
0.0
 30
0.0
  3
block 77
  1

  0
SPLINE
  5
1D5
330
1D1
100
AcDbEntity
  8
Layer 1
370
     0
100
AcDbSpline
210
0.0
220
0.0
230
1.0
 70
     8
 71
     3
 72
    11
 73
     7
 74
     0
 42
0.0000000001
 43
0.0000000001
 40
0.0
 40
0.0
 40
0.0
 40
0.0
 40
1.0
 40
1.0
 40
1.0
 40
2.0
 40
2.0
 40
2.0
 40
2.0
 10
110.976761822332
 20
-136.9281664683937
 30
0.0
 10
112.4257699393307
 20
-139.4379201850688
 30
0.0
 10
115.6352230106478
 20
-140.297816585456
 30
0.0
 10
118.1449767273229
 20
-138.8488084684573
 30
0.0
 10
120.6549026988858
 20
-137.3998003514586
 30
0.0
 10
121.5147990992731
 20
-134.1903472801415
 30
0.0
 10
120.0657909822744
 20
-131.6805935634664
 30
0.0
  0
ENDBLK
  5
1D4
330
1D1
100
AcDbEntity
  8
0
100
AcDbBlockEnd
  0
BLOCK
  5
1D8
330
1D6
100
AcDbEntity
  8
0
100
AcDbBlockBegin
  2
block 78
 70
     0
 71
     0
 10
0.0
 20
0.0
 30
0.0
  3
block 78
  1

  0
POLYLINE
  5
1DA
330
1D6
100
AcDbEntity
  8
Layer 1
370
     0
100
AcDb2dPolyline
 66
     1
 10
0.0
 20
0.0
 30
0.0
  0
VERTEX
  5
1DB
330
1DA
100
AcDbEntity
  8
Layer 1
370
     0
100
AcDbVertex
100
AcDb2dVertex
 10
110.976761822332
 20
-136.9281664683937
 30
0.0
  0
VERTEX
  5
1DC
330
1DA
100
AcDbEntity
  8
Layer 1
370
     0
100
AcDbVertex
100
AcDb2dVertex
 10
110.976761822332
 20
-231.6593975581694
 30
0.0
  0
SEQEND
  5
1DD
330
1DA
100
AcDbEntity
  8
Layer 1
370
     0
  0
ENDBLK
  5
1D9
330
1D6
100
AcDbEntity
  8
0
100
AcDbBlockEnd
  0
BLOCK
  5
1E0
330
1DE
100
AcDbEntity
  8
0
100
AcDbBlockBegin
  2
block 79
 70
     0
 71
     0
 10
0.0
 20
0.0
 30
0.0
  3
block 79
  1

  0
POLYLINE
  5
1E2
330
1DE
100
AcDbEntity
  8
Layer 1
370
     0
100
AcDb2dPolyline
 66
     1
 10
0.0
 20
0.0
 30
0.0
  0
VERTEX
  5
1E3
330
1E2
100
AcDbEntity
  8
Layer 1
370
     0
100
AcDbVertex
100
AcDb2dVertex
 10
110.976761822332
 20
-231.6593975581694
 30
0.0
  0
VERTEX
  5
1E4
330
1E2
100
AcDbEntity
  8
Layer 1
370
     0
100
AcDbVertex
100
AcDb2dVertex
 10
110.976761822332
 20
-136.9281664683937
 30
0.0
  0
SEQEND
  5
1E5
330
1E2
100
AcDbEntity
  8
Layer 1
370
     0
  0
ENDBLK
  5
1E1
330
1DE
100
AcDbEntity
  8
0
100
AcDbBlockEnd
  0
BLOCK
  5
1E8
330
1E6
100
AcDbEntity
  8
0
100
AcDbBlockBegin
  2
block 80
 70
     0
 71
     0
 10
0.0
 20
0.0
 30
0.0
  3
block 80
  1

  0
POLYLINE
  5
1EA
330
1E6
100
AcDbEntity
  8
Layer 1
370
     0
100
AcDb2dPolyline
 66
     1
 10
0.0
 20
0.0
 30
0.0
  0
VERTEX
  5
1EB
330
1EA
100
AcDbEntity
  8
Layer 1
370
     0
100
AcDbVertex
100
AcDb2dVertex
 10
157.6168397793931
 20
-238.3580456387501
 30
0.0
  0
VERTEX
  5
1EC
330
1EA
100
AcDbEntity
  8
Layer 1
370
     0
100
AcDbVertex
100
AcDb2dVertex
 10
157.6168397793931
 20
-190.3120232866648
 30
0.0
  0
SEQEND
  5
1ED
330
1EA
100
AcDbEntity
  8
Layer 1
370
     0
  0
ENDBLK
  5
1E9
330
1E6
100
AcDbEntity
  8
0
100
AcDbBlockEnd
  0
BLOCK
  5
1F0
330
1EE
100
AcDbEntity
  8
0
100
AcDbBlockBegin
  2
block 81
 70
     0
 71
     0
 10
0.0
 20
0.0
 30
0.0
  3
block 81
  1

  0
POLYLINE
  5
1F2
330
1EE
100
AcDbEntity
  8
Layer 1
370
     0
100
AcDb2dPolyline
 66
     1
 10
0.0
 20
0.0
 30
0.0
  0
VERTEX
  5
1F3
330
1F2
100
AcDbEntity
  8
Layer 1
370
     0
100
AcDbVertex
100
AcDb2dVertex
 10
157.6168397793931
 20
-190.3120232866648
 30
0.0
  0
VERTEX
  5
1F4
330
1F2
100
AcDbEntity
  8
Layer 1
370
     0
100
AcDbVertex
100
AcDb2dVertex
 10
160.9663360745714
 20
-190.3120232866648
 30
0.0
  0
SEQEND
  5
1F5
330
1F2
100
AcDbEntity
  8
Layer 1
370
     0
  0
ENDBLK
  5
1F1
330
1EE
100
AcDbEntity
  8
0
100
AcDbBlockEnd
  0
BLOCK
  5
1F8
330
1F6
100
AcDbEntity
  8
0
100
AcDbBlockBegin
  2
block 82
 70
     0
 71
     0
 10
0.0
 20
0.0
 30
0.0
  3
block 82
  1

  0
POLYLINE
  5
1FA
330
1F6
100
AcDbEntity
  8
Layer 1
370
     0
100
AcDb2dPolyline
 66
     1
 10
0.0
 20
0.0
 30
0.0
  0
VERTEX
  5
1FB
330
1FA
100
AcDbEntity
  8
Layer 1
370
     0
100
AcDbVertex
100
AcDb2dVertex
 10
160.9663360745714
 20
-190.3120232866648
 30
0.0
  0
VERTEX
  5
1FC
330
1FA
100
AcDbEntity
  8
Layer 1
370
     0
100
AcDbVertex
100
AcDb2dVertex
 10
164.3153156050859
 20
-190.3120232866648
 30
0.0
  0
SEQEND
  5
1FD
330
1FA
100
AcDbEntity
  8
Layer 1
370
     0
  0
ENDBLK
  5
1F9
330
1F6
100
AcDbEntity
  8
0
100
AcDbBlockEnd
  0
BLOCK
  5
200
330
1FE
100
AcDbEntity
  8
0
100
AcDbBlockBegin
  2
block 83
 70
     0
 71
     0
 10
0.0
 20
0.0
 30
0.0
  3
block 83
  1

  0
POLYLINE
  5
202
330
1FE
100
AcDbEntity
  8
Layer 1
370
     0
100
AcDb2dPolyline
 66
     1
 10
0.0
 20
0.0
 30
0.0
  0
VERTEX
  5
203
330
202
100
AcDbEntity
  8
Layer 1
370
     0
100
AcDbVertex
100
AcDb2dVertex
 10
164.3153156050859
 20
-190.3120232866648
 30
0.0
  0
VERTEX
  5
204
330
202
100
AcDbEntity
  8
Layer 1
370
     0
100
AcDbVertex
100
AcDb2dVertex
 10
164.3153156050859
 20
-238.3580456387501
 30
0.0
  0
SEQEND
  5
205
330
202
100
AcDbEntity
  8
Layer 1
370
     0
  0
ENDBLK
  5
201
330
1FE
100
AcDbEntity
  8
0
100
AcDbBlockEnd
  0
BLOCK
  5
208
330
206
100
AcDbEntity
  8
0
100
AcDbBlockBegin
  2
block 84
 70
     0
 71
     0
 10
0.0
 20
0.0
 30
0.0
  3
block 84
  1

  0
POLYLINE
  5
20A
330
206
100
AcDbEntity
  8
Layer 1
370
     0
100
AcDb2dPolyline
 66
     1
 10
0.0
 20
0.0
 30
0.0
  0
VERTEX
  5
20B
330
20A
100
AcDbEntity
  8
Layer 1
370
     0
100
AcDbVertex
100
AcDb2dVertex
 10
164.3153156050859
 20
-238.3580456387501
 30
0.0
  0
VERTEX
  5
20C
330
20A
100
AcDbEntity
  8
Layer 1
370
     0
100
AcDbVertex
100
AcDb2dVertex
 10
170.9640097681762
 20
-238.3580456387501
 30
0.0
  0
SEQEND
  5
20D
330
20A
100
AcDbEntity
  8
Layer 1
370
     0
  0
ENDBLK
  5
209
330
206
100
AcDbEntity
  8
0
100
AcDbBlockEnd
  0
BLOCK
  5
210
330
20E
100
AcDbEntity
  8
0
100
AcDbBlockBegin
  2
block 85
 70
     0
 71
     0
 10
0.0
 20
0.0
 30
0.0
  3
block 85
  1

  0
POLYLINE
  5
212
330
20E
100
AcDbEntity
  8
Layer 1
370
     0
100
AcDb2dPolyline
 66
     1
 10
0.0
 20
0.0
 30
0.0
  0
VERTEX
  5
213
330
212
100
AcDbEntity
  8
Layer 1
370
     0
100
AcDbVertex
100
AcDb2dVertex
 10
170.9640097681762
 20
-238.3580456387501
 30
0.0
  0
VERTEX
  5
214
330
212
100
AcDbEntity
  8
Layer 1
370
     0
100
AcDbVertex
100
AcDb2dVertex
 10
164.3153156050859
 20
-238.3580456387501
 30
0.0
  0
SEQEND
  5
215
330
212
100
AcDbEntity
  8
Layer 1
370
     0
  0
ENDBLK
  5
211
330
20E
100
AcDbEntity
  8
0
100
AcDbBlockEnd
  0
BLOCK
  5
218
330
216
100
AcDbEntity
  8
0
100
AcDbBlockBegin
  2
block 86
 70
     0
 71
     0
 10
0.0
 20
0.0
 30
0.0
  3
block 86
  1

  0
POLYLINE
  5
21A
330
216
100
AcDbEntity
  8
Layer 1
370
     0
100
AcDb2dPolyline
 66
     1
 10
0.0
 20
0.0
 30
0.0
  0
VERTEX
  5
21B
330
21A
100
AcDbEntity
  8
Layer 1
370
     0
100
AcDbVertex
100
AcDb2dVertex
 10
170.9640097681762
 20
-238.3580456387501
 30
0.0
  0
VERTEX
  5
21C
330
21A
100
AcDbEntity
  8
Layer 1
370
     0
100
AcDbVertex
100
AcDb2dVertex
 10
170.9640097681762
 20
-231.6593975581694
 30
0.0
  0
SEQEND
  5
21D
330
21A
100
AcDbEntity
  8
Layer 1
370
     0
  0
ENDBLK
  5
219
330
216
100
AcDbEntity
  8
0
100
AcDbBlockEnd
  0
BLOCK
  5
220
330
21E
100
AcDbEntity
  8
0
100
AcDbBlockBegin
  2
block 87
 70
     0
 71
     0
 10
0.0
 20
0.0
 30
0.0
  3
block 87
  1

  0
POLYLINE
  5
222
330
21E
100
AcDbEntity
  8
Layer 1
370
     0
100
AcDb2dPolyline
 66
     1
 10
0.0
 20
0.0
 30
0.0
  0
VERTEX
  5
223
330
222
100
AcDbEntity
  8
Layer 1
370
     0
100
AcDbVertex
100
AcDb2dVertex
 10
170.9640097681762
 20
-231.6593975581694
 30
0.0
  0
VERTEX
  5
224
330
222
100
AcDbEntity
  8
Layer 1
370
     0
100
AcDbVertex
100
AcDb2dVertex
 10
210.955393562147
 20
-231.6593975581694
 30
0.0
  0
SEQEND
  5
225
330
222
100
AcDbEntity
  8
Layer 1
370
     0
  0
ENDBLK
  5
221
330
21E
100
AcDbEntity
  8
0
100
AcDbBlockEnd
  0
BLOCK
  5
228
330
226
100
AcDbEntity
  8
0
100
AcDbBlockBegin
  2
block 88
 70
     0
 71
     0
 10
0.0
 20
0.0
 30
0.0
  3
block 88
  1

  0
POLYLINE
  5
22A
330
226
100
AcDbEntity
  8
Layer 1
370
     0
100
AcDb2dPolyline
 66
     1
 10
0.0
 20
0.0
 30
0.0
  0
VERTEX
  5
22B
330
22A
100
AcDbEntity
  8
Layer 1
370
     0
100
AcDbVertex
100
AcDb2dVertex
 10
210.955393562147
 20
-231.6593975581694
 30
0.0
  0
VERTEX
  5
22C
330
22A
100
AcDbEntity
  8
Layer 1
370
     0
100
AcDbVertex
100
AcDb2dVertex
 10
170.9640097681762
 20
-231.6593975581694
 30
0.0
  0
SEQEND
  5
22D
330
22A
100
AcDbEntity
  8
Layer 1
370
     0
  0
ENDBLK
  5
229
330
226
100
AcDbEntity
  8
0
100
AcDbBlockEnd
  0
BLOCK
  5
230
330
22E
100
AcDbEntity
  8
0
100
AcDbBlockBegin
  2
block 89
 70
     0
 71
     0
 10
0.0
 20
0.0
 30
0.0
  3
block 89
  1

  0
POLYLINE
  5
232
330
22E
100
AcDbEntity
  8
Layer 1
370
     0
100
AcDb2dPolyline
 66
     1
 10
0.0
 20
0.0
 30
0.0
  0
VERTEX
  5
233
330
232
100
AcDbEntity
  8
Layer 1
370
     0
100
AcDbVertex
100
AcDb2dVertex
 10
170.9640097681762
 20
-231.6593975581694
 30
0.0
  0
VERTEX
  5
234
330
232
100
AcDbEntity
  8
Layer 1
370
     0
100
AcDbVertex
100
AcDb2dVertex
 10
170.9640097681762
 20
-238.3580456387501
 30
0.0
  0
SEQEND
  5
235
330
232
100
AcDbEntity
  8
Layer 1
370
     0
  0
ENDBLK
  5
231
330
22E
100
AcDbEntity
  8
0
100
AcDbBlockEnd
  0
BLOCK
  5
238
330
236
100
AcDbEntity
  8
0
100
AcDbBlockBegin
  2
block 90
 70
     0
 71
     0
 10
0.0
 20
0.0
 30
0.0
  3
block 90
  1

  0
POLYLINE
  5
23A
330
236
100
AcDbEntity
  8
Layer 1
370
     0
100
AcDb2dPolyline
 66
     1
 10
0.0
 20
0.0
 30
0.0
  0
VERTEX
  5
23B
330
23A
100
AcDbEntity
  8
Layer 1
370
     0
100
AcDbVertex
100
AcDb2dVertex
 10
150.9683178711907
 20
-238.3580456387501
 30
0.0
  0
VERTEX
  5
23C
330
23A
100
AcDbEntity
  8
Layer 1
370
     0
100
AcDbVertex
100
AcDb2dVertex
 10
157.6168397793931
 20
-238.3580456387501
 30
0.0
  0
SEQEND
  5
23D
330
23A
100
AcDbEntity
  8
Layer 1
370
     0
  0
ENDBLK
  5
239
330
236
100
AcDbEntity
  8
0
100
AcDbBlockEnd
  0
BLOCK
  5
240
330
23E
100
AcDbEntity
  8
0
100
AcDbBlockBegin
  2
block 91
 70
     0
 71
     0
 10
0.0
 20
0.0
 30
0.0
  3
block 91
  1

  0
POLYLINE
  5
242
330
23E
100
AcDbEntity
  8
Layer 1
370
     0
100
AcDb2dPolyline
 66
     1
 10
0.0
 20
0.0
 30
0.0
  0
VERTEX
  5
243
330
242
100
AcDbEntity
  8
Layer 1
370
     0
100
AcDbVertex
100
AcDb2dVertex
 10
157.6168397793931
 20
-238.3580456387501
 30
0.0
  0
VERTEX
  5
244
330
242
100
AcDbEntity
  8
Layer 1
370
     0
100
AcDbVertex
100
AcDb2dVertex
 10
150.9683178711907
 20
-238.3580456387501
 30
0.0
  0
SEQEND
  5
245
330
242
100
AcDbEntity
  8
Layer 1
370
     0
  0
ENDBLK
  5
241
330
23E
100
AcDbEntity
  8
0
100
AcDbBlockEnd
  0
BLOCK
  5
248
330
246
100
AcDbEntity
  8
0
100
AcDbBlockBegin
  2
block 92
 70
     0
 71
     0
 10
0.0
 20
0.0
 30
0.0
  3
block 92
  1

  0
POLYLINE
  5
24A
330
246
100
AcDbEntity
  8
Layer 1
370
     0
100
AcDb2dPolyline
 66
     1
 10
0.0
 20
0.0
 30
0.0
  0
VERTEX
  5
24B
330
24A
100
AcDbEntity
  8
Layer 1
370
     0
100
AcDbVertex
100
AcDb2dVertex
 10
150.9683178711907
 20
-238.3580456387501
 30
0.0
  0
VERTEX
  5
24C
330
24A
100
AcDbEntity
  8
Layer 1
370
     0
100
AcDbVertex
100
AcDb2dVertex
 10
150.9683178711907
 20
-231.6593975581694
 30
0.0
  0
SEQEND
  5
24D
330
24A
100
AcDbEntity
  8
Layer 1
370
     0
  0
ENDBLK
  5
249
330
246
100
AcDbEntity
  8
0
100
AcDbBlockEnd
  0
BLOCK
  5
250
330
24E
100
AcDbEntity
  8
0
100
AcDbBlockBegin
  2
block 93
 70
     0
 71
     0
 10
0.0
 20
0.0
 30
0.0
  3
block 93
  1

  0
POLYLINE
  5
252
330
24E
100
AcDbEntity
  8
Layer 1
370
     0
100
AcDb2dPolyline
 66
     1
 10
0.0
 20
0.0
 30
0.0
  0
VERTEX
  5
253
330
252
100
AcDbEntity
  8
Layer 1
370
     0
100
AcDbVertex
100
AcDb2dVertex
 10
150.9683178711907
 20
-231.6593975581694
 30
0.0
  0
VERTEX
  5
254
330
252
100
AcDbEntity
  8
Layer 1
370
     0
100
AcDbVertex
100
AcDb2dVertex
 10
110.976761822332
 20
-231.6593975581694
 30
0.0
  0
SEQEND
  5
255
330
252
100
AcDbEntity
  8
Layer 1
370
     0
  0
ENDBLK
  5
251
330
24E
100
AcDbEntity
  8
0
100
AcDbBlockEnd
  0
BLOCK
  5
258
330
256
100
AcDbEntity
  8
0
100
AcDbBlockBegin
  2
block 94
 70
     0
 71
     0
 10
0.0
 20
0.0
 30
0.0
  3
block 94
  1

  0
POLYLINE
  5
25A
330
256
100
AcDbEntity
  8
Layer 1
370
     0
100
AcDb2dPolyline
 66
     1
 10
0.0
 20
0.0
 30
0.0
  0
VERTEX
  5
25B
330
25A
100
AcDbEntity
  8
Layer 1
370
     0
100
AcDbVertex
100
AcDb2dVertex
 10
110.976761822332
 20
-231.6593975581694
 30
0.0
  0
VERTEX
  5
25C
330
25A
100
AcDbEntity
  8
Layer 1
370
     0
100
AcDbVertex
100
AcDb2dVertex
 10
150.9683178711907
 20
-231.6593975581694
 30
0.0
  0
SEQEND
  5
25D
330
25A
100
AcDbEntity
  8
Layer 1
370
     0
  0
ENDBLK
  5
259
330
256
100
AcDbEntity
  8
0
100
AcDbBlockEnd
  0
BLOCK
  5
260
330
25E
100
AcDbEntity
  8
0
100
AcDbBlockBegin
  2
block 95
 70
     0
 71
     0
 10
0.0
 20
0.0
 30
0.0
  3
block 95
  1

  0
POLYLINE
  5
262
330
25E
100
AcDbEntity
  8
Layer 1
370
     0
100
AcDb2dPolyline
 66
     1
 10
0.0
 20
0.0
 30
0.0
  0
VERTEX
  5
263
330
262
100
AcDbEntity
  8
Layer 1
370
     0
100
AcDbVertex
100
AcDb2dVertex
 10
150.9683178711907
 20
-231.6593975581694
 30
0.0
  0
VERTEX
  5
264
330
262
100
AcDbEntity
  8
Layer 1
370
     0
100
AcDbVertex
100
AcDb2dVertex
 10
150.9683178711907
 20
-238.3580456387501
 30
0.0
  0
SEQEND
  5
265
330
262
100
AcDbEntity
  8
Layer 1
370
     0
  0
ENDBLK
  5
261
330
25E
100
AcDbEntity
  8
0
100
AcDbBlockEnd
  0
BLOCK
  5
268
330
266
100
AcDbEntity
  8
0
100
AcDbBlockBegin
  2
block 96
 70
     0
 71
     0
 10
0.0
 20
0.0
 30
0.0
  3
block 96
  1

  0
POLYLINE
  5
26A
330
266
100
AcDbEntity
  8
Layer 1
370
     0
100
AcDb2dPolyline
 66
     1
 10
0.0
 20
0.0
 30
0.0
  0
VERTEX
  5
26B
330
26A
100
AcDbEntity
  8
Layer 1
370
     0
100
AcDbVertex
100
AcDb2dVertex
 10
105.6279030433207
 20
-111.8003124413727
 30
0.0
  0
VERTEX
  5
26C
330
26A
100
AcDbEntity
  8
Layer 1
370
     0
100
AcDbVertex
100
AcDb2dVertex
 10
105.6279030433207
 20
-17.06908135159698
 30
0.0
  0
SEQEND
  5
26D
330
26A
100
AcDbEntity
  8
Layer 1
370
     0
  0
ENDBLK
  5
269
330
266
100
AcDbEntity
  8
0
100
AcDbBlockEnd
  0
BLOCK
  5
270
330
26E
100
AcDbEntity
  8
0
100
AcDbBlockBegin
  2
block 97
 70
     0
 71
     0
 10
0.0
 20
0.0
 30
0.0
  3
block 97
  1

  0
SPLINE
  5
272
330
26E
100
AcDbEntity
  8
Layer 1
370
     0
100
AcDbSpline
210
0.0
220
0.0
230
1.0
 70
     8
 71
     3
 72
    11
 73
     7
 74
     0
 42
0.0000000001
 43
0.0000000001
 40
0.0
 40
0.0
 40
0.0
 40
0.0
 40
1.0
 40
1.0
 40
1.0
 40
2.0
 40
2.0
 40
2.0
 40
2.0
 10
96.53904613826613
 20
-11.82150844666974
 30
0.0
 10
95.08986576637955
 20
-14.33143441823273
 30
0.0
 10
95.94993442165467
 20
-17.54071523466194
 30
0.0
 10
98.45968813832977
 20
-18.98989560654852
 30
0.0
 10
100.9696141098928
 20
-20.43890372354721
 30
0.0
 10
104.178894926322
 20
-19.57900732315997
 30
0.0
 10
105.6279030433207
 20
-17.06908135159698
 30
0.0
  0
ENDBLK
  5
271
330
26E
100
AcDbEntity
  8
0
100
AcDbBlockEnd
  0
BLOCK
  5
275
330
273
100
AcDbEntity
  8
0
100
AcDbBlockBegin
  2
block 98
 70
     0
 71
     0
 10
0.0
 20
0.0
 30
0.0
  3
block 98
  1

  0
SPLINE
  5
277
330
273
100
AcDbEntity
  8
Layer 1
370
     0
100
AcDbSpline
210
0.0
220
0.0
230
1.0
 70
     8
 71
     3
 72
    14
 73
    10
 74
     0
 42
0.0000000001
 43
0.0000000001
 40
0.0
 40
0.0
 40
0.0
 40
0.0
 40
1.0
 40
1.0
 40
1.0
 40
2.0
 40
2.0
 40
2.0
 40
3.0
 40
3.0
 40
3.0
 40
3.0
 10
96.53904613826613
 20
-11.82150844666974
 30
0.0
 10
97.98805425526481
 20
-9.311754729994648
 30
0.0
 10
97.12815785487757
 20
-6.102301658677539
 30
0.0
 10
94.61823188331459
 20
-4.653293541678853
 30
0.0
 10
92.1084781666395
 20
-3.204285424680167
 30
0.0
 10
88.89902509532239
 20
-4.064181825067404
 30
0.0
 10
87.4500169783237
 20
-6.574107796630392
 30
0.0
 10
86.51260587838233
 20
-8.026044246723346
 30
0.0
 10
86.51260587838233
 20
-10.36957199657678
 30
0.0
 10
87.4500169783237
 20
-11.82150844666974
 30
0.0
  0
ENDBLK
  5
276
330
273
100
AcDbEntity
  8
0
100
AcDbBlockEnd
  0
BLOCK
  5
27A
330
278
100
AcDbEntity
  8
0
100
AcDbBlockBegin
  2
block 99
 70
     0
 71
     0
 10
0.0
 20
0.0
 30
0.0
  3
block 99
  1

  0
SPLINE
  5
27C
330
278
100
AcDbEntity
  8
Layer 1
370
     0
100
AcDbSpline
210
0.0
220
0.0
230
1.0
 70
     8
 71
     3
 72
    14
 73
    10
 74
     0
 42
0.0000000001
 43
0.0000000001
 40
0.0
 40
0.0
 40
0.0
 40
0.0
 40
1.0
 40
1.0
 40
1.0
 40
2.0
 40
2.0
 40
2.0
 40
3.0
 40
3.0
 40
3.0
 40
3.0
 10
78.36098781838128
 20
-11.82150844666974
 30
0.0
 10
76.91197970138259
 20
-14.33143441823273
 30
0.0
 10
77.77187610176983
 20
-17.54071523466194
 30
0.0
 10
80.28180207333281
 20
-18.98989560654852
 30
0.0
 10
82.7915557900079
 20
-20.43890372354721
 30
0.0
 10
86.00100886132502
 20
-19.57900732315997
 30
0.0
 10
87.4500169783237
 20
-17.06908135159698
 30
0.0
 10
88.38742807826507
 20
-15.61697264661613
 30
0.0
 10
88.38742807826507
 20
-13.27361715165059
 30
0.0
 10
87.4500169783237
 20
-11.82150844666974
 30
0.0
  0
ENDBLK
  5
27B
330
278
100
AcDbEntity
  8
0
100
AcDbBlockEnd
  0
BLOCK
  5
27F
330
27D
100
AcDbEntity
  8
0
100
AcDbBlockBegin
  2
block 100
 70
     0
 71
     0
 10
0.0
 20
0.0
 30
0.0
  3
block 100
  1

  0
SPLINE
  5
281
330
27D
100
AcDbEntity
  8
Layer 1
370
     0
100
AcDbSpline
210
0.0
220
0.0
230
1.0
 70
     8
 71
     3
 72
    14
 73
    10
 74
     0
 42
0.0000000001
 43
0.0000000001
 40
0.0
 40
0.0
 40
0.0
 40
0.0
 40
1.0
 40
1.0
 40
1.0
 40
2.0
 40
2.0
 40
2.0
 40
3.0
 40
3.0
 40
3.0
 40
3.0
 10
78.36098781838128
 20
-11.82150844666974
 30
0.0
 10
79.81016819026786
 20
-9.311754729994648
 30
0.0
 10
78.95009953499273
 20
-6.102301658677539
 30
0.0
 10
76.44034581831764
 20
-4.653293541678853
 30
0.0
 10
73.93041984675465
 20
-3.204285424680167
 30
0.0
 10
70.72113903032543
 20
-4.064181825067404
 30
0.0
 10
69.27213091332675
 20
-6.574107796630392
 30
0.0
 10
68.33471981338538
 20
-8.026044246723346
 30
0.0
 10
68.33471981338538
 20
-10.36957199657678
 30
0.0
 10
69.27213091332675
 20
-11.82150844666974
 30
0.0
  0
ENDBLK
  5
280
330
27D
100
AcDbEntity
  8
0
100
AcDbBlockEnd
  0
BLOCK
  5
284
330
282
100
AcDbEntity
  8
0
100
AcDbBlockBegin
  2
block 101
 70
     0
 71
     0
 10
0.0
 20
0.0
 30
0.0
  3
block 101
  1

  0
SPLINE
  5
286
330
282
100
AcDbEntity
  8
Layer 1
370
     0
100
AcDbSpline
210
0.0
220
0.0
230
1.0
 70
     8
 71
     3
 72
    14
 73
    10
 74
     0
 42
0.0000000001
 43
0.0000000001
 40
0.0
 40
0.0
 40
0.0
 40
0.0
 40
1.0
 40
1.0
 40
1.0
 40
2.0
 40
2.0
 40
2.0
 40
3.0
 40
3.0
 40
3.0
 40
3.0
 10
60.18310175338433
 20
-11.82150844666974
 30
0.0
 10
58.73409363638564
 20
-14.33143441823273
 30
0.0
 10
59.59399003677288
 20
-17.54071523466194
 30
0.0
 10
62.10374375344797
 20
-18.98989560654852
 30
0.0
 10
64.61366972501095
 20
-20.43890372354721
 30
0.0
 10
67.82295054144016
 20
-19.57900732315997
 30
0.0
 10
69.27213091332675
 20
-17.06908135159698
 30
0.0
 10
70.20936975838023
 20
-15.61697264661613
 30
0.0
 10
70.20936975838023
 20
-13.27361715165059
 30
0.0
 10
69.27213091332675
 20
-11.82150844666974
 30
0.0
  0
ENDBLK
  5
285
330
282
100
AcDbEntity
  8
0
100
AcDbBlockEnd
  0
BLOCK
  5
289
330
287
100
AcDbEntity
  8
0
100
AcDbBlockBegin
  2
block 102
 70
     0
 71
     0
 10
0.0
 20
0.0
 30
0.0
  3
block 102
  1

  0
POLYLINE
  5
28B
330
287
100
AcDbEntity
  8
Layer 1
370
     0
100
AcDb2dPolyline
 66
     1
 10
0.0
 20
0.0
 30
0.0
  0
VERTEX
  5
28C
330
28B
100
AcDbEntity
  8
Layer 1
370
     0
100
AcDbVertex
100
AcDb2dVertex
 10
60.18310175338433
 20
-11.82150844666974
 30
0.0
  0
VERTEX
  5
28D
330
28B
100
AcDbEntity
  8
Layer 1
370
     0
100
AcDbVertex
100
AcDb2dVertex
 10
58.98782508625952
 20
-11.82150844666974
 30
0.0
  0
SEQEND
  5
28E
330
28B
100
AcDbEntity
  8
Layer 1
370
     0
  0
ENDBLK
  5
28A
330
287
100
AcDbEntity
  8
0
100
AcDbBlockEnd
  0
BLOCK
  5
291
330
28F
100
AcDbEntity
  8
0
100
AcDbBlockBegin
  2
block 103
 70
     0
 71
     0
 10
0.0
 20
0.0
 30
0.0
  3
block 103
  1

  0
POLYLINE
  5
293
330
28F
100
AcDbEntity
  8
Layer 1
370
     0
100
AcDb2dPolyline
 66
     1
 10
0.0
 20
0.0
 30
0.0
  0
VERTEX
  5
294
330
293
100
AcDbEntity
  8
Layer 1
370
     0
100
AcDbVertex
100
AcDb2dVertex
 10
58.98782508625952
 20
-11.82150844666974
 30
0.0
  0
VERTEX
  5
295
330
293
100
AcDbEntity
  8
Layer 1
370
     0
100
AcDbVertex
100
AcDb2dVertex
 10
58.98782508625952
 20
-70.45311042475602
 30
0.0
  0
SEQEND
  5
296
330
293
100
AcDbEntity
  8
Layer 1
370
     0
  0
ENDBLK
  5
292
330
28F
100
AcDbEntity
  8
0
100
AcDbBlockEnd
  0
BLOCK
  5
299
330
297
100
AcDbEntity
  8
0
100
AcDbBlockBegin
  2
block 104
 70
     0
 71
     0
 10
0.0
 20
0.0
 30
0.0
  3
block 104
  1

  0
POLYLINE
  5
29B
330
297
100
AcDbEntity
  8
Layer 1
370
     0
100
AcDb2dPolyline
 66
     1
 10
0.0
 20
0.0
 30
0.0
  0
VERTEX
  5
29C
330
29B
100
AcDbEntity
  8
Layer 1
370
     0
100
AcDbVertex
100
AcDb2dVertex
 10
58.98782508625952
 20
-70.45311042475602
 30
0.0
  0
VERTEX
  5
29D
330
29B
100
AcDbEntity
  8
Layer 1
370
     0
100
AcDbVertex
100
AcDb2dVertex
 10
55.63850104596916
 20
-70.45311042475602
 30
0.0
  0
SEQEND
  5
29E
330
29B
100
AcDbEntity
  8
Layer 1
370
     0
  0
ENDBLK
  5
29A
330
297
100
AcDbEntity
  8
0
100
AcDbBlockEnd
  0
BLOCK
  5
2A1
330
29F
100
AcDbEntity
  8
0
100
AcDbBlockBegin
  2
block 105
 70
     0
 71
     0
 10
0.0
 20
0.0
 30
0.0
  3
block 105
  1

  0
POLYLINE
  5
2A3
330
29F
100
AcDbEntity
  8
Layer 1
370
     0
100
AcDb2dPolyline
 66
     1
 10
0.0
 20
0.0
 30
0.0
  0
VERTEX
  5
2A4
330
2A3
100
AcDbEntity
  8
Layer 1
370
     0
100
AcDbVertex
100
AcDb2dVertex
 10
55.63850104596916
 20
-70.45311042475602
 30
0.0
  0
VERTEX
  5
2A5
330
2A3
100
AcDbEntity
  8
Layer 1
370
     0
100
AcDbVertex
100
AcDb2dVertex
 10
52.28934926056671
 20
-70.45311042475602
 30
0.0
  0
SEQEND
  5
2A6
330
2A3
100
AcDbEntity
  8
Layer 1
370
     0
  0
ENDBLK
  5
2A2
330
29F
100
AcDbEntity
  8
0
100
AcDbBlockEnd
  0
BLOCK
  5
2A9
330
2A7
100
AcDbEntity
  8
0
100
AcDbBlockBegin
  2
block 106
 70
     0
 71
     0
 10
0.0
 20
0.0
 30
0.0
  3
block 106
  1

  0
POLYLINE
  5
2AB
330
2A7
100
AcDbEntity
  8
Layer 1
370
     0
100
AcDb2dPolyline
 66
     1
 10
0.0
 20
0.0
 30
0.0
  0
VERTEX
  5
2AC
330
2AB
100
AcDbEntity
  8
Layer 1
370
     0
100
AcDbVertex
100
AcDb2dVertex
 10
52.28934926056671
 20
-70.45311042475602
 30
0.0
  0
VERTEX
  5
2AD
330
2AB
100
AcDbEntity
  8
Layer 1
370
     0
100
AcDbVertex
100
AcDb2dVertex
 10
52.28934926056671
 20
-11.82150844666974
 30
0.0
  0
SEQEND
  5
2AE
330
2AB
100
AcDbEntity
  8
Layer 1
370
     0
  0
ENDBLK
  5
2AA
330
2A7
100
AcDbEntity
  8
0
100
AcDbBlockEnd
  0
BLOCK
  5
2B1
330
2AF
100
AcDbEntity
  8
0
100
AcDbBlockBegin
  2
block 107
 70
     0
 71
     0
 10
0.0
 20
0.0
 30
0.0
  3
block 107
  1

  0
POLYLINE
  5
2B3
330
2AF
100
AcDbEntity
  8
Layer 1
370
     0
100
AcDb2dPolyline
 66
     1
 10
0.0
 20
0.0
 30
0.0
  0
VERTEX
  5
2B4
330
2B3
100
AcDbEntity
  8
Layer 1
370
     0
100
AcDbVertex
100
AcDb2dVertex
 10
52.28934926056671
 20
-11.82150844666974
 30
0.0
  0
VERTEX
  5
2B5
330
2B3
100
AcDbEntity
  8
Layer 1
370
     0
100
AcDbVertex
100
AcDb2dVertex
 10
51.0940725934419
 20
-11.82150844666974
 30
0.0
  0
SEQEND
  5
2B6
330
2B3
100
AcDbEntity
  8
Layer 1
370
     0
  0
ENDBLK
  5
2B2
330
2AF
100
AcDbEntity
  8
0
100
AcDbBlockEnd
  0
BLOCK
  5
2B9
330
2B7
100
AcDbEntity
  8
0
100
AcDbBlockBegin
  2
block 108
 70
     0
 71
     0
 10
0.0
 20
0.0
 30
0.0
  3
block 108
  1

  0
SPLINE
  5
2BB
330
2B7
100
AcDbEntity
  8
Layer 1
370
     0
100
AcDbSpline
210
0.0
220
0.0
230
1.0
 70
     8
 71
     3
 72
    14
 73
    10
 74
     0
 42
0.0000000001
 43
0.0000000001
 40
0.0
 40
0.0
 40
0.0
 40
0.0
 40
1.0
 40
1.0
 40
1.0
 40
2.0
 40
2.0
 40
2.0
 40
3.0
 40
3.0
 40
3.0
 40
3.0
 10
42.00504343349948
 20
-11.82150844666974
 30
0.0
 10
40.55603531650079
 20
-14.33143441823273
 30
0.0
 10
41.41593171688803
 20
-17.54071523466194
 30
0.0
 10
43.92585768845102
 20
-18.98989560654852
 30
0.0
 10
46.43561140512611
 20
-20.43890372354721
 30
0.0
 10
49.64506447644322
 20
-19.57900732315997
 30
0.0
 10
51.0940725934419
 20
-17.06908135159698
 30
0.0
 10
52.03148369338328
 20
-15.61697264661613
 30
0.0
 10
52.03148369338328
 20
-13.27361715165059
 30
0.0
 10
51.0940725934419
 20
-11.82150844666974
 30
0.0
  0
ENDBLK
  5
2BA
330
2B7
100
AcDbEntity
  8
0
100
AcDbBlockEnd
  0
BLOCK
  5
2BE
330
2BC
100
AcDbEntity
  8
0
100
AcDbBlockBegin
  2
block 109
 70
     0
 71
     0
 10
0.0
 20
0.0
 30
0.0
  3
block 109
  1

  0
SPLINE
  5
2C0
330
2BC
100
AcDbEntity
  8
Layer 1
370
     0
100
AcDbSpline
210
0.0
220
0.0
230
1.0
 70
     8
 71
     3
 72
    14
 73
    10
 74
     0
 42
0.0000000001
 43
0.0000000001
 40
0.0
 40
0.0
 40
0.0
 40
0.0
 40
1.0
 40
1.0
 40
1.0
 40
2.0
 40
2.0
 40
2.0
 40
3.0
 40
3.0
 40
3.0
 40
3.0
 10
42.00504343349948
 20
-11.82150844666974
 30
0.0
 10
43.45422380538606
 20
-9.311754729994648
 30
0.0
 10
42.59415515011093
 20
-6.102301658677539
 30
0.0
 10
40.08440143343584
 20
-4.653293541678853
 30
0.0
 10
37.57447546187285
 20
-3.204285424680167
 30
0.0
 10
34.36519464544364
 20
-4.064181825067404
 30
0.0
 10
32.91618652844495
 20
-6.574107796630392
 30
0.0
 10
31.97877542850358
 20
-8.026044246723346
 30
0.0
 10
31.97877542850358
 20
-10.36957199657678
 30
0.0
 10
32.91618652844495
 20
-11.82150844666974
 30
0.0
  0
ENDBLK
  5
2BF
330
2BC
100
AcDbEntity
  8
0
100
AcDbBlockEnd
  0
BLOCK
  5
2C3
330
2C1
100
AcDbEntity
  8
0
100
AcDbBlockBegin
  2
block 110
 70
     0
 71
     0
 10
0.0
 20
0.0
 30
0.0
  3
block 110
  1

  0
SPLINE
  5
2C5
330
2C1
100
AcDbEntity
  8
Layer 1
370
     0
100
AcDbSpline
210
0.0
220
0.0
230
1.0
 70
     8
 71
     3
 72
    14
 73
    10
 74
     0
 42
0.0000000001
 43
0.0000000001
 40
0.0
 40
0.0
 40
0.0
 40
0.0
 40
1.0
 40
1.0
 40
1.0
 40
2.0
 40
2.0
 40
2.0
 40
3.0
 40
3.0
 40
3.0
 40
3.0
 10
23.82715736850253
 20
-11.82150844666974
 30
0.0
 10
22.37814925150384
 20
-14.33143441823273
 30
0.0
 10
23.23804565189108
 20
-17.54071523466194
 30
0.0
 10
25.74779936856617
 20
-18.98989560654852
 30
0.0
 10
28.25772534012916
 20
-20.43890372354721
 30
0.0
 10
31.46700615655837
 20
-19.57900732315997
 30
0.0
 10
32.91618652844495
 20
-17.06908135159698
 30
0.0
 10
33.85359762838632
 20
-15.61697264661613
 30
0.0
 10
33.85359762838632
 20
-13.27361715165059
 30
0.0
 10
32.91618652844495
 20
-11.82150844666974
 30
0.0
  0
ENDBLK
  5
2C4
330
2C1
100
AcDbEntity
  8
0
100
AcDbBlockEnd
  0
BLOCK
  5
2C8
330
2C6
100
AcDbEntity
  8
0
100
AcDbBlockBegin
  2
block 111
 70
     0
 71
     0
 10
0.0
 20
0.0
 30
0.0
  3
block 111
  1

  0
SPLINE
  5
2CA
330
2C6
100
AcDbEntity
  8
Layer 1
370
     0
100
AcDbSpline
210
0.0
220
0.0
230
1.0
 70
     8
 71
     3
 72
    14
 73
    10
 74
     0
 42
0.0000000001
 43
0.0000000001
 40
0.0
 40
0.0
 40
0.0
 40
0.0
 40
1.0
 40
1.0
 40
1.0
 40
2.0
 40
2.0
 40
2.0
 40
3.0
 40
3.0
 40
3.0
 40
3.0
 10
23.82715736850253
 20
-11.82150844666974
 30
0.0
 10
25.27616548550121
 20
-9.311754729994648
 30
0.0
 10
24.41626908511398
 20
-6.102301658677539
 30
0.0
 10
21.90634311355099
 20
-4.653293541678853
 30
0.0
 10
19.3965893968759
 20
-3.204285424680167
 30
0.0
 10
16.18730858044669
 20
-4.064181825067404
 30
0.0
 10
14.7381282085601
 20
-6.574107796630392
 30
0.0
 10
13.80071710861873
 20
-8.026044246723346
 30
0.0
 10
13.80071710861873
 20
-10.36957199657678
 30
0.0
 10
14.7381282085601
 20
-11.82150844666974
 30
0.0
  0
ENDBLK
  5
2C9
330
2C6
100
AcDbEntity
  8
0
100
AcDbBlockEnd
  0
BLOCK
  5
2CD
330
2CB
100
AcDbEntity
  8
0
100
AcDbBlockBegin
  2
block 112
 70
     0
 71
     0
 10
0.0
 20
0.0
 30
0.0
  3
block 112
  1

  0
SPLINE
  5
2CF
330
2CB
100
AcDbEntity
  8
Layer 1
370
     0
100
AcDbSpline
210
0.0
220
0.0
230
1.0
 70
     8
 71
     3
 72
    11
 73
     7
 74
     0
 42
0.0000000001
 43
0.0000000001
 40
0.0
 40
0.0
 40
0.0
 40
0.0
 40
1.0
 40
1.0
 40
1.0
 40
2.0
 40
2.0
 40
2.0
 40
2.0
 10
5.649271303505577
 20
-17.06908135159698
 30
0.0
 10
7.098279420504263
 20
-19.57900732315997
 30
0.0
 10
10.30756023693347
 20
-20.43890372354721
 30
0.0
 10
12.81748620849646
 20
-18.98989560654852
 30
0.0
 10
15.32723992517155
 20
-17.54071523466194
 30
0.0
 10
16.18730858044669
 20
-14.33143441823273
 30
0.0
 10
14.7381282085601
 20
-11.82150844666974
 30
0.0
  0
ENDBLK
  5
2CE
330
2CB
100
AcDbEntity
  8
0
100
AcDbBlockEnd
  0
BLOCK
  5
2D2
330
2D0
100
AcDbEntity
  8
0
100
AcDbBlockBegin
  2
block 113
 70
     0
 71
     0
 10
0.0
 20
0.0
 30
0.0
  3
block 113
  1

  0
POLYLINE
  5
2D4
330
2D0
100
AcDbEntity
  8
Layer 1
370
     0
100
AcDb2dPolyline
 66
     1
 10
0.0
 20
0.0
 30
0.0
  0
VERTEX
  5
2D5
330
2D4
100
AcDbEntity
  8
Layer 1
370
     0
100
AcDbVertex
100
AcDb2dVertex
 10
5.649271303505577
 20
-17.06908135159698
 30
0.0
  0
VERTEX
  5
2D6
330
2D4
100
AcDbEntity
  8
Layer 1
370
     0
100
AcDbVertex
100
AcDb2dVertex
 10
5.649271303505577
 20
-111.8003124413727
 30
0.0
  0
SEQEND
  5
2D7
330
2D4
100
AcDbEntity
  8
Layer 1
370
     0
  0
ENDBLK
  5
2D3
330
2D0
100
AcDbEntity
  8
0
100
AcDbBlockEnd
  0
BLOCK
  5
2DA
330
2D8
100
AcDbEntity
  8
0
100
AcDbBlockBegin
  2
block 114
 70
     0
 71
     0
 10
0.0
 20
0.0
 30
0.0
  3
block 114
  1

  0
POLYLINE
  5
2DC
330
2D8
100
AcDbEntity
  8
Layer 1
370
     0
100
AcDb2dPolyline
 66
     1
 10
0.0
 20
0.0
 30
0.0
  0
VERTEX
  5
2DD
330
2DC
100
AcDbEntity
  8
Layer 1
370
     0
100
AcDbVertex
100
AcDb2dVertex
 10
5.649271303505577
 20
-111.8003124413727
 30
0.0
  0
VERTEX
  5
2DE
330
2DC
100
AcDbEntity
  8
Layer 1
370
     0
100
AcDbVertex
100
AcDb2dVertex
 10
45.64065509747645
 20
-111.8003124413727
 30
0.0
  0
SEQEND
  5
2DF
330
2DC
100
AcDbEntity
  8
Layer 1
370
     0
  0
ENDBLK
  5
2DB
330
2D8
100
AcDbEntity
  8
0
100
AcDbBlockEnd
  0
BLOCK
  5
2E2
330
2E0
100
AcDbEntity
  8
0
100
AcDbBlockBegin
  2
block 115
 70
     0
 71
     0
 10
0.0
 20
0.0
 30
0.0
  3
block 115
  1

  0
POLYLINE
  5
2E4
330
2E0
100
AcDbEntity
  8
Layer 1
370
     0
100
AcDb2dPolyline
 66
     1
 10
0.0
 20
0.0
 30
0.0
  0
VERTEX
  5
2E5
330
2E4
100
AcDbEntity
  8
Layer 1
370
     0
100
AcDbVertex
100
AcDb2dVertex
 10
45.64065509747645
 20
-111.8003124413727
 30
0.0
  0
VERTEX
  5
2E6
330
2E4
100
AcDbEntity
  8
Layer 1
370
     0
100
AcDbVertex
100
AcDb2dVertex
 10
45.64065509747645
 20
-118.4989605219534
 30
0.0
  0
SEQEND
  5
2E7
330
2E4
100
AcDbEntity
  8
Layer 1
370
     0
  0
ENDBLK
  5
2E3
330
2E0
100
AcDbEntity
  8
0
100
AcDbBlockEnd
  0
BLOCK
  5
2EA
330
2E8
100
AcDbEntity
  8
0
100
AcDbBlockBegin
  2
block 116
 70
     0
 71
     0
 10
0.0
 20
0.0
 30
0.0
  3
block 116
  1

  0
POLYLINE
  5
2EC
330
2E8
100
AcDbEntity
  8
Layer 1
370
     0
100
AcDb2dPolyline
 66
     1
 10
0.0
 20
0.0
 30
0.0
  0
VERTEX
  5
2ED
330
2EC
100
AcDbEntity
  8
Layer 1
370
     0
100
AcDbVertex
100
AcDb2dVertex
 10
45.64065509747645
 20
-118.4989605219534
 30
0.0
  0
VERTEX
  5
2EE
330
2EC
100
AcDbEntity
  8
Layer 1
370
     0
100
AcDbVertex
100
AcDb2dVertex
 10
55.63850104596916
 20
-118.4989605219534
 30
0.0
  0
SEQEND
  5
2EF
330
2EC
100
AcDbEntity
  8
Layer 1
370
     0
  0
ENDBLK
  5
2EB
330
2E8
100
AcDbEntity
  8
0
100
AcDbBlockEnd
  0
BLOCK
  5
2F2
330
2F0
100
AcDbEntity
  8
0
100
AcDbBlockBegin
  2
block 117
 70
     0
 71
     0
 10
0.0
 20
0.0
 30
0.0
  3
block 117
  1

  0
POLYLINE
  5
2F4
330
2F0
100
AcDbEntity
  8
Layer 1
370
     0
100
AcDb2dPolyline
 66
     1
 10
0.0
 20
0.0
 30
0.0
  0
VERTEX
  5
2F5
330
2F4
100
AcDbEntity
  8
Layer 1
370
     0
100
AcDbVertex
100
AcDb2dVertex
 10
55.63850104596916
 20
-118.4989605219534
 30
0.0
  0
VERTEX
  5
2F6
330
2F4
100
AcDbEntity
  8
Layer 1
370
     0
100
AcDbVertex
100
AcDb2dVertex
 10
65.63651924934979
 20
-118.4989605219534
 30
0.0
  0
SEQEND
  5
2F7
330
2F4
100
AcDbEntity
  8
Layer 1
370
     0
  0
ENDBLK
  5
2F3
330
2F0
100
AcDbEntity
  8
0
100
AcDbBlockEnd
  0
BLOCK
  5
2FA
330
2F8
100
AcDbEntity
  8
0
100
AcDbBlockBegin
  2
block 118
 70
     0
 71
     0
 10
0.0
 20
0.0
 30
0.0
  3
block 118
  1

  0
POLYLINE
  5
2FC
330
2F8
100
AcDbEntity
  8
Layer 1
370
     0
100
AcDb2dPolyline
 66
     1
 10
0.0
 20
0.0
 30
0.0
  0
VERTEX
  5
2FD
330
2FC
100
AcDbEntity
  8
Layer 1
370
     0
100
AcDbVertex
100
AcDb2dVertex
 10
65.63651924934979
 20
-118.4989605219534
 30
0.0
  0
VERTEX
  5
2FE
330
2FC
100
AcDbEntity
  8
Layer 1
370
     0
100
AcDbVertex
100
AcDb2dVertex
 10
65.63651924934979
 20
-111.8003124413727
 30
0.0
  0
SEQEND
  5
2FF
330
2FC
100
AcDbEntity
  8
Layer 1
370
     0
  0
ENDBLK
  5
2FB
330
2F8
100
AcDbEntity
  8
0
100
AcDbBlockEnd
  0
BLOCK
  5
302
330
300
100
AcDbEntity
  8
0
100
AcDbBlockBegin
  2
block 119
 70
     0
 71
     0
 10
0.0
 20
0.0
 30
0.0
  3
block 119
  1

  0
POLYLINE
  5
304
330
300
100
AcDbEntity
  8
Layer 1
370
     0
100
AcDb2dPolyline
 66
     1
 10
0.0
 20
0.0
 30
0.0
  0
VERTEX
  5
305
330
304
100
AcDbEntity
  8
Layer 1
370
     0
100
AcDbVertex
100
AcDb2dVertex
 10
65.63651924934979
 20
-111.8003124413727
 30
0.0
  0
VERTEX
  5
306
330
304
100
AcDbEntity
  8
Layer 1
370
     0
100
AcDbVertex
100
AcDb2dVertex
 10
105.6279030433207
 20
-111.8003124413727
 30
0.0
  0
SEQEND
  5
307
330
304
100
AcDbEntity
  8
Layer 1
370
     0
  0
ENDBLK
  5
303
330
300
100
AcDbEntity
  8
0
100
AcDbBlockEnd
  0
BLOCK
  5
30A
330
308
100
AcDbEntity
  8
0
100
AcDbBlockBegin
  2
block 120
 70
     0
 71
     0
 10
0.0
 20
0.0
 30
0.0
  3
block 120
  1

  0
SPLINE
  5
30C
330
308
100
AcDbEntity
  8
Layer 1
370
     0
100
AcDbSpline
210
0.0
220
0.0
230
1.0
 70
     8
 71
     3
 72
    11
 73
     7
 74
     0
 42
0.0000000001
 43
0.0000000001
 40
0.0
 40
0.0
 40
0.0
 40
0.0
 40
1.0
 40
1.0
 40
1.0
 40
2.0
 40
2.0
 40
2.0
 40
2.0
 10
201.5168592346594
 20
-11.82150844666974
 30
0.0
 10
200.0675066078849
 20
-14.33143441823273
 30
0.0
 10
200.927747518048
 20
-17.54071523466194
 30
0.0
 10
203.437501234723
 20
-18.98989560654852
 30
0.0
 10
205.9472549513982
 20
-20.43890372354721
 30
0.0
 10
209.1567080227153
 20
-19.57900732315997
 30
0.0
 10
210.6057161397139
 20
-17.06908135159698
 30
0.0
  0
ENDBLK
  5
30B
330
308
100
AcDbEntity
  8
0
100
AcDbBlockEnd
  0
BLOCK
  5
30F
330
30D
100
AcDbEntity
  8
0
100
AcDbBlockBegin
  2
block 121
 70
     0
 71
     0
 10
0.0
 20
0.0
 30
0.0
  3
block 121
  1

  0
SPLINE
  5
311
330
30D
100
AcDbEntity
  8
Layer 1
370
     0
100
AcDbSpline
210
0.0
220
0.0
230
1.0
 70
     8
 71
     3
 72
    14
 73
    10
 74
     0
 42
0.0000000001
 43
0.0000000001
 40
0.0
 40
0.0
 40
0.0
 40
0.0
 40
1.0
 40
1.0
 40
1.0
 40
2.0
 40
2.0
 40
2.0
 40
3.0
 40
3.0
 40
3.0
 40
3.0
 10
201.5168592346594
 20
-11.82150844666974
 30
0.0
 10
202.9658673516581
 20
-9.311754729994648
 30
0.0
 10
202.1059709512708
 20
-6.102301658677539
 30
0.0
 10
199.59587272482
 20
-4.653293541678853
 30
0.0
 10
197.0861190081449
 20
-3.204285424680167
 30
0.0
 10
193.8766659368278
 20
-4.064181825067404
 30
0.0
 10
192.4276578198291
 20
-6.574107796630392
 30
0.0
 10
191.4902467198877
 20
-8.026044246723346
 30
0.0
 10
191.4902467198877
 20
-10.36957199657678
 30
0.0
 10
192.4276578198291
 20
-11.82150844666974
 30
0.0
  0
ENDBLK
  5
310
330
30D
100
AcDbEntity
  8
0
100
AcDbBlockEnd
  0
BLOCK
  5
314
330
312
100
AcDbEntity
  8
0
100
AcDbBlockBegin
  2
block 122
 70
     0
 71
     0
 10
0.0
 20
0.0
 30
0.0
  3
block 122
  1

  0
SPLINE
  5
316
330
312
100
AcDbEntity
  8
Layer 1
370
     0
100
AcDbSpline
210
0.0
220
0.0
230
1.0
 70
     8
 71
     3
 72
    14
 73
    10
 74
     0
 42
0.0000000001
 43
0.0000000001
 40
0.0
 40
0.0
 40
0.0
 40
0.0
 40
1.0
 40
1.0
 40
1.0
 40
2.0
 40
2.0
 40
2.0
 40
3.0
 40
3.0
 40
3.0
 40
3.0
 10
183.3388009147746
 20
-11.82150844666974
 30
0.0
 10
181.8897927977759
 20
-14.33143441823273
 30
0.0
 10
182.7496891981631
 20
-17.54071523466194
 30
0.0
 10
185.2594429148382
 20
-18.98989560654852
 30
0.0
 10
187.7691966315133
 20
-20.43890372354721
 30
0.0
 10
190.9786497028304
 20
-19.57900732315997
 30
0.0
 10
192.4276578198291
 20
-17.06908135159698
 30
0.0
 10
193.3650689197705
 20
-15.61697264661613
 30
0.0
 10
193.3650689197705
 20
-13.27361715165059
 30
0.0
 10
192.4276578198291
 20
-11.82150844666974
 30
0.0
  0
ENDBLK
  5
315
330
312
100
AcDbEntity
  8
0
100
AcDbBlockEnd
  0
BLOCK
  5
319
330
317
100
AcDbEntity
  8
0
100
AcDbBlockBegin
  2
block 123
 70
     0
 71
     0
 10
0.0
 20
0.0
 30
0.0
  3
block 123
  1

  0
SPLINE
  5
31B
330
317
100
AcDbEntity
  8
Layer 1
370
     0
100
AcDbSpline
210
0.0
220
0.0
230
1.0
 70
     8
 71
     3
 72
    14
 73
    10
 74
     0
 42
0.0000000001
 43
0.0000000001
 40
0.0
 40
0.0
 40
0.0
 40
0.0
 40
1.0
 40
1.0
 40
1.0
 40
2.0
 40
2.0
 40
2.0
 40
3.0
 40
3.0
 40
3.0
 40
3.0
 10
183.3388009147746
 20
-11.82150844666974
 30
0.0
 10
184.7878090317732
 20
-9.311754729994648
 30
0.0
 10
183.927912631386
 20
-6.102301658677539
 30
0.0
 10
181.4181589147109
 20
-4.653293541678853
 30
0.0
 10
178.90806068826
 20
-3.204285424680167
 30
0.0
 10
175.6989521267187
 20
-4.064181825067404
 30
0.0
 10
174.24994400972
 20
-6.574107796630392
 30
0.0
 10
173.3125329097787
 20
-8.026044246723346
 30
0.0
 10
173.3125329097787
 20
-10.36957199657678
 30
0.0
 10
174.24994400972
 20
-11.82150844666974
 30
0.0
  0
ENDBLK
  5
31A
330
317
100
AcDbEntity
  8
0
100
AcDbBlockEnd
  0
BLOCK
  5
31E
330
31C
100
AcDbEntity
  8
0
100
AcDbBlockBegin
  2
block 124
 70
     0
 71
     0
 10
0.0
 20
0.0
 30
0.0
  3
block 124
  1

  0
SPLINE
  5
320
330
31C
100
AcDbEntity
  8
Layer 1
370
     0
100
AcDbSpline
210
0.0
220
0.0
230
1.0
 70
     8
 71
     3
 72
    14
 73
    10
 74
     0
 42
0.0000000001
 43
0.0000000001
 40
0.0
 40
0.0
 40
0.0
 40
0.0
 40
1.0
 40
1.0
 40
1.0
 40
2.0
 40
2.0
 40
2.0
 40
3.0
 40
3.0
 40
3.0
 40
3.0
 10
165.1607425948897
 20
-11.82150844666974
 30
0.0
 10
163.711734477891
 20
-14.33143441823273
 30
0.0
 10
164.5716308782783
 20
-17.54071523466194
 30
0.0
 10
167.0813845949534
 20
-18.98989560654852
 30
0.0
 10
169.5914828214042
 20
-20.43890372354721
 30
0.0
 10
172.8005913829456
 20
-19.57900732315997
 30
0.0
 10
174.24994400972
 20
-17.06908135159698
 30
0.0
 10
175.1870105998856
 20
-15.61697264661613
 30
0.0
 10
175.1870105998856
 20
-13.27361715165059
 30
0.0
 10
174.24994400972
 20
-11.82150844666974
 30
0.0
  0
ENDBLK
  5
31F
330
31C
100
AcDbEntity
  8
0
100
AcDbBlockEnd
  0
BLOCK
  5
323
330
321
100
AcDbEntity
  8
0
100
AcDbBlockBegin
  2
block 125
 70
     0
 71
     0
 10
0.0
 20
0.0
 30
0.0
  3
block 125
  1

  0
SPLINE
  5
325
330
321
100
AcDbEntity
  8
Layer 1
370
     0
100
AcDbSpline
210
0.0
220
0.0
230
1.0
 70
     8
 71
     3
 72
    14
 73
    10
 74
     0
 42
0.0000000001
 43
0.0000000001
 40
0.0
 40
0.0
 40
0.0
 40
0.0
 40
1.0
 40
1.0
 40
1.0
 40
2.0
 40
2.0
 40
2.0
 40
3.0
 40
3.0
 40
3.0
 40
3.0
 10
165.1607425948897
 20
-11.82150844666974
 30
0.0
 10
166.6097507118884
 20
-9.311754729994648
 30
0.0
 10
165.7498543115012
 20
-6.102301658677539
 30
0.0
 10
163.2401005948261
 20
-4.653293541678853
 30
0.0
 10
160.730346878151
 20
-3.204285424680167
 30
0.0
 10
157.5208938068339
 20
-4.064181825067404
 30
0.0
 10
156.0718856898352
 20
-6.574107796630392
 30
0.0
 10
155.1344745898938
 20
-8.026044246723346
 30
0.0
 10
155.1344745898938
 20
-10.36957199657678
 30
0.0
 10
156.0718856898352
 20
-11.82150844666974
 30
0.0
  0
ENDBLK
  5
324
330
321
100
AcDbEntity
  8
0
100
AcDbBlockEnd
  0
BLOCK
  5
328
330
326
100
AcDbEntity
  8
0
100
AcDbBlockBegin
  2
block 126
 70
     0
 71
     0
 10
0.0
 20
0.0
 30
0.0
  3
block 126
  1

  0
SPLINE
  5
32A
330
326
100
AcDbEntity
  8
Layer 1
370
     0
100
AcDbSpline
210
0.0
220
0.0
230
1.0
 70
     8
 71
     3
 72
    14
 73
    10
 74
     0
 42
0.0000000001
 43
0.0000000001
 40
0.0
 40
0.0
 40
0.0
 40
0.0
 40
1.0
 40
1.0
 40
1.0
 40
2.0
 40
2.0
 40
2.0
 40
3.0
 40
3.0
 40
3.0
 40
3.0
 10
146.9828565298928
 20
-11.82150844666974
 30
0.0
 10
145.5338484128941
 20
-14.33143441823273
 30
0.0
 10
146.3937448132813
 20
-17.54071523466194
 30
0.0
 10
148.9034985299564
 20
-18.98989560654852
 30
0.0
 10
151.4134245015194
 20
-20.43890372354721
 30
0.0
 10
154.6227053179486
 20
-19.57900732315997
 30
0.0
 10
156.0718856898352
 20
-17.06908135159698
 30
0.0
 10
157.0091245348887
 20
-15.61697264661613
 30
0.0
 10
157.0091245348887
 20
-13.27361715165059
 30
0.0
 10
156.0718856898352
 20
-11.82150844666974
 30
0.0
  0
ENDBLK
  5
329
330
326
100
AcDbEntity
  8
0
100
AcDbBlockEnd
  0
BLOCK
  5
32D
330
32B
100
AcDbEntity
  8
0
100
AcDbBlockBegin
  2
block 127
 70
     0
 71
     0
 10
0.0
 20
0.0
 30
0.0
  3
block 127
  1

  0
SPLINE
  5
32F
330
32B
100
AcDbEntity
  8
Layer 1
370
     0
100
AcDbSpline
210
0.0
220
0.0
230
1.0
 70
     8
 71
     3
 72
    14
 73
    10
 74
     0
 42
0.0000000001
 43
0.0000000001
 40
0.0
 40
0.0
 40
0.0
 40
0.0
 40
1.0
 40
1.0
 40
1.0
 40
2.0
 40
2.0
 40
2.0
 40
3.0
 40
3.0
 40
3.0
 40
3.0
 10
146.9828565298928
 20
-11.82150844666974
 30
0.0
 10
148.4318646468915
 20
-9.311754729994648
 30
0.0
 10
147.5719682465042
 20
-6.102301658677539
 30
0.0
 10
145.0620422749412
 20
-4.653293541678853
 30
0.0
 10
142.5522885582661
 20
-3.204285424680167
 30
0.0
 10
139.342835486949
 20
-4.064181825067404
 30
0.0
 10
137.8938273699503
 20
-6.574107796630392
 30
0.0
 10
136.956416270009
 20
-8.026044246723346
 30
0.0
 10
136.956416270009
 20
-10.36957199657678
 30
0.0
 10
137.8938273699503
 20
-11.82150844666974
 30
0.0
  0
ENDBLK
  5
32E
330
32B
100
AcDbEntity
  8
0
100
AcDbBlockEnd
  0
BLOCK
  5
332
330
330
100
AcDbEntity
  8
0
100
AcDbBlockBegin
  2
block 128
 70
     0
 71
     0
 10
0.0
 20
0.0
 30
0.0
  3
block 128
  1

  0
SPLINE
  5
334
330
330
100
AcDbEntity
  8
Layer 1
370
     0
100
AcDbSpline
210
0.0
220
0.0
230
1.0
 70
     8
 71
     3
 72
    14
 73
    10
 74
     0
 42
0.0000000001
 43
0.0000000001
 40
0.0
 40
0.0
 40
0.0
 40
0.0
 40
1.0
 40
1.0
 40
1.0
 40
2.0
 40
2.0
 40
2.0
 40
3.0
 40
3.0
 40
3.0
 40
3.0
 10
128.8049704648958
 20
-11.82150844666974
 30
0.0
 10
127.3557900930092
 20
-14.33143441823273
 30
0.0
 10
128.2156864933965
 20
-17.54071523466194
 30
0.0
 10
130.7256124649595
 20
-18.98989560654852
 30
0.0
 10
133.2355384365224
 20
-20.43890372354721
 30
0.0
 10
136.4448192529516
 20
-19.57900732315997
 30
0.0
 10
137.8938273699503
 20
-17.06908135159698
 30
0.0
 10
138.8312384698917
 20
-15.61697264661613
 30
0.0
 10
138.8312384698917
 20
-13.27361715165059
 30
0.0
 10
137.8938273699503
 20
-11.82150844666974
 30
0.0
  0
ENDBLK
  5
333
330
330
100
AcDbEntity
  8
0
100
AcDbBlockEnd
  0
BLOCK
  5
337
330
335
100
AcDbEntity
  8
0
100
AcDbBlockBegin
  2
block 129
 70
     0
 71
     0
 10
0.0
 20
0.0
 30
0.0
  3
block 129
  1

  0
SPLINE
  5
339
330
335
100
AcDbEntity
  8
Layer 1
370
     0
100
AcDbSpline
210
0.0
220
0.0
230
1.0
 70
     8
 71
     3
 72
    14
 73
    10
 74
     0
 42
0.0000000001
 43
0.0000000001
 40
0.0
 40
0.0
 40
0.0
 40
0.0
 40
1.0
 40
1.0
 40
1.0
 40
2.0
 40
2.0
 40
2.0
 40
3.0
 40
3.0
 40
3.0
 40
3.0
 10
128.8049704648958
 20
-11.82150844666974
 30
0.0
 10
130.2539785818945
 20
-9.311754729994648
 30
0.0
 10
129.3940821815073
 20
-6.102301658677539
 30
0.0
 10
126.8841562099443
 20
-4.653293541678853
 30
0.0
 10
124.3742302383813
 20
-3.204285424680167
 30
0.0
 10
121.1649494219521
 20
-4.064181825067404
 30
0.0
 10
119.7159413049534
 20
-6.574107796630392
 30
0.0
 10
118.778530205012
 20
-8.026044246723346
 30
0.0
 10
118.778530205012
 20
-10.36957199657678
 30
0.0
 10
119.7159413049534
 20
-11.82150844666974
 30
0.0
  0
ENDBLK
  5
338
330
335
100
AcDbEntity
  8
0
100
AcDbBlockEnd
  0
BLOCK
  5
33C
330
33A
100
AcDbEntity
  8
0
100
AcDbBlockBegin
  2
block 130
 70
     0
 71
     0
 10
0.0
 20
0.0
 30
0.0
  3
block 130
  1

  0
SPLINE
  5
33E
330
33A
100
AcDbEntity
  8
Layer 1
370
     0
100
AcDbSpline
210
0.0
220
0.0
230
1.0
 70
     8
 71
     3
 72
    11
 73
     7
 74
     0
 42
0.0000000001
 43
0.0000000001
 40
0.0
 40
0.0
 40
0.0
 40
0.0
 40
1.0
 40
1.0
 40
1.0
 40
2.0
 40
2.0
 40
2.0
 40
2.0
 10
110.626912145011
 20
-17.06908135159698
 30
0.0
 10
112.0759202620096
 20
-19.57900732315997
 30
0.0
 10
115.2853733333268
 20
-20.43890372354721
 30
0.0
 10
117.7951270500019
 20
-18.98989560654852
 30
0.0
 10
120.3050530215648
 20
-17.54071523466194
 30
0.0
 10
121.1649494219521
 20
-14.33143441823273
 30
0.0
 10
119.7159413049534
 20
-11.82150844666974
 30
0.0
  0
ENDBLK
  5
33D
330
33A
100
AcDbEntity
  8
0
100
AcDbBlockEnd
  0
BLOCK
  5
341
330
33F
100
AcDbEntity
  8
0
100
AcDbBlockBegin
  2
block 131
 70
     0
 71
     0
 10
0.0
 20
0.0
 30
0.0
  3
block 131
  1

  0
POLYLINE
  5
343
330
33F
100
AcDbEntity
  8
Layer 1
370
     0
100
AcDb2dPolyline
 66
     1
 10
0.0
 20
0.0
 30
0.0
  0
VERTEX
  5
344
330
343
100
AcDbEntity
  8
Layer 1
370
     0
100
AcDbVertex
100
AcDb2dVertex
 10
110.626912145011
 20
-17.06908135159698
 30
0.0
  0
VERTEX
  5
345
330
343
100
AcDbEntity
  8
Layer 1
370
     0
100
AcDbVertex
100
AcDb2dVertex
 10
110.626912145011
 20
-111.8003124413727
 30
0.0
  0
SEQEND
  5
346
330
343
100
AcDbEntity
  8
Layer 1
370
     0
  0
ENDBLK
  5
342
330
33F
100
AcDbEntity
  8
0
100
AcDbBlockEnd
  0
BLOCK
  5
349
330
347
100
AcDbEntity
  8
0
100
AcDbBlockBegin
  2
block 132
 70
     0
 71
     0
 10
0.0
 20
0.0
 30
0.0
  3
block 132
  1

  0
POLYLINE
  5
34B
330
347
100
AcDbEntity
  8
Layer 1
370
     0
100
AcDb2dPolyline
 66
     1
 10
0.0
 20
0.0
 30
0.0
  0
VERTEX
  5
34C
330
34B
100
AcDbEntity
  8
Layer 1
370
     0
100
AcDbVertex
100
AcDb2dVertex
 10
110.626912145011
 20
-111.8003124413727
 30
0.0
  0
VERTEX
  5
34D
330
34B
100
AcDbEntity
  8
Layer 1
370
     0
100
AcDbVertex
100
AcDb2dVertex
 10
150.6184681938697
 20
-111.8003124413727
 30
0.0
  0
SEQEND
  5
34E
330
34B
100
AcDbEntity
  8
Layer 1
370
     0
  0
ENDBLK
  5
34A
330
347
100
AcDbEntity
  8
0
100
AcDbBlockEnd
  0
BLOCK
  5
351
330
34F
100
AcDbEntity
  8
0
100
AcDbBlockBegin
  2
block 133
 70
     0
 71
     0
 10
0.0
 20
0.0
 30
0.0
  3
block 133
  1

  0
POLYLINE
  5
353
330
34F
100
AcDbEntity
  8
Layer 1
370
     0
100
AcDb2dPolyline
 66
     1
 10
0.0
 20
0.0
 30
0.0
  0
VERTEX
  5
354
330
353
100
AcDbEntity
  8
Layer 1
370
     0
100
AcDbVertex
100
AcDb2dVertex
 10
150.6184681938697
 20
-111.8003124413727
 30
0.0
  0
VERTEX
  5
355
330
353
100
AcDbEntity
  8
Layer 1
370
     0
100
AcDbVertex
100
AcDb2dVertex
 10
150.6184681938697
 20
-118.4989605219534
 30
0.0
  0
SEQEND
  5
356
330
353
100
AcDbEntity
  8
Layer 1
370
     0
  0
ENDBLK
  5
352
330
34F
100
AcDbEntity
  8
0
100
AcDbBlockEnd
  0
BLOCK
  5
359
330
357
100
AcDbEntity
  8
0
100
AcDbBlockBegin
  2
block 134
 70
     0
 71
     0
 10
0.0
 20
0.0
 30
0.0
  3
block 134
  1

  0
POLYLINE
  5
35B
330
357
100
AcDbEntity
  8
Layer 1
370
     0
100
AcDb2dPolyline
 66
     1
 10
0.0
 20
0.0
 30
0.0
  0
VERTEX
  5
35C
330
35B
100
AcDbEntity
  8
Layer 1
370
     0
100
AcDbVertex
100
AcDb2dVertex
 10
150.6184681938697
 20
-118.4989605219534
 30
0.0
  0
VERTEX
  5
35D
330
35B
100
AcDbEntity
  8
Layer 1
370
     0
100
AcDbVertex
100
AcDb2dVertex
 10
157.2669901020721
 20
-118.4989605219534
 30
0.0
  0
SEQEND
  5
35E
330
35B
100
AcDbEntity
  8
Layer 1
370
     0
  0
ENDBLK
  5
35A
330
357
100
AcDbEntity
  8
0
100
AcDbBlockEnd
  0
BLOCK
  5
361
330
35F
100
AcDbEntity
  8
0
100
AcDbBlockBegin
  2
block 135
 70
     0
 71
     0
 10
0.0
 20
0.0
 30
0.0
  3
block 135
  1

  0
POLYLINE
  5
363
330
35F
100
AcDbEntity
  8
Layer 1
370
     0
100
AcDb2dPolyline
 66
     1
 10
0.0
 20
0.0
 30
0.0
  0
VERTEX
  5
364
330
363
100
AcDbEntity
  8
Layer 1
370
     0
100
AcDbVertex
100
AcDb2dVertex
 10
157.2669901020721
 20
-118.4989605219534
 30
0.0
  0
VERTEX
  5
365
330
363
100
AcDbEntity
  8
Layer 1
370
     0
100
AcDbVertex
100
AcDb2dVertex
 10
157.2669901020721
 20
-57.09698318180224
 30
0.0
  0
SEQEND
  5
366
330
363
100
AcDbEntity
  8
Layer 1
370
     0
  0
ENDBLK
  5
362
330
35F
100
AcDbEntity
  8
0
100
AcDbBlockEnd
  0
BLOCK
  5
369
330
367
100
AcDbEntity
  8
0
100
AcDbBlockBegin
  2
block 136
 70
     0
 71
     0
 10
0.0
 20
0.0
 30
0.0
  3
block 136
  1

  0
POLYLINE
  5
36B
330
367
100
AcDbEntity
  8
Layer 1
370
     0
100
AcDb2dPolyline
 66
     1
 10
0.0
 20
0.0
 30
0.0
  0
VERTEX
  5
36C
330
36B
100
AcDbEntity
  8
Layer 1
370
     0
100
AcDbVertex
100
AcDb2dVertex
 10
157.2669901020721
 20
-57.09698318180224
 30
0.0
  0
VERTEX
  5
36D
330
36B
100
AcDbEntity
  8
Layer 1
370
     0
100
AcDbVertex
100
AcDb2dVertex
 10
160.6163141423625
 20
-57.09698318180224
 30
0.0
  0
SEQEND
  5
36E
330
36B
100
AcDbEntity
  8
Layer 1
370
     0
  0
ENDBLK
  5
36A
330
367
100
AcDbEntity
  8
0
100
AcDbBlockEnd
  0
BLOCK
  5
371
330
36F
100
AcDbEntity
  8
0
100
AcDbBlockBegin
  2
block 137
 70
     0
 71
     0
 10
0.0
 20
0.0
 30
0.0
  3
block 137
  1

  0
POLYLINE
  5
373
330
36F
100
AcDbEntity
  8
Layer 1
370
     0
100
AcDb2dPolyline
 66
     1
 10
0.0
 20
0.0
 30
0.0
  0
VERTEX
  5
374
330
373
100
AcDbEntity
  8
Layer 1
370
     0
100
AcDbVertex
100
AcDb2dVertex
 10
160.6163141423625
 20
-57.09698318180224
 30
0.0
  0
VERTEX
  5
375
330
373
100
AcDbEntity
  8
Layer 1
370
     0
100
AcDbVertex
100
AcDb2dVertex
 10
163.9656381826528
 20
-57.09698318180224
 30
0.0
  0
SEQEND
  5
376
330
373
100
AcDbEntity
  8
Layer 1
370
     0
  0
ENDBLK
  5
372
330
36F
100
AcDbEntity
  8
0
100
AcDbBlockEnd
  0
BLOCK
  5
379
330
377
100
AcDbEntity
  8
0
100
AcDbBlockBegin
  2
block 138
 70
     0
 71
     0
 10
0.0
 20
0.0
 30
0.0
  3
block 138
  1

  0
POLYLINE
  5
37B
330
377
100
AcDbEntity
  8
Layer 1
370
     0
100
AcDb2dPolyline
 66
     1
 10
0.0
 20
0.0
 30
0.0
  0
VERTEX
  5
37C
330
37B
100
AcDbEntity
  8
Layer 1
370
     0
100
AcDbVertex
100
AcDb2dVertex
 10
163.9656381826528
 20
-57.09698318180224
 30
0.0
  0
VERTEX
  5
37D
330
37B
100
AcDbEntity
  8
Layer 1
370
     0
100
AcDbVertex
100
AcDb2dVertex
 10
163.9656381826528
 20
-118.4989605219534
 30
0.0
  0
SEQEND
  5
37E
330
37B
100
AcDbEntity
  8
Layer 1
370
     0
  0
ENDBLK
  5
37A
330
377
100
AcDbEntity
  8
0
100
AcDbBlockEnd
  0
BLOCK
  5
381
330
37F
100
AcDbEntity
  8
0
100
AcDbBlockBegin
  2
block 139
 70
     0
 71
     0
 10
0.0
 20
0.0
 30
0.0
  3
block 139
  1

  0
POLYLINE
  5
383
330
37F
100
AcDbEntity
  8
Layer 1
370
     0
100
AcDb2dPolyline
 66
     1
 10
0.0
 20
0.0
 30
0.0
  0
VERTEX
  5
384
330
383
100
AcDbEntity
  8
Layer 1
370
     0
100
AcDbVertex
100
AcDb2dVertex
 10
163.9656381826528
 20
-118.4989605219534
 30
0.0
  0
VERTEX
  5
385
330
383
100
AcDbEntity
  8
Layer 1
370
     0
100
AcDbVertex
100
AcDb2dVertex
 10
170.6143323457431
 20
-118.4989605219534
 30
0.0
  0
SEQEND
  5
386
330
383
100
AcDbEntity
  8
Layer 1
370
     0
  0
ENDBLK
  5
382
330
37F
100
AcDbEntity
  8
0
100
AcDbBlockEnd
  0
BLOCK
  5
389
330
387
100
AcDbEntity
  8
0
100
AcDbBlockBegin
  2
block 140
 70
     0
 71
     0
 10
0.0
 20
0.0
 30
0.0
  3
block 140
  1

  0
POLYLINE
  5
38B
330
387
100
AcDbEntity
  8
Layer 1
370
     0
100
AcDb2dPolyline
 66
     1
 10
0.0
 20
0.0
 30
0.0
  0
VERTEX
  5
38C
330
38B
100
AcDbEntity
  8
Layer 1
370
     0
100
AcDbVertex
100
AcDb2dVertex
 10
170.6143323457431
 20
-118.4989605219534
 30
0.0
  0
VERTEX
  5
38D
330
38B
100
AcDbEntity
  8
Layer 1
370
     0
100
AcDbVertex
100
AcDb2dVertex
 10
170.6143323457431
 20
-111.8003124413727
 30
0.0
  0
SEQEND
  5
38E
330
38B
100
AcDbEntity
  8
Layer 1
370
     0
  0
ENDBLK
  5
38A
330
387
100
AcDbEntity
  8
0
100
AcDbBlockEnd
  0
BLOCK
  5
391
330
38F
100
AcDbEntity
  8
0
100
AcDbBlockBegin
  2
block 141
 70
     0
 71
     0
 10
0.0
 20
0.0
 30
0.0
  3
block 141
  1

  0
POLYLINE
  5
393
330
38F
100
AcDbEntity
  8
Layer 1
370
     0
100
AcDb2dPolyline
 66
     1
 10
0.0
 20
0.0
 30
0.0
  0
VERTEX
  5
394
330
393
100
AcDbEntity
  8
Layer 1
370
     0
100
AcDbVertex
100
AcDb2dVertex
 10
170.6143323457431
 20
-111.8003124413727
 30
0.0
  0
VERTEX
  5
395
330
393
100
AcDbEntity
  8
Layer 1
370
     0
100
AcDbVertex
100
AcDb2dVertex
 10
210.6057161397139
 20
-111.8003124413727
 30
0.0
  0
SEQEND
  5
396
330
393
100
AcDbEntity
  8
Layer 1
370
     0
  0
ENDBLK
  5
392
330
38F
100
AcDbEntity
  8
0
100
AcDbBlockEnd
  0
BLOCK
  5
399
330
397
100
AcDbEntity
  8
0
100
AcDbBlockBegin
  2
block 142
 70
     0
 71
     0
 10
0.0
 20
0.0
 30
0.0
  3
block 142
  1

  0
POLYLINE
  5
39B
330
397
100
AcDbEntity
  8
Layer 1
370
     0
100
AcDb2dPolyline
 66
     1
 10
0.0
 20
0.0
 30
0.0
  0
VERTEX
  5
39C
330
39B
100
AcDbEntity
  8
Layer 1
370
     0
100
AcDbVertex
100
AcDb2dVertex
 10
210.6057161397139
 20
-111.8003124413727
 30
0.0
  0
VERTEX
  5
39D
330
39B
100
AcDbEntity
  8
Layer 1
370
     0
100
AcDbVertex
100
AcDb2dVertex
 10
210.6057161397139
 20
-17.06908135159698
 30
0.0
  0
SEQEND
  5
39E
330
39B
100
AcDbEntity
  8
Layer 1
370
     0
  0
ENDBLK
  5
39A
330
397
100
AcDbEntity
  8
0
100
AcDbBlockEnd
  0
BLOCK
  5
3A1
330
39F
100
AcDbEntity
  8
0
100
AcDbBlockBegin
  2
block 143
 70
     0
 71
     0
 10
0.0
 20
0.0
 30
0.0
  3
block 143
  1

  0
POLYLINE
  5
3A3
330
39F
100
AcDbEntity
  8
Layer 1
370
     0
100
AcDb2dPolyline
 66
     1
 10
0.0
 20
0.0
 30
0.0
  0
VERTEX
  5
3A4
330
3A3
100
AcDbEntity
  8
Layer 1
370
     0
100
AcDbVertex
100
AcDb2dVertex
 10
315.5833569812193
 20
-111.8003124413727
 30
0.0
  0
VERTEX
  5
3A5
330
3A3
100
AcDbEntity
  8
Layer 1
370
     0
100
AcDbVertex
100
AcDb2dVertex
 10
315.5833569812193
 20
-17.06908135159698
 30
0.0
  0
SEQEND
  5
3A6
330
3A3
100
AcDbEntity
  8
Layer 1
370
     0
  0
ENDBLK
  5
3A2
330
39F
100
AcDbEntity
  8
0
100
AcDbBlockEnd
  0
BLOCK
  5
3A9
330
3A7
100
AcDbEntity
  8
0
100
AcDbBlockBegin
  2
block 144
 70
     0
 71
     0
 10
0.0
 20
0.0
 30
0.0
  3
block 144
  1

  0
SPLINE
  5
3AB
330
3A7
100
AcDbEntity
  8
Layer 1
370
     0
100
AcDbSpline
210
0.0
220
0.0
230
1.0
 70
     8
 71
     3
 72
    11
 73
     7
 74
     0
 42
0.0000000001
 43
0.0000000001
 40
0.0
 40
0.0
 40
0.0
 40
0.0
 40
1.0
 40
1.0
 40
1.0
 40
2.0
 40
2.0
 40
2.0
 40
2.0
 10
306.4945000761648
 20
-11.82150844666974
 30
0.0
 10
305.0454919591661
 20
-14.33143441823273
 30
0.0
 10
305.9053883595533
 20
-17.54071523466194
 30
0.0
 10
308.4151420762284
 20
-18.98989560654852
 30
0.0
 10
310.9248957929036
 20
-20.43890372354721
 30
0.0
 10
314.1343488642206
 20
-19.57900732315997
 30
0.0
 10
315.5833569812193
 20
-17.06908135159698
 30
0.0
  0
ENDBLK
  5
3AA
330
3A7
100
AcDbEntity
  8
0
100
AcDbBlockEnd
  0
BLOCK
  5
3AE
330
3AC
100
AcDbEntity
  8
0
100
AcDbBlockBegin
  2
block 145
 70
     0
 71
     0
 10
0.0
 20
0.0
 30
0.0
  3
block 145
  1

  0
SPLINE
  5
3B0
330
3AC
100
AcDbEntity
  8
Layer 1
370
     0
100
AcDbSpline
210
0.0
220
0.0
230
1.0
 70
     8
 71
     3
 72
    14
 73
    10
 74
     0
 42
0.0000000001
 43
0.0000000001
 40
0.0
 40
0.0
 40
0.0
 40
0.0
 40
1.0
 40
1.0
 40
1.0
 40
2.0
 40
2.0
 40
2.0
 40
3.0
 40
3.0
 40
3.0
 40
3.0
 10
306.4945000761648
 20
-11.82150844666974
 30
0.0
 10
307.9435081931635
 20
-9.311754729994648
 30
0.0
 10
307.0836117927763
 20
-6.102301658677539
 30
0.0
 10
304.5738580761011
 20
-4.653293541678853
 30
0.0
 10
302.0637598496503
 20
-3.204285424680167
 30
0.0
 10
298.854651288109
 20
-4.064181825067404
 30
0.0
 10
297.4052986613345
 20
-6.574107796630392
 30
0.0
 10
296.4682320711689
 20
-8.026044246723346
 30
0.0
 10
296.4682320711689
 20
-10.36957199657678
 30
0.0
 10
297.4052986613345
 20
-11.82150844666974
 30
0.0
  0
ENDBLK
  5
3AF
330
3AC
100
AcDbEntity
  8
0
100
AcDbBlockEnd
  0
BLOCK
  5
3B3
330
3B1
100
AcDbEntity
  8
0
100
AcDbBlockBegin
  2
block 146
 70
     0
 71
     0
 10
0.0
 20
0.0
 30
0.0
  3
block 146
  1

  0
SPLINE
  5
3B5
330
3B1
100
AcDbEntity
  8
Layer 1
370
     0
100
AcDbSpline
210
0.0
220
0.0
230
1.0
 70
     8
 71
     3
 72
    14
 73
    10
 74
     0
 42
0.0000000001
 43
0.0000000001
 40
0.0
 40
0.0
 40
0.0
 40
0.0
 40
1.0
 40
1.0
 40
1.0
 40
2.0
 40
2.0
 40
2.0
 40
3.0
 40
3.0
 40
3.0
 40
3.0
 10
288.31644175628
 20
-11.82150844666974
 30
0.0
 10
286.8674336392813
 20
-14.33143441823273
 30
0.0
 10
287.7273300396685
 20
-17.54071523466194
 30
0.0
 10
290.2370837563436
 20
-18.98989560654852
 30
0.0
 10
292.7471819827945
 20
-20.43890372354721
 30
0.0
 10
295.9562905443358
 20
-19.57900732315997
 30
0.0
 10
297.4052986613345
 20
-17.06908135159698
 30
0.0
 10
298.3427097612758
 20
-15.61697264661613
 30
0.0
 10
298.3427097612758
 20
-13.27361715165059
 30
0.0
 10
297.4052986613345
 20
-11.82150844666974
 30
0.0
  0
ENDBLK
  5
3B4
330
3B1
100
AcDbEntity
  8
0
100
AcDbBlockEnd
  0
BLOCK
  5
3B8
330
3B6
100
AcDbEntity
  8
0
100
AcDbBlockBegin
  2
block 147
 70
     0
 71
     0
 10
0.0
 20
0.0
 30
0.0
  3
block 147
  1

  0
SPLINE
  5
3BA
330
3B6
100
AcDbEntity
  8
Layer 1
370
     0
100
AcDbSpline
210
0.0
220
0.0
230
1.0
 70
     8
 71
     3
 72
    14
 73
    10
 74
     0
 42
0.0000000001
 43
0.0000000001
 40
0.0
 40
0.0
 40
0.0
 40
0.0
 40
1.0
 40
1.0
 40
1.0
 40
2.0
 40
2.0
 40
2.0
 40
3.0
 40
3.0
 40
3.0
 40
3.0
 10
288.31644175628
 20
-11.82150844666974
 30
0.0
 10
289.7654498732786
 20
-9.311754729994648
 30
0.0
 10
288.9055534728914
 20
-6.102301658677539
 30
0.0
 10
286.3957997562163
 20
-4.653293541678853
 30
0.0
 10
283.8860460395412
 20
-3.204285424680167
 30
0.0
 10
280.6765929682241
 20
-4.064181825067404
 30
0.0
 10
279.2275848512254
 20
-6.574107796630392
 30
0.0
 10
278.290173751284
 20
-8.026044246723346
 30
0.0
 10
278.290173751284
 20
-10.36957199657678
 30
0.0
 10
279.2275848512254
 20
-11.82150844666974
 30
0.0
  0
ENDBLK
  5
3B9
330
3B6
100
AcDbEntity
  8
0
100
AcDbBlockEnd
  0
BLOCK
  5
3BD
330
3BB
100
AcDbEntity
  8
0
100
AcDbBlockBegin
  2
block 148
 70
     0
 71
     0
 10
0.0
 20
0.0
 30
0.0
  3
block 148
  1

  0
SPLINE
  5
3BF
330
3BB
100
AcDbEntity
  8
Layer 1
370
     0
100
AcDbSpline
210
0.0
220
0.0
230
1.0
 70
     8
 71
     3
 72
    14
 73
    10
 74
     0
 42
0.0000000001
 43
0.0000000001
 40
0.0
 40
0.0
 40
0.0
 40
0.0
 40
1.0
 40
1.0
 40
1.0
 40
2.0
 40
2.0
 40
2.0
 40
3.0
 40
3.0
 40
3.0
 40
3.0
 10
270.1383834363951
 20
-11.82150844666974
 30
0.0
 10
268.6893753193964
 20
-14.33143441823273
 30
0.0
 10
269.5492717197836
 20
-17.54071523466194
 30
0.0
 10
272.0593699462345
 20
-18.98989560654852
 30
0.0
 10
274.5691236629096
 20
-20.43890372354721
 30
0.0
 10
277.7785767342268
 20
-19.57900732315997
 30
0.0
 10
279.2275848512254
 20
-17.06908135159698
 30
0.0
 10
280.1649959511668
 20
-15.61697264661613
 30
0.0
 10
280.1649959511668
 20
-13.27361715165059
 30
0.0
 10
279.2275848512254
 20
-11.82150844666974
 30
0.0
  0
ENDBLK
  5
3BE
330
3BB
100
AcDbEntity
  8
0
100
AcDbBlockEnd
  0
BLOCK
  5
3C2
330
3C0
100
AcDbEntity
  8
0
100
AcDbBlockBegin
  2
block 149
 70
     0
 71
     0
 10
0.0
 20
0.0
 30
0.0
  3
block 149
  1

  0
SPLINE
  5
3C4
330
3C0
100
AcDbEntity
  8
Layer 1
370
     0
100
AcDbSpline
210
0.0
220
0.0
230
1.0
 70
     8
 71
     3
 72
    14
 73
    10
 74
     0
 42
0.0000000001
 43
0.0000000001
 40
0.0
 40
0.0
 40
0.0
 40
0.0
 40
1.0
 40
1.0
 40
1.0
 40
2.0
 40
2.0
 40
2.0
 40
3.0
 40
3.0
 40
3.0
 40
3.0
 10
270.1383834363951
 20
-11.82150844666974
 30
0.0
 10
271.5877360631696
 20
-9.311754729994648
 30
0.0
 10
270.7278396627823
 20
-6.102301658677539
 30
0.0
 10
268.2177414363314
 20
-4.653293541678853
 30
0.0
 10
265.7079877196564
 20
-3.204285424680167
 30
0.0
 10
262.4985346483393
 20
-4.064181825067404
 30
0.0
 10
261.0495265313406
 20
-6.574107796630392
 30
0.0
 10
260.1121154313992
 20
-8.026044246723346
 30
0.0
 10
260.1121154313992
 20
-10.36957199657678
 30
0.0
 10
261.0495265313406
 20
-11.82150844666974
 30
0.0
  0
ENDBLK
  5
3C3
330
3C0
100
AcDbEntity
  8
0
100
AcDbBlockEnd
  0
BLOCK
  5
3C7
330
3C5
100
AcDbEntity
  8
0
100
AcDbBlockBegin
  2
block 150
 70
     0
 71
     0
 10
0.0
 20
0.0
 30
0.0
  3
block 150
  1

  0
SPLINE
  5
3C9
330
3C5
100
AcDbEntity
  8
Layer 1
370
     0
100
AcDbSpline
210
0.0
220
0.0
230
1.0
 70
     8
 71
     3
 72
    14
 73
    10
 74
     0
 42
0.0000000001
 43
0.0000000001
 40
0.0
 40
0.0
 40
0.0
 40
0.0
 40
1.0
 40
1.0
 40
1.0
 40
2.0
 40
2.0
 40
2.0
 40
3.0
 40
3.0
 40
3.0
 40
3.0
 10
251.960669626286
 20
-11.82150844666974
 30
0.0
 10
250.5116615092874
 20
-14.33143441823273
 30
0.0
 10
251.3715579096746
 20
-17.54071523466194
 30
0.0
 10
253.8813116263497
 20
-18.98989560654852
 30
0.0
 10
256.3910653430248
 20
-20.43890372354721
 30
0.0
 10
259.6005184143419
 20
-19.57900732315997
 30
0.0
 10
261.0495265313406
 20
-17.06908135159698
 30
0.0
 10
261.9869376312819
 20
-15.61697264661613
 30
0.0
 10
261.9869376312819
 20
-13.27361715165059
 30
0.0
 10
261.0495265313406
 20
-11.82150844666974
 30
0.0
  0
ENDBLK
  5
3C8
330
3C5
100
AcDbEntity
  8
0
100
AcDbBlockEnd
  0
BLOCK
  5
3CC
330
3CA
100
AcDbEntity
  8
0
100
AcDbBlockBegin
  2
block 151
 70
     0
 71
     0
 10
0.0
 20
0.0
 30
0.0
  3
block 151
  1

  0
SPLINE
  5
3CE
330
3CA
100
AcDbEntity
  8
Layer 1
370
     0
100
AcDbSpline
210
0.0
220
0.0
230
1.0
 70
     8
 71
     3
 72
    14
 73
    10
 74
     0
 42
0.0000000001
 43
0.0000000001
 40
0.0
 40
0.0
 40
0.0
 40
0.0
 40
1.0
 40
1.0
 40
1.0
 40
2.0
 40
2.0
 40
2.0
 40
3.0
 40
3.0
 40
3.0
 40
3.0
 10
251.960669626286
 20
-11.82150844666974
 30
0.0
 10
253.4096777432847
 20
-9.311754729994648
 30
0.0
 10
252.5497813428975
 20
-6.102301658677539
 30
0.0
 10
250.0396831164466
 20
-4.653293541678853
 30
0.0
 10
247.5299293997715
 20
-3.204285424680167
 30
0.0
 10
244.3204763284544
 20
-4.064181825067404
 30
0.0
 10
242.8714682114557
 20
-6.574107796630392
 30
0.0
 10
241.9340571115144
 20
-8.026044246723346
 30
0.0
 10
241.9340571115144
 20
-10.36957199657678
 30
0.0
 10
242.8714682114557
 20
-11.82150844666974
 30
0.0
  0
ENDBLK
  5
3CD
330
3CA
100
AcDbEntity
  8
0
100
AcDbBlockEnd
  0
BLOCK
  5
3D1
330
3CF
100
AcDbEntity
  8
0
100
AcDbBlockBegin
  2
block 152
 70
     0
 71
     0
 10
0.0
 20
0.0
 30
0.0
  3
block 152
  1

  0
SPLINE
  5
3D3
330
3CF
100
AcDbEntity
  8
Layer 1
370
     0
100
AcDbSpline
210
0.0
220
0.0
230
1.0
 70
     8
 71
     3
 72
    14
 73
    10
 74
     0
 42
0.0000000001
 43
0.0000000001
 40
0.0
 40
0.0
 40
0.0
 40
0.0
 40
1.0
 40
1.0
 40
1.0
 40
2.0
 40
2.0
 40
2.0
 40
3.0
 40
3.0
 40
3.0
 40
3.0
 10
233.7826113064012
 20
-11.82150844666974
 30
0.0
 10
232.3336031894025
 20
-14.33143441823273
 30
0.0
 10
233.1934995897898
 20
-17.54071523466194
 30
0.0
 10
235.7032533064648
 20
-18.98989560654852
 30
0.0
 10
238.2133515329157
 20
-20.43890372354721
 30
0.0
 10
241.4224600944571
 20
-19.57900732315997
 30
0.0
 10
242.8714682114557
 20
-17.06908135159698
 30
0.0
 10
243.8088793113971
 20
-15.61697264661613
 30
0.0
 10
243.8088793113971
 20
-13.27361715165059
 30
0.0
 10
242.8714682114557
 20
-11.82150844666974
 30
0.0
  0
ENDBLK
  5
3D2
330
3CF
100
AcDbEntity
  8
0
100
AcDbBlockEnd
  0
BLOCK
  5
3D6
330
3D4
100
AcDbEntity
  8
0
100
AcDbBlockBegin
  2
block 153
 70
     0
 71
     0
 10
0.0
 20
0.0
 30
0.0
  3
block 153
  1

  0
SPLINE
  5
3D8
330
3D4
100
AcDbEntity
  8
Layer 1
370
     0
100
AcDbSpline
210
0.0
220
0.0
230
1.0
 70
     8
 71
     3
 72
    14
 73
    10
 74
     0
 42
0.0000000001
 43
0.0000000001
 40
0.0
 40
0.0
 40
0.0
 40
0.0
 40
1.0
 40
1.0
 40
1.0
 40
2.0
 40
2.0
 40
2.0
 40
3.0
 40
3.0
 40
3.0
 40
3.0
 10
233.7826113064012
 20
-11.82150844666974
 30
0.0
 10
235.2316194233999
 20
-9.311754729994648
 30
0.0
 10
234.3717230230126
 20
-6.102301658677539
 30
0.0
 10
231.8619693063376
 20
-4.653293541678853
 30
0.0
 10
229.3518710798867
 20
-3.204285424680167
 30
0.0
 10
226.1427625183454
 20
-4.064181825067404
 30
0.0
 10
224.6937544013467
 20
-6.574107796630392
 30
0.0
 10
223.7563433014053
 20
-8.026044246723346
 30
0.0
 10
223.7563433014053
 20
-10.36957199657678
 30
0.0
 10
224.6937544013467
 20
-11.82150844666974
 30
0.0
  0
ENDBLK
  5
3D7
330
3D4
100
AcDbEntity
  8
0
100
AcDbBlockEnd
  0
BLOCK
  5
3DB
330
3D9
100
AcDbEntity
  8
0
100
AcDbBlockBegin
  2
block 154
 70
     0
 71
     0
 10
0.0
 20
0.0
 30
0.0
  3
block 154
  1

  0
SPLINE
  5
3DD
330
3D9
100
AcDbEntity
  8
Layer 1
370
     0
100
AcDbSpline
210
0.0
220
0.0
230
1.0
 70
     8
 71
     3
 72
    11
 73
     7
 74
     0
 42
0.0000000001
 43
0.0000000001
 40
0.0
 40
0.0
 40
0.0
 40
0.0
 40
1.0
 40
1.0
 40
1.0
 40
2.0
 40
2.0
 40
2.0
 40
2.0
 10
215.6045529865164
 20
-17.06908135159698
 30
0.0
 10
217.053561103515
 20
-19.57900732315997
 30
0.0
 10
220.2630141748321
 20
-20.43890372354721
 30
0.0
 10
222.7727678915072
 20
-18.98989560654852
 30
0.0
 10
225.2828661179581
 20
-17.54071523466194
 30
0.0
 10
226.1427625183454
 20
-14.33143441823273
 30
0.0
 10
224.6937544013467
 20
-11.82150844666974
 30
0.0
  0
ENDBLK
  5
3DC
330
3D9
100
AcDbEntity
  8
0
100
AcDbBlockEnd
  0
BLOCK
  5
3E0
330
3DE
100
AcDbEntity
  8
0
100
AcDbBlockBegin
  2
block 155
 70
     0
 71
     0
 10
0.0
 20
0.0
 30
0.0
  3
block 155
  1

  0
POLYLINE
  5
3E2
330
3DE
100
AcDbEntity
  8
Layer 1
370
     0
100
AcDb2dPolyline
 66
     1
 10
0.0
 20
0.0
 30
0.0
  0
VERTEX
  5
3E3
330
3E2
100
AcDbEntity
  8
Layer 1
370
     0
100
AcDbVertex
100
AcDb2dVertex
 10
215.6045529865164
 20
-17.06908135159698
 30
0.0
  0
VERTEX
  5
3E4
330
3E2
100
AcDbEntity
  8
Layer 1
370
     0
100
AcDbVertex
100
AcDb2dVertex
 10
215.6045529865164
 20
-111.8003124413727
 30
0.0
  0
SEQEND
  5
3E5
330
3E2
100
AcDbEntity
  8
Layer 1
370
     0
  0
ENDBLK
  5
3E1
330
3DE
100
AcDbEntity
  8
0
100
AcDbBlockEnd
  0
BLOCK
  5
3E8
330
3E6
100
AcDbEntity
  8
0
100
AcDbBlockBegin
  2
block 156
 70
     0
 71
     0
 10
0.0
 20
0.0
 30
0.0
  3
block 156
  1

  0
POLYLINE
  5
3EA
330
3E6
100
AcDbEntity
  8
Layer 1
370
     0
100
AcDb2dPolyline
 66
     1
 10
0.0
 20
0.0
 30
0.0
  0
VERTEX
  5
3EB
330
3EA
100
AcDbEntity
  8
Layer 1
370
     0
100
AcDbVertex
100
AcDb2dVertex
 10
215.6045529865164
 20
-111.8003124413727
 30
0.0
  0
VERTEX
  5
3EC
330
3EA
100
AcDbEntity
  8
Layer 1
370
     0
100
AcDbVertex
100
AcDb2dVertex
 10
255.596281290263
 20
-111.8003124413727
 30
0.0
  0
SEQEND
  5
3ED
330
3EA
100
AcDbEntity
  8
Layer 1
370
     0
  0
ENDBLK
  5
3E9
330
3E6
100
AcDbEntity
  8
0
100
AcDbBlockEnd
  0
BLOCK
  5
3F0
330
3EE
100
AcDbEntity
  8
0
100
AcDbBlockBegin
  2
block 157
 70
     0
 71
     0
 10
0.0
 20
0.0
 30
0.0
  3
block 157
  1

  0
POLYLINE
  5
3F2
330
3EE
100
AcDbEntity
  8
Layer 1
370
     0
100
AcDb2dPolyline
 66
     1
 10
0.0
 20
0.0
 30
0.0
  0
VERTEX
  5
3F3
330
3F2
100
AcDbEntity
  8
Layer 1
370
     0
100
AcDbVertex
100
AcDb2dVertex
 10
255.596281290263
 20
-111.8003124413727
 30
0.0
  0
VERTEX
  5
3F4
330
3F2
100
AcDbEntity
  8
Layer 1
370
     0
100
AcDbVertex
100
AcDb2dVertex
 10
255.596281290263
 20
-118.4989605219534
 30
0.0
  0
SEQEND
  5
3F5
330
3F2
100
AcDbEntity
  8
Layer 1
370
     0
  0
ENDBLK
  5
3F1
330
3EE
100
AcDbEntity
  8
0
100
AcDbBlockEnd
  0
BLOCK
  5
3F8
330
3F6
100
AcDbEntity
  8
0
100
AcDbBlockBegin
  2
block 158
 70
     0
 71
     0
 10
0.0
 20
0.0
 30
0.0
  3
block 158
  1

  0
POLYLINE
  5
3FA
330
3F6
100
AcDbEntity
  8
Layer 1
370
     0
100
AcDb2dPolyline
 66
     1
 10
0.0
 20
0.0
 30
0.0
  0
VERTEX
  5
3FB
330
3FA
100
AcDbEntity
  8
Layer 1
370
     0
100
AcDbVertex
100
AcDb2dVertex
 10
255.596281290263
 20
-118.4989605219534
 30
0.0
  0
VERTEX
  5
3FC
330
3FA
100
AcDbEntity
  8
Layer 1
370
     0
100
AcDbVertex
100
AcDb2dVertex
 10
262.2446309435775
 20
-118.4989605219534
 30
0.0
  0
SEQEND
  5
3FD
330
3FA
100
AcDbEntity
  8
Layer 1
370
     0
  0
ENDBLK
  5
3F9
330
3F6
100
AcDbEntity
  8
0
100
AcDbBlockEnd
  0
BLOCK
  5
400
330
3FE
100
AcDbEntity
  8
0
100
AcDbBlockBegin
  2
block 159
 70
     0
 71
     0
 10
0.0
 20
0.0
 30
0.0
  3
block 159
  1

  0
POLYLINE
  5
402
330
3FE
100
AcDbEntity
  8
Layer 1
370
     0
100
AcDb2dPolyline
 66
     1
 10
0.0
 20
0.0
 30
0.0
  0
VERTEX
  5
403
330
402
100
AcDbEntity
  8
Layer 1
370
     0
100
AcDbVertex
100
AcDb2dVertex
 10
262.2446309435775
 20
-118.4989605219534
 30
0.0
  0
VERTEX
  5
404
330
402
100
AcDbEntity
  8
Layer 1
370
     0
100
AcDbVertex
100
AcDb2dVertex
 10
262.2446309435775
 20
-57.09698318180224
 30
0.0
  0
SEQEND
  5
405
330
402
100
AcDbEntity
  8
Layer 1
370
     0
  0
ENDBLK
  5
401
330
3FE
100
AcDbEntity
  8
0
100
AcDbBlockEnd
  0
BLOCK
  5
408
330
406
100
AcDbEntity
  8
0
100
AcDbBlockBegin
  2
block 160
 70
     0
 71
     0
 10
0.0
 20
0.0
 30
0.0
  3
block 160
  1

  0
POLYLINE
  5
40A
330
406
100
AcDbEntity
  8
Layer 1
370
     0
100
AcDb2dPolyline
 66
     1
 10
0.0
 20
0.0
 30
0.0
  0
VERTEX
  5
40B
330
40A
100
AcDbEntity
  8
Layer 1
370
     0
100
AcDbVertex
100
AcDb2dVertex
 10
262.2446309435775
 20
-57.09698318180224
 30
0.0
  0
VERTEX
  5
40C
330
40A
100
AcDbEntity
  8
Layer 1
370
     0
100
AcDbVertex
100
AcDb2dVertex
 10
265.5939549838678
 20
-57.09698318180224
 30
0.0
  0
SEQEND
  5
40D
330
40A
100
AcDbEntity
  8
Layer 1
370
     0
  0
ENDBLK
  5
409
330
406
100
AcDbEntity
  8
0
100
AcDbBlockEnd
  0
BLOCK
  5
410
330
40E
100
AcDbEntity
  8
0
100
AcDbBlockBegin
  2
block 161
 70
     0
 71
     0
 10
0.0
 20
0.0
 30
0.0
  3
block 161
  1

  0
POLYLINE
  5
412
330
40E
100
AcDbEntity
  8
Layer 1
370
     0
100
AcDb2dPolyline
 66
     1
 10
0.0
 20
0.0
 30
0.0
  0
VERTEX
  5
413
330
412
100
AcDbEntity
  8
Layer 1
370
     0
100
AcDbVertex
100
AcDb2dVertex
 10
265.5939549838678
 20
-57.09698318180224
 30
0.0
  0
VERTEX
  5
414
330
412
100
AcDbEntity
  8
Layer 1
370
     0
100
AcDbVertex
100
AcDb2dVertex
 10
268.9432790241582
 20
-57.09698318180224
 30
0.0
  0
SEQEND
  5
415
330
412
100
AcDbEntity
  8
Layer 1
370
     0
  0
ENDBLK
  5
411
330
40E
100
AcDbEntity
  8
0
100
AcDbBlockEnd
  0
BLOCK
  5
418
330
416
100
AcDbEntity
  8
0
100
AcDbBlockBegin
  2
block 162
 70
     0
 71
     0
 10
0.0
 20
0.0
 30
0.0
  3
block 162
  1

  0
POLYLINE
  5
41A
330
416
100
AcDbEntity
  8
Layer 1
370
     0
100
AcDb2dPolyline
 66
     1
 10
0.0
 20
0.0
 30
0.0
  0
VERTEX
  5
41B
330
41A
100
AcDbEntity
  8
Layer 1
370
     0
100
AcDbVertex
100
AcDb2dVertex
 10
268.9432790241582
 20
-57.09698318180224
 30
0.0
  0
VERTEX
  5
41C
330
41A
100
AcDbEntity
  8
Layer 1
370
     0
100
AcDbVertex
100
AcDb2dVertex
 10
268.9432790241582
 20
-118.4989605219534
 30
0.0
  0
SEQEND
  5
41D
330
41A
100
AcDbEntity
  8
Layer 1
370
     0
  0
ENDBLK
  5
419
330
416
100
AcDbEntity
  8
0
100
AcDbBlockEnd
  0
BLOCK
  5
420
330
41E
100
AcDbEntity
  8
0
100
AcDbBlockBegin
  2
block 163
 70
     0
 71
     0
 10
0.0
 20
0.0
 30
0.0
  3
block 163
  1

  0
POLYLINE
  5
422
330
41E
100
AcDbEntity
  8
Layer 1
370
     0
100
AcDb2dPolyline
 66
     1
 10
0.0
 20
0.0
 30
0.0
  0
VERTEX
  5
423
330
422
100
AcDbEntity
  8
Layer 1
370
     0
100
AcDbVertex
100
AcDb2dVertex
 10
268.9432790241582
 20
-118.4989605219534
 30
0.0
  0
VERTEX
  5
424
330
422
100
AcDbEntity
  8
Layer 1
370
     0
100
AcDbVertex
100
AcDb2dVertex
 10
275.5919731872485
 20
-118.4989605219534
 30
0.0
  0
SEQEND
  5
425
330
422
100
AcDbEntity
  8
Layer 1
370
     0
  0
ENDBLK
  5
421
330
41E
100
AcDbEntity
  8
0
100
AcDbBlockEnd
  0
BLOCK
  5
428
330
426
100
AcDbEntity
  8
0
100
AcDbBlockBegin
  2
block 164
 70
     0
 71
     0
 10
0.0
 20
0.0
 30
0.0
  3
block 164
  1

  0
POLYLINE
  5
42A
330
426
100
AcDbEntity
  8
Layer 1
370
     0
100
AcDb2dPolyline
 66
     1
 10
0.0
 20
0.0
 30
0.0
  0
VERTEX
  5
42B
330
42A
100
AcDbEntity
  8
Layer 1
370
     0
100
AcDbVertex
100
AcDb2dVertex
 10
275.5919731872485
 20
-118.4989605219534
 30
0.0
  0
VERTEX
  5
42C
330
42A
100
AcDbEntity
  8
Layer 1
370
     0
100
AcDbVertex
100
AcDb2dVertex
 10
275.5919731872485
 20
-111.8003124413727
 30
0.0
  0
SEQEND
  5
42D
330
42A
100
AcDbEntity
  8
Layer 1
370
     0
  0
ENDBLK
  5
429
330
426
100
AcDbEntity
  8
0
100
AcDbBlockEnd
  0
BLOCK
  5
430
330
42E
100
AcDbEntity
  8
0
100
AcDbBlockBegin
  2
block 165
 70
     0
 71
     0
 10
0.0
 20
0.0
 30
0.0
  3
block 165
  1

  0
POLYLINE
  5
432
330
42E
100
AcDbEntity
  8
Layer 1
370
     0
100
AcDb2dPolyline
 66
     1
 10
0.0
 20
0.0
 30
0.0
  0
VERTEX
  5
433
330
432
100
AcDbEntity
  8
Layer 1
370
     0
100
AcDbVertex
100
AcDb2dVertex
 10
275.5919731872485
 20
-111.8003124413727
 30
0.0
  0
VERTEX
  5
434
330
432
100
AcDbEntity
  8
Layer 1
370
     0
100
AcDbVertex
100
AcDb2dVertex
 10
315.5833569812193
 20
-111.8003124413727
 30
0.0
  0
SEQEND
  5
435
330
432
100
AcDbEntity
  8
Layer 1
370
     0
  0
ENDBLK
  5
431
330
42E
100
AcDbEntity
  8
0
100
AcDbBlockEnd
  0
ENDSEC
  0
SECTION
  2
ENTITIES
  0
INSERT
  5
3D
330
1F
100
AcDbEntity
  8
Layer 1
100
AcDbBlockReference
  2
block 2
 10
0.0
 20
0.0
 30
0.0
  0
INSERT
  5
42
330
1F
100
AcDbEntity
  8
Layer 1
100
AcDbBlockReference
  2
block 3
 10
0.0
 20
0.0
 30
0.0
  0
INSERT
  5
47
330
1F
100
AcDbEntity
  8
Layer 1
100
AcDbBlockReference
  2
block 4
 10
0.0
 20
0.0
 30
0.0
  0
INSERT
  5
4C
330
1F
100
AcDbEntity
  8
Layer 1
100
AcDbBlockReference
  2
block 5
 10
0.0
 20
0.0
 30
0.0
  0
INSERT
  5
51
330
1F
100
AcDbEntity
  8
Layer 1
100
AcDbBlockReference
  2
block 6
 10
0.0
 20
0.0
 30
0.0
  0
INSERT
  5
56
330
1F
100
AcDbEntity
  8
Layer 1
100
AcDbBlockReference
  2
block 7
 10
0.0
 20
0.0
 30
0.0
  0
INSERT
  5
5B
330
1F
100
AcDbEntity
  8
Layer 1
100
AcDbBlockReference
  2
block 8
 10
0.0
 20
0.0
 30
0.0
  0
INSERT
  5
60
330
1F
100
AcDbEntity
  8
Layer 1
100
AcDbBlockReference
  2
block 9
 10
0.0
 20
0.0
 30
0.0
  0
INSERT
  5
65
330
1F
100
AcDbEntity
  8
Layer 1
100
AcDbBlockReference
  2
block 10
 10
0.0
 20
0.0
 30
0.0
  0
INSERT
  5
6A
330
1F
100
AcDbEntity
  8
Layer 1
100
AcDbBlockReference
  2
block 11
 10
0.0
 20
0.0
 30
0.0
  0
INSERT
  5
6F
330
1F
100
AcDbEntity
  8
Layer 1
100
AcDbBlockReference
  2
block 12
 10
0.0
 20
0.0
 30
0.0
  0
INSERT
  5
74
330
1F
100
AcDbEntity
  8
Layer 1
100
AcDbBlockReference
  2
block 13
 10
0.0
 20
0.0
 30
0.0
  0
INSERT
  5
79
330
1F
100
AcDbEntity
  8
Layer 1
100
AcDbBlockReference
  2
block 14
 10
0.0
 20
0.0
 30
0.0
  0
INSERT
  5
7E
330
1F
100
AcDbEntity
  8
Layer 1
100
AcDbBlockReference
  2
block 15
 10
0.0
 20
0.0
 30
0.0
  0
INSERT
  5
83
330
1F
100
AcDbEntity
  8
Layer 1
100
AcDbBlockReference
  2
block 16
 10
0.0
 20
0.0
 30
0.0
  0
INSERT
  5
88
330
1F
100
AcDbEntity
  8
Layer 1
100
AcDbBlockReference
  2
block 17
 10
0.0
 20
0.0
 30
0.0
  0
INSERT
  5
8D
330
1F
100
AcDbEntity
  8
Layer 1
100
AcDbBlockReference
  2
block 18
 10
0.0
 20
0.0
 30
0.0
  0
INSERT
  5
92
330
1F
100
AcDbEntity
  8
Layer 1
100
AcDbBlockReference
  2
block 19
 10
0.0
 20
0.0
 30
0.0
  0
INSERT
  5
97
330
1F
100
AcDbEntity
  8
Layer 1
100
AcDbBlockReference
  2
block 20
 10
0.0
 20
0.0
 30
0.0
  0
INSERT
  5
9C
330
1F
100
AcDbEntity
  8
Layer 1
100
AcDbBlockReference
  2
block 21
 10
0.0
 20
0.0
 30
0.0
  0
INSERT
  5
A1
330
1F
100
AcDbEntity
  8
Layer 1
100
AcDbBlockReference
  2
block 22
 10
0.0
 20
0.0
 30
0.0
  0
INSERT
  5
A6
330
1F
100
AcDbEntity
  8
Layer 1
100
AcDbBlockReference
  2
block 23
 10
0.0
 20
0.0
 30
0.0
  0
INSERT
  5
AB
330
1F
100
AcDbEntity
  8
Layer 1
100
AcDbBlockReference
  2
block 24
 10
0.0
 20
0.0
 30
0.0
  0
INSERT
  5
B0
330
1F
100
AcDbEntity
  8
Layer 1
100
AcDbBlockReference
  2
block 25
 10
0.0
 20
0.0
 30
0.0
  0
INSERT
  5
B5
330
1F
100
AcDbEntity
  8
Layer 1
100
AcDbBlockReference
  2
block 26
 10
0.0
 20
0.0
 30
0.0
  0
INSERT
  5
BA
330
1F
100
AcDbEntity
  8
Layer 1
100
AcDbBlockReference
  2
block 27
 10
0.0
 20
0.0
 30
0.0
  0
INSERT
  5
BF
330
1F
100
AcDbEntity
  8
Layer 1
100
AcDbBlockReference
  2
block 28
 10
0.0
 20
0.0
 30
0.0
  0
INSERT
  5
C4
330
1F
100
AcDbEntity
  8
Layer 1
100
AcDbBlockReference
  2
block 29
 10
0.0
 20
0.0
 30
0.0
  0
INSERT
  5
C9
330
1F
100
AcDbEntity
  8
Layer 1
100
AcDbBlockReference
  2
block 30
 10
0.0
 20
0.0
 30
0.0
  0
INSERT
  5
CE
330
1F
100
AcDbEntity
  8
Layer 1
100
AcDbBlockReference
  2
block 31
 10
0.0
 20
0.0
 30
0.0
  0
INSERT
  5
D3
330
1F
100
AcDbEntity
  8
Layer 1
100
AcDbBlockReference
  2
block 32
 10
0.0
 20
0.0
 30
0.0
  0
INSERT
  5
D8
330
1F
100
AcDbEntity
  8
Layer 1
100
AcDbBlockReference
  2
block 33
 10
0.0
 20
0.0
 30
0.0
  0
INSERT
  5
DD
330
1F
100
AcDbEntity
  8
Layer 1
100
AcDbBlockReference
  2
block 34
 10
0.0
 20
0.0
 30
0.0
  0
INSERT
  5
E2
330
1F
100
AcDbEntity
  8
Layer 1
100
AcDbBlockReference
  2
block 35
 10
0.0
 20
0.0
 30
0.0
  0
INSERT
  5
E7
330
1F
100
AcDbEntity
  8
Layer 1
100
AcDbBlockReference
  2
block 36
 10
0.0
 20
0.0
 30
0.0
  0
INSERT
  5
EC
330
1F
100
AcDbEntity
  8
Layer 1
100
AcDbBlockReference
  2
block 37
 10
0.0
 20
0.0
 30
0.0
  0
INSERT
  5
F1
330
1F
100
AcDbEntity
  8
Layer 1
100
AcDbBlockReference
  2
block 38
 10
0.0
 20
0.0
 30
0.0
  0
INSERT
  5
F6
330
1F
100
AcDbEntity
  8
Layer 1
100
AcDbBlockReference
  2
block 39
 10
0.0
 20
0.0
 30
0.0
  0
INSERT
  5
FB
330
1F
100
AcDbEntity
  8
Layer 1
100
AcDbBlockReference
  2
block 40
 10
0.0
 20
0.0
 30
0.0
  0
INSERT
  5
100
330
1F
100
AcDbEntity
  8
Layer 1
100
AcDbBlockReference
  2
block 41
 10
0.0
 20
0.0
 30
0.0
  0
INSERT
  5
105
330
1F
100
AcDbEntity
  8
Layer 1
100
AcDbBlockReference
  2
block 42
 10
0.0
 20
0.0
 30
0.0
  0
INSERT
  5
10A
330
1F
100
AcDbEntity
  8
Layer 1
100
AcDbBlockReference
  2
block 43
 10
0.0
 20
0.0
 30
0.0
  0
INSERT
  5
10F
330
1F
100
AcDbEntity
  8
Layer 1
100
AcDbBlockReference
  2
block 44
 10
0.0
 20
0.0
 30
0.0
  0
INSERT
  5
114
330
1F
100
AcDbEntity
  8
Layer 1
100
AcDbBlockReference
  2
block 45
 10
0.0
 20
0.0
 30
0.0
  0
INSERT
  5
119
330
1F
100
AcDbEntity
  8
Layer 1
100
AcDbBlockReference
  2
block 46
 10
0.0
 20
0.0
 30
0.0
  0
INSERT
  5
11E
330
1F
100
AcDbEntity
  8
Layer 1
100
AcDbBlockReference
  2
block 47
 10
0.0
 20
0.0
 30
0.0
  0
INSERT
  5
123
330
1F
100
AcDbEntity
  8
Layer 1
100
AcDbBlockReference
  2
block 48
 10
0.0
 20
0.0
 30
0.0
  0
INSERT
  5
128
330
1F
100
AcDbEntity
  8
Layer 1
100
AcDbBlockReference
  2
block 49
 10
0.0
 20
0.0
 30
0.0
  0
INSERT
  5
12D
330
1F
100
AcDbEntity
  8
Layer 1
100
AcDbBlockReference
  2
block 50
 10
0.0
 20
0.0
 30
0.0
  0
INSERT
  5
132
330
1F
100
AcDbEntity
  8
Layer 1
100
AcDbBlockReference
  2
block 51
 10
0.0
 20
0.0
 30
0.0
  0
INSERT
  5
137
330
1F
100
AcDbEntity
  8
Layer 1
100
AcDbBlockReference
  2
block 52
 10
0.0
 20
0.0
 30
0.0
  0
INSERT
  5
13C
330
1F
100
AcDbEntity
  8
Layer 1
100
AcDbBlockReference
  2
block 53
 10
0.0
 20
0.0
 30
0.0
  0
INSERT
  5
141
330
1F
100
AcDbEntity
  8
Layer 1
100
AcDbBlockReference
  2
block 54
 10
0.0
 20
0.0
 30
0.0
  0
INSERT
  5
146
330
1F
100
AcDbEntity
  8
Layer 1
100
AcDbBlockReference
  2
block 55
 10
0.0
 20
0.0
 30
0.0
  0
INSERT
  5
14B
330
1F
100
AcDbEntity
  8
Layer 1
100
AcDbBlockReference
  2
block 56
 10
0.0
 20
0.0
 30
0.0
  0
INSERT
  5
150
330
1F
100
AcDbEntity
  8
Layer 1
100
AcDbBlockReference
  2
block 57
 10
0.0
 20
0.0
 30
0.0
  0
INSERT
  5
158
330
1F
100
AcDbEntity
  8
Layer 1
100
AcDbBlockReference
  2
block 58
 10
0.0
 20
0.0
 30
0.0
  0
INSERT
  5
160
330
1F
100
AcDbEntity
  8
Layer 1
100
AcDbBlockReference
  2
block 59
 10
0.0
 20
0.0
 30
0.0
  0
INSERT
  5
165
330
1F
100
AcDbEntity
  8
Layer 1
100
AcDbBlockReference
  2
block 60
 10
0.0
 20
0.0
 30
0.0
  0
INSERT
  5
16A
330
1F
100
AcDbEntity
  8
Layer 1
100
AcDbBlockReference
  2
block 61
 10
0.0
 20
0.0
 30
0.0
  0
INSERT
  5
16F
330
1F
100
AcDbEntity
  8
Layer 1
100
AcDbBlockReference
  2
block 62
 10
0.0
 20
0.0
 30
0.0
  0
INSERT
  5
177
330
1F
100
AcDbEntity
  8
Layer 1
100
AcDbBlockReference
  2
block 63
 10
0.0
 20
0.0
 30
0.0
  0
INSERT
  5
17F
330
1F
100
AcDbEntity
  8
Layer 1
100
AcDbBlockReference
  2
block 64
 10
0.0
 20
0.0
 30
0.0
  0
INSERT
  5
187
330
1F
100
AcDbEntity
  8
Layer 1
100
AcDbBlockReference
  2
block 65
 10
0.0
 20
0.0
 30
0.0
  0
INSERT
  5
18F
330
1F
100
AcDbEntity
  8
Layer 1
100
AcDbBlockReference
  2
block 66
 10
0.0
 20
0.0
 30
0.0
  0
INSERT
  5
194
330
1F
100
AcDbEntity
  8
Layer 1
100
AcDbBlockReference
  2
block 67
 10
0.0
 20
0.0
 30
0.0
  0
INSERT
  5
199
330
1F
100
AcDbEntity
  8
Layer 1
100
AcDbBlockReference
  2
block 68
 10
0.0
 20
0.0
 30
0.0
  0
INSERT
  5
19E
330
1F
100
AcDbEntity
  8
Layer 1
100
AcDbBlockReference
  2
block 69
 10
0.0
 20
0.0
 30
0.0
  0
INSERT
  5
1A3
330
1F
100
AcDbEntity
  8
Layer 1
100
AcDbBlockReference
  2
block 70
 10
0.0
 20
0.0
 30
0.0
  0
INSERT
  5
1A8
330
1F
100
AcDbEntity
  8
Layer 1
100
AcDbBlockReference
  2
block 71
 10
0.0
 20
0.0
 30
0.0
  0
INSERT
  5
1B0
330
1F
100
AcDbEntity
  8
Layer 1
100
AcDbBlockReference
  2
block 72
 10
0.0
 20
0.0
 30
0.0
  0
INSERT
  5
1B8
330
1F
100
AcDbEntity
  8
Layer 1
100
AcDbBlockReference
  2
block 73
 10
0.0
 20
0.0
 30
0.0
  0
INSERT
  5
1C0
330
1F
100
AcDbEntity
  8
Layer 1
100
AcDbBlockReference
  2
block 74
 10
0.0
 20
0.0
 30
0.0
  0
INSERT
  5
1C8
330
1F
100
AcDbEntity
  8
Layer 1
100
AcDbBlockReference
  2
block 75
 10
0.0
 20
0.0
 30
0.0
  0
INSERT
  5
1CD
330
1F
100
AcDbEntity
  8
Layer 1
100
AcDbBlockReference
  2
block 76
 10
0.0
 20
0.0
 30
0.0
  0
INSERT
  5
1D2
330
1F
100
AcDbEntity
  8
Layer 1
100
AcDbBlockReference
  2
block 77
 10
0.0
 20
0.0
 30
0.0
  0
INSERT
  5
1D7
330
1F
100
AcDbEntity
  8
Layer 1
100
AcDbBlockReference
  2
block 78
 10
0.0
 20
0.0
 30
0.0
  0
INSERT
  5
1DF
330
1F
100
AcDbEntity
  8
Layer 1
100
AcDbBlockReference
  2
block 79
 10
0.0
 20
0.0
 30
0.0
  0
INSERT
  5
1E7
330
1F
100
AcDbEntity
  8
Layer 1
100
AcDbBlockReference
  2
block 80
 10
0.0
 20
0.0
 30
0.0
  0
INSERT
  5
1EF
330
1F
100
AcDbEntity
  8
Layer 1
100
AcDbBlockReference
  2
block 81
 10
0.0
 20
0.0
 30
0.0
  0
INSERT
  5
1F7
330
1F
100
AcDbEntity
  8
Layer 1
100
AcDbBlockReference
  2
block 82
 10
0.0
 20
0.0
 30
0.0
  0
INSERT
  5
1FF
330
1F
100
AcDbEntity
  8
Layer 1
100
AcDbBlockReference
  2
block 83
 10
0.0
 20
0.0
 30
0.0
  0
INSERT
  5
207
330
1F
100
AcDbEntity
  8
Layer 1
100
AcDbBlockReference
  2
block 84
 10
0.0
 20
0.0
 30
0.0
  0
INSERT
  5
20F
330
1F
100
AcDbEntity
  8
Layer 1
100
AcDbBlockReference
  2
block 85
 10
0.0
 20
0.0
 30
0.0
  0
INSERT
  5
217
330
1F
100
AcDbEntity
  8
Layer 1
100
AcDbBlockReference
  2
block 86
 10
0.0
 20
0.0
 30
0.0
  0
INSERT
  5
21F
330
1F
100
AcDbEntity
  8
Layer 1
100
AcDbBlockReference
  2
block 87
 10
0.0
 20
0.0
 30
0.0
  0
INSERT
  5
227
330
1F
100
AcDbEntity
  8
Layer 1
100
AcDbBlockReference
  2
block 88
 10
0.0
 20
0.0
 30
0.0
  0
INSERT
  5
22F
330
1F
100
AcDbEntity
  8
Layer 1
100
AcDbBlockReference
  2
block 89
 10
0.0
 20
0.0
 30
0.0
  0
INSERT
  5
237
330
1F
100
AcDbEntity
  8
Layer 1
100
AcDbBlockReference
  2
block 90
 10
0.0
 20
0.0
 30
0.0
  0
INSERT
  5
23F
330
1F
100
AcDbEntity
  8
Layer 1
100
AcDbBlockReference
  2
block 91
 10
0.0
 20
0.0
 30
0.0
  0
INSERT
  5
247
330
1F
100
AcDbEntity
  8
Layer 1
100
AcDbBlockReference
  2
block 92
 10
0.0
 20
0.0
 30
0.0
  0
INSERT
  5
24F
330
1F
100
AcDbEntity
  8
Layer 1
100
AcDbBlockReference
  2
block 93
 10
0.0
 20
0.0
 30
0.0
  0
INSERT
  5
257
330
1F
100
AcDbEntity
  8
Layer 1
100
AcDbBlockReference
  2
block 94
 10
0.0
 20
0.0
 30
0.0
  0
INSERT
  5
25F
330
1F
100
AcDbEntity
  8
Layer 1
100
AcDbBlockReference
  2
block 95
 10
0.0
 20
0.0
 30
0.0
  0
INSERT
  5
267
330
1F
100
AcDbEntity
  8
Layer 1
100
AcDbBlockReference
  2
block 96
 10
0.0
 20
0.0
 30
0.0
  0
INSERT
  5
26F
330
1F
100
AcDbEntity
  8
Layer 1
100
AcDbBlockReference
  2
block 97
 10
0.0
 20
0.0
 30
0.0
  0
INSERT
  5
274
330
1F
100
AcDbEntity
  8
Layer 1
100
AcDbBlockReference
  2
block 98
 10
0.0
 20
0.0
 30
0.0
  0
INSERT
  5
279
330
1F
100
AcDbEntity
  8
Layer 1
100
AcDbBlockReference
  2
block 99
 10
0.0
 20
0.0
 30
0.0
  0
INSERT
  5
27E
330
1F
100
AcDbEntity
  8
Layer 1
100
AcDbBlockReference
  2
block 100
 10
0.0
 20
0.0
 30
0.0
  0
INSERT
  5
283
330
1F
100
AcDbEntity
  8
Layer 1
100
AcDbBlockReference
  2
block 101
 10
0.0
 20
0.0
 30
0.0
  0
INSERT
  5
288
330
1F
100
AcDbEntity
  8
Layer 1
100
AcDbBlockReference
  2
block 102
 10
0.0
 20
0.0
 30
0.0
  0
INSERT
  5
290
330
1F
100
AcDbEntity
  8
Layer 1
100
AcDbBlockReference
  2
block 103
 10
0.0
 20
0.0
 30
0.0
  0
INSERT
  5
298
330
1F
100
AcDbEntity
  8
Layer 1
100
AcDbBlockReference
  2
block 104
 10
0.0
 20
0.0
 30
0.0
  0
INSERT
  5
2A0
330
1F
100
AcDbEntity
  8
Layer 1
100
AcDbBlockReference
  2
block 105
 10
0.0
 20
0.0
 30
0.0
  0
INSERT
  5
2A8
330
1F
100
AcDbEntity
  8
Layer 1
100
AcDbBlockReference
  2
block 106
 10
0.0
 20
0.0
 30
0.0
  0
INSERT
  5
2B0
330
1F
100
AcDbEntity
  8
Layer 1
100
AcDbBlockReference
  2
block 107
 10
0.0
 20
0.0
 30
0.0
  0
INSERT
  5
2B8
330
1F
100
AcDbEntity
  8
Layer 1
100
AcDbBlockReference
  2
block 108
 10
0.0
 20
0.0
 30
0.0
  0
INSERT
  5
2BD
330
1F
100
AcDbEntity
  8
Layer 1
100
AcDbBlockReference
  2
block 109
 10
0.0
 20
0.0
 30
0.0
  0
INSERT
  5
2C2
330
1F
100
AcDbEntity
  8
Layer 1
100
AcDbBlockReference
  2
block 110
 10
0.0
 20
0.0
 30
0.0
  0
INSERT
  5
2C7
330
1F
100
AcDbEntity
  8
Layer 1
100
AcDbBlockReference
  2
block 111
 10
0.0
 20
0.0
 30
0.0
  0
INSERT
  5
2CC
330
1F
100
AcDbEntity
  8
Layer 1
100
AcDbBlockReference
  2
block 112
 10
0.0
 20
0.0
 30
0.0
  0
INSERT
  5
2D1
330
1F
100
AcDbEntity
  8
Layer 1
100
AcDbBlockReference
  2
block 113
 10
0.0
 20
0.0
 30
0.0
  0
INSERT
  5
2D9
330
1F
100
AcDbEntity
  8
Layer 1
100
AcDbBlockReference
  2
block 114
 10
0.0
 20
0.0
 30
0.0
  0
INSERT
  5
2E1
330
1F
100
AcDbEntity
  8
Layer 1
100
AcDbBlockReference
  2
block 115
 10
0.0
 20
0.0
 30
0.0
  0
INSERT
  5
2E9
330
1F
100
AcDbEntity
  8
Layer 1
100
AcDbBlockReference
  2
block 116
 10
0.0
 20
0.0
 30
0.0
  0
INSERT
  5
2F1
330
1F
100
AcDbEntity
  8
Layer 1
100
AcDbBlockReference
  2
block 117
 10
0.0
 20
0.0
 30
0.0
  0
INSERT
  5
2F9
330
1F
100
AcDbEntity
  8
Layer 1
100
AcDbBlockReference
  2
block 118
 10
0.0
 20
0.0
 30
0.0
  0
INSERT
  5
301
330
1F
100
AcDbEntity
  8
Layer 1
100
AcDbBlockReference
  2
block 119
 10
0.0
 20
0.0
 30
0.0
  0
INSERT
  5
309
330
1F
100
AcDbEntity
  8
Layer 1
100
AcDbBlockReference
  2
block 120
 10
0.0
 20
0.0
 30
0.0
  0
INSERT
  5
30E
330
1F
100
AcDbEntity
  8
Layer 1
100
AcDbBlockReference
  2
block 121
 10
0.0
 20
0.0
 30
0.0
  0
INSERT
  5
313
330
1F
100
AcDbEntity
  8
Layer 1
100
AcDbBlockReference
  2
block 122
 10
0.0
 20
0.0
 30
0.0
  0
INSERT
  5
318
330
1F
100
AcDbEntity
  8
Layer 1
100
AcDbBlockReference
  2
block 123
 10
0.0
 20
0.0
 30
0.0
  0
INSERT
  5
31D
330
1F
100
AcDbEntity
  8
Layer 1
100
AcDbBlockReference
  2
block 124
 10
0.0
 20
0.0
 30
0.0
  0
INSERT
  5
322
330
1F
100
AcDbEntity
  8
Layer 1
100
AcDbBlockReference
  2
block 125
 10
0.0
 20
0.0
 30
0.0
  0
INSERT
  5
327
330
1F
100
AcDbEntity
  8
Layer 1
100
AcDbBlockReference
  2
block 126
 10
0.0
 20
0.0
 30
0.0
  0
INSERT
  5
32C
330
1F
100
AcDbEntity
  8
Layer 1
100
AcDbBlockReference
  2
block 127
 10
0.0
 20
0.0
 30
0.0
  0
INSERT
  5
331
330
1F
100
AcDbEntity
  8
Layer 1
100
AcDbBlockReference
  2
block 128
 10
0.0
 20
0.0
 30
0.0
  0
INSERT
  5
336
330
1F
100
AcDbEntity
  8
Layer 1
100
AcDbBlockReference
  2
block 129
 10
0.0
 20
0.0
 30
0.0
  0
INSERT
  5
33B
330
1F
100
AcDbEntity
  8
Layer 1
100
AcDbBlockReference
  2
block 130
 10
0.0
 20
0.0
 30
0.0
  0
INSERT
  5
340
330
1F
100
AcDbEntity
  8
Layer 1
100
AcDbBlockReference
  2
block 131
 10
0.0
 20
0.0
 30
0.0
  0
INSERT
  5
348
330
1F
100
AcDbEntity
  8
Layer 1
100
AcDbBlockReference
  2
block 132
 10
0.0
 20
0.0
 30
0.0
  0
INSERT
  5
350
330
1F
100
AcDbEntity
  8
Layer 1
100
AcDbBlockReference
  2
block 133
 10
0.0
 20
0.0
 30
0.0
  0
INSERT
  5
358
330
1F
100
AcDbEntity
  8
Layer 1
100
AcDbBlockReference
  2
block 134
 10
0.0
 20
0.0
 30
0.0
  0
INSERT
  5
360
330
1F
100
AcDbEntity
  8
Layer 1
100
AcDbBlockReference
  2
block 135
 10
0.0
 20
0.0
 30
0.0
  0
INSERT
  5
368
330
1F
100
AcDbEntity
  8
Layer 1
100
AcDbBlockReference
  2
block 136
 10
0.0
 20
0.0
 30
0.0
  0
INSERT
  5
370
330
1F
100
AcDbEntity
  8
Layer 1
100
AcDbBlockReference
  2
block 137
 10
0.0
 20
0.0
 30
0.0
  0
INSERT
  5
378
330
1F
100
AcDbEntity
  8
Layer 1
100
AcDbBlockReference
  2
block 138
 10
0.0
 20
0.0
 30
0.0
  0
INSERT
  5
380
330
1F
100
AcDbEntity
  8
Layer 1
100
AcDbBlockReference
  2
block 139
 10
0.0
 20
0.0
 30
0.0
  0
INSERT
  5
388
330
1F
100
AcDbEntity
  8
Layer 1
100
AcDbBlockReference
  2
block 140
 10
0.0
 20
0.0
 30
0.0
  0
INSERT
  5
390
330
1F
100
AcDbEntity
  8
Layer 1
100
AcDbBlockReference
  2
block 141
 10
0.0
 20
0.0
 30
0.0
  0
INSERT
  5
398
330
1F
100
AcDbEntity
  8
Layer 1
100
AcDbBlockReference
  2
block 142
 10
0.0
 20
0.0
 30
0.0
  0
INSERT
  5
3A0
330
1F
100
AcDbEntity
  8
Layer 1
100
AcDbBlockReference
  2
block 143
 10
0.0
 20
0.0
 30
0.0
  0
INSERT
  5
3A8
330
1F
100
AcDbEntity
  8
Layer 1
100
AcDbBlockReference
  2
block 144
 10
0.0
 20
0.0
 30
0.0
  0
INSERT
  5
3AD
330
1F
100
AcDbEntity
  8
Layer 1
100
AcDbBlockReference
  2
block 145
 10
0.0
 20
0.0
 30
0.0
  0
INSERT
  5
3B2
330
1F
100
AcDbEntity
  8
Layer 1
100
AcDbBlockReference
  2
block 146
 10
0.0
 20
0.0
 30
0.0
  0
INSERT
  5
3B7
330
1F
100
AcDbEntity
  8
Layer 1
100
AcDbBlockReference
  2
block 147
 10
0.0
 20
0.0
 30
0.0
  0
INSERT
  5
3BC
330
1F
100
AcDbEntity
  8
Layer 1
100
AcDbBlockReference
  2
block 148
 10
0.0
 20
0.0
 30
0.0
  0
INSERT
  5
3C1
330
1F
100
AcDbEntity
  8
Layer 1
100
AcDbBlockReference
  2
block 149
 10
0.0
 20
0.0
 30
0.0
  0
INSERT
  5
3C6
330
1F
100
AcDbEntity
  8
Layer 1
100
AcDbBlockReference
  2
block 150
 10
0.0
 20
0.0
 30
0.0
  0
INSERT
  5
3CB
330
1F
100
AcDbEntity
  8
Layer 1
100
AcDbBlockReference
  2
block 151
 10
0.0
 20
0.0
 30
0.0
  0
INSERT
  5
3D0
330
1F
100
AcDbEntity
  8
Layer 1
100
AcDbBlockReference
  2
block 152
 10
0.0
 20
0.0
 30
0.0
  0
INSERT
  5
3D5
330
1F
100
AcDbEntity
  8
Layer 1
100
AcDbBlockReference
  2
block 153
 10
0.0
 20
0.0
 30
0.0
  0
INSERT
  5
3DA
330
1F
100
AcDbEntity
  8
Layer 1
100
AcDbBlockReference
  2
block 154
 10
0.0
 20
0.0
 30
0.0
  0
INSERT
  5
3DF
330
1F
100
AcDbEntity
  8
Layer 1
100
AcDbBlockReference
  2
block 155
 10
0.0
 20
0.0
 30
0.0
  0
INSERT
  5
3E7
330
1F
100
AcDbEntity
  8
Layer 1
100
AcDbBlockReference
  2
block 156
 10
0.0
 20
0.0
 30
0.0
  0
INSERT
  5
3EF
330
1F
100
AcDbEntity
  8
Layer 1
100
AcDbBlockReference
  2
block 157
 10
0.0
 20
0.0
 30
0.0
  0
INSERT
  5
3F7
330
1F
100
AcDbEntity
  8
Layer 1
100
AcDbBlockReference
  2
block 158
 10
0.0
 20
0.0
 30
0.0
  0
INSERT
  5
3FF
330
1F
100
AcDbEntity
  8
Layer 1
100
AcDbBlockReference
  2
block 159
 10
0.0
 20
0.0
 30
0.0
  0
INSERT
  5
407
330
1F
100
AcDbEntity
  8
Layer 1
100
AcDbBlockReference
  2
block 160
 10
0.0
 20
0.0
 30
0.0
  0
INSERT
  5
40F
330
1F
100
AcDbEntity
  8
Layer 1
100
AcDbBlockReference
  2
block 161
 10
0.0
 20
0.0
 30
0.0
  0
INSERT
  5
417
330
1F
100
AcDbEntity
  8
Layer 1
100
AcDbBlockReference
  2
block 162
 10
0.0
 20
0.0
 30
0.0
  0
INSERT
  5
41F
330
1F
100
AcDbEntity
  8
Layer 1
100
AcDbBlockReference
  2
block 163
 10
0.0
 20
0.0
 30
0.0
  0
INSERT
  5
427
330
1F
100
AcDbEntity
  8
Layer 1
100
AcDbBlockReference
  2
block 164
 10
0.0
 20
0.0
 30
0.0
  0
INSERT
  5
42F
330
1F
100
AcDbEntity
  8
Layer 1
100
AcDbBlockReference
  2
block 165
 10
0.0
 20
0.0
 30
0.0
  0
ENDSEC
  0
SECTION
  2
OBJECTS
  0
DICTIONARY
  5
C
330
0
100
AcDbDictionary
281
     1
  3
ACAD_GROUP
350
D
  3
ACAD_LAYOUT
350
1A
  3
ACAD_MLINESTYLE
350
17
  3
ACAD_PLOTSETTINGS
350
19
  3
ACAD_PLOTSTYLENAME
350
E
  3
ACAD_TABLESTYLE
350
436
  3
ACAD_VISUALSTYLE
350
2A
  0
DICTIONARY
  5
D
102
{ACAD_REACTORS
330
C
102
}
330
C
100
AcDbDictionary
281
     1
  0
DICTIONARY
  5
1A
102
{ACAD_REACTORS
330
C
102
}
330
C
100
AcDbDictionary
281
     1
  3
Layout1
350
1E
  3
Layout2
350
26
  3
Model
350
22
  0
DICTIONARY
  5
17
102
{ACAD_REACTORS
330
C
102
}
330
C
100
AcDbDictionary
281
     1
  3
Standard
350
18
  0
DICTIONARY
  5
19
102
{ACAD_REACTORS
330
C
102
}
330
C
100
AcDbDictionary
281
     1
  0
ACDBDICTIONARYWDFLT
  5
E
102
{ACAD_REACTORS
330
C
102
}
330
C
100
AcDbDictionary
281
     1
  3
Normal
350
F
100
AcDbDictionaryWithDefault
340
F
  0
DICTIONARY
  5
436
102
{ACAD_REACTORS
330
C
102
}
330
C
100
AcDbDictionary
281
     1
  0
DICTIONARY
  5
2A
102
{ACAD_REACTORS
330
C
102
}
330
C
100
AcDbDictionary
281
     1
  3
2dWireframe
350
2F
  3
3D Hidden
350
31
  3
3dWireframe
350
30
  3
Basic
350
32
  3
Brighten
350
36
  3
ColorChange
350
3A
  3
Conceptual
350
34
  3
Dim
350
35
  3
Facepattern
350
39
  3
Flat
350
2B
  3
FlatWithEdges
350
2C
  3
Gouraud
350
2D
  3
GouraudWithEdges
350
2E
  3
Linepattern
350
38
  3
Realistic
350
33
  3
Thicken
350
37
  0
LAYOUT
  5
1E
102
{ACAD_REACTORS
330
1A
102
}
330
1A
100
AcDbPlotSettings
  1

  2
none_device
  4

  6

 40
0.0
 41
0.0
 42
0.0
 43
0.0
 44
0.0
 45
0.0
 46
0.0
 47
0.0
 48
0.0
 49
0.0
140
0.0
141
0.0
142
1.0
143
1.0
 70
   688
 72
     0
 73
     0
 74
     5
  7

 75
    16
 76
     0
 77
     2
 78
   300
147
1.0
148
0.0
149
0.0
100
AcDbLayout
  1
Layout1
 70
     1
 71
     1
 10
0.0
 20
0.0
 11
12.0
 21
9.0
 12
0.0
 22
0.0
 32
0.0
 14
1.000000000000000E+20
 24
1.000000000000000E+20
 34
1.000000000000000E+20
 15
-1.000000000000000E+20
 25
-1.000000000000000E+20
 35
-1.000000000000000E+20
146
0.0
 13
0.0
 23
0.0
 33
0.0
 16
1.0
 26
0.0
 36
0.0
 17
0.0
 27
1.0
 37
0.0
 76
     0
330
1B
  0
LAYOUT
  5
26
102
{ACAD_REACTORS
330
1A
102
}
330
1A
100
AcDbPlotSettings
  1

  2
none_device
  4

  6

 40
0.0
 41
0.0
 42
0.0
 43
0.0
 44
0.0
 45
0.0
 46
0.0
 47
0.0
 48
0.0
 49
0.0
140
0.0
141
0.0
142
1.0
143
1.0
 70
   688
 72
     0
 73
     0
 74
     5
  7

 75
    16
 76
     0
 77
     2
 78
   300
147
1.0
148
0.0
149
0.0
100
AcDbLayout
  1
Layout2
 70
     1
 71
     2
 10
0.0
 20
0.0
 11
0.0
 21
0.0
 12
0.0
 22
0.0
 32
0.0
 14
0.0
 24
0.0
 34
0.0
 15
0.0
 25
0.0
 35
0.0
146
0.0
 13
0.0
 23
0.0
 33
0.0
 16
1.0
 26
0.0
 36
0.0
 17
0.0
 27
1.0
 37
0.0
 76
     0
330
23
  0
LAYOUT
  5
22
102
{ACAD_REACTORS
330
1A
102
}
330
1A
100
AcDbPlotSettings
  1

  2
none_device
  4

  6

 40
0.0
 41
0.0
 42
0.0
 43
0.0
 44
0.0
 45
0.0
 46
0.0
 47
0.0
 48
0.0
 49
0.0
140
0.0
141
0.0
142
1.0
143
1.0
 70
  1712
 72
     0
 73
     0
 74
     0
  7

 75
     0
 76
     0
 77
     2
 78
   300
147
1.0
148
0.0
149
0.0
100
AcDbLayout
  1
Model
 70
     1
 71
     0
 10
0.0
 20
0.0
 11
12.0
 21
9.0
 12
0.0
 22
0.0
 32
0.0
 14
1.000000000000000E+20
 24
1.000000000000000E+20
 34
1.000000000000000E+20
 15
-1.000000000000000E+20
 25
-1.000000000000000E+20
 35
-1.000000000000000E+20
146
0.0
 13
0.0
 23
0.0
 33
0.0
 16
1.0
 26
0.0
 36
0.0
 17
0.0
 27
1.0
 37
0.0
 76
     0
330
1F
331
29
  0
MLINESTYLE
  5
18
102
{ACAD_REACTORS
330
17
102
}
330
17
100
AcDbMlineStyle
  2
Standard
 70
     0
  3

 62
   256
 51
90.0
 52
90.0
 71
     2
 49
0.5
 62
   256
  6
BYLAYER
 49
-0.5
 62
   256
  6
BYLAYER
  0
ACDBPLACEHOLDER
  5
F
102
{ACAD_REACTORS
330
E
102
}
330
E
  0
VISUALSTYLE
  5
2F
102
{ACAD_REACTORS
330
2A
102
}
330
2A
100
AcDbVisualStyle
  2
2dWireframe
 70
     4
 71
     0
 72
     2
 73
     0
 90
        0
 40
-0.6
 41
-30.0
 62
     5
 63
     7
421
 16777215
 74
     1
 91
        4
 64
     7
 65
   257
 75
     1
175
     1
 42
1.0
 92
        0
 66
   257
 43
1.0
 76
     1
 77
     6
 78
     2
 67
     7
 79
     5
170
     0
171
     0
290
     0
174
     0
 93
        1
 44
0.0
173
     0
291
     0
 45
0.0
1001
ACAD
1000
AcDbSavedByObjectVersion
1070
     0
  0
VISUALSTYLE
  5
31
102
{ACAD_REACTORS
330
2A
102
}
330
2A
100
AcDbVisualStyle
  2
3D Hidden
 70
     6
 71
     1
 72
     2
 73
     2
 90
        0
 40
-0.6
 41
-30.0
 62
     5
 63
     7
421
 16777215
 74
     2
 91
        2
 64
     7
 65
   257
 75
     2
175
     1
 42
40.0
 92
        0
 66
   257
 43
1.0
 76
     1
 77
     6
 78
     2
 67
     7
 79
     3
170
     0
171
     0
290
     0
174
     0
 93
        1
 44
0.0
173
     0
291
     0
 45
0.0
1001
ACAD
1000
AcDbSavedByObjectVersion
1070
     0
  0
VISUALSTYLE
  5
30
102
{ACAD_REACTORS
330
2A
102
}
330
2A
100
AcDbVisualStyle
  2
3dWireframe
 70
     5
 71
     0
 72
     2
 73
     0
 90
        0
 40
-0.6
 41
-30.0
 62
     5
 63
     7
421
 16777215
 74
     1
 91
        4
 64
     7
 65
   257
 75
     1
175
     1
 42
1.0
 92
        0
 66
   257
 43
1.0
 76
     1
 77
     6
 78
     2
 67
     7
 79
     5
170
     0
171
     0
290
     0
174
     0
 93
        1
 44
0.0
173
     0
291
     0
 45
0.0
1001
ACAD
1000
AcDbSavedByObjectVersion
1070
     0
  0
VISUALSTYLE
  5
32
102
{ACAD_REACTORS
330
2A
102
}
330
2A
100
AcDbVisualStyle
  2
Basic
 70
     7
 71
     1
 72
     0
 73
     1
 90
        0
 40
-0.6
 41
-30.0
 62
     5
 63
     7
421
 16777215
 74
     0
 91
        4
 64
     7
 65
   257
 75
     1
175
     1
 42
1.0
 92
        8
 66
     7
 43
1.0
 76
     1
 77
     6
 78
     2
 67
     7
 79
     5
170
     0
171
     0
290
     0
174
     0
 93
        1
 44
0.0
173
     0
291
     1
 45
0.0
1001
ACAD
1000
AcDbSavedByObjectVersion
1070
     0
  0
VISUALSTYLE
  5
36
102
{ACAD_REACTORS
330
2A
102
}
330
2A
100
AcDbVisualStyle
  2
Brighten
 70
    12
 71
     2
 72
     2
 73
     0
 90
        0
 40
-0.6
 41
-30.0
 62
     5
 63
     7
421
 16777215
 74
     1
 91
        4
 64
     7
 65
   257
 75
     1
175
     1
 42
1.0
 92
        8
 66
     7
 43
1.0
 76
     1
 77
     6
 78
     2
 67
     7
 79
     5
170
     0
171
     0
290
     0
174
     0
 93
        1
 44
50.0
173
     0
291
     1
 45
0.0
1001
ACAD
1000
AcDbSavedByObjectVersion
1070
     0
  0
VISUALSTYLE
  5
3A
102
{ACAD_REACTORS
330
2A
102
}
330
2A
100
AcDbVisualStyle
  2
ColorChange
 70
    16
 71
     2
 72
     2
 73
     3
 90
        0
 40
-0.6
 41
-30.0
 62
     5
 63
     8
421
  8421504
 74
     1
 91
        4
 64
     7
 65
   257
 75
     1
175
     1
 42
1.0
 92
        8
 66
     8
424
  8421504
 43
1.0
 76
     1
 77
     6
 78
     2
 67
     7
 79
     5
170
     0
171
     0
290
     0
174
     0
 93
        1
 44
0.0
173
     0
291
     1
 45
0.0
1001
ACAD
1000
AcDbSavedByObjectVersion
1070
     0
  0
VISUALSTYLE
  5
34
102
{ACAD_REACTORS
330
2A
102
}
330
2A
100
AcDbVisualStyle
  2
Conceptual
 70
     9
 71
     3
 72
     2
 73
     0
 90
        0
 40
-0.6
 41
-30.0
 62
     5
 63
     7
421
 16777215
 74
     2
 91
        2
 64
     7
 65
   257
 75
     1
175
     1
 42
40.0
 92
        8
 66
     7
 43
1.0
 76
     1
 77
     6
 78
     2
 67
     7
 79
     3
170
     0
171
     0
290
     0
174
     0
 93
        1
 44
0.0
173
     0
291
     0
 45
0.0
1001
ACAD
1000
AcDbSavedByObjectVersion
1070
     0
  0
VISUALSTYLE
  5
35
102
{ACAD_REACTORS
330
2A
102
}
330
2A
100
AcDbVisualStyle
  2
Dim
 70
    11
 71
     2
 72
     2
 73
     0
 90
        0
 40
-0.6
 41
-30.0
 62
     5
 63
     7
421
 16777215
 74
     1
 91
        4
 64
     7
 65
   257
 75
     1
175
     1
 42
1.0
 92
        8
 66
     7
 43
1.0
 76
     1
 77
     6
 78
     2
 67
     7
 79
     5
170
     0
171
     0
290
     0
174
     0
 93
        1
 44
-50.0
173
     0
291
     1
 45
0.0
1001
ACAD
1000
AcDbSavedByObjectVersion
1070
     0
  0
VISUALSTYLE
  5
39
102
{ACAD_REACTORS
330
2A
102
}
330
2A
100
AcDbVisualStyle
  2
Facepattern
 70
    15
 71
     2
 72
     2
 73
     0
 90
        0
 40
-0.6
 41
-30.0
 62
     5
 63
     7
421
 16777215
 74
     1
 91
        4
 64
     7
 65
   257
 75
     1
175
     1
 42
1.0
 92
        8
 66
     7
 43
1.0
 76
     1
 77
     6
 78
     2
 67
     7
 79
     5
170
     0
171
     0
290
     0
174
     0
 93
        1
 44
0.0
173
     0
291
     1
 45
0.0
1001
ACAD
1000
AcDbSavedByObjectVersion
1070
     0
  0
VISUALSTYLE
  5
2B
102
{ACAD_REACTORS
330
2A
102
}
330
2A
100
AcDbVisualStyle
  2
Flat
 70
     0
 71
     2
 72
     1
 73
     1
 90
        2
 40
-0.6
 41
30.0
 62
     5
 63
     7
421
 16777215
 74
     0
 91
        4
 64
     7
 65
   257
 75
     1
175
     1
 42
1.0
 92
        8
 66
     7
 43
1.0
 76
     1
 77
     6
 78
     2
 67
     7
 79
     5
170
     0
171
     0
290
     0
174
     0
 93
       13
 44
0.0
173
     0
291
     1
 45
0.0
1001
ACAD
1000
AcDbSavedByObjectVersion
1070
     0
  0
VISUALSTYLE
  5
2C
102
{ACAD_REACTORS
330
2A
102
}
330
2A
100
AcDbVisualStyle
  2
FlatWithEdges
 70
     1
 71
     2
 72
     1
 73
     1
 90
        2
 40
-0.6
 41
30.0
 62
     5
 63
     7
421
 16777215
 74
     1
 91
        4
 64
     7
 65
   257
 75
     1
175
     1
 42
1.0
 92
        0
 66
   257
 43
1.0
 76
     1
 77
     6
 78
     2
 67
     7
 79
     5
170
     0
171
     0
290
     0
174
     0
 93
       13
 44
0.0
173
     0
291
     1
 45
0.0
1001
ACAD
1000
AcDbSavedByObjectVersion
1070
     0
  0
VISUALSTYLE
  5
2D
102
{ACAD_REACTORS
330
2A
102
}
330
2A
100
AcDbVisualStyle
  2
Gouraud
 70
     2
 71
     2
 72
     2
 73
     1
 90
        2
 40
-0.6
 41
30.0
 62
     5
 63
     7
421
 16777215
 74
     0
 91
        4
 64
     7
 65
   257
 75
     1
175
     1
 42
1.0
 92
        0
 66
     7
 43
1.0
 76
     1
 77
     6
 78
     2
 67
     7
 79
     5
170
     0
171
     0
290
     0
174
     0
 93
       13
 44
0.0
173
     0
291
     1
 45
0.0
1001
ACAD
1000
AcDbSavedByObjectVersion
1070
     0
  0
VISUALSTYLE
  5
2E
102
{ACAD_REACTORS
330
2A
102
}
330
2A
100
AcDbVisualStyle
  2
GouraudWithEdges
 70
     3
 71
     2
 72
     2
 73
     1
 90
        2
 40
-0.6
 41
30.0
 62
     5
 63
     7
421
 16777215
 74
     1
 91
        4
 64
     7
 65
   257
 75
     1
175
     1
 42
1.0
 92
        0
 66
   257
 43
1.0
 76
     1
 77
     6
 78
     2
 67
     7
 79
     5
170
     0
171
     0
290
     0
174
     0
 93
       13
 44
0.0
173
     0
291
     1
 45
0.0
1001
ACAD
1000
AcDbSavedByObjectVersion
1070
     0
  0
VISUALSTYLE
  5
38
102
{ACAD_REACTORS
330
2A
102
}
330
2A
100
AcDbVisualStyle
  2
Linepattern
 70
    14
 71
     2
 72
     2
 73
     0
 90
        0
 40
-0.6
 41
-30.0
 62
     5
 63
     7
421
 16777215
 74
     1
 91
        4
 64
     7
 65
   257
 75
     7
175
     7
 42
1.0
 92
        8
 66
     7
 43
1.0
 76
     1
 77
     6
 78
     2
 67
     7
 79
     5
170
     0
171
     0
290
     0
174
     0
 93
        1
 44
0.0
173
     0
291
     1
 45
0.0
1001
ACAD
1000
AcDbSavedByObjectVersion
1070
     0
  0
VISUALSTYLE
  5
33
102
{ACAD_REACTORS
330
2A
102
}
330
2A
100
AcDbVisualStyle
  2
Realistic
 70
     8
 71
     2
 72
     2
 73
     0
 90
        0
 40
-0.6
 41
-30.0
 62
     5
 63
     7
421
 16777215
 74
     1
 91
        0
 64
     7
 65
   257
 75
     1
175
     1
 42
1.0
 92
        8
 66
     8
424
  7895160
 43
1.0
 76
     1
 77
     6
 78
     2
 67
     7
 79
     5
170
     0
171
     0
290
     0
174
     0
 93
       13
 44
0.0
173
     0
291
     0
 45
0.0
1001
ACAD
1000
AcDbSavedByObjectVersion
1070
     0
  0
VISUALSTYLE
  5
37
102
{ACAD_REACTORS
330
2A
102
}
330
2A
100
AcDbVisualStyle
  2
Thicken
 70
    13
 71
     2
 72
     2
 73
     0
 90
        0
 40
-0.6
 41
-30.0
 62
     5
 63
     7
421
 16777215
 74
     1
 91
        4
 64
     7
 65
   257
 75
     1
175
     1
 42
1.0
 92
       12
 66
     7
 43
1.0
 76
     1
 77
     6
 78
     2
 67
     7
 79
     5
170
     0
171
     0
290
     0
174
     0
 93
        1
 44
0.0
173
     0
291
     1
 45
0.0
1001
ACAD
1000
AcDbSavedByObjectVersion
1070
     0
  0
ENDSEC
  0
EOF
