  0
SECTION
  2
HEADER
  9
$ACADVER
  1
AC1014
  9
$ACADMAINTVER
 70
     9
  9
$DWGCODEPAGE
  3
ANSI_1252
  9
$INSBASE
 10
0.0
 20
0.0
 30
0.0
  9
$EXTMIN
 10
-520.8838864245629
 20
-761.8833949299478
 30
0.0
  9
$EXTMAX
 10
-155.9745401772965
 20
-587.552242573649
 30
0.0
  9
$LIMMIN
 10
0.0
 20
0.0
  9
$LIMMAX
 10
12.0
 20
9.0
  9
$ORTHOMODE
 70
     0
  9
$REGENMODE
 70
     1
  9
$FILLMODE
 70
     1
  9
$QTEXTMODE
 70
     0
  9
$MIRRTEXT
 70
     1
  9
$DRAGMODE
 70
     2
  9
$LTSCALE
 40
1.0
  9
$OSMODE
 70
    37
  9
$ATTMODE
 70
     1
  9
$TEXTSIZE
 40
0.2
  9
$TRACEWID
 40
0.05
  9
$TEXTSTYLE
  7
STANDARD
  9
$CLAYER
  8
ROUNDED$BENDING_PATTERN
  9
$CELTYPE
  6
BYLAYER
  9
$CECOLOR
 62
   256
  9
$CELTSCALE
 40
1.0
  9
$DELOBJ
 70
     1
  9
$DISPSILH
 70
     0
  9
$DIMSCALE
 40
1.0
  9
$DIMASZ
 40
0.18
  9
$DIMEXO
 40
0.0625
  9
$DIMDLI
 40
0.38
  9
$DIMRND
 40
0.0
  9
$DIMDLE
 40
0.0
  9
$DIMEXE
 40
0.18
  9
$DIMTP
 40
0.0
  9
$DIMTM
 40
0.0
  9
$DIMTXT
 40
0.18
  9
$DIMCEN
 40
0.09
  9
$DIMTSZ
 40
0.0
  9
$DIMTOL
 70
     0
  9
$DIMLIM
 70
     0
  9
$DIMTIH
 70
     1
  9
$DIMTOH
 70
     1
  9
$DIMSE1
 70
     0
  9
$DIMSE2
 70
     0
  9
$DIMTAD
 70
     0
  9
$DIMZIN
 70
     0
  9
$DIMBLK
  1

  9
$DIMASO
 70
     1
  9
$DIMSHO
 70
     1
  9
$DIMPOST
  1

  9
$DIMAPOST
  1

  9
$DIMALT
 70
     0
  9
$DIMALTD
 70
     2
  9
$DIMALTF
 40
25.4
  9
$DIMLFAC
 40
1.0
  9
$DIMTOFL
 70
     0
  9
$DIMTVP
 40
0.0
  9
$DIMTIX
 70
     0
  9
$DIMSOXD
 70
     0
  9
$DIMSAH
 70
     0
  9
$DIMBLK1
  1

  9
$DIMBLK2
  1

  9
$DIMSTYLE
  2
STANDARD
  9
$DIMCLRD
 70
     0
  9
$DIMCLRE
 70
     0
  9
$DIMCLRT
 70
     0
  9
$DIMTFAC
 40
1.0
  9
$DIMGAP
 40
0.09
  9
$DIMJUST
 70
     0
  9
$DIMSD1
 70
     0
  9
$DIMSD2
 70
     0
  9
$DIMTOLJ
 70
     1
  9
$DIMTZIN
 70
     0
  9
$DIMALTZ
 70
     0
  9
$DIMALTTZ
 70
     0
  9
$DIMFIT
 70
     5
  9
$DIMUPT
 70
     0
  9
$DIMUNIT
 70
     2
  9
$DIMDEC
 70
     4
  9
$DIMTDEC
 70
     4
  9
$DIMALTU
 70
     2
  9
$DIMALTTD
 70
     2
  9
$DIMTXSTY
  7
STANDARD
  9
$DIMAUNIT
 70
     0
  9
$LUNITS
 70
     2
  9
$LUPREC
 70
     2
  9
$SKETCHINC
 40
0.1
  9
$FILLETRAD
 40
0.5
  9
$AUNITS
 70
     0
  9
$AUPREC
 70
     0
  9
$MENU
  1
.
  9
$ELEVATION
 40
0.0
  9
$PELEVATION
 40
0.0
  9
$THICKNESS
 40
0.0
  9
$LIMCHECK
 70
     0
  9
$CHAMFERA
 40
0.0
  9
$CHAMFERB
 40
0.0
  9
$CHAMFERC
 40
0.0
  9
$CHAMFERD
 40
0.0
  9
$SKPOLY
 70
     0
  9
$TDCREATE
 40
2457107.849996262
  9
$TDUPDATE
 40
2457107.850011215
  9
$TDINDWG
 40
0.0000000116
  9
$TDUSRTIMER
 40
0.0000000116
  9
$USRTIMER
 70
     1
  9
$ANGBASE
 50
0.0
  9
$ANGDIR
 70
     0
  9
$PDMODE
 70
     0
  9
$PDSIZE
 40
0.0
  9
$PLINEWID
 40
0.0
  9
$COORDS
 70
     1
  9
$SPLFRAME
 70
     0
  9
$SPLINETYPE
 70
     6
  9
$SPLINESEGS
 70
     8
  9
$ATTDIA
 70
     0
  9
$ATTREQ
 70
     1
  9
$HANDLING
 70
     1
  9
$HANDSEED
  5
13C
  9
$SURFTAB1
 70
     6
  9
$SURFTAB2
 70
     6
  9
$SURFTYPE
 70
     6
  9
$SURFU
 70
     6
  9
$SURFV
 70
     6
  9
$UCSNAME
  2

  9
$UCSORG
 10
0.0
 20
0.0
 30
0.0
  9
$UCSXDIR
 10
1.0
 20
0.0
 30
0.0
  9
$UCSYDIR
 10
0.0
 20
1.0
 30
0.0
  9
$PUCSNAME
  2

  9
$PUCSORG
 10
0.0
 20
0.0
 30
0.0
  9
$PUCSXDIR
 10
1.0
 20
0.0
 30
0.0
  9
$PUCSYDIR
 10
0.0
 20
1.0
 30
0.0
  9
$USERI1
 70
     0
  9
$USERI2
 70
     0
  9
$USERI3
 70
     0
  9
$USERI4
 70
     0
  9
$USERI5
 70
     0
  9
$USERR1
 40
0.0
  9
$USERR2
 40
0.0
  9
$USERR3
 40
0.0
  9
$USERR4
 40
0.0
  9
$USERR5
 40
0.0
  9
$WORLDVIEW
 70
     1
  9
$SHADEDGE
 70
     3
  9
$SHADEDIF
 70
    70
  9
$TILEMODE
 70
     1
  9
$MAXACTVP
 70
    64
  9
$PINSBASE
 10
0.0
 20
0.0
 30
0.0
  9
$PLIMCHECK
 70
     0
  9
$PEXTMIN
 10
1.000000000000000E+20
 20
1.000000000000000E+20
 30
1.000000000000000E+20
  9
$PEXTMAX
 10
-1.000000000000000E+20
 20
-1.000000000000000E+20
 30
-1.000000000000000E+20
  9
$PLIMMIN
 10
0.0
 20
0.0
  9
$PLIMMAX
 10
12.0
 20
9.0
  9
$UNITMODE
 70
     0
  9
$VISRETAIN
 70
     1
  9
$PLINEGEN
 70
     0
  9
$PSLTSCALE
 70
     1
  9
$TREEDEPTH
 70
  3020
  9
$PICKSTYLE
 70
     1
  9
$CMLSTYLE
  2
STANDARD
  9
$CMLJUST
 70
     0
  9
$CMLSCALE
 40
1.0
  9
$PROXYGRAPHICS
 70
     1
  9
$MEASUREMENT
 70
     0
  0
ENDSEC
  0
SECTION
  2
CLASSES
  0
CLASS
  1
ACDBDICTIONARYWDFLT
  2
AcDbDictionaryWithDefault
  3
ObjectDBX Classes
 90
        0
280
     0
281
     0
  0
CLASS
  1
VISUALSTYLE
  2
AcDbVisualStyle
  3
ObjectDBX Classes
 90
     4095
280
     0
281
     0
  0
CLASS
  1
MATERIAL
  2
AcDbMaterial
  3
ObjectDBX Classes
 90
     1153
280
     0
281
     0
  0
CLASS
  1
SCALE
  2
AcDbScale
  3
ObjectDBX Classes
 90
     1153
280
     0
281
     0
  0
CLASS
  1
SUN
  2
AcDbSun
  3
SCENEOE
 90
     1153
280
     0
281
     0
  0
CLASS
  1
DICTIONARYVAR
  2
AcDbDictionaryVar
  3
ObjectDBX Classes
 90
        0
280
     0
281
     0
  0
CLASS
  1
XRECORD
  2
AcDbXrecord
  3
ObjectDBX Classes
 90
        0
280
     0
281
     0
  0
CLASS
  1
LWPOLYLINE
  2
AcDbPolyline
  3
ObjectDBX Classes
 90
        0
280
     0
281
     1
  0
CLASS
  1
HATCH
  2
AcDbHatch
  3
ObjectDBX Classes
 90
        0
280
     0
281
     1
  0
CLASS
  1
ACDBPLACEHOLDER
  2
AcDbPlaceHolder
  3
ObjectDBX Classes
 90
        0
280
     0
281
     0
  0
CLASS
  1
LAYOUT
  2
AcDbLayout
  3
ObjectDBX Classes
 90
        0
280
     0
281
     0
  0
ENDSEC
  0
SECTION
  2
TABLES
  0
TABLE
  2
VPORT
  5
8
330
0
100
AcDbSymbolTable
 70
     1
  0
VPORT
  5
29
330
8
100
AcDbSymbolTableRecord
100
AcDbViewportTableRecord
  2
*ACTIVE
 70
     0
 10
0.0
 20
0.0
 11
1.0
 21
1.0
 12
-338.4292133009297
 22
-674.7178187517984
 13
0.0
 23
0.0
 14
0.5
 24
0.5
 15
0.5
 25
0.5
 16
0.0
 26
0.0
 36
1.0
 17
0.0
 27
0.0
 37
0.0
 40
177.8177754034248
 41
2.093196432852476
 42
50.0
 43
0.0
 44
0.0
 50
0.0
 51
0.0
 71
     0
 72
   100
 73
     1
 74
     3
 75
     0
 76
     0
 77
     0
 78
     0
  0
ENDTAB
  0
TABLE
  2
LTYPE
  5
5
330
0
100
AcDbSymbolTable
 70
     1
  0
LTYPE
  5
14
330
5
100
AcDbSymbolTableRecord
100
AcDbLinetypeTableRecord
  2
BYBLOCK
 70
     0
  3

 72
    65
 73
     0
 40
0.0
  0
LTYPE
  5
15
330
5
100
AcDbSymbolTableRecord
100
AcDbLinetypeTableRecord
  2
BYLAYER
 70
     0
  3

 72
    65
 73
     0
 40
0.0
  0
LTYPE
  5
16
330
5
100
AcDbSymbolTableRecord
100
AcDbLinetypeTableRecord
  2
CONTINUOUS
 70
     0
  3
Solid line
 72
    65
 73
     0
 40
0.0
  0
ENDTAB
  0
TABLE
  2
LAYER
  5
2
330
0
100
AcDbSymbolTable
 70
     2
  0
LAYER
  5
10
330
2
100
AcDbSymbolTableRecord
100
AcDbLayerTableRecord
  2
0
 70
     0
 62
     7
  6
CONTINUOUS
  0
LAYER
  5
6A
330
2
100
AcDbSymbolTableRecord
100
AcDbLayerTableRecord
  2
ROUNDED$BENDING_PATTERN
 70
     0
 62
    18
  6
CONTINUOUS
  0
ENDTAB
  0
TABLE
  2
STYLE
  5
3
330
0
100
AcDbSymbolTable
 70
     1
  0
STYLE
  5
11
330
3
100
AcDbSymbolTableRecord
100
AcDbTextStyleTableRecord
  2
STANDARD
 70
     0
 40
0.0
 41
1.0
 50
0.0
 71
     0
 42
0.2
  3
txt
  4

  0
ENDTAB
  0
TABLE
  2
VIEW
  5
6
330
0
100
AcDbSymbolTable
 70
     0
  0
ENDTAB
  0
TABLE
  2
UCS
  5
7
330
0
100
AcDbSymbolTable
 70
     0
  0
ENDTAB
  0
TABLE
  2
APPID
  5
9
330
0
100
AcDbSymbolTable
 70
     1
  0
APPID
  5
12
330
9
100
AcDbSymbolTableRecord
100
AcDbRegAppTableRecord
  2
ACAD
 70
     0
  0
ENDTAB
  0
TABLE
  2
DIMSTYLE
  5
A
330
0
100
AcDbSymbolTable
 70
     1
  0
DIMSTYLE
105
27
330
A
100
AcDbSymbolTableRecord
100
AcDbDimStyleTableRecord
  2
STANDARD
 70
     0
  3

  4

  5

  6

  7

 40
1.0
 41
0.18
 42
0.0625
 43
0.38
 44
0.18
 45
0.0
 46
0.0
 47
0.0
 48
0.0
140
0.18
141
0.09
142
0.0
143
25.4
144
1.0
145
0.0
146
1.0
147
0.09
 71
     0
 72
     0
 73
     1
 74
     1
 75
     0
 76
     0
 77
     0
 78
     0
170
     0
171
     2
172
     0
173
     0
174
     0
175
     0
176
     0
177
     0
178
     0
270
     2
271
     4
272
     4
273
     2
274
     2
340
11
275
     0
280
     0
281
     0
282
     0
283
     1
284
     0
285
     0
286
     0
287
     3
288
     0
  0
ENDTAB
  0
TABLE
  2
BLOCK_RECORD
  5
1
330
0
100
AcDbSymbolTable
 70
     1
  0
BLOCK_RECORD
  5
1F
330
1
100
AcDbSymbolTableRecord
100
AcDbBlockTableRecord
  2
*MODEL_SPACE
  0
BLOCK_RECORD
  5
1B
330
1
100
AcDbSymbolTableRecord
100
AcDbBlockTableRecord
  2
*PAPER_SPACE
  0
ENDTAB
  0
ENDSEC
  0
SECTION
  2
BLOCKS
  0
BLOCK
  5
20
330
1F
100
AcDbEntity
  8
0
100
AcDbBlockBegin
  2
*MODEL_SPACE
 70
     0
 10
0.0
 20
0.0
 30
0.0
  3
*MODEL_SPACE
  1

  0
ENDBLK
  5
21
330
1F
100
AcDbEntity
  8
0
100
AcDbBlockEnd
  0
BLOCK
  5
1C
330
1B
100
AcDbEntity
 67
     1
  8
0
100
AcDbBlockBegin
  2
*PAPER_SPACE
 70
     0
 10
0.0
 20
0.0
 30
0.0
  3
*PAPER_SPACE
  1

  0
ENDBLK
  5
1D
330
1B
100
AcDbEntity
 67
     1
  8
0
100
AcDbBlockEnd
  0
ENDSEC
  0
SECTION
  2
ENTITIES
  0
ARC
  5
6B
330
1F
100
AcDbEntity
  8
ROUNDED$BENDING_PATTERN
100
AcDbCircle
 10
-225.8339227492414
 20
-657.3829962066258
 30
0.0
 40
69.85938257194483
100
AcDbArc
 50
331.6403733979162
 51
88.35962660208342
  0
LINE
  5
6C
330
1F
100
AcDbEntity
  8
ROUNDED$BENDING_PATTERN
100
AcDbLine
 10
-164.3588185949381
 20
-690.5664996767376
 30
0.0
 11
-167.0659735568101
 21
-691.3126874925979
 31
0.0
  0
LINE
  5
6D
330
1F
100
AcDbEntity
  8
ROUNDED$BENDING_PATTERN
100
AcDbLine
 10
-167.0659735568101
 20
-691.3126874925979
 30
0.0
 11
-173.9941767870855
 21
-687.3126874925979
 31
0.0
  0
LINE
  5
6E
330
1F
100
AcDbEntity
  8
ROUNDED$BENDING_PATTERN
100
AcDbLine
 10
-173.9941767870855
 20
-687.3126874925979
 30
0.0
 11
-176.5922529984389
 21
-685.8126874925979
 31
0.0
  0
LINE
  5
6F
330
1F
100
AcDbEntity
  8
ROUNDED$BENDING_PATTERN
100
AcDbLine
 10
-176.5922529984389
 20
-685.8126874925979
 30
0.0
 11
-178.0922529984389
 21
-688.4107637039511
 31
0.0
  0
LINE
  5
70
330
1F
100
AcDbEntity
  8
ROUNDED$BENDING_PATTERN
100
AcDbLine
 10
-178.0922529984389
 20
-688.4107637039511
 30
0.0
 11
-175.4941767870855
 21
-689.9107637039513
 31
0.0
  0
LINE
  5
71
330
1F
100
AcDbEntity
  8
ROUNDED$BENDING_PATTERN
100
AcDbLine
 10
-175.4941767870855
 20
-689.9107637039513
 30
0.0
 11
-182.9941767870855
 21
-702.9011447607176
 31
0.0
  0
POLYLINE
  5
72
330
1F
100
AcDbEntity
  8
ROUNDED$BENDING_PATTERN
100
AcDb2dPolyline
 66
     1
 10
0.0
 20
0.0
 30
0.0
  0
VERTEX
  5
73
330
72
100
AcDbEntity
  8
ROUNDED$BENDING_PATTERN
100
AcDbVertex
100
AcDb2dVertex
 10
-182.9941767870855
 20
-702.9011447607176
 30
0.0
  0
VERTEX
  5
74
330
72
100
AcDbEntity
  8
ROUNDED$BENDING_PATTERN
100
AcDbVertex
100
AcDb2dVertex
 10
-195.1185324400678
 20
-695.9011447607179
 30
0.0
  0
VERTEX
  5
75
330
72
100
AcDbEntity
  8
ROUNDED$BENDING_PATTERN
100
AcDbVertex
100
AcDb2dVertex
 10
-193.8685324400676
 20
-693.7360812512563
 30
0.0
  0
VERTEX
  5
76
330
72
100
AcDbEntity
  8
ROUNDED$BENDING_PATTERN
100
AcDbVertex
100
AcDb2dVertex
 10
-196.4666086514218
 20
-692.2360812512559
 30
0.0
  0
VERTEX
  5
77
330
72
100
AcDbEntity
  8
ROUNDED$BENDING_PATTERN
100
AcDbVertex
100
AcDb2dVertex
 10
-197.716608651422
 20
-694.4011447607174
 30
0.0
  0
VERTEX
  5
78
330
72
100
AcDbEntity
  8
ROUNDED$BENDING_PATTERN
100
AcDbVertex
100
AcDb2dVertex
 10
-201.6137229684509
 20
-692.1511447607174
 30
0.0
  0
VERTEX
  5
79
330
72
100
AcDbEntity
  8
ROUNDED$BENDING_PATTERN
100
AcDbVertex
100
AcDb2dVertex
 10
-203.6137229684512
 20
-695.6152463758556
 30
0.0
  0
VERTEX
  5
7A
330
72
100
AcDbEntity
  8
ROUNDED$BENDING_PATTERN
100
AcDbVertex
100
AcDb2dVertex
 10
-199.716608651422
 20
-697.8652463758551
 30
0.0
  0
VERTEX
  5
7B
330
72
100
AcDbEntity
  8
ROUNDED$BENDING_PATTERN
100
AcDbVertex
100
AcDb2dVertex
 10
-200.9666086514219
 20
-700.0303098853158
 30
0.0
  0
VERTEX
  5
7C
330
72
100
AcDbEntity
  8
ROUNDED$BENDING_PATTERN
100
AcDbVertex
100
AcDb2dVertex
 10
-198.3685324400677
 20
-701.5303098853162
 30
0.0
  0
VERTEX
  5
7D
330
72
100
AcDbEntity
  8
ROUNDED$BENDING_PATTERN
100
AcDbVertex
100
AcDb2dVertex
 10
-197.1185324400679
 20
-699.3652463758556
 30
0.0
  0
VERTEX
  5
7E
330
72
100
AcDbEntity
  8
ROUNDED$BENDING_PATTERN
100
AcDbVertex
100
AcDb2dVertex
 10
-184.9941767870858
 20
-706.3652463758557
 30
0.0
  0
SEQEND
  5
7F
330
72
100
AcDbEntity
  8
ROUNDED$BENDING_PATTERN
  0
LINE
  5
80
330
1F
100
AcDbEntity
  8
ROUNDED$BENDING_PATTERN
100
AcDbLine
 10
-184.9941767870858
 20
-706.3652463758557
 30
0.0
 11
-192.4941767870857
 21
-719.355627432622
 31
0.0
  0
LINE
  5
81
330
1F
100
AcDbEntity
  8
ROUNDED$BENDING_PATTERN
100
AcDbLine
 10
-192.4941767870857
 20
-719.355627432622
 30
0.0
 11
-195.0922529984391
 21
-717.855627432622
 31
0.0
  0
LINE
  5
82
330
1F
100
AcDbEntity
  8
ROUNDED$BENDING_PATTERN
100
AcDbLine
 10
-195.0922529984391
 20
-717.855627432622
 30
0.0
 11
-196.5922529984391
 21
-720.4537036439752
 31
0.0
  0
LINE
  5
83
330
1F
100
AcDbEntity
  8
ROUNDED$BENDING_PATTERN
100
AcDbLine
 10
-196.5922529984391
 20
-720.4537036439752
 30
0.0
 11
-193.9941767870858
 21
-721.9537036439754
 31
0.0
  0
LINE
  5
84
330
1F
100
AcDbEntity
  8
ROUNDED$BENDING_PATTERN
100
AcDbLine
 10
-193.9941767870858
 20
-721.9537036439754
 30
0.0
 11
-187.0659735568103
 21
-725.9537036439754
 31
0.0
  0
LINE
  5
85
330
1F
100
AcDbEntity
  8
ROUNDED$BENDING_PATTERN
100
AcDbLine
 10
-187.0659735568104
 20
-725.9537036439754
 30
0.0
 11
-186.3586136804041
 21
-728.6712625208681
 31
0.0
  0
ARC
  5
86
330
1F
100
AcDbEntity
  8
ROUNDED$BENDING_PATTERN
100
AcDbCircle
 10
-245.8339227492414
 20
-692.0240123580031
 30
0.0
 40
69.85938257194466
100
AcDbArc
 50
211.6403733979156
 51
328.3596266020839
  0
LINE
  5
87
330
1F
100
AcDbEntity
  8
ROUNDED$BENDING_PATTERN
100
AcDbLine
 10
-305.3092318180791
 20
-728.6712625208675
 30
0.0
 11
-304.6018719416725
 21
-725.9537036439754
 31
0.0
  0
LINE
  5
88
330
1F
100
AcDbEntity
  8
ROUNDED$BENDING_PATTERN
100
AcDbLine
 10
-304.6018719416724
 20
-725.9537036439754
 30
0.0
 11
-297.673668711397
 21
-721.9537036439755
 31
0.0
  0
LINE
  5
89
330
1F
100
AcDbEntity
  8
ROUNDED$BENDING_PATTERN
100
AcDbLine
 10
-297.673668711397
 20
-721.9537036439755
 30
0.0
 11
-295.0755925000436
 21
-720.4537036439755
 31
0.0
  0
LINE
  5
8A
330
1F
100
AcDbEntity
  8
ROUNDED$BENDING_PATTERN
100
AcDbLine
 10
-295.0755925000436
 20
-720.4537036439755
 30
0.0
 11
-296.5755925000436
 21
-717.8556274326222
 31
0.0
  0
LINE
  5
8B
330
1F
100
AcDbEntity
  8
ROUNDED$BENDING_PATTERN
100
AcDbLine
 10
-296.5755925000436
 20
-717.8556274326222
 30
0.0
 11
-299.173668711397
 21
-719.3556274326222
 31
0.0
  0
LINE
  5
8C
330
1F
100
AcDbEntity
  8
ROUNDED$BENDING_PATTERN
100
AcDbLine
 10
-299.173668711397
 20
-719.3556274326222
 30
0.0
 11
-306.6736687113969
 21
-706.3652463758558
 31
0.0
  0
POLYLINE
  5
8D
330
1F
100
AcDbEntity
  8
ROUNDED$BENDING_PATTERN
100
AcDb2dPolyline
 66
     1
 10
0.0
 20
0.0
 30
0.0
  0
VERTEX
  5
8E
330
8D
100
AcDbEntity
  8
ROUNDED$BENDING_PATTERN
100
AcDbVertex
100
AcDb2dVertex
 10
-306.6736687113969
 20
-706.3652463758558
 30
0.0
  0
VERTEX
  5
8F
330
8D
100
AcDbEntity
  8
ROUNDED$BENDING_PATTERN
100
AcDbVertex
100
AcDb2dVertex
 10
-294.549313058415
 20
-699.3652463758553
 30
0.0
  0
VERTEX
  5
90
330
8D
100
AcDbEntity
  8
ROUNDED$BENDING_PATTERN
100
AcDbVertex
100
AcDb2dVertex
 10
-293.2993130584148
 20
-701.5303098853169
 30
0.0
  0
VERTEX
  5
91
330
8D
100
AcDbEntity
  8
ROUNDED$BENDING_PATTERN
100
AcDbVertex
100
AcDb2dVertex
 10
-290.7012368470607
 20
-700.0303098853165
 30
0.0
  0
VERTEX
  5
92
330
8D
100
AcDbEntity
  8
ROUNDED$BENDING_PATTERN
100
AcDbVertex
100
AcDb2dVertex
 10
-291.951236847061
 20
-697.8652463758549
 30
0.0
  0
VERTEX
  5
93
330
8D
100
AcDbEntity
  8
ROUNDED$BENDING_PATTERN
100
AcDbVertex
100
AcDb2dVertex
 10
-288.0541225300315
 20
-695.6152463758558
 30
0.0
  0
VERTEX
  5
94
330
8D
100
AcDbEntity
  8
ROUNDED$BENDING_PATTERN
100
AcDbVertex
100
AcDb2dVertex
 10
-290.0541225300317
 20
-692.1511447607177
 30
0.0
  0
VERTEX
  5
95
330
8D
100
AcDbEntity
  8
ROUNDED$BENDING_PATTERN
100
AcDbVertex
100
AcDb2dVertex
 10
-293.951236847061
 20
-694.4011447607172
 30
0.0
  0
VERTEX
  5
96
330
8D
100
AcDbEntity
  8
ROUNDED$BENDING_PATTERN
100
AcDbVertex
100
AcDb2dVertex
 10
-295.2012368470607
 20
-692.2360812512565
 30
0.0
  0
VERTEX
  5
97
330
8D
100
AcDbEntity
  8
ROUNDED$BENDING_PATTERN
100
AcDbVertex
100
AcDb2dVertex
 10
-297.7993130584148
 20
-693.7360812512569
 30
0.0
  0
VERTEX
  5
98
330
8D
100
AcDbEntity
  8
ROUNDED$BENDING_PATTERN
100
AcDbVertex
100
AcDb2dVertex
 10
-296.549313058415
 20
-695.9011447607177
 30
0.0
  0
VERTEX
  5
99
330
8D
100
AcDbEntity
  8
ROUNDED$BENDING_PATTERN
100
AcDbVertex
100
AcDb2dVertex
 10
-308.6736687113971
 20
-702.9011447607177
 30
0.0
  0
SEQEND
  5
9A
330
8D
100
AcDbEntity
  8
ROUNDED$BENDING_PATTERN
  0
LINE
  5
9B
330
1F
100
AcDbEntity
  8
ROUNDED$BENDING_PATTERN
100
AcDbLine
 10
-308.6736687113971
 20
-702.9011447607177
 30
0.0
 11
-316.1736687113971
 21
-689.9107637039513
 31
0.0
  0
LINE
  5
9C
330
1F
100
AcDbEntity
  8
ROUNDED$BENDING_PATTERN
100
AcDbLine
 10
-316.1736687113971
 20
-689.9107637039513
 30
0.0
 11
-313.5755925000437
 21
-688.4107637039513
 31
0.0
  0
LINE
  5
9D
330
1F
100
AcDbEntity
  8
ROUNDED$BENDING_PATTERN
100
AcDbLine
 10
-313.5755925000437
 20
-688.4107637039513
 30
0.0
 11
-315.0755925000437
 21
-685.8126874925979
 31
0.0
  0
LINE
  5
9E
330
1F
100
AcDbEntity
  8
ROUNDED$BENDING_PATTERN
100
AcDbLine
 10
-315.0755925000437
 20
-685.8126874925979
 30
0.0
 11
-317.6736687113971
 21
-687.3126874925979
 31
0.0
  0
LINE
  5
9F
330
1F
100
AcDbEntity
  8
ROUNDED$BENDING_PATTERN
100
AcDbLine
 10
-317.6736687113971
 20
-687.3126874925979
 30
0.0
 11
-324.6018719416725
 21
-691.3126874925979
 31
0.0
  0
LINE
  5
A0
330
1F
100
AcDbEntity
  8
ROUNDED$BENDING_PATTERN
100
AcDbLine
 10
-324.6018719416724
 20
-691.3126874925979
 30
0.0
 11
-327.3090269035445
 21
-690.5664996767372
 31
0.0
  0
ARC
  5
A1
330
1F
100
AcDbEntity
  8
ROUNDED$BENDING_PATTERN
100
AcDbCircle
 10
-265.8339227492413
 20
-657.3829962066256
 30
0.0
 40
69.85938257194476
100
AcDbArc
 50
91.64037339791668
 51
208.3596266020834
  0
LINE
  5
A2
330
1F
100
AcDbEntity
  8
ROUNDED$BENDING_PATTERN
100
AcDbLine
 10
-267.8337178347074
 20
-587.5522425736492
 30
0.0
 11
-265.8339227492414
 21
-589.5236136346809
 31
0.0
  0
LINE
  5
A3
330
1F
100
AcDbEntity
  8
ROUNDED$BENDING_PATTERN
100
AcDbLine
 10
-265.8339227492414
 20
-589.5236136346809
 30
0.0
 11
-265.8339227492414
 21
-597.5236136346809
 31
0.0
  0
LINE
  5
A4
330
1F
100
AcDbEntity
  8
ROUNDED$BENDING_PATTERN
100
AcDbLine
 10
-265.8339227492414
 20
-597.5236136346809
 30
0.0
 11
-265.8339227492414
 21
-600.5236136346809
 31
0.0
  0
LINE
  5
A5
330
1F
100
AcDbEntity
  8
ROUNDED$BENDING_PATTERN
100
AcDbLine
 10
-265.8339227492414
 20
-600.5236136346809
 30
0.0
 11
-262.8339227492414
 21
-600.5236136346809
 31
0.0
  0
LINE
  5
A6
330
1F
100
AcDbEntity
  8
ROUNDED$BENDING_PATTERN
100
AcDbLine
 10
-262.8339227492414
 20
-600.5236136346809
 30
0.0
 11
-262.8339227492414
 21
-597.5236136346809
 31
0.0
  0
LINE
  5
A7
330
1F
100
AcDbEntity
  8
ROUNDED$BENDING_PATTERN
100
AcDbLine
 10
-262.8339227492414
 20
-597.5236136346809
 30
0.0
 11
-247.8339227492416
 21
-597.5236136346809
 31
0.0
  0
POLYLINE
  5
A8
330
1F
100
AcDbEntity
  8
ROUNDED$BENDING_PATTERN
100
AcDb2dPolyline
 66
     1
 10
0.0
 20
0.0
 30
0.0
  0
VERTEX
  5
A9
330
A8
100
AcDbEntity
  8
ROUNDED$BENDING_PATTERN
100
AcDbVertex
100
AcDb2dVertex
 10
-247.8339227492416
 20
-597.5236136346809
 30
0.0
  0
VERTEX
  5
AA
330
A8
100
AcDbEntity
  8
ROUNDED$BENDING_PATTERN
100
AcDbVertex
100
AcDb2dVertex
 10
-247.8339227492412
 20
-611.5236136346809
 30
0.0
  0
VERTEX
  5
AB
330
A8
100
AcDbEntity
  8
ROUNDED$BENDING_PATTERN
100
AcDbVertex
100
AcDb2dVertex
 10
-250.3339227492416
 20
-611.5236136346809
 30
0.0
  0
VERTEX
  5
AC
330
A8
100
AcDbEntity
  8
ROUNDED$BENDING_PATTERN
100
AcDbVertex
100
AcDb2dVertex
 10
-250.3339227492416
 20
-614.5236136346819
 30
0.0
  0
VERTEX
  5
AD
330
A8
100
AcDbEntity
  8
ROUNDED$BENDING_PATTERN
100
AcDbVertex
100
AcDb2dVertex
 10
-247.8339227492412
 20
-614.5236136346819
 30
0.0
  0
VERTEX
  5
AE
330
A8
100
AcDbEntity
  8
ROUNDED$BENDING_PATTERN
100
AcDbVertex
100
AcDb2dVertex
 10
-247.8339227492416
 20
-619.0236136346809
 30
0.0
  0
VERTEX
  5
AF
330
A8
100
AcDbEntity
  8
ROUNDED$BENDING_PATTERN
100
AcDbVertex
100
AcDb2dVertex
 10
-243.8339227492412
 20
-619.0236136346809
 30
0.0
  0
VERTEX
  5
B0
330
A8
100
AcDbEntity
  8
ROUNDED$BENDING_PATTERN
100
AcDbVertex
100
AcDb2dVertex
 10
-243.8339227492412
 20
-614.5236136346819
 30
0.0
  0
VERTEX
  5
B1
330
A8
100
AcDbEntity
  8
ROUNDED$BENDING_PATTERN
100
AcDbVertex
100
AcDb2dVertex
 10
-241.3339227492416
 20
-614.5236136346819
 30
0.0
  0
VERTEX
  5
B2
330
A8
100
AcDbEntity
  8
ROUNDED$BENDING_PATTERN
100
AcDbVertex
100
AcDb2dVertex
 10
-241.3339227492416
 20
-611.5236136346809
 30
0.0
  0
VERTEX
  5
B3
330
A8
100
AcDbEntity
  8
ROUNDED$BENDING_PATTERN
100
AcDbVertex
100
AcDb2dVertex
 10
-243.8339227492412
 20
-611.5236136346809
 30
0.0
  0
VERTEX
  5
B4
330
A8
100
AcDbEntity
  8
ROUNDED$BENDING_PATTERN
100
AcDbVertex
100
AcDb2dVertex
 10
-243.8339227492412
 20
-597.5236136346809
 30
0.0
  0
SEQEND
  5
B5
330
A8
100
AcDbEntity
  8
ROUNDED$BENDING_PATTERN
  0
LINE
  5
B6
330
1F
100
AcDbEntity
  8
ROUNDED$BENDING_PATTERN
100
AcDbLine
 10
-243.8339227492412
 20
-597.5236136346809
 30
0.0
 11
-228.8339227492414
 21
-597.5236136346809
 31
0.0
  0
LINE
  5
B7
330
1F
100
AcDbEntity
  8
ROUNDED$BENDING_PATTERN
100
AcDbLine
 10
-228.8339227492414
 20
-597.5236136346809
 30
0.0
 11
-228.8339227492414
 21
-600.5236136346809
 31
0.0
  0
LINE
  5
B8
330
1F
100
AcDbEntity
  8
ROUNDED$BENDING_PATTERN
100
AcDbLine
 10
-228.8339227492414
 20
-600.5236136346809
 30
0.0
 11
-225.8339227492414
 21
-600.5236136346809
 31
0.0
  0
LINE
  5
B9
330
1F
100
AcDbEntity
  8
ROUNDED$BENDING_PATTERN
100
AcDbLine
 10
-225.8339227492414
 20
-600.5236136346809
 30
0.0
 11
-225.8339227492414
 21
-597.5236136346809
 31
0.0
  0
LINE
  5
BA
330
1F
100
AcDbEntity
  8
ROUNDED$BENDING_PATTERN
100
AcDbLine
 10
-225.8339227492414
 20
-597.5236136346809
 30
0.0
 11
-225.8339227492414
 21
-589.5236136346808
 31
0.0
  0
LINE
  5
BB
330
1F
100
AcDbEntity
  8
ROUNDED$BENDING_PATTERN
100
AcDbLine
 10
-225.8339227492414
 20
-589.5236136346808
 30
0.0
 11
-223.8341276637755
 21
-587.552242573649
 31
0.0
  0
ARC
  5
BC
330
1F
100
AcDbEntity
  8
ROUNDED$BENDING_PATTERN
100
AcDbCircle
 10
-411.0245038526183
 20
-657.3829962066258
 30
0.0
 40
69.85938257194483
100
AcDbArc
 50
331.6403733979162
 51
88.35962660208341
  0
LINE
  5
BD
330
1F
100
AcDbEntity
  8
ROUNDED$BENDING_PATTERN
100
AcDbLine
 10
-349.549399698315
 20
-690.5664996767376
 30
0.0
 11
-352.256554660187
 21
-691.3126874925979
 31
0.0
  0
LINE
  5
BE
330
1F
100
AcDbEntity
  8
ROUNDED$BENDING_PATTERN
100
AcDbLine
 10
-352.256554660187
 20
-691.3126874925979
 30
0.0
 11
-359.1847578904624
 21
-687.3126874925979
 31
0.0
  0
LINE
  5
BF
330
1F
100
AcDbEntity
  8
ROUNDED$BENDING_PATTERN
100
AcDbLine
 10
-359.1847578904624
 20
-687.3126874925979
 30
0.0
 11
-361.7828341018158
 21
-685.8126874925979
 31
0.0
  0
LINE
  5
C0
330
1F
100
AcDbEntity
  8
ROUNDED$BENDING_PATTERN
100
AcDbLine
 10
-361.7828341018158
 20
-685.8126874925979
 30
0.0
 11
-363.2828341018158
 21
-688.4107637039511
 31
0.0
  0
LINE
  5
C1
330
1F
100
AcDbEntity
  8
ROUNDED$BENDING_PATTERN
100
AcDbLine
 10
-363.2828341018158
 20
-688.4107637039511
 30
0.0
 11
-360.6847578904624
 21
-689.9107637039513
 31
0.0
  0
LINE
  5
C2
330
1F
100
AcDbEntity
  8
ROUNDED$BENDING_PATTERN
100
AcDbLine
 10
-360.6847578904624
 20
-689.9107637039513
 30
0.0
 11
-368.1847578904624
 21
-702.9011447607176
 31
0.0
  0
POLYLINE
  5
C3
330
1F
100
AcDbEntity
  8
ROUNDED$BENDING_PATTERN
100
AcDb2dPolyline
 66
     1
 10
0.0
 20
0.0
 30
0.0
  0
VERTEX
  5
C4
330
C3
100
AcDbEntity
  8
ROUNDED$BENDING_PATTERN
100
AcDbVertex
100
AcDb2dVertex
 10
-368.1847578904624
 20
-702.9011447607176
 30
0.0
  0
VERTEX
  5
C5
330
C3
100
AcDbEntity
  8
ROUNDED$BENDING_PATTERN
100
AcDbVertex
100
AcDb2dVertex
 10
-380.3091135434447
 20
-695.9011447607179
 30
0.0
  0
VERTEX
  5
C6
330
C3
100
AcDbEntity
  8
ROUNDED$BENDING_PATTERN
100
AcDbVertex
100
AcDb2dVertex
 10
-379.0591135434445
 20
-693.7360812512563
 30
0.0
  0
VERTEX
  5
C7
330
C3
100
AcDbEntity
  8
ROUNDED$BENDING_PATTERN
100
AcDbVertex
100
AcDb2dVertex
 10
-381.6571897547987
 20
-692.2360812512559
 30
0.0
  0
VERTEX
  5
C8
330
C3
100
AcDbEntity
  8
ROUNDED$BENDING_PATTERN
100
AcDbVertex
100
AcDb2dVertex
 10
-382.9071897547989
 20
-694.4011447607174
 30
0.0
  0
VERTEX
  5
C9
330
C3
100
AcDbEntity
  8
ROUNDED$BENDING_PATTERN
100
AcDbVertex
100
AcDb2dVertex
 10
-386.8043040718278
 20
-692.1511447607174
 30
0.0
  0
VERTEX
  5
CA
330
C3
100
AcDbEntity
  8
ROUNDED$BENDING_PATTERN
100
AcDbVertex
100
AcDb2dVertex
 10
-388.8043040718281
 20
-695.6152463758556
 30
0.0
  0
VERTEX
  5
CB
330
C3
100
AcDbEntity
  8
ROUNDED$BENDING_PATTERN
100
AcDbVertex
100
AcDb2dVertex
 10
-384.9071897547989
 20
-697.8652463758551
 30
0.0
  0
VERTEX
  5
CC
330
C3
100
AcDbEntity
  8
ROUNDED$BENDING_PATTERN
100
AcDbVertex
100
AcDb2dVertex
 10
-386.1571897547988
 20
-700.0303098853158
 30
0.0
  0
VERTEX
  5
CD
330
C3
100
AcDbEntity
  8
ROUNDED$BENDING_PATTERN
100
AcDbVertex
100
AcDb2dVertex
 10
-383.5591135434446
 20
-701.5303098853162
 30
0.0
  0
VERTEX
  5
CE
330
C3
100
AcDbEntity
  8
ROUNDED$BENDING_PATTERN
100
AcDbVertex
100
AcDb2dVertex
 10
-382.3091135434448
 20
-699.3652463758556
 30
0.0
  0
VERTEX
  5
CF
330
C3
100
AcDbEntity
  8
ROUNDED$BENDING_PATTERN
100
AcDbVertex
100
AcDb2dVertex
 10
-370.1847578904627
 20
-706.3652463758557
 30
0.0
  0
SEQEND
  5
D0
330
C3
100
AcDbEntity
  8
ROUNDED$BENDING_PATTERN
  0
LINE
  5
D1
330
1F
100
AcDbEntity
  8
ROUNDED$BENDING_PATTERN
100
AcDbLine
 10
-370.1847578904627
 20
-706.3652463758557
 30
0.0
 11
-377.6847578904626
 21
-719.355627432622
 31
0.0
  0
LINE
  5
D2
330
1F
100
AcDbEntity
  8
ROUNDED$BENDING_PATTERN
100
AcDbLine
 10
-377.6847578904626
 20
-719.355627432622
 30
0.0
 11
-380.282834101816
 21
-717.855627432622
 31
0.0
  0
LINE
  5
D3
330
1F
100
AcDbEntity
  8
ROUNDED$BENDING_PATTERN
100
AcDbLine
 10
-380.282834101816
 20
-717.855627432622
 30
0.0
 11
-381.782834101816
 21
-720.4537036439752
 31
0.0
  0
LINE
  5
D4
330
1F
100
AcDbEntity
  8
ROUNDED$BENDING_PATTERN
100
AcDbLine
 10
-381.782834101816
 20
-720.4537036439752
 30
0.0
 11
-379.1847578904627
 21
-721.9537036439754
 31
0.0
  0
LINE
  5
D5
330
1F
100
AcDbEntity
  8
ROUNDED$BENDING_PATTERN
100
AcDbLine
 10
-379.1847578904627
 20
-721.9537036439754
 30
0.0
 11
-372.2565546601872
 21
-725.9537036439754
 31
0.0
  0
LINE
  5
D6
330
1F
100
AcDbEntity
  8
ROUNDED$BENDING_PATTERN
100
AcDbLine
 10
-372.2565546601873
 20
-725.9537036439754
 30
0.0
 11
-371.549194783781
 21
-728.6712625208681
 31
0.0
  0
ARC
  5
D7
330
1F
100
AcDbEntity
  8
ROUNDED$BENDING_PATTERN
100
AcDbCircle
 10
-431.0245038526183
 20
-692.0240123580031
 30
0.0
 40
69.85938257194466
100
AcDbArc
 50
211.6403733979156
 51
328.3596266020839
  0
LINE
  5
D8
330
1F
100
AcDbEntity
  8
ROUNDED$BENDING_PATTERN
100
AcDbLine
 10
-490.4998129214559
 20
-728.6712625208675
 30
0.0
 11
-489.7924530450493
 21
-725.9537036439754
 31
0.0
  0
LINE
  5
D9
330
1F
100
AcDbEntity
  8
ROUNDED$BENDING_PATTERN
100
AcDbLine
 10
-489.7924530450492
 20
-725.9537036439754
 30
0.0
 11
-482.8642498147739
 21
-721.9537036439755
 31
0.0
  0
LINE
  5
DA
330
1F
100
AcDbEntity
  8
ROUNDED$BENDING_PATTERN
100
AcDbLine
 10
-482.8642498147739
 20
-721.9537036439755
 30
0.0
 11
-480.2661736034205
 21
-720.4537036439755
 31
0.0
  0
LINE
  5
DB
330
1F
100
AcDbEntity
  8
ROUNDED$BENDING_PATTERN
100
AcDbLine
 10
-480.2661736034205
 20
-720.4537036439755
 30
0.0
 11
-481.7661736034205
 21
-717.8556274326222
 31
0.0
  0
LINE
  5
DC
330
1F
100
AcDbEntity
  8
ROUNDED$BENDING_PATTERN
100
AcDbLine
 10
-481.7661736034205
 20
-717.8556274326222
 30
0.0
 11
-484.3642498147739
 21
-719.3556274326222
 31
0.0
  0
LINE
  5
DD
330
1F
100
AcDbEntity
  8
ROUNDED$BENDING_PATTERN
100
AcDbLine
 10
-484.3642498147739
 20
-719.3556274326222
 30
0.0
 11
-491.8642498147738
 21
-706.3652463758558
 31
0.0
  0
POLYLINE
  5
DE
330
1F
100
AcDbEntity
  8
ROUNDED$BENDING_PATTERN
100
AcDb2dPolyline
 66
     1
 10
0.0
 20
0.0
 30
0.0
  0
VERTEX
  5
DF
330
DE
100
AcDbEntity
  8
ROUNDED$BENDING_PATTERN
100
AcDbVertex
100
AcDb2dVertex
 10
-491.8642498147738
 20
-706.3652463758558
 30
0.0
  0
VERTEX
  5
E0
330
DE
100
AcDbEntity
  8
ROUNDED$BENDING_PATTERN
100
AcDbVertex
100
AcDb2dVertex
 10
-479.7398941617919
 20
-699.3652463758553
 30
0.0
  0
VERTEX
  5
E1
330
DE
100
AcDbEntity
  8
ROUNDED$BENDING_PATTERN
100
AcDbVertex
100
AcDb2dVertex
 10
-478.4898941617917
 20
-701.5303098853169
 30
0.0
  0
VERTEX
  5
E2
330
DE
100
AcDbEntity
  8
ROUNDED$BENDING_PATTERN
100
AcDbVertex
100
AcDb2dVertex
 10
-475.8918179504376
 20
-700.0303098853165
 30
0.0
  0
VERTEX
  5
E3
330
DE
100
AcDbEntity
  8
ROUNDED$BENDING_PATTERN
100
AcDbVertex
100
AcDb2dVertex
 10
-477.1418179504378
 20
-697.8652463758549
 30
0.0
  0
VERTEX
  5
E4
330
DE
100
AcDbEntity
  8
ROUNDED$BENDING_PATTERN
100
AcDbVertex
100
AcDb2dVertex
 10
-473.2447036334083
 20
-695.6152463758558
 30
0.0
  0
VERTEX
  5
E5
330
DE
100
AcDbEntity
  8
ROUNDED$BENDING_PATTERN
100
AcDbVertex
100
AcDb2dVertex
 10
-475.2447036334086
 20
-692.1511447607177
 30
0.0
  0
VERTEX
  5
E6
330
DE
100
AcDbEntity
  8
ROUNDED$BENDING_PATTERN
100
AcDbVertex
100
AcDb2dVertex
 10
-479.1418179504378
 20
-694.4011447607172
 30
0.0
  0
VERTEX
  5
E7
330
DE
100
AcDbEntity
  8
ROUNDED$BENDING_PATTERN
100
AcDbVertex
100
AcDb2dVertex
 10
-480.3918179504376
 20
-692.2360812512565
 30
0.0
  0
VERTEX
  5
E8
330
DE
100
AcDbEntity
  8
ROUNDED$BENDING_PATTERN
100
AcDbVertex
100
AcDb2dVertex
 10
-482.9898941617917
 20
-693.7360812512569
 30
0.0
  0
VERTEX
  5
E9
330
DE
100
AcDbEntity
  8
ROUNDED$BENDING_PATTERN
100
AcDbVertex
100
AcDb2dVertex
 10
-481.7398941617919
 20
-695.9011447607177
 30
0.0
  0
VERTEX
  5
EA
330
DE
100
AcDbEntity
  8
ROUNDED$BENDING_PATTERN
100
AcDbVertex
100
AcDb2dVertex
 10
-493.864249814774
 20
-702.9011447607177
 30
0.0
  0
SEQEND
  5
EB
330
DE
100
AcDbEntity
  8
ROUNDED$BENDING_PATTERN
  0
LINE
  5
EC
330
1F
100
AcDbEntity
  8
ROUNDED$BENDING_PATTERN
100
AcDbLine
 10
-493.864249814774
 20
-702.9011447607177
 30
0.0
 11
-501.364249814774
 21
-689.9107637039513
 31
0.0
  0
LINE
  5
ED
330
1F
100
AcDbEntity
  8
ROUNDED$BENDING_PATTERN
100
AcDbLine
 10
-501.364249814774
 20
-689.9107637039513
 30
0.0
 11
-498.7661736034206
 21
-688.4107637039513
 31
0.0
  0
LINE
  5
EE
330
1F
100
AcDbEntity
  8
ROUNDED$BENDING_PATTERN
100
AcDbLine
 10
-498.7661736034206
 20
-688.4107637039513
 30
0.0
 11
-500.2661736034206
 21
-685.8126874925979
 31
0.0
  0
LINE
  5
EF
330
1F
100
AcDbEntity
  8
ROUNDED$BENDING_PATTERN
100
AcDbLine
 10
-500.2661736034206
 20
-685.8126874925979
 30
0.0
 11
-502.864249814774
 21
-687.3126874925979
 31
0.0
  0
LINE
  5
F0
330
1F
100
AcDbEntity
  8
ROUNDED$BENDING_PATTERN
100
AcDbLine
 10
-502.864249814774
 20
-687.3126874925979
 30
0.0
 11
-509.7924530450493
 21
-691.3126874925979
 31
0.0
  0
LINE
  5
F1
330
1F
100
AcDbEntity
  8
ROUNDED$BENDING_PATTERN
100
AcDbLine
 10
-509.7924530450493
 20
-691.3126874925979
 30
0.0
 11
-512.4996080069213
 21
-690.5664996767372
 31
0.0
  0
ARC
  5
F2
330
1F
100
AcDbEntity
  8
ROUNDED$BENDING_PATTERN
100
AcDbCircle
 10
-451.0245038526182
 20
-657.3829962066256
 30
0.0
 40
69.85938257194476
100
AcDbArc
 50
91.64037339791666
 51
208.3596266020834
  0
LINE
  5
F3
330
1F
100
AcDbEntity
  8
ROUNDED$BENDING_PATTERN
100
AcDbLine
 10
-453.0242989380843
 20
-587.5522425736492
 30
0.0
 11
-451.0245038526183
 21
-589.5236136346809
 31
0.0
  0
LINE
  5
F4
330
1F
100
AcDbEntity
  8
ROUNDED$BENDING_PATTERN
100
AcDbLine
 10
-451.0245038526183
 20
-589.5236136346809
 30
0.0
 11
-451.0245038526183
 21
-597.5236136346809
 31
0.0
  0
LINE
  5
F5
330
1F
100
AcDbEntity
  8
ROUNDED$BENDING_PATTERN
100
AcDbLine
 10
-451.0245038526183
 20
-597.5236136346809
 30
0.0
 11
-451.0245038526183
 21
-600.5236136346809
 31
0.0
  0
LINE
  5
F6
330
1F
100
AcDbEntity
  8
ROUNDED$BENDING_PATTERN
100
AcDbLine
 10
-451.0245038526183
 20
-600.5236136346809
 30
0.0
 11
-448.0245038526183
 21
-600.5236136346809
 31
0.0
  0
LINE
  5
F7
330
1F
100
AcDbEntity
  8
ROUNDED$BENDING_PATTERN
100
AcDbLine
 10
-448.0245038526183
 20
-600.5236136346809
 30
0.0
 11
-448.0245038526183
 21
-597.5236136346809
 31
0.0
  0
LINE
  5
F8
330
1F
100
AcDbEntity
  8
ROUNDED$BENDING_PATTERN
100
AcDbLine
 10
-448.0245038526183
 20
-597.5236136346809
 30
0.0
 11
-433.0245038526185
 21
-597.5236136346809
 31
0.0
  0
POLYLINE
  5
F9
330
1F
100
AcDbEntity
  8
ROUNDED$BENDING_PATTERN
100
AcDb2dPolyline
 66
     1
 10
0.0
 20
0.0
 30
0.0
  0
VERTEX
  5
FA
330
F9
100
AcDbEntity
  8
ROUNDED$BENDING_PATTERN
100
AcDbVertex
100
AcDb2dVertex
 10
-433.0245038526185
 20
-597.5236136346809
 30
0.0
  0
VERTEX
  5
FB
330
F9
100
AcDbEntity
  8
ROUNDED$BENDING_PATTERN
100
AcDbVertex
100
AcDb2dVertex
 10
-433.0245038526181
 20
-611.5236136346809
 30
0.0
  0
VERTEX
  5
FC
330
F9
100
AcDbEntity
  8
ROUNDED$BENDING_PATTERN
100
AcDbVertex
100
AcDb2dVertex
 10
-435.5245038526185
 20
-611.5236136346809
 30
0.0
  0
VERTEX
  5
FD
330
F9
100
AcDbEntity
  8
ROUNDED$BENDING_PATTERN
100
AcDbVertex
100
AcDb2dVertex
 10
-435.5245038526185
 20
-614.5236136346819
 30
0.0
  0
VERTEX
  5
FE
330
F9
100
AcDbEntity
  8
ROUNDED$BENDING_PATTERN
100
AcDbVertex
100
AcDb2dVertex
 10
-433.0245038526181
 20
-614.5236136346819
 30
0.0
  0
VERTEX
  5
FF
330
F9
100
AcDbEntity
  8
ROUNDED$BENDING_PATTERN
100
AcDbVertex
100
AcDb2dVertex
 10
-433.0245038526185
 20
-619.0236136346809
 30
0.0
  0
VERTEX
  5
100
330
F9
100
AcDbEntity
  8
ROUNDED$BENDING_PATTERN
100
AcDbVertex
100
AcDb2dVertex
 10
-429.0245038526181
 20
-619.0236136346809
 30
0.0
  0
VERTEX
  5
101
330
F9
100
AcDbEntity
  8
ROUNDED$BENDING_PATTERN
100
AcDbVertex
100
AcDb2dVertex
 10
-429.0245038526181
 20
-614.5236136346819
 30
0.0
  0
VERTEX
  5
102
330
F9
100
AcDbEntity
  8
ROUNDED$BENDING_PATTERN
100
AcDbVertex
100
AcDb2dVertex
 10
-426.5245038526185
 20
-614.5236136346819
 30
0.0
  0
VERTEX
  5
103
330
F9
100
AcDbEntity
  8
ROUNDED$BENDING_PATTERN
100
AcDbVertex
100
AcDb2dVertex
 10
-426.5245038526185
 20
-611.5236136346809
 30
0.0
  0
VERTEX
  5
104
330
F9
100
AcDbEntity
  8
ROUNDED$BENDING_PATTERN
100
AcDbVertex
100
AcDb2dVertex
 10
-429.0245038526181
 20
-611.5236136346809
 30
0.0
  0
VERTEX
  5
105
330
F9
100
AcDbEntity
  8
ROUNDED$BENDING_PATTERN
100
AcDbVertex
100
AcDb2dVertex
 10
-429.0245038526181
 20
-597.5236136346809
 30
0.0
  0
SEQEND
  5
106
330
F9
100
AcDbEntity
  8
ROUNDED$BENDING_PATTERN
  0
LINE
  5
107
330
1F
100
AcDbEntity
  8
ROUNDED$BENDING_PATTERN
100
AcDbLine
 10
-429.0245038526181
 20
-597.5236136346809
 30
0.0
 11
-414.0245038526183
 21
-597.5236136346809
 31
0.0
  0
LINE
  5
108
330
1F
100
AcDbEntity
  8
ROUNDED$BENDING_PATTERN
100
AcDbLine
 10
-414.0245038526183
 20
-597.5236136346809
 30
0.0
 11
-414.0245038526183
 21
-600.5236136346809
 31
0.0
  0
LINE
  5
109
330
1F
100
AcDbEntity
  8
ROUNDED$BENDING_PATTERN
100
AcDbLine
 10
-414.0245038526183
 20
-600.5236136346809
 30
0.0
 11
-411.0245038526183
 21
-600.5236136346809
 31
0.0
  0
LINE
  5
10A
330
1F
100
AcDbEntity
  8
ROUNDED$BENDING_PATTERN
100
AcDbLine
 10
-411.0245038526183
 20
-600.5236136346809
 30
0.0
 11
-411.0245038526183
 21
-597.5236136346809
 31
0.0
  0
LINE
  5
10B
330
1F
100
AcDbEntity
  8
ROUNDED$BENDING_PATTERN
100
AcDbLine
 10
-411.0245038526183
 20
-597.5236136346809
 30
0.0
 11
-411.0245038526183
 21
-589.5236136346808
 31
0.0
  0
LINE
  5
10C
330
1F
100
AcDbEntity
  8
ROUNDED$BENDING_PATTERN
100
AcDbLine
 10
-411.0245038526183
 20
-589.5236136346808
 30
0.0
 11
-409.0247087671524
 21
-587.552242573649
 31
0.0
  0
ENDSEC
  0
SECTION
  2
OBJECTS
  0
DICTIONARY
  5
C
330
0
100
AcDbDictionary
  3
ACAD_GROUP
350
D
  3
ACAD_LAYOUT
350
1A
  3
ACAD_MATERIAL
350
43
  3
ACAD_MLEADERSTYLE
350
12F
  3
ACAD_MLINESTYLE
350
17
  3
ACAD_PLOTSETTINGS
350
19
  3
ACAD_SCALELIST
350
47
  3
ACAD_VISUALSTYLE
350
2A
  3
ACDBHEADERROUNDTRIPXREC
350
10D
  3
ACDBVARIABLEDICTIONARY
350
12D
  0
DICTIONARY
  5
D
102
{ACAD_REACTORS
330
C
102
}
330
C
100
AcDbDictionary
  0
DICTIONARY
  5
1A
102
{ACAD_REACTORS
330
C
102
}
330
C
100
AcDbDictionary
  0
DICTIONARY
  5
43
102
{ACAD_REACTORS
330
C
102
}
330
C
100
AcDbDictionary
  3
BYBLOCK
350
45
  3
BYLAYER
350
44
  3
GLOBAL
350
46
  0
DICTIONARY
  5
12F
102
{ACAD_REACTORS
330
C
102
}
330
C
100
AcDbDictionary
  0
DICTIONARY
  5
17
102
{ACAD_REACTORS
330
C
102
}
330
C
100
AcDbDictionary
  3
STANDARD
350
18
  0
DICTIONARY
  5
19
102
{ACAD_REACTORS
330
C
102
}
330
C
100
AcDbDictionary
  0
DICTIONARY
  5
47
102
{ACAD_REACTORS
330
C
102
}
330
C
100
AcDbDictionary
  3
A0
350
48
  3
A1
350
49
  3
A2
350
4A
  3
A3
350
4B
  3
A4
350
4C
  3
A5
350
4D
  3
A6
350
4E
  3
A7
350
4F
  3
A8
350
50
  3
A9
350
51
  3
B0
350
52
  3
B1
350
53
  3
B2
350
54
  3
B3
350
55
  3
B4
350
56
  3
B5
350
57
  3
B6
350
58
  3
B7
350
59
  3
B8
350
5A
  3
B9
350
5B
  3
C0
350
5C
  3
C1
350
5D
  3
C2
350
5E
  3
C3
350
5F
  3
C4
350
60
  3
C5
350
61
  3
C6
350
62
  3
C7
350
63
  3
C8
350
64
  3
C9
350
65
  3
D0
350
66
  3
D1
350
67
  3
D2
350
68
  0
DICTIONARY
  5
2A
102
{ACAD_REACTORS
330
C
102
}
330
C
100
AcDbDictionary
  3
2DWIREFRAME
350
2F
  3
BASIC
350
32
  3
BRIGHTEN
350
36
  3
COLORCHANGE
350
3A
  3
CONCEPTUAL
350
34
  3
DIM
350
35
  3
EDGECOLOROFF
350
3D
  3
FACEPATTERN
350
39
  3
FLAT
350
2B
  3
FLATWITHEDGES
350
2C
  3
GOURAUD
350
2D
  3
GOURAUDWITHEDGES
350
2E
  3
HIDDEN
350
31
  3
JITTEROFF
350
3B
  3
LINEPATTERN
350
38
  3
OVERHANGOFF
350
3C
  3
REALISTIC
350
33
  3
SHADED
350
42
  3
SHADED_WITH_EDGES
350
41
  3
SHADES_OF_GRAY
350
3E
  3
SKETCHY
350
3F
  3
THICKEN
350
37
  3
WIREFRAME
350
30
  3
X-RAY
350
40
  0
DICTIONARY
  5
10D
102
{ACAD_REACTORS
330
C
102
}
330
C
100
AcDbDictionary
  3
CEPSNTYPE
350
116
  3
DIMSTYLEDATA
350
12C
  3
FINGERPRINTGUID
350
117
  3
HYPERLINKBASE
350
110
  3
INSUNITS
350
115
  3
LAYOUTDICT
350
112
  3
LWETCUNION
350
114
  3
PLOTSETDICT
350
113
  3
PSVPSCALE
350
119
  3
PUCSBASE
350
11C
  3
PUCSORGBACK
350
122
  3
PUCSORGBOTTOM
350
11E
  3
PUCSORGFRONT
350
121
  3
PUCSORGLEFT
350
11F
  3
PUCSORGRIGHT
350
120
  3
PUCSORGTOP
350
11D
  3
PUCSORTHOREF
350
11A
  3
PUCSORTHOVIEW
350
11B
  3
STYLESHEET
350
111
  3
TSTACKALIGN
350
10E
  3
TSTACKSIZE
350
10F
  3
UCSBASE
350
125
  3
UCSORGBACK
350
12B
  3
UCSORGBOTTOM
350
127
  3
UCSORGFRONT
350
12A
  3
UCSORGLEFT
350
128
  3
UCSORGRIGHT
350
129
  3
UCSORGTOP
350
126
  3
UCSORTHOREF
350
123
  3
UCSORTHOVIEW
350
124
  3
VERSIONGUID
350
118
  0
DICTIONARY
  5
12D
102
{ACAD_REACTORS
330
C
102
}
330
C
100
AcDbDictionary
  3
CANNOSCALE
350
134
  3
DIMASSOC
350
132
  3
HIDETEXT
350
133
  3
MSLTSCALE
350
135
  0
MATERIAL
  5
45
102
{ACAD_REACTORS
330
43
102
}
102
{ACAD_XDICTIONARY
360
138
102
}
330
43
100
AcDbMaterial
  1
BYBLOCK
  0
MATERIAL
  5
44
102
{ACAD_REACTORS
330
43
102
}
102
{ACAD_XDICTIONARY
360
136
102
}
330
43
100
AcDbMaterial
  1
BYLAYER
  0
MATERIAL
  5
46
102
{ACAD_REACTORS
330
43
102
}
102
{ACAD_XDICTIONARY
360
13A
102
}
330
43
100
AcDbMaterial
  1
GLOBAL
  0
MLINESTYLE
  5
18
102
{ACAD_REACTORS
330
17
102
}
330
17
100
AcDbMlineStyle
  2
Standard
 70
     0
  3

 62
   256
 51
90.0
 52
90.0
 71
     2
 49
0.5
 62
   256
  6
BYLAYER
 49
-0.5
 62
   256
  6
BYLAYER
  0
ACAD_PROXY_OBJECT
  5
48
102
{ACAD_REACTORS
330
47
102
}
330
47
100
AcDbProxyObject
 90
      499
 91
      503
 93
       41
310
903313A31580
  0
ACAD_PROXY_OBJECT
  5
49
102
{ACAD_REACTORS
330
47
102
}
330
47
100
AcDbProxyObject
 90
      499
 91
      503
 93
      105
310
903313A324000000000000004000
  0
ACAD_PROXY_OBJECT
  5
4A
102
{ACAD_REACTORS
330
47
102
}
330
47
100
AcDbProxyObject
 90
      499
 91
      503
 93
      105
310
903313A344000000000000104000
  0
ACAD_PROXY_OBJECT
  5
4B
102
{ACAD_REACTORS
330
47
102
}
330
47
100
AcDbProxyObject
 90
      499
 91
      503
 93
      105
310
903313A354000000000000144000
  0
ACAD_PROXY_OBJECT
  5
4C
102
{ACAD_REACTORS
330
47
102
}
330
47
100
AcDbProxyObject
 90
      499
 91
      503
 93
      105
310
903313A384000000000000204000
  0
ACAD_PROXY_OBJECT
  5
4D
102
{ACAD_REACTORS
330
47
102
}
330
47
100
AcDbProxyObject
 90
      499
 91
      503
 93
      113
310
904313A31304000000000000244000
  0
ACAD_PROXY_OBJECT
  5
4E
102
{ACAD_REACTORS
330
47
102
}
330
47
100
AcDbProxyObject
 90
      499
 91
      503
 93
      113
310
904313A31364000000000000304000
  0
ACAD_PROXY_OBJECT
  5
4F
102
{ACAD_REACTORS
330
47
102
}
330
47
100
AcDbProxyObject
 90
      499
 91
      503
 93
      113
310
904313A32304000000000000344000
  0
ACAD_PROXY_OBJECT
  5
50
102
{ACAD_REACTORS
330
47
102
}
330
47
100
AcDbProxyObject
 90
      499
 91
      503
 93
      113
310
904313A333040000000000003E4000
  0
ACAD_PROXY_OBJECT
  5
51
102
{ACAD_REACTORS
330
47
102
}
330
47
100
AcDbProxyObject
 90
      499
 91
      503
 93
      113
310
904313A34304000000000000444000
  0
ACAD_PROXY_OBJECT
  5
52
102
{ACAD_REACTORS
330
47
102
}
330
47
100
AcDbProxyObject
 90
      499
 91
      503
 93
      113
310
904313A35304000000000000494000
  0
ACAD_PROXY_OBJECT
  5
53
102
{ACAD_REACTORS
330
47
102
}
330
47
100
AcDbProxyObject
 90
      499
 91
      503
 93
      121
310
905313A3130304000000000000594000
  0
ACAD_PROXY_OBJECT
  5
54
102
{ACAD_REACTORS
330
47
102
}
330
47
100
AcDbProxyObject
 90
      499
 91
      503
 93
      105
310
903323A310000000000000010100
  0
ACAD_PROXY_OBJECT
  5
55
102
{ACAD_REACTORS
330
47
102
}
330
47
100
AcDbProxyObject
 90
      499
 91
      503
 93
      105
310
903343A310000000000000410100
  0
ACAD_PROXY_OBJECT
  5
56
102
{ACAD_REACTORS
330
47
102
}
330
47
100
AcDbProxyObject
 90
      499
 91
      503
 93
      105
310
903383A310000000000000810100
  0
ACAD_PROXY_OBJECT
  5
57
102
{ACAD_REACTORS
330
47
102
}
330
47
100
AcDbProxyObject
 90
      499
 91
      503
 93
      113
310
90431303A310000000000000910100
  0
ACAD_PROXY_OBJECT
  5
58
102
{ACAD_REACTORS
330
47
102
}
330
47
100
AcDbProxyObject
 90
      499
 91
      503
 93
      121
310
9053130303A310000000000001650100
  0
ACAD_PROXY_OBJECT
  5
59
102
{ACAD_REACTORS
330
47
102
}
330
47
100
AcDbProxyObject
 90
      499
 91
      503
 93
      257
310
90E312F31323822203D2031272D3022000000000000200FC000000000000284000
  0
ACAD_PROXY_OBJECT
  5
5A
102
{ACAD_REACTORS
330
47
102
}
330
47
100
AcDbProxyObject
 90
      499
 91
      503
 93
      249
310
90D312F363422203D2031272D3022000000000000240FC000000000000284000
  0
ACAD_PROXY_OBJECT
  5
5B
102
{ACAD_REACTORS
330
47
102
}
330
47
100
AcDbProxyObject
 90
      499
 91
      503
 93
      249
310
90D312F333222203D2031272D3022000000000000280FC000000000000284000
  0
ACAD_PROXY_OBJECT
  5
5C
102
{ACAD_REACTORS
330
47
102
}
330
47
100
AcDbProxyObject
 90
      499
 91
      503
 93
      249
310
90D312F313622203D2031272D30220000000000002C0FC000000000000284000
  0
ACAD_PROXY_OBJECT
  5
5D
102
{ACAD_REACTORS
330
47
102
}
330
47
100
AcDbProxyObject
 90
      499
 91
      503
 93
      249
310
90D332F333222203D2031272D30220000000000002E0FC000000000000284000
  0
ACAD_PROXY_OBJECT
  5
5E
102
{ACAD_REACTORS
330
47
102
}
330
47
100
AcDbProxyObject
 90
      499
 91
      503
 93
      241
310
90C312F3822203D2031272D3022000000000000300FC000000000000284000
  0
ACAD_PROXY_OBJECT
  5
5F
102
{ACAD_REACTORS
330
47
102
}
330
47
100
AcDbProxyObject
 90
      499
 91
      503
 93
      249
310
90D332F313622203D2031272D3022000000000000320FC000000000000284000
  0
ACAD_PROXY_OBJECT
  5
60
102
{ACAD_REACTORS
330
47
102
}
330
47
100
AcDbProxyObject
 90
      499
 91
      503
 93
      241
310
90C312F3422203D2031272D3022000000000000340FC000000000000284000
  0
ACAD_PROXY_OBJECT
  5
61
102
{ACAD_REACTORS
330
47
102
}
330
47
100
AcDbProxyObject
 90
      499
 91
      503
 93
      241
310
90C332F3822203D2031272D3022000000000000360FC000000000000284000
  0
ACAD_PROXY_OBJECT
  5
62
102
{ACAD_REACTORS
330
47
102
}
330
47
100
AcDbProxyObject
 90
      499
 91
      503
 93
      241
310
90C312F3222203D2031272D3022000000000000380FC000000000000284000
  0
ACAD_PROXY_OBJECT
  5
63
102
{ACAD_REACTORS
330
47
102
}
330
47
100
AcDbProxyObject
 90
      499
 91
      503
 93
      241
310
90C332F3422203D2031272D30220000000000003A0FC000000000000284000
  0
ACAD_PROXY_OBJECT
  5
64
102
{ACAD_REACTORS
330
47
102
}
330
47
100
AcDbProxyObject
 90
      499
 91
      503
 93
      161
310
90A3122203D2031272D30224000000000000284000
  0
ACAD_PROXY_OBJECT
  5
65
102
{ACAD_REACTORS
330
47
102
}
330
47
100
AcDbProxyObject
 90
      499
 91
      503
 93
      257
310
90E312D312F3222203D2031272D30220000000000003E0FC000000000000284000
  0
ACAD_PROXY_OBJECT
  5
66
102
{ACAD_REACTORS
330
47
102
}
330
47
100
AcDbProxyObject
 90
      499
 91
      503
 93
      225
310
90A3322203D2031272D302200000000000002100000000000000284000
  0
ACAD_PROXY_OBJECT
  5
67
102
{ACAD_REACTORS
330
47
102
}
330
47
100
AcDbProxyObject
 90
      499
 91
      503
 93
      225
310
90A3622203D2031272D302200000000000006100000000000000284000
  0
ACAD_PROXY_OBJECT
  5
68
102
{ACAD_REACTORS
330
47
102
}
330
47
100
AcDbProxyObject
 90
      499
 91
      503
 93
      249
310
90D31272D3022203D2031272D30220000000000000A100000000000000284000
  0
ACAD_PROXY_OBJECT
  5
2F
102
{ACAD_REACTORS
330
2A
102
}
330
2A
100
AcDbProxyObject
 90
      499
 91
      501
 93
      436
310
42CC9915DA5C99599C985B595049028333333333333E33F0000000000000F90107901411070040501600405405064090741402480A0340
1001
ACAD
1000
AcDbSavedByObjectVersion
1070
     0
  0
ACAD_PROXY_OBJECT
  5
32
102
{ACAD_REACTORS
330
2A
102
}
330
2A
100
AcDbProxyObject
 90
      499
 91
      501
 93
      388
310
4150985CDA58D07406404333333333333E33F0000000000000F90107A41107004050150841D405064090741402480A0350
1001
ACAD
1000
AcDbSavedByObjectVersion
1070
     0
  0
ACAD_PROXY_OBJECT
  5
36
102
{ACAD_REACTORS
330
2A
102
}
330
2A
100
AcDbProxyObject
 90
      499
 91
      501
 93
      428
310
42109C9A59DA1D195B90C409028333333333333E33F0000000000000F9010790141107004050150841D405064090741402480A029950
1001
ACAD
1000
AcDbSavedByObjectVersion
1070
     0
  0
ACAD_PROXY_OBJECT
  5
3A
102
{ACAD_REACTORS
330
2A
102
}
330
2A
100
AcDbProxyObject
 90
      499
 91
      501
 93
      452
310
42D0DBDB1BDC90DA185B99D95104090240C333333333333E33F0000000000000F90108901411070040501508421405064090741402480A0350
1001
ACAD
1000
AcDbSavedByObjectVersion
1070
     0
  0
ACAD_PROXY_OBJECT
  5
34
102
{ACAD_REACTORS
330
2A
102
}
330
2A
100
AcDbProxyObject
 90
      499
 91
      501
 93
      500
310
4290DBDB98D95C1D1D585B10940D028333333333333E33F0000000000000F90107902409070040501000000000018199010841D405064090740C02480A0340
1001
ACAD
1000
AcDbSavedByObjectVersion
1070
     0
  0
ACAD_PROXY_OBJECT
  5
35
102
{ACAD_REACTORS
330
2A
102
}
330
2A
100
AcDbProxyObject
 90
      499
 91
      501
 93
      412
310
40D11A5B50B409028333333333333E33F0000000000000F9010790141107004050150841D405064090741402480A02677FFFFFD0
1001
ACAD
1000
AcDbSavedByObjectVersion
1070
     0
  0
ACAD_PROXY_OBJECT
  5
3D
102
{ACAD_REACTORS
330
2A
102
}
330
2A
100
AcDbProxyObject
 90
      499
 91
      501
 93
      452
310
43115919D950DBDB1BDC93D999916409028333333333333E33F0000000000000F9010790141107004050150841D405064090741402480A0350
1001
ACAD
1000
AcDbSavedByObjectVersion
1070
     0
  0
ACAD_PROXY_OBJECT
  5
39
102
{ACAD_REACTORS
330
2A
102
}
330
2A
100
AcDbProxyObject
 90
      499
 91
      501
 93
      444
310
42D19858D95C185D1D195C9B90F409028333333333333E33F0000000000000F9010790141107004050150841D405064090741402480A0350
1001
ACAD
1000
AcDbSavedByObjectVersion
1070
     0
  0
ACAD_PROXY_OBJECT
  5
2B
102
{ACAD_REACTORS
330
2A
102
}
330
2A
100
AcDbProxyObject
 90
      499
 91
      501
 93
      380
310
41119B185D240901404333333333333E33F0000000000000F9010740A907004050150841D405064090741402480A1B50
1001
ACAD
1000
AcDbSavedByObjectVersion
1070
     0
  0
ACAD_PROXY_OBJECT
  5
2C
102
{ACAD_REACTORS
330
2A
102
}
330
2A
100
AcDbProxyObject
 90
      499
 91
      501
 93
      468
310
43519B185D15DA5D1A115919D95CD0140901404333333333333E33F0000000000000F90107409019070040501600405405064090741402480A1B50
1001
ACAD
1000
AcDbSavedByObjectVersion
1070
     0
  0
ACAD_PROXY_OBJECT
  5
2D
102
{ACAD_REACTORS
330
2A
102
}
330
2A
100
AcDbProxyObject
 90
      499
 91
      501
 93
      404
310
41D1DBDD5C985D5910240902404333333333333E33F0000000000000F9010740A9070040501641D405064090741402480A1B50
1001
ACAD
1000
AcDbSavedByObjectVersion
1070
     0
  0
ACAD_PROXY_OBJECT
  5
2E
102
{ACAD_REACTORS
330
2A
102
}
330
2A
100
AcDbProxyObject
 90
      499
 91
      501
 93
      492
310
4411DBDD5C985D5915DA5D1A115919D95CD0340902404333333333333E33F0000000000000F90107409019070040501600405405064090741402480A1B50
1001
ACAD
1000
AcDbSavedByObjectVersion
1070
     0
  0
ACAD_PROXY_OBJECT
  5
31
102
{ACAD_REACTORS
330
2A
102
}
330
2A
100
AcDbProxyObject
 90
      499
 91
      501
 93
      476
310
41921A5919195B90640502408333333333333E33F0000000000000F901079024090700405020000000000001110200405405064090740C02480A0340
1001
ACAD
1000
AcDbSavedByObjectVersion
1070
     0
  0
ACAD_PROXY_OBJECT
  5
3B
102
{ACAD_REACTORS
330
2A
102
}
330
2A
100
AcDbProxyObject
 90
      499
 91
      501
 93
      428
310
42529A5D1D195C93D999914409028333333333333E33F0000000000000F9010790141107004050150A41D405064090741402480A0350
1001
ACAD
1000
AcDbSavedByObjectVersion
1070
     0
  0
ACAD_PROXY_OBJECT
  5
38
102
{ACAD_REACTORS
330
2A
102
}
330
2A
100
AcDbProxyObject
 90
      499
 91
      501
 93
      444
310
42D31A5B995C185D1D195C9B90E409028333333333333E33F0000000000000F9010790141107004050750841D405064090741402483A0350
1001
ACAD
1000
AcDbSavedByObjectVersion
1070
     0
  0
ACAD_PROXY_OBJECT
  5
3C
102
{ACAD_REACTORS
330
2A
102
}
330
2A
100
AcDbProxyObject
 90
      499
 91
      501
 93
      444
310
42D3DD995C9A185B99D3D999915409028333333333333E33F0000000000000F9010790141107004050150941D405064090741402480A0350
1001
ACAD
1000
AcDbSavedByObjectVersion
1070
     0
  0
ACAD_PROXY_OBJECT
  5
33
102
{ACAD_REACTORS
330
2A
102
}
330
2A
100
AcDbProxyObject
 90
      499
 91
      501
 93
      428
310
425499585B1A5CDD1A58D08409038333333333333E33F0000000000000F9010740A907004050150800405405064090740C02480A1B40
1001
ACAD
1000
AcDbSavedByObjectVersion
1070
     0
  0
ACAD_PROXY_OBJECT
  5
42
102
{ACAD_REACTORS
330
2A
102
}
330
2A
100
AcDbProxyObject
 90
      499
 91
      501
 93
      420
310
4194DA1859195911B40902404333333333333E33F0000000000000F9010740A41107004050150800405405064090840C02480A0B40
1001
ACAD
1000
AcDbSavedByObjectVersion
1070
     0
  0
ACAD_PROXY_OBJECT
  5
41
102
{ACAD_REACTORS
330
2A
102
}
330
2A
100
AcDbProxyObject
 90
      499
 91
      501
 93
      516
310
4454DA18591959081DDA5D1A08195919D95CD1A40902404333333333333E33F0000000000000F901074090142907004050250800405405064090740C02480A0B40
1001
ACAD
1000
AcDbSavedByObjectVersion
1070
     0
  0
ACAD_PROXY_OBJECT
  5
3E
102
{ACAD_REACTORS
330
2A
102
}
330
2A
100
AcDbProxyObject
 90
      499
 91
      501
 93
      532
310
4394DA1859195CC81BD98811DC985E5174090240C333333333333E33F0000000000000F901079024090741D01000000000000111010841D405064090740C02480A0340
1001
ACAD
1000
AcDbSavedByObjectVersion
1070
     0
  0
ACAD_PROXY_OBJECT
  5
3F
102
{ACAD_REACTORS
330
2A
102
}
330
2A
100
AcDbProxyObject
 90
      499
 91
      501
 93
      476
310
41D4DAD95D18DA1E51840502408333333333333E33F0000000000000F901079024090741D01000000000000111010B41D405064090741802480A0340
1001
ACAD
1000
AcDbSavedByObjectVersion
1070
     0
  0
ACAD_PROXY_OBJECT
  5
37
102
{ACAD_REACTORS
330
2A
102
}
330
2A
100
AcDbProxyObject
 90
      499
 91
      501
 93
      412
310
41D51A1A58DAD95B90D409028333333333333E33F0000000000000F9010790141107004050150C41D405064090741402480A0350
1001
ACAD
1000
AcDbSavedByObjectVersion
1070
     0
  0
ACAD_PROXY_OBJECT
  5
30
102
{ACAD_REACTORS
330
2A
102
}
330
2A
100
AcDbProxyObject
 90
      499
 91
      501
 93
      420
310
4255DA5C99599C985B595059028333333333333E33F0000000000000F90107901411070040501600405405064090740C02480A0340
1001
ACAD
1000
AcDbSavedByObjectVersion
1070
     0
  0
ACAD_PROXY_OBJECT
  5
40
102
{ACAD_REACTORS
330
2A
102
}
330
2A
100
AcDbProxyObject
 90
      499
 91
      501
 93
      404
310
41560B54985E51940902404000000000000E03F0000000000000F9010740501907004050150841D405064090740C02480A1B40
1001
ACAD
1000
AcDbSavedByObjectVersion
1070
     0
  0
XRECORD
  5
116
102
{ACAD_REACTORS
330
10D
102
}
330
10D
100
AcDbXrecord
 90
        0
  0
XRECORD
  5
12C
102
{ACAD_REACTORS
330
10D
102
}
330
10D
100
AcDbXrecord
1000
DSTYLE
1002
{
1070
   279
 70
     2
1070
   340
340
11
1002
}
  0
XRECORD
  5
117
102
{ACAD_REACTORS
330
10D
102
}
330
10D
100
AcDbXrecord
  1
{56BD3546-113D-4A62-BAF8-34EE37C7EFA4}
  0
XRECORD
  5
110
102
{ACAD_REACTORS
330
10D
102
}
330
10D
100
AcDbXrecord
  1

  0
XRECORD
  5
115
102
{ACAD_REACTORS
330
10D
102
}
330
10D
100
AcDbXrecord
 90
        4
  0
XRECORD
  5
112
102
{ACAD_REACTORS
330
10D
102
}
330
10D
100
AcDbXrecord
340
1A
  0
XRECORD
  5
114
102
{ACAD_REACTORS
330
10D
102
}
330
10D
100
AcDbXrecord
 90
    10781
  0
XRECORD
  5
113
102
{ACAD_REACTORS
330
10D
102
}
330
10D
100
AcDbXrecord
340
19
  0
XRECORD
  5
119
102
{ACAD_REACTORS
330
10D
102
}
330
10D
100
AcDbXrecord
 40
0.0
  0
XRECORD
  5
11C
102
{ACAD_REACTORS
330
10D
102
}
330
10D
100
AcDbXrecord
340
0
  0
XRECORD
  5
122
102
{ACAD_REACTORS
330
10D
102
}
330
10D
100
AcDbXrecord
 10
0.0
 20
0.0
 30
0.0
  0
XRECORD
  5
11E
102
{ACAD_REACTORS
330
10D
102
}
330
10D
100
AcDbXrecord
 10
0.0
 20
0.0
 30
0.0
  0
XRECORD
  5
121
102
{ACAD_REACTORS
330
10D
102
}
330
10D
100
AcDbXrecord
 10
0.0
 20
0.0
 30
0.0
  0
XRECORD
  5
11F
102
{ACAD_REACTORS
330
10D
102
}
330
10D
100
AcDbXrecord
 10
0.0
 20
0.0
 30
0.0
  0
XRECORD
  5
120
102
{ACAD_REACTORS
330
10D
102
}
330
10D
100
AcDbXrecord
 10
0.0
 20
0.0
 30
0.0
  0
XRECORD
  5
11D
102
{ACAD_REACTORS
330
10D
102
}
330
10D
100
AcDbXrecord
 10
0.0
 20
0.0
 30
0.0
  0
XRECORD
  5
11A
102
{ACAD_REACTORS
330
10D
102
}
330
10D
100
AcDbXrecord
340
0
  0
XRECORD
  5
11B
102
{ACAD_REACTORS
330
10D
102
}
330
10D
100
AcDbXrecord
 70
     0
  0
XRECORD
  5
111
102
{ACAD_REACTORS
330
10D
102
}
330
10D
100
AcDbXrecord
  1

  0
XRECORD
  5
10E
102
{ACAD_REACTORS
330
10D
102
}
330
10D
100
AcDbXrecord
 90
        1
  0
XRECORD
  5
10F
102
{ACAD_REACTORS
330
10D
102
}
330
10D
100
AcDbXrecord
 90
       70
  0
XRECORD
  5
125
102
{ACAD_REACTORS
330
10D
102
}
330
10D
100
AcDbXrecord
340
0
  0
XRECORD
  5
12B
102
{ACAD_REACTORS
330
10D
102
}
330
10D
100
AcDbXrecord
 10
0.0
 20
0.0
 30
0.0
  0
XRECORD
  5
127
102
{ACAD_REACTORS
330
10D
102
}
330
10D
100
AcDbXrecord
 10
0.0
 20
0.0
 30
0.0
  0
XRECORD
  5
12A
102
{ACAD_REACTORS
330
10D
102
}
330
10D
100
AcDbXrecord
 10
0.0
 20
0.0
 30
0.0
  0
XRECORD
  5
128
102
{ACAD_REACTORS
330
10D
102
}
330
10D
100
AcDbXrecord
 10
0.0
 20
0.0
 30
0.0
  0
XRECORD
  5
129
102
{ACAD_REACTORS
330
10D
102
}
330
10D
100
AcDbXrecord
 10
0.0
 20
0.0
 30
0.0
  0
XRECORD
  5
126
102
{ACAD_REACTORS
330
10D
102
}
330
10D
100
AcDbXrecord
 10
0.0
 20
0.0
 30
0.0
  0
XRECORD
  5
123
102
{ACAD_REACTORS
330
10D
102
}
330
10D
100
AcDbXrecord
340
0
  0
XRECORD
  5
124
102
{ACAD_REACTORS
330
10D
102
}
330
10D
100
AcDbXrecord
 70
     0
  0
XRECORD
  5
118
102
{ACAD_REACTORS
330
10D
102
}
330
10D
100
AcDbXrecord
  1
{FAEB1C32-E019-11D5-929B-00C0DF256EC4}
  0
DICTIONARYVAR
  5
134
102
{ACAD_REACTORS
330
12D
102
}
330
12D
100
DictionaryVariables
280
     0
  1
1:1
  0
DICTIONARYVAR
  5
132
102
{ACAD_REACTORS
330
12D
102
}
330
12D
100
DictionaryVariables
280
     0
  1
2
  0
DICTIONARYVAR
  5
133
102
{ACAD_REACTORS
330
12D
102
}
330
12D
100
DictionaryVariables
280
     0
  1
1
  0
DICTIONARYVAR
  5
135
102
{ACAD_REACTORS
330
12D
102
}
330
12D
100
DictionaryVariables
280
     0
  1
1
  0
DICTIONARY
  5
138
330
45
100
AcDbDictionary
280
     1
  3
ACAD_XREC_ROUNDTRIP
360
139
  0
DICTIONARY
  5
136
330
44
100
AcDbDictionary
280
     1
  3
ACAD_XREC_ROUNDTRIP
360
137
  0
DICTIONARY
  5
13A
330
46
100
AcDbDictionary
280
     1
  3
ACAD_XREC_ROUNDTRIP
360
13B
  0
XRECORD
  5
139
102
{ACAD_REACTORS
330
138
102
}
330
138
100
AcDbXrecord
102
MATERIAL
148
0.0
149
0.0
149
0.0
 93
        0
 94
      127
282
     0
 72
     1
 77
     1
171
     1
175
     1
179
     1
273
     0
  0
XRECORD
  5
137
102
{ACAD_REACTORS
330
136
102
}
330
136
100
AcDbXrecord
102
MATERIAL
148
0.0
149
0.0
149
0.0
 93
        0
 94
      127
282
     0
 72
     1
 77
     1
171
     1
175
     1
179
     1
273
     0
  0
XRECORD
  5
13B
102
{ACAD_REACTORS
330
13A
102
}
330
13A
100
AcDbXrecord
102
MATERIAL
148
0.0
149
0.0
149
0.0
 93
        0
 94
      127
282
     0
 72
     1
 77
     1
171
     1
175
     1
179
     1
273
     0
  0
ENDSEC
  0
EOF
